<svg xmlns="http://www.w3.org/2000/svg" xmlns:xlink="http://www.w3.org/1999/xlink" width="800" zoomAndPan="magnify" viewBox="0 0 600 599.999999" height="800" preserveAspectRatio="xMidYMid meet" version="1.0"><path fill="#d0b099" d="M 121.101562 240.050781 C 133.753906 241.171875 146.328125 242.914062 159.015625 243.609375 C 183.851562 244.964844 208.691406 247.09375 233.566406 247.90625 C 244.902344 248.292969 256.160156 249.457031 267.496094 249.222656 C 281.265625 248.953125 295 247.867188 308.8125 247.675781 C 359.957031 246.941406 410.328125 244.8125 460.96875 237.070312 C 485.691406 233.273438 509.558594 227.699219 533.621094 221.042969 C 541.941406 218.757812 550.414062 218.835938 558.460938 215.660156 C 565.308594 212.953125 572.308594 210.9375 579.390625 209.003906 C 578.113281 203.3125 576.679688 197.660156 574.980469 192.007812 C 572.734375 184.5 569.679688 177.878906 568.324219 170.058594 C 566.972656 162.085938 564.960938 153.335938 560.898438 146.253906 C 559.464844 143.734375 557.761719 141.453125 555.945312 139.246094 C 555.09375 139.515625 554.242188 139.789062 553.390625 140.097656 C 541.050781 144.199219 529.289062 148.84375 516.679688 152.289062 C 504.800781 155.503906 493.039062 158.058594 480.96875 160.421875 C 456.09375 165.21875 430.832031 169.671875 405.570312 171.105469 C 396.59375 171.609375 387.152344 173.386719 378.292969 175.128906 C 366.070312 177.53125 353.070312 177.53125 340.574219 177.996094 C 285.5625 180.085938 230.625 178.925781 175.730469 176.253906 C 161.453125 175.554688 146.945312 176.214844 132.746094 174.78125 C 120.289062 173.542969 108.066406 172.382812 95.570312 171.683594 C 82.609375 170.988281 69.6875 170.949219 56.765625 169.054688 C 50.925781 168.203125 44.964844 167.464844 39.046875 166.460938 C 34.90625 175.324219 31.195312 184.382812 27.828125 193.789062 C 24 204.511719 22.257812 215.351562 21.136719 226.382812 C 20.75 228.203125 20.402344 230.0625 20.050781 231.882812 C 41.910156 234.511719 63.691406 235.90625 85.511719 238.308594 C 97.347656 239.660156 109.265625 238.964844 121.101562 240.050781 Z M 121.101562 240.050781 " fill-opacity="1" fill-rule="nonzero"/><path fill="#d0b099" d="M 77.152344 106.03125 C 95.105469 107.964844 113.015625 110.523438 130.929688 112.765625 C 152.207031 115.4375 173.792969 115.671875 195.148438 118.1875 C 216.351562 120.664062 237.9375 121.050781 259.214844 121.285156 C 278.90625 121.476562 298.597656 122.484375 318.289062 122.714844 C 339.605469 122.949219 361.425781 119.117188 382.511719 116.328125 C 423.289062 110.949219 463.910156 105.566406 502.867188 92.132812 C 505.960938 91.050781 509.09375 89.964844 512.230469 88.882812 C 506.929688 84.042969 501.320312 79.785156 496.558594 74.367188 C 486.152344 62.519531 472.109375 54.234375 459.34375 45.527344 C 451.992188 40.492188 444.449219 35.730469 436.710938 31.28125 C 433.113281 31.433594 429.554688 31.707031 426.035156 32.09375 C 384.871094 36.621094 343.746094 44.210938 302.351562 45.953125 C 282.273438 46.804688 262.195312 49.320312 242.15625 50.675781 C 219.445312 52.222656 196.773438 53.191406 174.066406 54.507812 C 158.9375 55.359375 143.734375 56.945312 128.570312 58.144531 C 125.125 60.351562 121.683594 62.558594 118.355469 64.726562 C 103.847656 74.210938 93.75 87.722656 82.105469 100.1875 C 80.328125 102.042969 78.742188 104.019531 77.152344 106.03125 Z M 77.152344 106.03125 " fill-opacity="1" fill-rule="nonzero"/><path fill="#e7d7c7" d="M 558.265625 390.636719 C 559.464844 386.222656 560.898438 381.847656 562.367188 377.511719 C 562.5625 377.320312 562.714844 377.085938 562.832031 376.777344 C 568.519531 361.023438 575.597656 343.71875 576.796875 326.957031 C 577.996094 310.078125 582.640625 293.082031 584.574219 276.207031 C 585.347656 269.664062 584.109375 263.972656 584.109375 257.585938 C 584.148438 249.457031 583.566406 241.25 583.027344 233.160156 C 582.058594 219.066406 579.003906 205.558594 574.941406 192.046875 C 572.695312 184.539062 569.640625 177.917969 568.285156 170.097656 C 566.933594 162.125 564.921875 153.375 560.859375 146.289062 C 557.066406 139.671875 551.726562 134.523438 546.699219 128.949219 C 541.320312 123.027344 537.257812 116.210938 531.84375 110.25 C 526.15625 104.058594 520.933594 97.398438 514.976562 91.476562 C 508.941406 85.476562 502.132812 80.753906 496.523438 74.367188 C 486.113281 62.519531 472.070312 54.234375 459.304688 45.527344 C 445.996094 36.46875 432.148438 27.988281 417.445312 21.253906 C 410.597656 18.078125 403.09375 15.640625 395.820312 13.667969 C 388.625 11.691406 381.234375 12.117188 374.347656 9.601562 C 367.074219 6.929688 359.53125 7.976562 352.179688 5.730469 C 344.675781 3.40625 338.679688 2.828125 330.785156 2.363281 C 323.9375 1.976562 317.089844 0.078125 310.359375 0.425781 C 301.808594 0.851562 293.183594 0.503906 284.554688 1.007812 C 269.855469 1.859375 255.347656 3.292969 240.917969 6.929688 C 226.175781 10.648438 212.210938 15.949219 198.011719 21.332031 C 182.847656 27.097656 168.496094 34.222656 153.792969 40.804688 C 147.992188 43.398438 143.617188 47.730469 138.550781 51.449219 C 132.167969 56.09375 124.933594 60.507812 118.316406 64.804688 C 103.808594 74.289062 93.710938 87.796875 82.066406 100.261719 C 75.953125 106.804688 71.390625 114.316406 65.972656 121.398438 C 62.722656 125.695312 58.816406 129.257812 56.070312 133.941406 C 54.058594 137.347656 52.703125 141.105469 50.691406 144.511719 C 41.214844 160.34375 34.058594 176.523438 27.867188 193.867188 C 24.035156 204.589844 22.296875 215.429688 21.175781 226.460938 C 17.886719 241.328125 15.988281 256.539062 15.527344 272.410156 C 14.597656 303.457031 21.5625 332.492188 31.542969 361.5625 C 36.917969 377.203125 43.730469 392.300781 50.460938 407.398438 C 57.269531 422.6875 64.273438 437.554688 73.015625 451.839844 C 88.992188 477.851562 111.199219 499.375 137.542969 514.628906 C 145.242188 519.078125 152.246094 524.691406 160.097656 528.910156 C 167.21875 532.746094 175.226562 535.066406 182.808594 537.777344 C 199.519531 543.699219 215.578125 549.195312 232.871094 553.027344 C 245.753906 555.894531 258.867188 558.332031 271.867188 560.074219 C 287.535156 562.164062 303.550781 563.171875 319.375 562.011719 C 348.542969 559.917969 375.78125 550.667969 402.359375 539.402344 C 408.742188 536.691406 414.195312 536.808594 420.347656 533.132812 C 427.3125 528.988281 434.507812 525.390625 441.429688 521.167969 C 453.8125 513.542969 466.773438 507.273438 477.527344 497.402344 C 483.175781 492.253906 489.519531 488.226562 495.285156 483.195312 C 500.699219 478.472656 505.265625 472.898438 510.179688 467.671875 C 520.664062 456.5625 530.722656 446.148438 538.882812 432.984375 C 547.316406 419.476562 554.125 405.925781 558.265625 390.636719 Z M 558.265625 390.636719 " fill-opacity="1" fill-rule="nonzero"/><path fill="#d8c4b2" d="M 583.066406 233.121094 C 582.097656 219.027344 579.042969 205.519531 574.980469 192.007812 C 572.734375 184.5 569.679688 177.878906 568.324219 170.058594 C 566.972656 162.085938 564.960938 153.335938 560.898438 146.253906 C 557.105469 139.632812 551.765625 134.484375 546.738281 128.910156 C 541.359375 122.988281 537.296875 116.171875 531.882812 110.210938 C 526.195312 104.019531 520.972656 97.359375 515.015625 91.4375 C 508.980469 85.4375 502.171875 80.714844 496.5625 74.328125 C 486.152344 62.480469 472.109375 54.195312 459.34375 45.488281 C 446.035156 36.429688 432.183594 27.949219 417.484375 21.214844 C 410.636719 18.039062 403.132812 15.601562 395.859375 13.628906 C 388.664062 11.652344 381.273438 12.078125 374.386719 9.5625 C 367.113281 6.890625 359.570312 7.9375 352.21875 5.691406 C 350.324219 5.109375 348.503906 4.648438 346.726562 4.222656 C 349.628906 5.652344 352.488281 7.203125 355.3125 8.945312 C 364.328125 14.480469 373.613281 19.9375 382.203125 26.054688 C 390.675781 32.054688 399.921875 36.15625 408.007812 42.894531 C 423.984375 56.171875 440.195312 67.902344 452.417969 85.011719 C 458.144531 93.023438 464.992188 99.835938 470.058594 108.394531 C 476.441406 119.152344 481.667969 130.03125 486.230469 141.722656 C 501.898438 181.789062 510.992188 226.269531 509.984375 269.316406 C 509.519531 289.871094 508.167969 310.195312 507.121094 330.710938 C 506 352.777344 499.925781 376.042969 493.890625 397.292969 C 481.9375 439.449219 457.71875 476.070312 420.578125 500.226562 C 411.992188 505.800781 404.71875 512.226562 395.703125 517.222656 C 385.140625 523.066406 374.8125 528.410156 363.59375 533.015625 C 344.40625 540.914062 325.523438 550.085938 305.40625 555.507812 C 298.25 557.441406 291.171875 559.417969 284.050781 561.390625 C 295.773438 562.472656 307.613281 562.824219 319.335938 561.972656 C 348.503906 559.878906 375.742188 550.628906 402.320312 539.363281 C 408.703125 536.652344 414.15625 536.769531 420.308594 533.09375 C 427.273438 528.949219 434.46875 525.351562 441.394531 521.132812 C 453.773438 513.503906 466.734375 507.234375 477.488281 497.363281 C 483.136719 492.214844 489.480469 488.1875 495.246094 483.15625 C 500.660156 478.433594 505.226562 472.859375 510.140625 467.632812 C 520.625 456.523438 530.683594 446.109375 538.84375 432.945312 C 547.242188 419.476562 554.050781 405.925781 558.1875 390.636719 C 559.386719 386.222656 560.820312 381.847656 562.289062 377.511719 C 562.484375 377.320312 562.636719 377.085938 562.753906 376.777344 C 568.441406 361.023438 575.519531 343.71875 576.71875 326.957031 C 577.917969 310.078125 582.5625 293.082031 584.496094 276.207031 C 585.269531 269.664062 584.03125 263.972656 584.03125 257.585938 C 584.148438 249.457031 583.605469 241.25 583.066406 233.121094 Z M 583.066406 233.121094 " fill-opacity="1" fill-rule="nonzero"/><path fill="#d0b099" d="M 121.101562 240.050781 C 133.753906 241.171875 146.328125 242.914062 159.015625 243.609375 C 183.851562 244.964844 208.691406 247.09375 233.566406 247.90625 C 244.902344 248.292969 256.160156 249.457031 267.496094 249.222656 C 281.265625 248.953125 295 247.867188 308.8125 247.675781 C 359.957031 246.941406 410.328125 244.8125 460.96875 237.070312 C 485.691406 233.273438 509.558594 227.699219 533.621094 221.042969 C 541.941406 218.757812 550.414062 218.835938 558.460938 215.660156 C 565.308594 212.953125 572.308594 210.9375 579.390625 209.003906 C 578.113281 203.3125 576.679688 197.660156 574.980469 192.007812 C 572.734375 184.5 569.679688 177.878906 568.324219 170.058594 C 566.972656 162.085938 564.960938 153.335938 560.898438 146.253906 C 559.464844 143.734375 557.761719 141.453125 555.945312 139.246094 C 555.09375 139.515625 554.242188 139.789062 553.390625 140.097656 C 541.050781 144.199219 529.289062 148.84375 516.679688 152.289062 C 504.800781 155.503906 493.039062 158.058594 480.96875 160.421875 C 456.09375 165.21875 430.832031 169.671875 405.570312 171.105469 C 396.59375 171.609375 387.152344 173.386719 378.292969 175.128906 C 366.070312 177.53125 353.070312 177.53125 340.574219 177.996094 C 285.5625 180.085938 230.625 178.925781 175.730469 176.253906 C 161.453125 175.554688 146.945312 176.214844 132.746094 174.78125 C 120.289062 173.542969 108.066406 172.382812 95.570312 171.683594 C 82.609375 170.988281 69.6875 170.949219 56.765625 169.054688 C 50.925781 168.203125 44.964844 167.464844 39.046875 166.460938 C 34.90625 175.324219 31.195312 184.382812 27.828125 193.789062 C 24 204.511719 22.257812 215.351562 21.136719 226.382812 C 20.75 228.203125 20.402344 230.0625 20.050781 231.882812 C 41.910156 234.511719 63.691406 235.90625 85.511719 238.308594 C 97.347656 239.660156 109.265625 238.964844 121.101562 240.050781 Z M 121.101562 240.050781 " fill-opacity="1" fill-rule="nonzero"/><path fill="#c1a18b" d="M 560.859375 146.175781 C 560.085938 144.820312 559.195312 143.542969 558.304688 142.304688 C 557.53125 141.257812 556.757812 140.25 555.984375 139.285156 C 555.132812 139.554688 554.28125 139.824219 553.429688 140.136719 C 541.089844 144.238281 529.328125 148.882812 516.714844 152.328125 C 508.554688 154.535156 500.390625 156.394531 492.1875 158.136719 C 499.734375 180.550781 505.109375 204.046875 507.894531 227.699219 C 516.484375 225.648438 525.074219 223.441406 533.660156 221.082031 C 541.980469 218.796875 550.453125 218.875 558.5 215.699219 C 565.347656 212.988281 572.386719 210.976562 579.429688 209.042969 C 578.578125 205.171875 577.570312 201.339844 576.527344 197.46875 C 576.023438 195.648438 575.558594 193.867188 575.019531 192.046875 C 573.507812 187.015625 571.652344 182.332031 570.183594 177.492188 C 569.445312 175.09375 568.789062 172.691406 568.363281 170.097656 C 568.015625 168.125 567.628906 166.070312 567.203125 164.019531 C 566.777344 161.96875 566.234375 159.917969 565.65625 157.867188 C 564.496094 153.800781 562.949219 149.8125 560.9375 146.289062 C 560.898438 146.214844 560.898438 146.214844 560.859375 146.175781 Z M 560.859375 146.175781 " fill-opacity="1" fill-rule="nonzero"/><path fill="#d0b099" d="M 77.152344 106.03125 C 95.105469 107.964844 113.015625 110.523438 130.929688 112.765625 C 152.207031 115.4375 173.792969 115.671875 195.148438 118.1875 C 216.351562 120.664062 237.9375 121.050781 259.214844 121.285156 C 278.90625 121.476562 298.597656 122.484375 318.289062 122.714844 C 339.605469 122.949219 361.425781 119.117188 382.511719 116.328125 C 423.289062 110.949219 463.910156 105.566406 502.867188 92.132812 C 505.960938 91.050781 509.09375 89.964844 512.230469 88.882812 C 506.929688 84.042969 501.320312 79.785156 496.558594 74.367188 C 486.152344 62.519531 472.109375 54.234375 459.34375 45.527344 C 451.992188 40.492188 444.449219 35.730469 436.710938 31.28125 C 433.113281 31.433594 429.554688 31.707031 426.035156 32.09375 C 384.871094 36.621094 343.746094 44.210938 302.351562 45.953125 C 282.273438 46.804688 262.195312 49.320312 242.15625 50.675781 C 219.445312 52.222656 196.773438 53.191406 174.066406 54.507812 C 158.9375 55.359375 143.734375 56.945312 128.570312 58.144531 C 125.125 60.351562 121.683594 62.558594 118.355469 64.726562 C 103.847656 74.210938 93.75 87.722656 82.105469 100.1875 C 80.328125 102.042969 78.742188 104.019531 77.152344 106.03125 Z M 77.152344 106.03125 " fill-opacity="1" fill-rule="nonzero"/><path fill="#c1a18b" d="M 436.710938 31.242188 C 433.113281 31.394531 429.554688 31.667969 426.035156 32.054688 C 416.554688 33.097656 407.039062 34.339844 397.558594 35.617188 C 401.160156 37.820312 404.71875 40.105469 408.082031 42.894531 C 424.0625 56.171875 440.269531 67.902344 452.496094 85.011719 C 456.828125 91.089844 461.78125 96.46875 466.152344 102.46875 C 478.53125 99.605469 490.796875 96.277344 502.90625 92.132812 C 506 91.050781 509.132812 89.964844 512.265625 88.882812 C 508.707031 85.628906 505.03125 82.609375 501.550781 79.359375 C 501.320312 79.164062 501.125 78.972656 500.894531 78.738281 C 499.421875 77.347656 497.992188 75.875 496.597656 74.328125 C 495.941406 73.550781 495.207031 72.855469 494.511719 72.121094 C 488.4375 65.734375 481.316406 60.3125 474.007812 55.320312 C 469.132812 51.953125 464.140625 48.777344 459.382812 45.527344 C 451.992188 40.492188 444.449219 35.691406 436.710938 31.242188 Z M 436.710938 31.242188 " fill-opacity="1" fill-rule="nonzero"/><path fill="#c09573" d="M 110.929688 305.511719 C 115.53125 305.472656 120.019531 304.078125 124.660156 304.464844 C 134.101562 305.316406 143.308594 309.148438 152.863281 310.15625 C 162.613281 311.199219 172.132812 313.40625 181.839844 314.605469 C 200.605469 316.890625 219.367188 315.109375 238.132812 314.800781 C 257.9375 314.492188 277.746094 316.195312 297.515625 315.148438 C 316.511719 314.140625 335.3125 311.121094 354.191406 308.953125 C 374.890625 306.59375 395.546875 304 416.246094 301.832031 C 435.589844 299.820312 454.699219 298.8125 473.542969 293.78125 C 482.515625 291.378906 491.878906 290.761719 500.972656 288.902344 C 510.292969 287.003906 519.464844 284.296875 528.59375 281.585938 C 546.042969 276.398438 563.527344 270.667969 579.816406 262.425781 C 581.285156 261.648438 582.753906 260.835938 584.1875 259.984375 C 584.148438 259.171875 584.109375 258.359375 584.109375 257.507812 C 584.148438 249.378906 583.566406 241.171875 583.027344 233.082031 C 582.058594 218.992188 579.003906 205.480469 574.941406 191.96875 C 572.96875 185.351562 570.414062 179.390625 568.90625 172.730469 C 561.285156 176.484375 553.894531 180.277344 545.578125 182.949219 C 537.105469 185.660156 528.710938 188.835938 520.082031 191.078125 C 511.804688 193.246094 503.445312 194.371094 495.285156 197.117188 C 476.984375 203.234375 458.6875 205.363281 439.613281 207.53125 C 430.910156 208.539062 422.589844 211.171875 413.964844 212.679688 C 409.746094 213.414062 405.492188 214.539062 401.273438 215.121094 C 396.4375 215.777344 392.027344 214.808594 387.191406 215.546875 C 367.230469 218.679688 347.191406 223.363281 326.878906 223.636719 C 317.515625 223.75 308.078125 223.132812 298.675781 222.9375 C 289.546875 222.746094 280.839844 224.214844 271.75 224.640625 C 262.308594 225.105469 253.0625 222.203125 243.585938 221.816406 C 233.257812 221.390625 222.925781 222.011719 212.597656 221.699219 C 192.710938 221.121094 172.75 218.371094 152.941406 216.511719 C 142.84375 215.582031 132.707031 214.578125 122.613281 213.53125 C 113.054688 212.5625 104.003906 210.242188 94.5625 208.617188 C 74.949219 205.210938 54.40625 205.828125 35.0625 201.105469 C 32.082031 200.371094 29.144531 199.597656 26.203125 198.820312 C 23.496094 207.878906 22.0625 217.015625 21.097656 226.269531 C 17.808594 241.132812 15.914062 256.347656 15.449219 272.21875 C 15.253906 278.335938 15.488281 284.375 15.875 290.335938 C 17.304688 290.875 18.777344 291.378906 20.246094 291.882812 C 28.058594 294.554688 34.019531 292.890625 41.988281 293.199219 C 51.699219 293.585938 61.523438 297.109375 71.082031 298.929688 C 79.902344 300.632812 88.644531 302.761719 97.542969 304.117188 C 102.03125 304.929688 106.519531 305.585938 110.929688 305.511719 Z M 110.929688 305.511719 " fill-opacity="1" fill-rule="nonzero"/><path fill="#b28567" d="M 583.066406 233.121094 C 582.792969 229.09375 582.289062 225.105469 581.710938 221.121094 C 580.242188 211.285156 577.878906 201.609375 575.019531 191.96875 C 573.042969 185.351562 570.492188 179.390625 568.984375 172.730469 C 561.359375 176.484375 553.972656 180.277344 545.65625 182.949219 C 537.183594 185.660156 528.785156 188.835938 520.160156 191.078125 C 514.242188 192.628906 508.320312 193.671875 502.441406 195.105469 C 507.820312 219.570312 510.640625 244.65625 510.0625 269.238281 C 509.90625 275.160156 509.714844 281.082031 509.441406 287.003906 C 515.902344 285.378906 522.289062 283.523438 528.671875 281.625 C 546.117188 276.4375 563.605469 270.707031 579.890625 262.464844 C 581.363281 261.6875 582.832031 260.875 584.265625 260.023438 C 584.226562 259.210938 584.1875 258.398438 584.1875 257.546875 C 584.148438 249.457031 583.605469 241.25 583.066406 233.121094 Z M 583.066406 233.121094 " fill-opacity="1" fill-rule="nonzero"/><path fill="#c09573" d="M 117.464844 82.03125 C 123.5 82.960938 129.148438 81.257812 135.261719 82.765625 C 138.242188 83.5 140.988281 85.050781 144.082031 85.476562 C 148.839844 86.132812 153.019531 84.351562 157.855469 84.972656 C 166.832031 86.132812 175.882812 87.953125 184.9375 89.113281 C 204.628906 91.628906 224.707031 93.101562 244.554688 94.574219 C 254.6875 95.308594 264.746094 93.410156 274.882812 93.953125 C 285.097656 94.496094 294.960938 94.613281 305.214844 94.535156 C 314.035156 94.496094 323.242188 94.109375 331.984375 93.0625 C 334.5 92.753906 336.898438 92.054688 339.414062 91.746094 C 343.242188 91.242188 347.382812 93.101562 350.902344 92.675781 C 353.378906 92.367188 355.816406 91.203125 358.449219 91.089844 C 365.914062 90.742188 373.574219 92.054688 381.039062 91.128906 C 389.4375 90.082031 396.941406 86.90625 405.414062 86.519531 C 422.976562 85.707031 440.347656 81.71875 457.640625 77.386719 C 468.511719 74.636719 479.265625 70.144531 490.214844 67.976562 C 480.816406 59.382812 469.671875 52.570312 459.382812 45.527344 C 446.074219 36.46875 432.222656 27.988281 417.523438 21.253906 C 410.675781 18.078125 403.171875 15.640625 395.898438 13.667969 C 388.699219 11.691406 381.3125 12.117188 374.425781 9.601562 C 367.152344 6.929688 359.609375 7.976562 352.257812 5.730469 C 344.753906 3.40625 338.757812 2.828125 330.863281 2.363281 C 324.015625 1.976562 317.167969 0.078125 310.4375 0.425781 C 301.886719 0.851562 293.261719 0.503906 284.632812 1.007812 C 269.933594 1.859375 255.425781 3.292969 240.992188 6.929688 C 226.253906 10.648438 212.289062 15.949219 198.089844 21.332031 C 182.925781 27.097656 168.570312 34.222656 153.871094 40.804688 C 148.066406 43.398438 143.695312 47.730469 138.628906 51.449219 C 132.285156 56.09375 125.011719 60.507812 118.394531 64.804688 C 112.242188 68.828125 106.867188 73.628906 101.835938 78.738281 C 108.566406 78.042969 111.355469 81.101562 117.464844 82.03125 Z M 117.464844 82.03125 " fill-opacity="1" fill-rule="nonzero"/><path fill="#b28567" d="M 351.792969 5.535156 C 350.050781 5.035156 348.390625 4.570312 346.765625 4.222656 C 349.664062 5.652344 352.527344 7.203125 355.351562 8.945312 C 364.367188 14.480469 373.652344 19.9375 382.242188 26.054688 C 390.710938 32.054688 399.960938 36.15625 408.042969 42.894531 C 422.28125 54.738281 436.671875 65.347656 448.277344 79.589844 C 451.375 78.855469 454.507812 78.121094 457.601562 77.347656 C 468.472656 74.597656 479.230469 70.105469 490.175781 67.9375 C 482.710938 61.085938 474.160156 55.398438 465.804688 49.859375 C 463.792969 48.546875 461.820312 47.191406 459.847656 45.875 C 459.691406 45.757812 459.5 45.640625 459.34375 45.527344 C 446.035156 36.46875 432.183594 27.988281 417.484375 21.253906 C 412.105469 18.777344 406.34375 16.839844 400.617188 15.136719 C 399.03125 14.671875 397.445312 14.132812 395.859375 13.667969 C 394.347656 13.277344 392.878906 13.007812 391.371094 12.738281 C 385.644531 11.769531 379.839844 11.574219 374.386719 9.5625 C 370.75 8.207031 367.035156 7.820312 363.324219 7.472656 C 360.535156 7.203125 357.75 6.96875 355.003906 6.386719 C 354.074219 6.195312 353.148438 5.960938 352.257812 5.691406 C 352.0625 5.613281 351.949219 5.613281 351.792969 5.535156 Z M 351.792969 5.535156 " fill-opacity="1" fill-rule="nonzero"/><path fill="#c09573" d="M 73.054688 451.800781 C 87.097656 474.675781 106.015625 494.148438 128.335938 508.859375 C 141.105469 510.058594 153.910156 510.523438 166.714844 509.710938 C 181.105469 508.78125 195.34375 506.074219 209.734375 504.949219 C 225.054688 503.75 240.414062 502.898438 255.617188 500.574219 C 281.304688 496.664062 306.53125 490.472656 331.753906 484.277344 C 355.003906 478.585938 376.207031 476.574219 400.230469 478.085938 C 422.164062 479.4375 443.867188 472.78125 463.328125 463.101562 C 473.15625 458.226562 482.324219 452.339844 491.414062 446.1875 C 500.46875 440.070312 511.144531 436.507812 521.785156 433.875 C 528.632812 432.171875 535.246094 430.351562 541.785156 428.300781 C 548.867188 416.339844 554.628906 404.183594 558.304688 390.636719 C 559.503906 386.222656 560.9375 381.847656 562.40625 377.511719 C 562.597656 377.320312 562.753906 377.085938 562.871094 376.777344 C 567.320312 364.464844 572.582031 351.1875 575.25 337.949219 C 567.320312 341.164062 559.542969 344.722656 551.574219 347.78125 C 544.996094 350.296875 538.1875 351.34375 531.535156 353.433594 C 524.183594 355.757812 517.027344 358.816406 509.714844 361.332031 C 478.726562 371.976562 446.808594 363.847656 415.742188 373.71875 C 408.855469 375.886719 400.925781 378.402344 394.890625 382.429688 C 389.898438 385.757812 386.339844 390.75 381.234375 394.195312 C 354.539062 412.273438 324.25 411.230469 294.691406 420.675781 C 278.792969 425.785156 261.421875 424.972656 244.941406 426.519531 C 238.132812 427.179688 231.707031 429.578125 225.015625 430.082031 C 216.851562 430.703125 208.457031 429.734375 200.296875 429.269531 C 185.128906 428.378906 169.847656 429.851562 154.761719 428.648438 C 146.945312 428.03125 139.363281 425.824219 131.703125 424.351562 C 124.546875 423 117.390625 423.460938 110.269531 422.417969 C 95.105469 420.210938 80.363281 415.140625 65.277344 412.429688 C 60.867188 411.65625 56.417969 411.074219 52.007812 410.570312 C 58.273438 424.738281 64.890625 438.519531 73.054688 451.800781 Z M 73.054688 451.800781 " fill-opacity="1" fill-rule="nonzero"/><path fill="#b28567" d="M 562.40625 377.472656 C 562.445312 377.433594 562.484375 377.359375 562.523438 377.320312 C 562.636719 377.164062 562.792969 377.007812 562.871094 376.777344 C 562.871094 376.738281 562.910156 376.660156 562.910156 376.621094 C 567.359375 364.351562 572.582031 351.113281 575.25 337.949219 C 567.320312 341.164062 559.542969 344.722656 551.574219 347.78125 C 544.996094 350.296875 538.1875 351.34375 531.535156 353.433594 C 524.183594 355.757812 517.027344 358.816406 509.714844 361.332031 C 507.355469 362.144531 504.957031 362.839844 502.558594 363.421875 C 500.121094 374.957031 497.023438 386.378906 493.929688 397.292969 C 486.851562 422.261719 475.320312 445.21875 459.5 464.882812 C 460.773438 464.265625 462.089844 463.722656 463.328125 463.0625 C 473.15625 458.1875 482.324219 452.300781 491.414062 446.148438 C 500.46875 440.03125 511.144531 436.46875 521.785156 433.835938 C 528.59375 432.132812 535.207031 430.316406 541.707031 428.300781 C 542.25 427.371094 542.832031 426.445312 543.371094 425.515625 C 544.183594 424.082031 544.996094 422.648438 545.808594 421.179688 C 546.816406 419.28125 547.78125 417.386719 548.710938 415.488281 C 549.40625 414.132812 550.101562 412.738281 550.722656 411.347656 C 551.726562 409.179688 552.617188 406.972656 553.507812 404.765625 C 553.972656 403.566406 554.511719 402.402344 554.9375 401.203125 C 556.214844 397.757812 557.375 394.234375 558.34375 390.636719 C 559.464844 386.222656 560.898438 381.847656 562.40625 377.472656 Z M 562.40625 377.472656 " fill-opacity="1" fill-rule="nonzero"/><path fill="#e7d7c7" d="M 491.375 418.625 C 493.3125 405.308594 484.488281 393.230469 472.808594 387.578125 C 463.523438 383.085938 454.238281 381.886719 444.875 382.738281 C 440.8125 382.699219 436.710938 382.972656 432.726562 383.628906 C 416.167969 386.339844 398.371094 396.09375 387.578125 409.101562 C 379.726562 418.546875 365.683594 436.664062 372.878906 450.132812 C 379.996094 463.488281 403.984375 462.097656 416.285156 460.894531 C 430.523438 459.542969 445.609375 457.140625 458.996094 451.914062 C 472.691406 446.574219 489.132812 434.070312 491.375 418.625 Z M 491.375 418.625 " fill-opacity="1" fill-rule="nonzero"/><path fill="#a73c18" d="M 472.882812 412.972656 C 472.070312 403.101562 465.261719 398.6875 457.023438 397.179688 C 448.976562 394.042969 439.148438 394.546875 431.0625 396.480469 C 411.640625 401.164062 393.421875 411.113281 387.113281 430.46875 C 387 430.816406 387.039062 431.167969 387.113281 431.4375 C 386.535156 434.574219 387.191406 437.746094 389.667969 440.804688 C 394.3125 446.535156 404.136719 449.59375 410.984375 450.675781 C 419.109375 451.992188 427.734375 450.484375 435.433594 448.003906 C 450.5625 443.050781 474.429688 431.59375 472.882812 412.972656 Z M 472.882812 412.972656 " fill-opacity="1" fill-rule="nonzero"/><path fill="#c09573" d="M 462.554688 506.265625 C 435.164062 513.582031 407.542969 520.277344 379.300781 523.722656 C 365.722656 525.390625 351.832031 525.660156 338.214844 527.945312 C 322.390625 530.613281 307.457031 536.226562 291.441406 537.542969 C 277.59375 538.707031 263.859375 541.917969 249.929688 542.460938 C 233.527344 543.117188 217.277344 542.191406 200.835938 543.351562 C 200.332031 543.390625 199.871094 543.390625 199.367188 543.429688 C 210.355469 547.105469 221.339844 550.433594 232.910156 553.027344 C 245.792969 555.894531 258.90625 558.332031 271.90625 560.074219 C 287.574219 562.164062 303.589844 563.171875 319.414062 562.011719 C 348.582031 559.917969 375.816406 550.667969 402.394531 539.402344 C 408.78125 536.691406 414.234375 536.808594 420.386719 533.132812 C 427.347656 528.988281 434.546875 525.390625 441.46875 521.167969 C 450.523438 515.59375 459.886719 510.71875 468.472656 504.679688 C 466.5 505.183594 464.527344 505.761719 462.554688 506.265625 Z M 462.554688 506.265625 " fill-opacity="1" fill-rule="nonzero"/><path fill="#333333" d="M 233.488281 289.367188 C 233.410156 289.289062 233.410156 289.171875 233.332031 289.097656 C 223.390625 278.488281 209.8125 284.992188 204.820312 296.992188 C 203.3125 300.632812 200.410156 309.34375 203.351562 312.902344 C 205.324219 315.265625 209.039062 314.644531 210.390625 312.011719 C 211.863281 309.148438 210.855469 305.082031 211.941406 301.871094 C 214.222656 295.097656 222.65625 288.167969 228.1875 296.21875 C 231.207031 300.632812 231.320312 306.089844 232.714844 311.007812 C 233.179688 312.632812 233.0625 313.640625 234.6875 314.566406 C 237.667969 316.308594 240.453125 313.832031 241.03125 311.007812 C 242.425781 304.039062 237.628906 294.785156 233.644531 289.445312 C 233.605469 289.445312 233.527344 289.445312 233.488281 289.367188 Z M 233.488281 289.367188 " fill-opacity="1" fill-rule="nonzero"/><path fill="#333333" d="M 420.964844 295.636719 C 420.964844 295.636719 421.003906 295.636719 420.964844 295.636719 C 420.964844 295.601562 420.964844 295.601562 420.964844 295.636719 C 420.964844 295.445312 420.964844 295.289062 420.886719 295.097656 C 417.640625 285.691406 410.367188 273.070312 398.488281 275.742188 C 392.878906 277.019531 389.011719 281.546875 386.804688 286.65625 C 385.335938 290.140625 382.703125 297.691406 384.871094 301.367188 C 386.417969 304.039062 390.363281 304.230469 392.105469 301.601562 C 393.5 299.546875 392.6875 295.949219 393.226562 293.585938 C 394.386719 288.59375 397.910156 282.128906 404.136719 284.644531 C 408.042969 286.230469 410.441406 291.109375 411.953125 294.785156 C 412.609375 296.375 412.917969 298.425781 414.464844 299.507812 C 417.445312 301.601562 420.695312 299.316406 420.925781 296.179688 C 421.003906 296.027344 421.003906 295.832031 420.964844 295.636719 Z M 420.964844 295.636719 " fill-opacity="1" fill-rule="nonzero"/><path fill="#b28567" d="M 408.664062 537.3125 C 412.183594 536.382812 415.628906 535.609375 419.265625 533.671875 C 419.652344 533.480469 420.039062 533.285156 420.425781 533.054688 C 427.386719 528.910156 434.582031 525.3125 441.507812 521.09375 C 443.558594 519.816406 445.648438 518.613281 447.738281 517.375 C 452.417969 514.628906 457.101562 511.957031 461.664062 509.089844 C 461.820312 508.976562 462.011719 508.859375 462.167969 508.78125 C 464.296875 507.425781 466.421875 506.035156 468.472656 504.601562 C 466.5 505.183594 464.527344 505.761719 462.554688 506.265625 C 437.058594 513.078125 411.332031 519.3125 385.101562 522.910156 C 378.140625 526.550781 371.097656 529.957031 363.671875 533.015625 C 344.480469 540.914062 325.601562 550.085938 305.484375 555.507812 C 298.328125 557.441406 291.25 559.417969 284.128906 561.390625 C 287.496094 561.699219 290.898438 561.933594 294.304688 562.125 C 295.464844 562.203125 296.625 562.203125 297.785156 562.242188 C 300.339844 562.320312 302.855469 562.398438 305.40625 562.398438 C 306.53125 562.398438 307.652344 562.398438 308.773438 562.398438 C 312.292969 562.359375 315.816406 562.242188 319.335938 561.972656 C 319.375 561.972656 319.375 561.972656 319.414062 561.972656 C 348.582031 559.878906 375.816406 550.628906 402.394531 539.363281 C 404.5625 538.433594 406.652344 537.855469 408.664062 537.3125 Z M 408.664062 537.3125 " fill-opacity="1" fill-rule="nonzero"/><path fill="#333333" d="M 344.09375 302.605469 C 341.195312 298.503906 337.519531 299.199219 333.300781 300.167969 C 321.734375 302.839844 311.714844 303.691406 299.835938 302.066406 C 294.535156 301.367188 286.527344 298.890625 281.769531 302.257812 C 276.703125 305.820312 278.015625 313.714844 279.796875 318.789062 C 284.476562 332.144531 295.234375 339.074219 307.1875 340.15625 C 312.488281 341.472656 318.328125 341.511719 324.636719 339.886719 C 337.324219 336.632812 353.457031 315.960938 344.09375 302.605469 Z M 344.09375 302.605469 " fill-opacity="1" fill-rule="nonzero"/></svg>