<svg xmlns="http://www.w3.org/2000/svg" xmlns:xlink="http://www.w3.org/1999/xlink" width="800" zoomAndPan="magnify" viewBox="0 0 600 599.999999" height="800" preserveAspectRatio="xMidYMid meet" version="1.0"><path fill="#d3d3d5" d="M 567.980469 237.691406 C 563.546875 222.546875 561.847656 206.550781 555.609375 191.898438 C 549.972656 178.667969 541.570312 166.824219 532.957031 155.402344 C 524.945312 144.796875 517.46875 132.132812 507.613281 123.230469 C 501.339844 117.554688 496.128906 112.269531 491.128906 105.355469 C 487.796875 100.707031 484.464844 96.097656 479.964844 92.476562 C 474.648438 88.257812 471.03125 83.46875 466.246094 78.824219 C 461.707031 74.386719 455.292969 73.078125 450.367188 69.210938 C 445.542969 65.414062 441.824219 61.796875 436.503906 58.605469 C 430.089844 54.738281 423.320312 51.050781 417.082031 46.863281 C 412.296875 43.671875 408.855469 40.90625 403.292969 39.132812 C 395.777344 36.753906 388.15625 34.589844 380.710938 31.929688 C 367.136719 27.070312 355.332031 26.363281 340.90625 26.894531 C 332.824219 27.179688 326.371094 25.40625 318.539062 24.09375 C 311.875 22.957031 305.457031 25.6875 298.792969 26.042969 C 292.519531 26.398438 286.421875 26.113281 280.253906 27.570312 C 272.101562 29.484375 264.480469 32.003906 256.148438 33.207031 C 250.300781 34.058594 245.054688 35.160156 239.949219 38.175781 C 232.898438 42.324219 225.453125 43.460938 217.726562 45.800781 C 212.796875 47.289062 207.730469 47.644531 202.871094 49.242188 C 199.503906 50.339844 196.457031 52.363281 192.875 53.070312 C 190.148438 53.601562 187.808594 53.285156 185.113281 54.277344 C 178.589844 56.726562 172.847656 60.449219 166.007812 62.613281 C 159.378906 64.707031 153.53125 68.109375 147.539062 71.585938 C 142.433594 74.566406 136.410156 77.011719 131.730469 80.558594 C 126.839844 84.25 124.074219 90.171875 119.679688 94.429688 C 110.109375 103.722656 98.480469 110.601562 90.824219 121.777344 C 81.925781 134.792969 75.191406 149.550781 67.25 163.132812 C 51.511719 190.160156 37.191406 217.828125 32.441406 249.324219 C 30.03125 265.214844 33.152344 281.355469 28.933594 296.996094 C 25.175781 310.9375 23.617188 323.136719 26.238281 337.398438 C 27.691406 345.199219 29.570312 352.71875 32.054688 360.273438 C 32.476562 361.585938 34.925781 366.800781 36.765625 371.375 C 37.335938 373.859375 37.9375 376.34375 38.71875 378.859375 C 38.433594 379.746094 38.503906 380.492188 39.105469 381.273438 C 39.496094 382.441406 39.886719 383.613281 40.277344 384.785156 C 40.277344 385.8125 40.878906 386.453125 41.625 386.769531 C 43.394531 391.984375 44.601562 397.164062 47.472656 402.09375 C 51.691406 409.363281 55.128906 415.960938 57.679688 424.015625 C 59.207031 428.765625 60.660156 430.503906 63.992188 434.195312 C 68.632812 439.300781 70.085938 446.183594 74.519531 451.503906 C 82.917969 461.648438 89.195312 473.03125 97.84375 483.035156 C 108.265625 495.058594 117.585938 506.65625 129.886719 516.945312 C 140.734375 525.988281 151.652344 532.445312 163.953125 539.359375 C 178.273438 547.414062 190.785156 551.316406 206.878906 554.222656 C 214.074219 555.5 220.597656 558.691406 227.757812 560.074219 C 236.230469 561.707031 244.558594 563.65625 252.996094 565.539062 C 269.015625 569.121094 285.179688 574.796875 301.699219 575.007812 C 316.90625 575.222656 334.203125 577.171875 349.199219 574.335938 C 355.6875 573.09375 361.464844 570.007812 367.453125 567.417969 C 375.75 563.835938 384.363281 563.125 392.550781 560.074219 C 397.796875 558.125 401.910156 553.550781 406.660156 550.675781 C 413.324219 546.632812 420.695312 544.183594 427.394531 540.355469 C 431.792969 537.835938 434.734375 533.863281 438.492188 530.421875 C 444.621094 524.820312 451.640625 520.207031 458.164062 515.066406 C 470.996094 504.921875 483.261719 493.109375 493.789062 480.589844 C 503.960938 468.457031 512.222656 454.941406 522.109375 442.5625 C 530.617188 431.921875 534.730469 418.054688 540.863281 406.03125 C 547.738281 392.515625 552.59375 377.902344 558.761719 364.035156 C 564.152344 351.867188 568.546875 337.714844 569.964844 324.449219 C 573.082031 295.96875 576.203125 265.785156 567.980469 237.691406 Z M 567.980469 237.691406 " fill-opacity="1" fill-rule="nonzero"/><path fill="#cacacc" d="M 555.609375 191.898438 C 549.972656 178.667969 541.570312 166.824219 532.957031 155.402344 C 524.945312 144.796875 517.46875 132.132812 507.613281 123.195312 C 501.339844 117.519531 496.128906 112.234375 491.128906 105.316406 C 487.796875 100.671875 484.464844 96.0625 479.964844 92.441406 C 474.648438 88.222656 471.03125 83.433594 466.246094 78.785156 C 461.707031 74.351562 455.292969 73.039062 450.367188 69.175781 C 445.542969 65.378906 441.824219 61.761719 436.503906 58.570312 C 430.089844 54.703125 423.320312 51.015625 417.082031 46.828125 C 412.296875 43.636719 408.855469 40.871094 403.292969 39.097656 C 395.777344 36.71875 388.15625 34.554688 380.710938 31.894531 C 375.535156 30.050781 370.609375 28.953125 365.683594 28.136719 C 375.464844 34.273438 384.113281 41.613281 390.351562 49.242188 C 405.417969 67.613281 424.207031 82.902344 439.09375 101.203125 C 478.582031 149.726562 494.851562 218.964844 493.222656 280.714844 C 492.832031 295.863281 490.101562 314.554688 486.664062 329.273438 C 482.269531 348.074219 479.644531 366.410156 472.554688 384.5 C 462.382812 410.535156 450.367188 437.421875 430.089844 457.566406 C 417.859375 469.734375 404.214844 480.199219 389.929688 489.738281 C 374.722656 499.917969 359.40625 505.664062 342.5 512.367188 C 328.957031 517.726562 313.964844 520.882812 299.890625 524.570312 C 279.402344 529.925781 258.523438 533.792969 237.292969 533.4375 C 218.257812 533.117188 198.085938 532.125 179.972656 527.089844 C 163.667969 522.585938 147.679688 520.988281 132.191406 513.328125 C 127.546875 511.054688 123.011719 508.679688 118.507812 506.269531 C 122.089844 509.957031 125.8125 513.574219 129.886719 516.980469 C 140.734375 526.023438 151.652344 532.480469 163.953125 539.398438 C 178.273438 547.449219 190.785156 551.351562 206.878906 554.257812 C 214.074219 555.570312 220.597656 558.726562 227.757812 560.109375 C 236.230469 561.742188 244.558594 563.695312 252.996094 565.574219 C 269.015625 569.15625 285.179688 574.832031 301.699219 575.042969 C 316.90625 575.257812 334.203125 577.207031 349.199219 574.371094 C 355.6875 573.128906 361.464844 570.042969 367.453125 567.453125 C 375.75 563.871094 384.363281 563.160156 392.550781 560.109375 C 397.796875 558.160156 401.910156 553.585938 406.660156 550.710938 C 413.324219 546.667969 420.695312 544.21875 427.394531 540.390625 C 431.789062 537.871094 434.734375 533.898438 438.492188 530.457031 C 444.621094 524.855469 451.640625 520.242188 458.164062 515.101562 C 470.996094 504.957031 483.261719 493.144531 493.789062 480.625 C 503.960938 468.492188 512.21875 454.980469 522.109375 442.601562 C 530.617188 431.957031 534.730469 418.089844 540.863281 406.066406 C 547.738281 392.550781 552.59375 377.9375 558.761719 364.070312 C 564.152344 351.902344 568.546875 337.75 569.964844 324.484375 C 573.082031 295.933594 576.167969 265.746094 567.945312 237.691406 C 563.546875 222.546875 561.847656 206.550781 555.609375 191.898438 Z M 555.609375 191.898438 " fill-opacity="1" fill-rule="nonzero"/><path fill="#b7b7b7" d="M 142.683594 274.367188 C 142.472656 272.664062 142.1875 270.785156 141.867188 268.867188 C 142.472656 264.222656 142.292969 259.503906 140.628906 255 C 139.421875 251.738281 137.152344 248.4375 134.28125 245.601562 C 133.042969 243.6875 131.660156 241.949219 129.957031 240.527344 C 125.847656 237.125 123.222656 236.875 119.039062 238.363281 C 118.402344 238.363281 117.765625 238.257812 117.125 238.328125 C 105.359375 239.675781 93.484375 251.949219 86.746094 260.640625 C 77.175781 272.949219 77.210938 290.542969 80.296875 304.695312 C 82.457031 314.660156 89.230469 331.261719 102.875 328.992188 C 110.53125 327.714844 121.0625 319.09375 126.804688 313.773438 C 136.90625 304.480469 144.527344 288.304688 142.683594 274.367188 Z M 142.683594 274.367188 " fill-opacity="1" fill-rule="nonzero"/><path fill="#b7b7b7" d="M 233.285156 431.605469 C 229.246094 417.027344 217.300781 406.207031 202.554688 403.9375 C 190.148438 402.023438 177.351562 409.011719 176.464844 419.6875 C 175.96875 419.96875 175.578125 420.394531 175.4375 420.964844 C 173.238281 428.875 179.40625 439.441406 183.980469 445.472656 C 188.730469 451.75 196.527344 456.964844 204.328125 458.5625 C 220.808594 461.929688 238.355469 449.941406 233.285156 431.605469 Z M 233.285156 431.605469 " fill-opacity="1" fill-rule="nonzero"/><path fill="#b7b7b7" d="M 389.574219 117.484375 C 375.5 100.742188 353.097656 94.214844 331.828125 97.621094 C 319.386719 99.609375 308.222656 100.601562 297.800781 109.113281 C 289.71875 115.710938 284.792969 123.300781 281.636719 132.347656 C 279.792969 133.550781 279.4375 136.140625 279.722656 139.015625 C 279.582031 139.546875 279.4375 140.042969 279.332031 140.609375 C 279.121094 141.640625 279.582031 142.703125 280.503906 143.164062 C 281.175781 145.683594 282.027344 147.988281 282.558594 149.160156 C 286.988281 158.984375 293.015625 164.871094 303.367188 168.3125 C 325.519531 175.65625 353.523438 175.972656 374.578125 165.015625 C 390.886719 156.464844 403.183594 133.660156 389.574219 117.484375 Z M 389.574219 117.484375 " fill-opacity="1" fill-rule="nonzero"/><path fill="#b7b7b7" d="M 496.128906 175.796875 C 490.527344 173.527344 482.621094 171.929688 477.445312 176.222656 C 475.320312 177.996094 474.257812 180.867188 474.113281 183.8125 C 470.179688 192.433594 479.007812 211.726562 483.722656 216.800781 C 493.683594 227.476562 513.886719 233.433594 518.246094 214.492188 C 521.296875 201.050781 508.710938 180.902344 496.128906 175.796875 Z M 496.128906 175.796875 " fill-opacity="1" fill-rule="nonzero"/><path fill="#b7b7b7" d="M 189.617188 112.375 C 183.058594 111.101562 176.996094 113.191406 170.898438 114.894531 C 166.007812 116.242188 161.363281 120.890625 158.953125 125.714844 C 155.800781 130.679688 154.878906 136.921875 158.636719 141.640625 C 162.78125 146.851562 168.667969 146.464844 174.480469 144.9375 C 182.5625 142.84375 187.167969 141.25 192.34375 134.332031 C 197.09375 128.125 200.390625 114.46875 189.617188 112.375 Z M 189.617188 112.375 " fill-opacity="1" fill-rule="nonzero"/><path fill="#b7b7b7" d="M 438.242188 412.132812 C 421.972656 404.46875 393.011719 417.734375 385.460938 434.691406 C 378.902344 442.601562 372.238281 454.054688 375.253906 464.09375 C 376.671875 468.882812 379.933594 472.21875 384.222656 474.523438 C 388.652344 476.898438 396.132812 479.84375 401.128906 479.738281 C 412.472656 479.488281 428.140625 470.160156 436.648438 463.066406 C 443.878906 457.035156 453.589844 446.679688 453.660156 436.535156 C 453.734375 425.859375 447.882812 416.671875 438.242188 412.132812 Z M 438.242188 412.132812 " fill-opacity="1" fill-rule="nonzero"/><path fill="#b7b7b7" d="M 354.269531 516.730469 C 351.75 515.988281 348.808594 515.808594 346.789062 517.015625 C 345.546875 516.839844 344.238281 516.730469 342.710938 516.839844 C 337.113281 517.15625 331.15625 518.257812 325.589844 519.039062 C 319.671875 519.886719 310.3125 521.625 306.664062 527.160156 C 303.402344 532.125 305.847656 541.136719 310.207031 544.894531 C 315.417969 549.363281 323.570312 550.285156 330.09375 550.535156 C 342.890625 551.03125 365.222656 544.183594 364.617188 527.832031 C 364.371094 520.988281 360.257812 518.539062 354.269531 516.730469 Z M 354.269531 516.730469 " fill-opacity="1" fill-rule="nonzero"/><path fill="#b7b7b7" d="M 524.308594 286.851562 C 516.828125 284.476562 509.492188 290.292969 505.414062 295.933594 C 505.058594 296.429688 504.742188 296.996094 504.386719 297.492188 C 497.582031 300.683594 492.511719 316.964844 490.277344 322.78125 C 485.707031 334.773438 484.144531 347.71875 490.066406 359.457031 C 495.597656 370.382812 504.457031 375.136719 515.695312 370.277344 C 527.886719 365.027344 529.09375 355.59375 534.339844 344.03125 C 541.640625 327.890625 546.355469 293.875 524.308594 286.851562 Z M 524.308594 286.851562 " fill-opacity="1" fill-rule="nonzero"/><path fill="#b7b7b7" d="M 429.027344 252.234375 C 425.339844 245.742188 414.8125 227.296875 404.496094 234.25 C 398.894531 238.046875 398.683594 247.660156 400.5625 253.40625 C 401.234375 255.460938 402.261719 257.449219 403.363281 259.398438 C 403.859375 262.589844 405.097656 265.890625 405.984375 267.804688 C 408.574219 273.515625 411.835938 280.148438 418.816406 280.929688 C 425.871094 281.710938 432.394531 275.964844 433.632812 269.257812 C 434.734375 263.125 431.96875 257.414062 429.027344 252.234375 Z M 429.027344 252.234375 " fill-opacity="1" fill-rule="nonzero"/><path fill="#333333" d="M 246.117188 324.414062 C 245.054688 319.234375 241.332031 312.710938 235.199219 313.597656 C 232.402344 313.3125 229.386719 313.84375 227.261719 315.761719 C 223.078125 319.484375 221.164062 326.082031 222.121094 331.757812 C 222.191406 332.429688 222.367188 333.105469 222.617188 333.777344 C 222.9375 334.84375 223.324219 335.871094 223.859375 336.792969 C 223.929688 336.9375 224.035156 336.972656 224.140625 337.113281 C 225.203125 339.0625 226.445312 341.050781 228.183594 342.183594 C 232.222656 344.878906 236.867188 345.484375 240.484375 343.035156 C 240.695312 342.894531 240.871094 342.753906 241.085938 342.609375 C 241.792969 342.042969 242.46875 341.40625 243.070312 340.554688 C 243.777344 339.597656 244.203125 338.53125 244.558594 337.46875 C 245.269531 336.191406 245.90625 334.914062 246.152344 333.425781 C 246.648438 330.515625 246.722656 327.289062 246.117188 324.414062 Z M 246.117188 324.414062 " fill-opacity="1" fill-rule="nonzero"/><path fill="#333333" d="M 370.539062 324.414062 C 371.601562 319.234375 375.324219 312.710938 381.457031 313.597656 C 384.257812 313.3125 387.269531 313.84375 389.394531 315.761719 C 393.578125 319.484375 395.492188 326.082031 394.535156 331.757812 C 394.464844 332.429688 394.289062 333.105469 394.039062 333.777344 C 393.722656 334.84375 393.332031 335.871094 392.800781 336.792969 C 392.726562 336.9375 392.621094 336.972656 392.515625 337.113281 C 391.453125 339.0625 390.210938 341.050781 388.472656 342.183594 C 384.433594 344.878906 379.789062 345.484375 376.175781 343.035156 C 375.960938 342.894531 375.785156 342.753906 375.570312 342.609375 C 374.863281 342.042969 374.1875 341.40625 373.585938 340.554688 C 372.878906 339.597656 372.453125 338.53125 372.097656 337.46875 C 371.390625 336.191406 370.75 334.914062 370.503906 333.425781 C 370.042969 330.515625 369.972656 327.289062 370.539062 324.414062 Z M 370.539062 324.414062 " fill-opacity="1" fill-rule="nonzero"/><path fill="#333333" d="M 323.109375 339.914062 C 325.484375 335.550781 318.820312 331.652344 316.445312 336.011719 C 314.671875 339.3125 314.210938 343.425781 312.902344 346.972656 C 312.050781 349.277344 311.449219 351.796875 310.492188 353.855469 C 309.460938 351.976562 308.007812 348.925781 307.761719 348.320312 C 306.664062 345.554688 305.953125 341.902344 305.632812 338.957031 C 305.136719 334.0625 297.410156 334.027344 297.90625 338.957031 C 298.402344 343.605469 299.289062 349.066406 301.488281 353.179688 C 303.402344 356.761719 305.667969 362.6875 310.417969 363.113281 C 315.417969 363.539062 317.296875 357.542969 318.574219 353.855469 C 319.421875 351.40625 320.558594 348.996094 321.265625 346.511719 C 321.726562 344.988281 321.976562 343.425781 322.472656 341.9375 C 322.648438 341.476562 323.996094 338.285156 323.109375 339.914062 Z M 323.109375 339.914062 " fill-opacity="1" fill-rule="nonzero"/><path fill="#333333" d="M 241.972656 265.925781 C 237.894531 265.925781 233.429688 265.746094 229.566406 267.058594 C 227.15625 267.875 223.859375 269.828125 222.085938 272.097656 C 218.929688 274.152344 220.988281 280.042969 225.3125 278.976562 C 225.914062 278.835938 226.375 278.550781 226.871094 278.234375 C 227.011719 278.164062 227.507812 277.558594 227.6875 277.3125 C 228.074219 276.957031 228.679688 276.425781 228.785156 276.351562 C 229.566406 275.75 230.378906 275.148438 231.300781 274.722656 C 234.527344 273.304688 238.53125 273.65625 241.972656 273.65625 C 246.933594 273.621094 246.933594 265.925781 241.972656 265.925781 Z M 241.972656 265.925781 " fill-opacity="1" fill-rule="nonzero"/><path fill="#333333" d="M 399.675781 272.273438 C 398.859375 269.472656 396.449219 266.671875 393.828125 265.320312 C 393.542969 265.179688 392.835938 264.933594 392.726562 264.96875 C 392.410156 264.71875 392.125 264.398438 391.769531 264.222656 C 391.097656 263.867188 390.496094 263.902344 389.820312 263.691406 C 388.582031 263.300781 389.890625 263.65625 388.972656 263.40625 C 385.886719 262.554688 383.652344 262.660156 380.710938 263.796875 C 380.074219 264.046875 379.472656 264.222656 380.390625 263.902344 C 379.789062 264.117188 379.152344 264.257812 378.585938 264.578125 C 378.054688 264.898438 377.519531 265.394531 377.058594 265.820312 C 376.742188 266.101562 375.535156 267.023438 376.5625 266.421875 C 372.3125 268.976562 376.175781 275.644531 380.464844 273.089844 C 381.386719 272.558594 381.917969 271.566406 382.765625 271.066406 C 381.5625 271.8125 384.328125 270.785156 384.257812 270.785156 C 384.574219 270.144531 384.964844 270.003906 385.390625 270.359375 C 385.675781 270.5 385.921875 270.644531 386.207031 270.785156 C 386.949219 270.890625 387.695312 271.03125 388.402344 271.175781 C 389.929688 272.027344 391.699219 272.804688 392.160156 274.332031 C 393.648438 279.085938 401.09375 277.0625 399.675781 272.273438 Z M 399.675781 272.273438 " fill-opacity="1" fill-rule="nonzero"/></svg>