<svg xmlns="http://www.w3.org/2000/svg" xmlns:xlink="http://www.w3.org/1999/xlink" width="800" zoomAndPan="magnify" viewBox="0 0 600 599.999999" height="800" preserveAspectRatio="xMidYMid meet" version="1.0"><defs><clipPath id="16cfe2f092"><path d="M 239 399 L 460 399 L 460 490.164062 L 239 490.164062 Z M 239 399 " clip-rule="nonzero"/></clipPath></defs><path fill="#b2532d" d="M 477.039062 361.589844 C 474.527344 362.324219 472.046875 362.9375 469.566406 363.550781 C 459.179688 366.09375 449.378906 368.515625 440.066406 376.671875 C 430.878906 384.734375 420.984375 389.421875 410.476562 394.417969 C 405.359375 396.871094 400.0625 399.386719 394.824219 402.328125 C 390.660156 404.6875 386.859375 407.109375 383.152344 409.441406 C 373.136719 415.847656 363.640625 421.855469 350.222656 424.246094 C 344.25 425.289062 338.277344 426.421875 332.335938 427.527344 C 321.15625 429.609375 309.605469 431.757812 298.304688 433.472656 C 289.175781 434.882812 281.394531 438.929688 273.15625 443.191406 C 266.816406 446.5 260.230469 449.902344 253.0625 451.957031 C 239.644531 455.726562 217.804688 460.632812 194.339844 460.632812 C 191.0625 460.632812 187.785156 460.539062 184.445312 460.296875 C 171.949219 452.140625 160.613281 442.394531 150.75 431.175781 C 140.949219 420.046875 132.648438 407.660156 125.972656 394.449219 C 117.027344 376.855469 110.839844 357.789062 107.4375 338.230469 C 106.457031 332.5 105.691406 326.707031 105.171875 320.910156 C 104.40625 312.144531 104.160156 303.347656 104.496094 294.578125 C 104.773438 286.792969 105.507812 279.039062 106.671875 271.34375 C 108.386719 260.003906 111.082031 248.875 114.730469 238.113281 C 119.539062 223.859375 126.0625 210.3125 134.300781 197.894531 C 136.324219 194.800781 138.46875 191.796875 140.734375 188.851562 C 145.300781 182.9375 150.292969 177.296875 155.5625 172.148438 C 163.28125 164.574219 171.640625 157.769531 180.527344 151.730469 C 222.523438 123.007812 275.941406 111.144531 326.546875 117 C 337.328125 118.226562 348.019531 120.28125 358.433594 123.160156 C 367.867188 125.765625 377.089844 129.015625 385.972656 132.972656 C 393.417969 136.25 400.644531 140.023438 407.566406 144.25 C 411.457031 146.640625 415.257812 149.1875 418.960938 151.855469 C 420.921875 153.265625 422.851562 154.734375 424.753906 156.238281 C 432.65625 162.492188 439.851562 169.511719 446.316406 177.082031 C 453.300781 185.296875 459.394531 194.1875 464.664062 203.628906 C 476.828125 225.546875 484.300781 250.316406 486.871094 275.910156 C 489.78125 304.417969 486.597656 333.90625 477.039062 361.589844 Z M 477.039062 361.589844 " fill-opacity="1" fill-rule="nonzero"/><path fill="#b2532d" d="M 409.023438 145.152344 C 408.527344 144.847656 408.035156 144.546875 407.539062 144.25 L 407.5625 144.25 C 408.054688 144.546875 408.535156 144.847656 409.023438 145.152344 Z M 409.023438 145.152344 " fill-opacity="1" fill-rule="nonzero"/><path fill="#b2532d" d="M 486.875 275.914062 C 474.375 291.328125 459.457031 305.28125 442.179688 312.726562 C 428.398438 318.703125 414.0625 324.039062 400.21875 329.1875 C 389.160156 333.296875 377.699219 337.554688 366.640625 342.09375 C 354.636719 347.03125 342.015625 350.339844 329.796875 353.558594 C 318.273438 356.59375 306.394531 359.71875 295.179688 364.160156 L 286.9375 367.441406 C 253.644531 380.75 224.882812 392.242188 188.183594 394.753906 L 184.8125 395 C 177.402344 395.550781 165.882812 396.414062 153.601562 396.414062 C 144.347656 396.414062 134.667969 395.921875 125.96875 394.449219 C 117.027344 376.855469 110.839844 357.785156 107.441406 338.230469 C 135.4375 338.90625 163.527344 336.515625 191.035156 331.117188 C 209.988281 327.378906 228.648438 322.230469 247.152344 316.554688 C 325.8125 292.523438 403.617188 258.039062 464.664062 203.625 C 476.824219 225.546875 484.300781 250.316406 486.875 275.914062 Z M 486.875 275.914062 " fill-opacity="1" fill-rule="nonzero"/><path fill="#b2532d" d="M 385.972656 132.972656 C 378.984375 143.425781 370.351562 152.710938 363.582031 158.445312 C 348.757812 171.070312 331.292969 180.082031 314.382812 188.792969 L 272.601562 210.339844 C 265.222656 214.171875 257.132812 218.585938 248.585938 223.277344 C 208.617188 245.167969 159.542969 272.046875 117.761719 272.046875 C 114.546875 272.046875 111.390625 271.867188 108.269531 271.554688 C 107.710938 271.496094 107.191406 271.433594 106.671875 271.347656 C 108.386719 260 111.082031 248.875 114.730469 238.109375 C 174.125 223.742188 231.554688 201.972656 285.59375 173.40625 C 308.445312 161.324219 335.886719 145.296875 358.433594 123.164062 C 367.867188 125.769531 377.085938 129.019531 385.972656 132.972656 Z M 385.972656 132.972656 " fill-opacity="1" fill-rule="nonzero"/><path fill="#ffebac" d="M 499.75 330.519531 C 420.429688 372.171875 331.273438 404.867188 241.925781 425.074219 C 197.863281 435.042969 160.324219 439.890625 126.308594 439.890625 C 115.535156 439.890625 105.125 439.402344 94.964844 438.441406 C 67.96875 435.886719 17.726562 431.125 6.90625 391.734375 C 0.0859375 366.902344 15.769531 342.65625 30.128906 326.6875 C 51.253906 303.1875 77.628906 284.21875 106.628906 271.660156 C 105.492188 279.25 104.769531 286.898438 104.496094 294.578125 C 104.28125 300.292969 104.304688 306.011719 104.5625 311.730469 C 96.605469 316.097656 88.886719 321.289062 83.128906 328.242188 C 75.238281 337.777344 71.074219 353.144531 78.390625 364.070312 C 82.460938 370.144531 96.296875 373.390625 117.484375 373.257812 C 135.027344 373.136719 154.324219 370.648438 164.832031 368.394531 C 251.003906 349.882812 351.726562 323.925781 445.394531 271.742188 C 456.347656 265.644531 468.683594 258.238281 476.539062 247.417969 C 483.367188 238.011719 487.300781 223.449219 480.6875 212.128906 C 477.554688 206.769531 471.175781 202.859375 464.429688 202.164062 C 458.859375 201.597656 454.023438 203.242188 450.816406 206.792969 C 449.953125 207.753906 448.589844 208.089844 447.390625 207.625 C 446.1875 207.171875 445.382812 206.015625 445.371094 204.726562 L 445.195312 182.476562 C 445.183594 181.171875 445.980469 180.003906 447.195312 179.53125 C 468.773438 171.21875 494.367188 163.058594 520.863281 165.546875 C 545.804688 167.898438 575.984375 182.644531 583.3125 209.46875 C 590.191406 234.675781 588.484375 283.921875 499.75 330.519531 Z M 499.75 330.519531 " fill-opacity="1" fill-rule="nonzero"/><path fill="#765480" d="M 526.097656 210.351562 C 520.953125 198.488281 508.664062 189.695312 494.019531 187.402344 C 482.863281 185.65625 470.40625 187.363281 455.945312 192.628906 C 453.5625 193.5 452.328125 196.136719 453.199219 198.523438 C 454.066406 200.910156 456.707031 202.140625 459.085938 201.273438 C 472.046875 196.550781 483.023438 194.984375 492.597656 196.488281 C 504.160156 198.300781 513.769531 205.015625 517.671875 214.011719 C 521.617188 223.113281 519.859375 235.171875 513.078125 245.488281 C 506.421875 255.613281 496.039062 263.300781 486.824219 269.707031 C 438.421875 303.390625 380.523438 330.867188 304.621094 356.179688 C 242.566406 376.871094 181.386719 395.574219 115.242188 397.09375 C 84.589844 397.769531 65.550781 391.101562 57.015625 376.625 C 47.734375 360.890625 54.625 340.609375 64.949219 328.421875 C 76.988281 314.214844 95.070312 305.355469 111.023438 297.539062 C 113.300781 296.421875 114.242188 293.667969 113.128906 291.386719 C 112.015625 289.105469 109.261719 288.164062 106.980469 289.28125 C 90.21875 297.492188 71.21875 306.804688 57.941406 322.472656 C 45.578125 337.0625 37.539062 361.695312 49.097656 381.300781 C 59.023438 398.128906 79.300781 406.339844 111.007812 406.339844 C 112.464844 406.339844 113.949219 406.320312 115.453125 406.285156 C 182.875 404.734375 244.777344 385.824219 307.523438 364.902344 C 384.285156 339.304688 442.925781 311.457031 492.070312 277.257812 C 501.988281 270.359375 513.199219 262.035156 520.753906 250.539062 C 529.21875 237.664062 531.269531 222.265625 526.097656 210.351562 Z M 526.097656 210.351562 " fill-opacity="1" fill-rule="nonzero"/><path fill="#ffe695" d="M 418.960938 151.855469 C 416.453125 154.734375 413.445312 157.742188 409.988281 160.960938 C 398.007812 172.117188 384.71875 181.464844 370.65625 189.894531 C 356.566406 198.296875 341.679688 205.804688 326.546875 213.226562 C 281.425781 235.265625 227.789062 260.03125 172.164062 276.527344 C 169.375 277.347656 165.332031 278.730469 160.644531 280.355469 C 143.765625 286.148438 120.335938 294.183594 104.496094 294.578125 C 104.773438 286.792969 105.511719 279.039062 106.671875 271.347656 C 107.191406 271.433594 107.710938 271.496094 108.269531 271.554688 C 111.390625 271.867188 114.546875 272.046875 117.761719 272.046875 C 159.542969 272.046875 208.617188 245.167969 248.585938 223.277344 C 257.132812 218.585938 265.222656 214.171875 272.601562 210.339844 L 314.382812 188.792969 C 331.292969 180.082031 348.757812 171.070312 363.582031 158.445312 C 370.351562 152.710938 378.984375 143.425781 385.972656 132.972656 C 397.613281 138.089844 408.671875 144.402344 418.960938 151.855469 Z M 418.960938 151.855469 " fill-opacity="1" fill-rule="nonzero"/><path fill="#f5adbb" d="M 477.039062 361.585938 C 472.507812 374.769531 466.53125 387.492188 459.085938 399.539062 C 449.285156 406.957031 438.902344 414.3125 427.90625 421.609375 C 416.972656 428.90625 405.394531 432.953125 393.507812 436.753906 C 384.898438 439.511719 376.691406 444.445312 368.695312 449.230469 C 359.722656 454.65625 350.40625 460.234375 340.574219 462.683594 C 336.992188 463.574219 333.3125 463.390625 329.792969 463.234375 C 326.757812 463.085938 323.914062 462.960938 321.09375 463.449219 C 310.925781 465.226562 301.15625 468.390625 291.6875 471.484375 C 281.117188 474.917969 270.183594 478.472656 258.480469 480.1875 C 252.113281 481.140625 245.710938 482.550781 239.429688 484.085938 C 219.457031 479.117188 200.921875 471.082031 184.449219 460.292969 C 187.789062 460.542969 191.066406 460.628906 194.34375 460.628906 C 217.808594 460.628906 239.644531 455.726562 253.058594 451.957031 C 260.226562 449.902344 266.8125 446.5 273.15625 443.1875 C 281.394531 438.929688 289.175781 434.882812 298.304688 433.472656 C 309.609375 431.757812 321.15625 429.609375 332.335938 427.523438 C 338.28125 426.421875 344.253906 425.289062 350.222656 424.242188 C 363.640625 421.855469 373.136719 415.84375 383.152344 409.441406 C 386.859375 407.105469 390.65625 404.6875 394.824219 402.328125 C 400.0625 399.382812 405.363281 396.871094 410.476562 394.417969 C 420.984375 389.425781 430.878906 384.734375 440.070312 376.667969 C 449.378906 368.519531 459.179688 366.09375 469.5625 363.550781 C 472.050781 362.9375 474.527344 362.324219 477.039062 361.585938 Z M 477.039062 361.585938 " fill-opacity="1" fill-rule="nonzero"/><path fill="#f5adbb" d="M 446.316406 177.082031 C 437.125 193.359375 423.007812 210.464844 408.332031 222.972656 C 397.613281 232.109375 385.363281 239.3125 373.507812 246.300781 C 368.539062 249.207031 363.425781 252.214844 358.527344 255.308594 C 348.9375 261.351562 338.832031 263.738281 329.058594 266.042969 C 321.433594 267.847656 313.5625 269.6875 305.960938 273.277344 C 302.132812 275.113281 298.550781 276.921875 295.117188 278.699219 C 281.914062 285.445312 270.492188 291.269531 253.917969 291.757812 C 238.753906 292.222656 225.214844 297.308594 210.910156 302.730469 L 208.089844 303.777344 C 196.054688 308.28125 183.921875 308.4375 172.191406 308.558594 C 163.277344 308.648438 154.058594 308.769531 145.023438 310.824219 C 139.660156 312.050781 134.949219 313.796875 130.414062 315.515625 C 122.511719 318.488281 115.003906 321.277344 105.171875 320.914062 C 104.402344 312.144531 104.160156 303.347656 104.496094 294.578125 C 120.335938 294.183594 143.765625 286.148438 160.644531 280.355469 C 165.332031 278.730469 169.375 277.347656 172.167969 276.527344 C 227.789062 260.03125 281.425781 235.265625 326.546875 213.226562 C 341.679688 205.804688 356.566406 198.296875 370.65625 189.894531 C 384.71875 181.464844 398.007812 172.117188 409.988281 160.960938 C 413.445312 157.742188 416.453125 154.734375 418.960938 151.855469 C 420.921875 153.265625 422.851562 154.734375 424.75 156.238281 C 432.65625 162.488281 439.851562 169.511719 446.316406 177.082031 Z M 446.316406 177.082031 " fill-opacity="1" fill-rule="nonzero"/><path fill="#f5adbb" d="M 358.433594 123.164062 C 335.886719 145.296875 308.445312 161.324219 285.59375 173.40625 C 231.554688 201.972656 174.125 223.742188 114.730469 238.109375 C 119.535156 223.859375 126.0625 210.308594 134.304688 197.894531 C 203.039062 184.742188 269.050781 156.972656 326.546875 117 C 337.328125 118.222656 348.019531 120.28125 358.433594 123.164062 Z M 358.433594 123.164062 " fill-opacity="1" fill-rule="nonzero"/><g clip-path="url(#16cfe2f092)"><path fill="#986ea5" d="M 459.085938 399.539062 C 456.054688 404.445312 452.746094 409.253906 449.230469 413.882812 C 439.488281 426.671875 428.058594 438.226562 415.257812 448.1875 C 380.675781 475.097656 335.210938 490.148438 289.207031 490.148438 C 285.867188 490.148438 282.558594 490.058594 279.21875 489.910156 C 265.464844 489.265625 252.144531 487.304688 239.429688 484.085938 C 245.710938 482.550781 252.113281 481.140625 258.480469 480.1875 C 270.183594 478.472656 281.117188 474.917969 291.6875 471.484375 C 301.15625 468.390625 310.925781 465.226562 321.09375 463.453125 C 323.914062 462.960938 326.757812 463.085938 329.796875 463.234375 C 333.3125 463.390625 336.992188 463.574219 340.574219 462.683594 C 350.40625 460.234375 359.722656 454.65625 368.695312 449.230469 C 376.691406 444.445312 384.898438 439.511719 393.507812 436.753906 C 405.394531 432.953125 416.972656 428.90625 427.90625 421.609375 C 438.902344 414.3125 449.285156 406.957031 459.085938 399.539062 Z M 459.085938 399.539062 " fill-opacity="1" fill-rule="nonzero"/></g><path fill="#986ea5" d="M 464.664062 203.625 C 403.617188 258.039062 325.8125 292.523438 247.152344 316.554688 C 228.648438 322.230469 209.988281 327.378906 191.035156 331.117188 C 163.527344 336.515625 135.4375 338.90625 107.441406 338.230469 C 106.457031 332.5 105.691406 326.707031 105.171875 320.914062 C 115.003906 321.277344 122.511719 318.488281 130.414062 315.515625 C 134.949219 313.796875 139.660156 312.050781 145.023438 310.824219 C 154.058594 308.769531 163.277344 308.648438 172.191406 308.558594 C 183.921875 308.4375 196.054688 308.28125 208.089844 303.777344 L 210.910156 302.730469 C 225.214844 297.308594 238.753906 292.222656 253.917969 291.757812 C 270.492188 291.269531 281.914062 285.445312 295.117188 278.699219 C 298.550781 276.921875 302.132812 275.113281 305.960938 273.277344 C 313.5625 269.6875 321.433594 267.847656 329.058594 266.042969 C 338.832031 263.738281 348.9375 261.351562 358.527344 255.308594 C 363.425781 252.214844 368.539062 249.207031 373.507812 246.300781 C 385.363281 239.3125 397.613281 232.109375 408.332031 222.972656 C 423.007812 210.464844 437.125 193.359375 446.316406 177.082031 C 453.296875 185.292969 459.394531 194.1875 464.664062 203.625 Z M 464.664062 203.625 " fill-opacity="1" fill-rule="nonzero"/><path fill="#986ea5" d="M 326.546875 117 C 269.050781 156.972656 203.039062 184.746094 134.300781 197.894531 C 136.324219 194.800781 138.46875 191.796875 140.734375 188.851562 C 145.300781 182.9375 150.292969 177.296875 155.5625 172.144531 C 199.824219 128.800781 265.253906 109.917969 326.546875 117 Z M 326.546875 117 " fill-opacity="1" fill-rule="nonzero"/><path fill="#231f20" d="M 232.277344 292.472656 C 227.617188 292.472656 222.878906 290.570312 219.1875 287.070312 C 214.242188 282.382812 212.355469 276.207031 211.644531 271.855469 C 211.234375 269.347656 212.929688 266.984375 215.4375 266.574219 C 217.941406 266.160156 220.300781 267.863281 220.710938 270.367188 C 221.394531 274.550781 223.101562 278.113281 225.511719 280.398438 C 227.980469 282.742188 231.496094 283.792969 234.253906 283.011719 C 237.152344 282.191406 239.71875 279.277344 240.789062 275.585938 C 241.757812 272.265625 241.742188 268.226562 240.742188 262.871094 C 240.28125 260.375 241.925781 257.972656 244.421875 257.507812 C 246.910156 257.042969 249.3125 258.691406 249.777344 261.1875 C 250.578125 265.480469 251.429688 271.910156 249.613281 278.15625 C 247.648438 284.921875 242.71875 290.171875 236.753906 291.863281 C 235.296875 292.273438 233.789062 292.472656 232.277344 292.472656 Z M 232.277344 292.472656 " fill-opacity="1" fill-rule="nonzero"/><path fill="#231f20" d="M 348.84375 251.445312 C 344.269531 251.445312 339.53125 249.496094 335.945312 246.019531 C 332.554688 242.734375 330.113281 238.230469 328.695312 232.632812 C 328.070312 230.171875 329.558594 227.667969 332.019531 227.042969 C 334.484375 226.421875 336.976562 227.910156 337.601562 230.371094 C 338.59375 234.289062 340.1875 237.332031 342.335938 239.410156 C 344.539062 241.546875 347.558594 242.621094 350.011719 242.140625 C 352.835938 241.59375 355.4375 238.949219 356.488281 235.558594 C 357.492188 232.304688 357.308594 228.351562 355.933594 223.8125 C 355.199219 221.382812 356.570312 218.816406 359 218.082031 C 361.433594 217.347656 363.996094 218.71875 364.730469 221.148438 C 366.644531 227.476562 366.824219 233.238281 365.265625 238.277344 C 363.214844 244.917969 357.910156 249.980469 351.753906 251.171875 C 350.800781 251.355469 349.828125 251.445312 348.84375 251.445312 Z M 348.84375 251.445312 " fill-opacity="1" fill-rule="nonzero"/><path fill="#231f20" d="M 307.976562 318.539062 C 304.832031 318.539062 301.550781 317.507812 298.640625 315.507812 C 294.929688 312.949219 292.410156 309.40625 290.191406 306.285156 C 288.722656 304.214844 289.203125 301.34375 291.273438 299.871094 C 293.339844 298.398438 296.207031 298.882812 297.679688 300.953125 C 299.546875 303.578125 301.476562 306.292969 303.851562 307.929688 C 305.820312 309.285156 308.144531 309.71875 309.632812 309.007812 C 312.808594 307.492188 312.890625 301.351562 312.402344 296.464844 C 312.152344 293.9375 313.992188 291.683594 316.515625 291.429688 C 319.039062 291.183594 321.296875 293.023438 321.546875 295.550781 C 322.683594 306.917969 320.007812 314.238281 313.59375 317.304688 C 311.863281 318.136719 309.949219 318.539062 307.976562 318.539062 Z M 307.976562 318.539062 " fill-opacity="1" fill-rule="nonzero"/><path fill="#ff8f86" d="M 181.171875 316.523438 C 171.378906 318.265625 153.328125 327.847656 158.035156 340.765625 C 159.101562 343.683594 162.132812 345.382812 166.214844 345.382812 C 166.425781 345.382812 166.640625 345.378906 166.859375 345.371094 C 173.046875 345.109375 179.441406 342.921875 186.992188 338.488281 C 189.761719 336.855469 192.589844 334.953125 194.496094 332.097656 C 196.933594 328.445312 197.148438 323.824219 195.039062 320.605469 C 192.5625 316.824219 187.632812 315.371094 181.171875 316.523438 Z M 181.171875 316.523438 " fill-opacity="1" fill-rule="nonzero"/><path fill="#ff8f86" d="M 426.09375 238.378906 C 423.867188 234.394531 418.683594 233.125 412.5625 235.089844 C 404.214844 237.769531 388.925781 246.152344 396.53125 257.195312 C 398.167969 259.566406 401.054688 260.851562 404.554688 260.851562 C 405.542969 260.851562 406.578125 260.746094 407.644531 260.539062 C 414.519531 259.199219 420.710938 255.101562 424.636719 249.296875 C 427.265625 245.40625 427.796875 241.425781 426.09375 238.378906 Z M 426.09375 238.378906 " fill-opacity="1" fill-rule="nonzero"/></svg>