<svg xmlns="http://www.w3.org/2000/svg" xmlns:xlink="http://www.w3.org/1999/xlink" width="800" zoomAndPan="magnify" viewBox="0 0 600 599.999999" height="800" preserveAspectRatio="xMidYMid meet" version="1.0"><defs><clipPath id="ab1fd462fe"><path d="M 41 42 L 561 42 L 561 558.886719 L 41 558.886719 Z M 41 42 " clip-rule="nonzero"/></clipPath><clipPath id="7300f68fd1"><path d="M 202 51 L 561 51 L 561 558.886719 L 202 558.886719 Z M 202 51 " clip-rule="nonzero"/></clipPath></defs><g clip-path="url(#ab1fd462fe)"><path fill="#a3a28e" d="M 555.53125 266.074219 C 553.90625 259.292969 554.039062 252.28125 552.410156 245.503906 C 550.78125 238.722656 547.558594 232.476562 545.832031 225.699219 C 544.300781 219.714844 543.605469 213.632812 541.277344 207.851562 C 537.921875 199.644531 531.84375 193.230469 528.019531 185.355469 C 516.789062 162.359375 501.640625 139.660156 484.128906 120.585938 C 474.859375 110.484375 463.859375 102.574219 454.289062 92.871094 C 445.652344 84.097656 433.457031 76.386719 423.089844 69.941406 C 412.523438 63.359375 402.15625 61.101562 390.5625 57.414062 C 386.839844 56.214844 383.847656 54.554688 379.863281 54.121094 C 372.019531 53.292969 366.804688 50.367188 359.496094 48.242188 C 348.960938 45.183594 336.136719 44.1875 325.070312 44.21875 C 309.121094 44.253906 291.679688 41.429688 275.894531 43.6875 C 269.082031 44.652344 263.300781 47.773438 256.324219 48.207031 C 247.851562 48.738281 239.613281 48.605469 231.171875 50.300781 C 218.746094 52.792969 206.949219 56.449219 195.550781 62.066406 C 163.554688 77.851562 135.210938 95.0625 110.625 121.050781 C 90.15625 142.652344 71.382812 169.402344 56.429688 195.089844 C 37.226562 228.125 41.578125 266.472656 41.546875 303.195312 C 41.546875 304.523438 42.277344 305.355469 43.207031 305.753906 C 43.371094 310.738281 43.539062 315.753906 43.507812 320.839844 C 43.40625 335.5625 44.46875 350.25 47.359375 364.707031 C 49.917969 377.566406 56.03125 389.597656 60.320312 402.058594 C 69.191406 427.878906 86.933594 452.835938 105.707031 472.640625 C 126.972656 495.074219 151.824219 509.664062 179.269531 523.054688 C 190.734375 528.636719 199.40625 538.042969 211.300781 542.894531 C 226.488281 549.042969 243.832031 550.335938 259.679688 554.292969 C 273.402344 557.714844 285.265625 558.179688 299.351562 558.511719 C 313.476562 558.84375 326.132812 555.125 340.089844 554.058594 C 355.007812 552.929688 367.769531 551.300781 381.921875 546.351562 C 396.144531 541.367188 410.363281 540.632812 423.988281 533.589844 C 449.574219 520.363281 470.007812 499.195312 491.570312 480.984375 C 499.578125 474.238281 504.429688 464.964844 510.644531 456.589844 C 519.613281 444.496094 523.769531 432 529.25 418.109375 C 533.871094 406.378906 538.785156 394.746094 543.105469 382.917969 C 547.691406 370.320312 554.269531 359.988281 557.160156 346.460938 C 562.976562 319.511719 561.878906 292.726562 555.53125 266.074219 Z M 555.53125 266.074219 " fill-opacity="1" fill-rule="nonzero"/></g><g clip-path="url(#7300f68fd1)"><path fill="#969583" d="M 552.410156 245.535156 C 550.78125 238.757812 547.558594 232.511719 545.832031 225.730469 C 544.300781 219.75 543.605469 213.667969 541.277344 207.886719 C 537.921875 199.675781 531.84375 193.261719 528.019531 185.386719 C 516.789062 162.390625 501.640625 139.695312 484.128906 120.621094 C 474.859375 110.515625 463.859375 102.609375 454.289062 92.902344 C 445.652344 84.128906 433.457031 76.421875 423.089844 69.972656 C 412.523438 63.394531 402.15625 61.132812 390.5625 57.445312 C 386.839844 56.25 383.847656 54.585938 379.863281 54.15625 C 375.875 53.722656 372.585938 52.761719 369.328125 51.628906 C 384.746094 60.570312 396.941406 73.761719 408.171875 87.785156 C 417.542969 99.484375 427.109375 109.886719 435.351562 122.414062 C 445.519531 137.933594 454.621094 153.519531 463.59375 169.769531 C 480.738281 200.808594 492.933594 233.042969 495.824219 268.632812 C 497.121094 284.484375 498.183594 299.171875 496.554688 314.957031 C 494.5625 334.097656 490.742188 351.246094 486.089844 369.824219 C 482.5 384.113281 475.390625 396.109375 469.640625 409.535156 C 462.664062 425.886719 451.199219 443.199219 438.441406 455.660156 C 414.152344 479.386719 383.882812 496.203125 353.644531 511.023438 C 319.855469 527.609375 278.089844 536.28125 240.675781 535.019531 C 227.449219 534.585938 214.988281 537.078125 202.230469 538.109375 C 205.089844 539.902344 208.078125 541.566406 211.269531 542.859375 C 226.453125 549.007812 243.796875 550.304688 259.648438 554.257812 C 273.371094 557.683594 285.230469 558.148438 299.320312 558.480469 C 313.441406 558.8125 326.101562 555.089844 340.054688 554.027344 C 354.976562 552.898438 367.734375 551.269531 381.890625 546.316406 C 396.109375 541.332031 410.332031 540.601562 423.953125 533.554688 C 449.539062 520.328125 469.972656 499.160156 491.539062 480.949219 C 499.546875 474.203125 504.398438 464.933594 510.609375 456.558594 C 519.582031 444.460938 523.734375 431.964844 529.21875 418.074219 C 533.835938 406.34375 538.753906 394.714844 543.074219 382.882812 C 547.660156 370.289062 554.238281 359.953125 557.128906 346.429688 C 562.941406 319.445312 561.847656 292.660156 555.464844 266.007812 C 553.90625 259.292969 554.070312 252.28125 552.410156 245.535156 Z M 552.410156 245.535156 " fill-opacity="1" fill-rule="nonzero"/></g><path fill="#999281" d="M 498.882812 473.207031 C 503.066406 467.921875 506.625 462.109375 510.675781 456.589844 C 513.234375 453.167969 515.363281 449.679688 517.253906 446.15625 C 505.660156 444.527344 494.03125 443.464844 482.402344 443.097656 C 476.21875 442.898438 470.105469 442.300781 463.59375 441.636719 C 457.113281 441.003906 450.4375 440.339844 443.589844 440.074219 C 431.5625 439.644531 419.667969 439.34375 406.378906 440.273438 C 395.214844 441.070312 383.949219 442.335938 373.085938 443.566406 C 358.996094 445.160156 344.410156 446.820312 330.289062 447.351562 C 322.910156 447.617188 316 448.78125 309.289062 449.878906 C 303.671875 450.808594 298.355469 451.671875 293.074219 452.003906 C 284.800781 452.539062 276.726562 453.601562 268.917969 454.597656 C 262.671875 455.394531 256.757812 456.191406 250.710938 456.722656 C 230.175781 458.519531 209.574219 461.777344 189.636719 464.933594 L 180.632812 466.363281 C 172.527344 467.625 164.453125 469.085938 156.378906 470.582031 C 152.292969 471.3125 148.238281 472.078125 144.183594 472.773438 C 140.03125 473.507812 135.710938 473.773438 131.125 474.070312 C 125.976562 474.402344 120.660156 474.734375 115.042969 475.734375 C 113.214844 476.066406 111.421875 476.265625 109.628906 476.53125 C 119.59375 486.433594 130.328125 494.808594 141.691406 502.21875 C 151.261719 500.855469 161.03125 499.460938 170.832031 497.730469 C 182.695312 495.636719 194.886719 494.011719 206.714844 492.449219 C 218.710938 490.851562 231.105469 489.226562 243.332031 487.066406 C 259.28125 484.238281 275.628906 482.28125 289.351562 481.480469 C 297.128906 481.050781 304.46875 479.953125 311.582031 478.921875 C 316 478.292969 320.386719 477.628906 324.9375 477.128906 C 350.324219 474.371094 376.339844 471.945312 398.46875 469.949219 C 423.488281 467.691406 447.046875 469.585938 473.097656 472.109375 C 477.183594 472.507812 480.972656 472.375 484.59375 472.242188 C 487.285156 472.144531 489.808594 472.078125 492.167969 472.210938 C 494.363281 472.410156 496.621094 472.773438 498.882812 473.207031 Z M 498.882812 473.207031 " fill-opacity="1" fill-rule="nonzero"/><path fill="#999281" d="M 90.390625 200.007812 C 108.695312 202.035156 130.5625 203.863281 153.320312 204.03125 C 165.679688 203.964844 177.808594 202.867188 189.503906 201.769531 C 201.46875 200.675781 212.765625 199.609375 224.292969 199.609375 C 236.820312 199.609375 249.179688 198.449219 261.140625 197.316406 C 271.742188 196.320312 281.777344 195.355469 291.945312 195.15625 C 303.007812 194.925781 314.007812 194.226562 324.671875 193.53125 C 335.039062 192.863281 345.769531 192.167969 356.304688 191.933594 C 363.015625 191.769531 369.5625 192.699219 376.539062 193.664062 C 379.628906 194.09375 382.71875 194.527344 385.875 194.859375 C 392.421875 195.589844 398.769531 195.457031 404.949219 195.390625 C 410.097656 195.324219 414.984375 195.222656 419.636719 195.621094 C 440.070312 197.382812 461.269531 201.40625 481.734375 205.261719 L 490.375 206.886719 C 495.757812 207.886719 500.972656 208.449219 505.992188 208.949219 C 511.308594 209.515625 516.359375 210.011719 521.308594 211.042969 C 524 211.609375 526.691406 212.171875 529.417969 212.769531 C 534.070312 213.765625 538.820312 214.765625 543.605469 215.660156 C 543.007812 213.035156 542.308594 210.410156 541.277344 207.851562 C 537.921875 199.644531 531.84375 193.230469 528.019531 185.355469 C 527.488281 184.257812 526.890625 183.195312 526.359375 182.097656 C 510.675781 179.171875 495.726562 176.914062 481.238281 175.417969 C 471.101562 174.386719 460.371094 172.460938 450.003906 170.597656 C 445.585938 169.800781 441.199219 169.039062 436.878906 168.304688 C 425.714844 166.445312 414.816406 166.214844 404.316406 166.011719 C 401.890625 165.945312 399.464844 165.914062 397.007812 165.847656 C 391.691406 165.679688 386.339844 165.015625 380.726562 164.285156 C 373.714844 163.386719 366.40625 162.492188 358.730469 162.523438 C 356.171875 162.523438 353.613281 162.523438 351.054688 162.523438 C 340.390625 162.457031 329.289062 162.457031 318.292969 164.019531 C 300.484375 166.546875 281.476562 167.609375 263.136719 168.605469 C 255.128906 169.039062 247.152344 169.503906 239.246094 170.035156 C 233.53125 170.433594 227.847656 170.5 221.800781 170.566406 C 213.5625 170.664062 205.023438 170.765625 196.285156 171.796875 C 183.957031 173.257812 170.632812 174.621094 156.511719 174.621094 L 156.078125 174.621094 C 135.84375 174.585938 115.210938 172.925781 95.242188 171.332031 C 89.925781 170.898438 84.574219 170.464844 79.226562 170.066406 C 77.132812 169.902344 74.839844 169.601562 72.578125 169.269531 C 66.832031 177.8125 61.414062 186.484375 56.429688 195.023438 C 56.398438 195.058594 56.398438 195.089844 56.363281 195.125 C 67.164062 197.285156 78.261719 198.648438 90.390625 200.007812 Z M 90.390625 200.007812 " fill-opacity="1" fill-rule="nonzero"/><path fill="#999281" d="M 44.703125 346.527344 C 50.117188 346.761719 55.601562 347.425781 61.8125 348.191406 L 64.570312 348.523438 C 73.542969 349.652344 82.28125 349.453125 90.753906 349.21875 C 93.511719 349.152344 96.304688 349.085938 99.0625 349.085938 C 106.539062 349.054688 114.144531 350.148438 122.121094 351.3125 C 125.476562 351.8125 128.867188 352.308594 132.289062 352.710938 C 137.039062 353.273438 141.757812 353.707031 146.441406 354.136719 C 154.382812 354.835938 161.894531 355.5 169.4375 356.960938 L 194.289062 361.75 C 209.074219 364.574219 223.863281 367.398438 238.613281 370.320312 C 262.902344 375.140625 287.191406 382.816406 310.683594 390.292969 C 327.464844 395.609375 344.773438 401.09375 362.253906 405.613281 C 372.785156 408.339844 383.25 411.097656 393.75 413.886719 C 427.644531 422.894531 462.664062 432.167969 498.183594 438.910156 C 505.925781 440.375 512.96875 441.203125 519.714844 441.4375 C 523.304688 433.992188 526.09375 426.316406 529.316406 418.109375 C 530.148438 416.015625 531.011719 413.921875 531.84375 411.828125 C 526.757812 412.261719 521.707031 412.425781 516.824219 412.09375 C 486.355469 410 455.621094 400.894531 425.882812 392.121094 C 411.429688 387.867188 396.507812 383.449219 381.691406 379.859375 C 360.058594 374.609375 338.363281 367.960938 317.363281 361.515625 C 298.753906 355.800781 279.484375 349.882812 260.113281 344.898438 C 236.621094 338.851562 212.164062 334.199219 191.332031 330.476562 C 179.171875 328.285156 166.976562 326.953125 155.214844 325.691406 C 145.445312 324.628906 135.3125 323.53125 125.542969 321.96875 C 112.085938 319.808594 99.328125 319.808594 86.367188 320.007812 C 79.921875 320.109375 73.476562 319.3125 66.632812 318.480469 C 61.183594 317.816406 55.566406 317.117188 49.6875 316.851562 C 47.558594 316.753906 45.5 316.753906 43.472656 316.820312 C 43.472656 318.179688 43.574219 319.511719 43.539062 320.875 C 43.441406 329.414062 43.839844 337.988281 44.703125 346.527344 Z M 44.703125 346.527344 " fill-opacity="1" fill-rule="nonzero"/><path fill="#999281" d="M 171.03125 107.660156 C 177.742188 107.394531 184.089844 107.195312 190.234375 107.195312 C 203.757812 107.128906 217.082031 105.964844 230.042969 104.699219 C 236.988281 104.035156 243.964844 103.339844 250.910156 102.875 C 256.191406 102.507812 261.074219 101.542969 265.761719 100.582031 C 269.683594 99.78125 273.371094 99.019531 276.925781 98.71875 C 280.78125 98.421875 284.765625 98.386719 288.953125 98.386719 C 294.601562 98.355469 300.484375 98.355469 306.5625 97.589844 C 327.464844 94.964844 354.3125 92.40625 376.972656 96.09375 C 387.570312 97.820312 398.171875 98.621094 408.402344 99.382812 C 421.792969 100.414062 434.421875 101.34375 446.980469 104.203125 C 455.453125 106.128906 463.960938 107.726562 472.332031 109.253906 C 466.253906 103.871094 460.070312 98.6875 454.355469 92.871094 C 446.050781 84.464844 434.519531 77.019531 424.417969 70.738281 C 418.074219 70.074219 411.761719 69.609375 405.578125 69.144531 C 396.574219 68.480469 388.070312 67.878906 379.5625 66.71875 C 355.441406 63.460938 329.558594 65.15625 316.300781 66.453125 C 309.6875 67.082031 303.007812 67.515625 296.328125 67.914062 C 284.234375 68.644531 271.707031 69.410156 259.347656 71.570312 C 253.234375 72.632812 247.054688 73.066406 240.542969 73.496094 C 236.585938 73.761719 232.601562 74.027344 228.578125 74.425781 C 224.558594 74.824219 220.539062 75.425781 216.519531 76.023438 C 210.636719 76.886719 205.089844 77.71875 199.738281 77.917969 C 188.773438 78.347656 176.8125 78.679688 164.683594 78.746094 C 151.0625 86.855469 138.234375 95.828125 126.207031 106.296875 C 140.859375 108.789062 156.179688 108.257812 171.03125 107.660156 Z M 171.03125 107.660156 " fill-opacity="1" fill-rule="nonzero"/><path fill="#999281" d="M 115.773438 275.078125 C 122.453125 275.414062 129.332031 275.746094 136.242188 275.8125 C 141.957031 275.878906 147.671875 276.574219 153.6875 277.371094 C 159.566406 278.136719 165.679688 278.902344 172.0625 279.066406 L 176.945312 279.199219 C 189.273438 279.5 200.902344 279.796875 213.097656 281.757812 C 216.386719 282.292969 219.707031 282.855469 223.03125 283.386719 C 231.671875 284.851562 240.574219 286.34375 249.480469 287.375 C 273.902344 290.234375 296.996094 296.515625 321.417969 303.195312 C 341.285156 308.609375 361.820312 314.226562 382.953125 317.714844 C 423.621094 324.460938 459.207031 327.753906 491.871094 327.753906 C 507.71875 327.753906 522.90625 326.988281 537.65625 325.425781 C 545.664062 324.59375 553.175781 323.664062 560.417969 322.699219 C 561.117188 312.863281 560.949219 303.027344 559.984375 293.222656 C 551.445312 294.421875 542.441406 295.484375 532.707031 296.480469 C 488.914062 300.902344 440.898438 298.308594 385.875 288.539062 C 367.101562 285.214844 348.296875 279.964844 330.121094 274.914062 C 308.988281 269.03125 287.125 262.949219 264.464844 259.527344 C 257.886719 258.53125 251.273438 257.402344 244.59375 256.238281 C 228.347656 253.445312 211.566406 250.523438 194.855469 249.625 C 187.011719 249.191406 179.203125 248.859375 171.394531 248.496094 C 156.742188 247.828125 141.558594 247.164062 126.707031 246.003906 C 109.261719 244.605469 92.082031 245.269531 75.503906 245.902344 C 65.800781 246.269531 55.800781 246.734375 45.929688 246.601562 C 44.535156 246.566406 43.171875 246.632812 41.84375 246.667969 C 41.082031 256.601562 41.015625 266.671875 41.148438 276.773438 C 59.6875 274.980469 78.359375 274.183594 96.902344 274.347656 C 103.214844 274.449219 109.496094 274.78125 115.773438 275.078125 Z M 115.773438 275.078125 " fill-opacity="1" fill-rule="nonzero"/><path fill="#8c8574" d="M 514.429688 451.042969 C 515.429688 449.414062 516.390625 447.785156 517.289062 446.15625 C 505.691406 444.527344 494.0625 443.464844 482.433594 443.097656 C 476.253906 442.898438 470.140625 442.300781 463.628906 441.636719 C 459.671875 441.238281 455.621094 440.871094 451.53125 440.574219 C 447.445312 446.023438 443.027344 451.140625 438.441406 455.628906 C 433.589844 460.347656 428.441406 464.765625 423.191406 468.988281 C 439.503906 469.054688 455.785156 470.449219 473.128906 472.144531 C 477.21875 472.542969 481.003906 472.410156 484.625 472.277344 C 487.316406 472.175781 489.84375 472.109375 492.203125 472.242188 C 494.363281 472.375 496.589844 472.742188 498.847656 473.175781 C 498.847656 473.175781 498.847656 473.175781 498.847656 473.140625 C 503.035156 467.855469 506.589844 462.042969 510.644531 456.558594 C 511.90625 454.863281 513.035156 453.167969 514.132812 451.441406 C 514.265625 451.339844 514.332031 451.207031 514.429688 451.042969 Z M 514.429688 451.042969 " fill-opacity="1" fill-rule="nonzero"/><path fill="#8c8574" d="M 481.238281 175.453125 C 476.085938 174.917969 470.804688 174.15625 465.453125 173.292969 C 471.070312 183.691406 476.121094 194.226562 480.441406 205.027344 C 480.871094 205.09375 481.304688 205.195312 481.734375 205.261719 L 490.375 206.886719 C 495.757812 207.886719 500.972656 208.449219 505.992188 208.949219 C 511.308594 209.515625 516.359375 210.011719 521.308594 211.042969 C 524 211.609375 526.691406 212.171875 529.417969 212.769531 C 534.070312 213.765625 538.820312 214.765625 543.605469 215.660156 C 543.304688 214.398438 543.007812 213.136719 542.640625 211.90625 C 542.242188 210.542969 541.808594 209.214844 541.277344 207.886719 C 537.921875 199.675781 531.84375 193.261719 528.019531 185.386719 C 527.488281 184.292969 526.890625 183.226562 526.359375 182.132812 C 510.675781 179.207031 495.726562 176.945312 481.238281 175.453125 Z M 481.238281 175.453125 " fill-opacity="1" fill-rule="nonzero"/><path fill="#8c8574" d="M 516.789062 412.09375 C 501.804688 411.0625 486.753906 408.339844 471.800781 404.78125 C 471.070312 406.378906 470.339844 407.90625 469.640625 409.535156 C 466.683594 416.480469 462.894531 423.558594 458.578125 430.371094 C 471.703125 433.460938 484.894531 436.417969 498.183594 438.945312 C 505.925781 440.40625 512.96875 441.238281 519.714844 441.472656 C 523.304688 434.027344 526.09375 426.351562 529.316406 418.140625 C 530.148438 416.046875 531.011719 413.957031 531.84375 411.863281 C 526.726562 412.261719 521.675781 412.425781 516.789062 412.09375 Z M 516.789062 412.09375 " fill-opacity="1" fill-rule="nonzero"/><path fill="#8c8574" d="M 444.222656 84.230469 C 442.726562 83.066406 441.234375 81.902344 439.671875 80.808594 C 438.109375 79.675781 436.480469 78.648438 434.886719 77.550781 C 433.824219 76.851562 432.792969 76.121094 431.730469 75.425781 C 429.238281 73.796875 426.746094 72.234375 424.351562 70.738281 C 418.007812 70.074219 411.695312 69.609375 405.511719 69.144531 C 400.363281 68.777344 395.414062 68.378906 390.496094 67.914062 C 396.808594 74.027344 402.621094 80.773438 408.171875 87.71875 C 411.59375 91.972656 414.984375 96.0625 418.371094 100.148438 C 428.109375 100.980469 437.542969 102.042969 446.949219 104.203125 C 455.421875 106.128906 463.925781 107.726562 472.300781 109.253906 C 469.011719 106.363281 465.722656 103.472656 462.464844 100.546875 C 459.671875 98.054688 456.949219 95.527344 454.324219 92.871094 C 452.199219 90.710938 449.871094 88.648438 447.378906 86.625 C 446.382812 85.824219 445.285156 85.0625 444.222656 84.230469 Z M 444.222656 84.230469 " fill-opacity="1" fill-rule="nonzero"/><path fill="#8c8574" d="M 560.484375 322.734375 C 561.183594 312.898438 561.015625 303.0625 560.050781 293.257812 C 551.511719 294.453125 542.507812 295.515625 532.773438 296.515625 C 521.277344 297.675781 509.449219 298.34375 497.285156 298.507812 C 497.285156 303.925781 497.121094 309.34375 496.523438 314.925781 C 496.058594 319.277344 495.492188 323.5 494.859375 327.6875 C 509.648438 327.585938 523.902344 326.886719 537.722656 325.425781 C 545.730469 324.59375 553.273438 323.699219 560.484375 322.734375 Z M 560.484375 322.734375 " fill-opacity="1" fill-rule="nonzero"/><path fill="#333333" d="M 336.167969 313.996094 C 335.96875 312.5 333.910156 311.46875 332.546875 311.933594 C 320.121094 316.320312 307.695312 312.367188 295.433594 314.859375 C 294.867188 314.957031 294.46875 315.222656 294.136719 315.554688 C 293.539062 315.855469 293.039062 316.453125 292.90625 317.417969 C 290.316406 334.164062 296.929688 372.449219 320.652344 370.15625 C 342.878906 367.960938 338.195312 328.648438 336.167969 313.996094 Z M 336.167969 313.996094 " fill-opacity="1" fill-rule="nonzero"/><path fill="#ffffff" d="M 332.480469 311.96875 C 320.085938 316.320312 307.695312 312.367188 295.433594 314.859375 C 295.199219 314.890625 295.101562 315.058594 294.902344 315.125 C 294.96875 317.847656 295.367188 320.605469 295.832031 322.667969 C 296.660156 326.390625 298.355469 327.886719 302.011719 328.417969 C 307.261719 329.179688 313.210938 328.683594 318.492188 328.316406 C 322.015625 328.085938 328.09375 328.019531 330.820312 325.328125 C 333.113281 323.066406 333.644531 316.488281 332.480469 311.96875 Z M 332.480469 311.96875 " fill-opacity="1" fill-rule="nonzero"/><path fill="#333333" d="M 414.617188 303.660156 C 414.550781 303.328125 414.453125 302.863281 414.253906 302.597656 L 414.019531 301.832031 C 410.5625 291.464844 406.675781 279.730469 394.25 277.40625 C 389 276.441406 384.214844 277.640625 379.996094 281.0625 C 372.417969 287.175781 368.765625 298.875 368.566406 307.148438 C 368.5 309.441406 370.257812 310.671875 372.054688 310.738281 C 372.085938 310.738281 372.121094 310.738281 372.152344 310.738281 C 373.980469 310.738281 375.84375 309.542969 375.910156 307.183594 C 376.074219 300.371094 379.296875 290.863281 384.914062 286.679688 C 387.738281 284.550781 390.960938 283.984375 394.382812 284.917969 C 401.691406 286.878906 404.417969 295.582031 406.609375 302.5625 C 406.941406 303.625 407.273438 304.65625 407.605469 305.652344 C 408.304688 307.679688 410.296875 308.476562 411.992188 308.144531 C 413.753906 307.847656 414.851562 306.484375 414.816406 304.6875 L 415.214844 304.722656 Z M 414.617188 303.660156 " fill-opacity="1" fill-rule="nonzero"/><path fill="#333333" d="M 246.789062 288.835938 C 242.304688 286.078125 237.21875 285.449219 231.738281 286.910156 C 217.78125 290.664062 215.855469 311.800781 215.6875 320.742188 C 215.65625 323.035156 217.449219 324.296875 219.242188 324.328125 C 219.277344 324.328125 219.308594 324.328125 219.308594 324.328125 C 221.136719 324.328125 222.996094 323.132812 223.03125 320.773438 C 223.164062 314.394531 224.226562 299.039062 231.804688 294.753906 C 235.09375 292.890625 238.28125 292.625 241.238281 293.957031 C 248.816406 297.34375 253.335938 310.007812 254.664062 316.1875 C 255.160156 318.480469 257.15625 319.113281 258.785156 318.78125 C 260.609375 318.382812 262.273438 316.6875 261.773438 314.328125 C 260.542969 308.675781 256.65625 294.886719 246.789062 288.835938 Z M 246.789062 288.835938 " fill-opacity="1" fill-rule="nonzero"/><path fill="#fcaba7" d="M 417.144531 339.417969 C 407.605469 335.828125 389.332031 339.117188 382.289062 346.925781 C 381.65625 347.625 381.457031 348.6875 381.625 349.683594 C 379.761719 354.835938 384.515625 363.875 389.230469 366 C 398.570312 370.1875 417.078125 373.046875 424.917969 364.40625 C 432.527344 356 425.683594 342.605469 417.144531 339.417969 Z M 417.144531 339.417969 " fill-opacity="1" fill-rule="nonzero"/><path fill="#fcaba7" d="M 249.179688 339.351562 C 248.980469 339.25 248.714844 339.152344 248.484375 339.050781 C 248.152344 338.71875 247.917969 338.320312 247.253906 338.121094 C 244.394531 337.222656 241.4375 337.488281 238.449219 337.6875 C 231.636719 338.085938 224.261719 338.484375 217.949219 341.511719 C 206.882812 346.828125 202.628906 363.242188 214.359375 370.023438 C 220.371094 373.511719 227.816406 372.582031 234.296875 370.921875 C 240.972656 369.191406 250.042969 367.066406 254.332031 361.050781 C 259.746094 353.539062 257.488281 342.109375 249.179688 339.351562 Z M 249.179688 339.351562 " fill-opacity="1" fill-rule="nonzero"/></svg>