<svg xmlns="http://www.w3.org/2000/svg" xmlns:xlink="http://www.w3.org/1999/xlink" width="800" zoomAndPan="magnify" viewBox="0 0 600 599.999999" height="800" preserveAspectRatio="xMidYMid meet" version="1.0"><defs><clipPath id="f7db27c601"><path d="M 8.398438 6 L 600 6 L 600 564 L 8.398438 564 Z M 8.398438 6 " clip-rule="nonzero"/></clipPath></defs><g clip-path="url(#f7db27c601)"><path fill="#ffdc2e" d="M 583.042969 162.242188 C 578.238281 160.519531 571.421875 159.285156 566.359375 158.898438 C 561.585938 158.539062 556.621094 158.441406 551.816406 158.28125 C 545.484375 158.054688 534.835938 160.164062 528.898438 158.34375 C 510.394531 152.664062 531.6875 130.691406 535.390625 122.542969 C 538.410156 115.824219 542.921875 106.832031 538.570312 99.753906 C 530.292969 86.351562 508.964844 96.671875 498.609375 101.214844 C 494.164062 103.164062 489.910156 105.632812 485.59375 107.902344 C 479.78125 110.953125 478.515625 113.972656 474.296875 108.03125 C 470.789062 103.132812 471.796875 100.566406 473.289062 95.113281 C 476.4375 83.625 482.800781 72.554688 484.847656 60.867188 C 485.882812 54.832031 488.058594 43.988281 481.082031 40.226562 C 475.140625 37.011719 464.425781 38.570312 458.164062 40.417969 C 448.585938 43.242188 439.789062 51.261719 432.453125 57.070312 C 430.210938 58.855469 428.039062 60.738281 425.894531 62.621094 C 424.628906 63.140625 423.816406 63.953125 422.292969 64.308594 C 420.34375 64.730469 411.9375 65.023438 410.636719 63.886719 C 409.113281 62.589844 409.308594 57.203125 408.527344 55.320312 C 405.476562 48.046875 398.886719 42.042969 389.441406 43.375 C 382.332031 44.378906 378.792969 49.769531 372.691406 52.332031 C 358.894531 58.175781 352.757812 45.125 350.386719 35.484375 C 348.246094 26.785156 345.714844 13.476562 336.203125 8.347656 C 320.683594 0.0390625 303.089844 16.59375 296.5 27.339844 C 290.984375 36.394531 288.027344 49.054688 276.828125 53.792969 C 274.589844 54.734375 272.414062 55.222656 270.238281 55.382812 C 255.402344 52.136719 248.976562 33.765625 231.414062 35.875 C 225.765625 36.558594 219.761719 39.476562 215.539062 42.855469 C 209.210938 47.949219 208.171875 55.902344 202.652344 61.128906 C 191.941406 71.222656 179.3125 57.6875 170.710938 52.363281 C 165.09375 48.859375 157.335938 46.003906 150.648438 44.738281 C 138.960938 42.53125 127.632812 49.019531 124.515625 58.855469 C 119.582031 74.535156 133.378906 106.214844 106.46875 109.429688 C 97.445312 110.5 85.886719 107.382812 83.453125 117.996094 C 82.21875 123.386719 84.621094 129.261719 84.425781 134.488281 C 83.972656 146.660156 68.453125 144.550781 58.847656 145.132812 C 55.601562 145.328125 53.261719 146.207031 50.082031 146.855469 C 45.179688 147.828125 40.40625 146.628906 35.667969 147.40625 C 30.539062 148.25 28.429688 150.585938 26.1875 154.675781 C 19.113281 167.597656 26.515625 181.195312 31.285156 193.660156 C 33.71875 200.023438 36.253906 206.289062 39.953125 212.195312 C 42.582031 216.382812 43.75 215.734375 41.445312 221.089844 C 38.945312 226.933594 34.660156 226.867188 28.722656 229.300781 C 19.078125 233.261719 16.257812 240.011719 20.019531 249.425781 C 22.195312 254.816406 27.457031 259.230469 31.578125 263.449219 C 34.402344 266.304688 39.953125 269.875 41.152344 273.542969 C 42.0625 276.367188 38.136719 287.859375 36.089844 289.515625 C 33.882812 291.332031 30.507812 292.207031 27.976562 293.703125 C 19.988281 298.441406 8.398438 302.433594 8.855469 312.234375 C 9.375 323.53125 18.625 330.089844 28.980469 335.054688 C 39.011719 339.890625 53.390625 342.78125 47.648438 355.863281 C 44.53125 363.003906 35.117188 365.015625 30.183594 370.339844 C 25.605469 375.238281 25.476562 385.433594 31.480469 389.425781 C 44.53125 398.089844 69.300781 384.75 79.75 396.015625 C 88.222656 405.167969 68.359375 419.191406 62.613281 427.433594 C 59.007812 432.5625 56.996094 438.179688 57.484375 444.25 C 57.90625 449.410156 60.308594 454.050781 66.183594 455.21875 C 72.871094 456.550781 80.433594 451.421875 86.632812 449.410156 C 93.09375 447.300781 100.882812 446.683594 106.242188 450.609375 C 110.753906 453.921875 112.3125 459.636719 112.441406 464.957031 C 112.570312 470.28125 111.597656 475.605469 112.277344 480.894531 C 112.960938 486.1875 115.847656 491.671875 121.238281 493.652344 C 125.554688 495.242188 130.390625 494.238281 135.003906 493.554688 C 139.613281 492.875 144.804688 492.742188 148.3125 495.566406 C 151.71875 498.328125 152.273438 502.96875 152.335938 507.15625 C 152.402344 512.578125 152.042969 518.128906 153.699219 523.351562 C 155.355469 528.578125 159.542969 533.546875 165.386719 534.488281 C 169.542969 535.167969 173.828125 533.707031 177.460938 531.726562 C 181.097656 529.746094 184.378906 527.183594 188.109375 525.332031 C 195.285156 521.796875 204.082031 521.144531 211.773438 523.582031 C 216.742188 525.136719 221.222656 527.960938 224.628906 531.628906 C 228.558594 535.785156 228.265625 538.804688 229.304688 543.867188 C 230.796875 551.203125 233.65625 562.46875 243.652344 563.179688 C 254.398438 563.960938 265.890625 549.515625 271.179688 542.925781 C 273.84375 539.617188 277.25 536.371094 280.367188 533.351562 C 281.4375 532.3125 282.347656 530.851562 283.613281 529.976562 C 295.234375 521.925781 300.039062 528.710938 306.46875 535.753906 C 310.980469 540.71875 313.347656 547.566406 320.359375 550.292969 C 333.152344 555.292969 338.703125 545.976562 341.914062 536.890625 C 344.835938 528.546875 356.265625 508.066406 370.191406 515.789062 C 377.265625 519.71875 382.71875 529.421875 387.265625 535.429688 C 394.082031 544.453125 404.761719 550.230469 414.078125 540.199219 C 427.324219 525.980469 424.042969 505.109375 433.167969 489.433594 C 436.835938 483.101562 439.300781 479.109375 447.386719 481.773438 C 455.566406 484.464844 461.570312 489.269531 469.230469 492.644531 C 479.199219 497.027344 489.324219 497.09375 489.910156 485.019531 C 490.300781 476.839844 484.714844 469.144531 484.714844 460.609375 C 484.714844 446.714844 485.917969 433.699219 503.382812 429.707031 C 517.601562 426.460938 532.5 436.425781 546.492188 436.945312 C 549.769531 437.074219 554.640625 438.246094 557.332031 435.941406 C 560.613281 433.117188 559.378906 425.550781 558.242188 422.210938 C 552.140625 404.195312 533.960938 391.4375 530.617188 372.351562 C 526.300781 347.875 561.847656 353.847656 576.195312 343.882812 C 586.746094 336.546875 578.304688 320.707031 571.128906 313.371094 C 561.714844 303.765625 548.601562 294.609375 546.847656 280.976562 C 545 266.566406 556.621094 264.359375 565.773438 257.410156 C 567.753906 256.925781 569.765625 256.4375 571.8125 255.917969 C 575.578125 254.976562 577.949219 254.394531 580.835938 251.925781 C 586.0625 247.480469 586.9375 243.84375 583.042969 238.488281 C 577.460938 230.796875 570.1875 228.914062 560.582031 227.191406 C 551.589844 225.570312 536.816406 225.308594 546.167969 212.78125 C 548.828125 209.242188 554.476562 206.546875 558.632812 204.371094 C 569.539062 198.691406 581.746094 195.121094 592.492188 189.410156 C 607.648438 181.359375 594.925781 166.523438 583.042969 162.242188 Z M 583.042969 162.242188 " fill-opacity="1" fill-rule="nonzero"/></g><path fill="#ffee76" d="M 531.785156 281.367188 C 531.820312 280.976562 531.851562 280.589844 531.882812 280.199219 C 534.449219 239.332031 520.261719 199.015625 499.226562 163.34375 C 487.929688 144.191406 474.359375 125.753906 455.761719 111.960938 C 409.664062 77.78125 344.1875 61.324219 285.917969 69.632812 C 254.980469 74.046875 224.726562 77.230469 195.640625 88.71875 C 169.21875 99.140625 141.203125 117.609375 121.496094 136.855469 C 107.214844 150.847656 95.59375 166.296875 87.152344 183.273438 C 80.886719 193.695312 76.148438 204.792969 73.488281 211.773438 C 58.554688 250.984375 58.78125 295.683594 69.039062 335.867188 C 81.960938 386.535156 108.351562 435.289062 156.003906 465.933594 C 195.511719 491.347656 248.101562 506.636719 296.015625 506.636719 C 310.265625 506.636719 324.96875 505.304688 339.675781 502.773438 C 340.324219 502.902344 341.007812 502.96875 341.753906 502.96875 C 362.527344 502.480469 385.542969 492.9375 406.320312 482.390625 C 416.902344 477.585938 427.097656 472.097656 436.640625 465.964844 C 436.800781 465.867188 436.964844 465.769531 437.125 465.703125 C 455.433594 455.609375 472.152344 443.828125 485.65625 428.441406 C 491.371094 421.917969 498.871094 408.707031 501.371094 405.394531 C 529.839844 367.742188 534.644531 324.765625 531.785156 281.367188 Z M 531.785156 281.367188 " fill-opacity="1" fill-rule="nonzero"/><path fill="#ffc756" d="M 510.878906 281.886719 C 510.914062 281.53125 510.945312 281.171875 510.976562 280.816406 C 513.316406 243.585938 500.394531 206.839844 481.210938 174.347656 C 470.917969 156.917969 458.585938 140.101562 441.605469 127.542969 C 399.601562 96.414062 339.96875 81.414062 286.859375 88.980469 C 258.683594 93.003906 231.121094 95.894531 204.601562 106.34375 C 180.515625 115.855469 155 132.636719 137.078125 150.199219 C 124.0625 162.953125 113.480469 177.007812 105.785156 192.460938 C 100.074219 201.972656 95.753906 212.066406 93.351562 218.394531 C 79.75 254.101562 79.945312 294.835938 89.296875 331.453125 C 101.078125 377.609375 125.101562 422.015625 168.503906 449.929688 C 204.503906 473.074219 252.417969 487 296.046875 487.03125 C 309.03125 487.03125 322.4375 485.828125 335.8125 483.523438 C 336.398438 483.65625 337.011719 483.71875 337.695312 483.6875 C 356.621094 483.234375 377.589844 474.566406 396.484375 464.925781 C 406.125 460.542969 415.410156 455.546875 424.109375 449.960938 C 424.273438 449.898438 424.402344 449.800781 424.5625 449.703125 C 441.25 440.515625 456.472656 429.773438 468.777344 415.75 C 473.972656 409.808594 480.789062 397.765625 483.09375 394.75 C 509.128906 360.570312 513.511719 321.390625 510.878906 281.886719 Z M 510.878906 281.886719 " fill-opacity="1" fill-rule="nonzero"/><path fill="#fbb93f" d="M 184.800781 146.300781 C 174.347656 150.910156 169.378906 158.734375 162.757812 167.207031 C 159.347656 171.554688 156.914062 176.683594 156.75 181.617188 C 154.675781 190.738281 157.335938 199.730469 168.699219 204.082031 C 191.0625 212.648438 211.613281 187.363281 220.800781 172.042969 C 233.296875 151.105469 203.203125 138.21875 184.800781 146.300781 Z M 184.800781 146.300781 " fill-opacity="1" fill-rule="nonzero"/><path fill="#fbb93f" d="M 380.089844 157.824219 C 376.128906 145.878906 364.378906 133.742188 351.652344 129.359375 C 339.285156 125.105469 322.339844 127.214844 315.003906 138.351562 C 312.082031 142.765625 311.757812 148.898438 313.804688 153.996094 C 313.640625 160.324219 316.398438 166.65625 322.375 171.003906 C 327.859375 174.996094 336.074219 177.367188 342.597656 179.410156 C 349.285156 181.519531 357.757812 184.441406 364.996094 183.210938 C 378.011719 181.003906 383.726562 168.796875 380.089844 157.824219 Z M 380.089844 157.824219 " fill-opacity="1" fill-rule="nonzero"/><path fill="#fbb93f" d="M 273.160156 199.050781 C 266.214844 192.816406 257.382812 196.484375 250.664062 202.003906 C 250.4375 202.066406 250.210938 202.101562 249.949219 202.199219 C 242.128906 204.957031 237.613281 213.949219 237.777344 222.128906 C 236.414062 228.621094 237.777344 235.144531 245.503906 237.9375 C 248.75 239.105469 251.734375 238.617188 254.527344 237.351562 C 260.628906 236.765625 266.960938 233.617188 270.886719 229.5625 C 278.515625 221.675781 282.378906 207.328125 273.160156 199.050781 Z M 273.160156 199.050781 " fill-opacity="1" fill-rule="nonzero"/><path fill="#fbb93f" d="M 145.910156 220.148438 C 135.683594 204.46875 117.539062 212.683594 107.375 223.847656 C 99.941406 232.0625 95.269531 243.421875 92.929688 254.816406 C 86.050781 275.328125 89.132812 298.277344 118.15625 297.726562 C 159.1875 297.011719 161.878906 244.65625 145.910156 220.148438 Z M 145.910156 220.148438 " fill-opacity="1" fill-rule="nonzero"/><path fill="#fbb93f" d="M 213.917969 250.269531 C 213.496094 246.636719 210.898438 242.1875 207.425781 240.273438 C 202.78125 237.675781 197.652344 239.882812 194.246094 243.097656 C 191.648438 245.53125 190.351562 249.554688 191.257812 252.996094 C 190.738281 256.535156 191 260.558594 193.886719 263.15625 C 202.261719 270.558594 214.890625 258.484375 213.917969 250.269531 Z M 213.917969 250.269531 " fill-opacity="1" fill-rule="nonzero"/><path fill="#fbb93f" d="M 152.464844 395.59375 C 143.476562 377.351562 122.535156 362.96875 101.402344 367.515625 C 112.570312 393.773438 128.738281 418.054688 151.394531 437.207031 C 152.175781 436.621094 152.890625 435.941406 153.601562 435.160156 C 164.121094 423.152344 158.601562 408.058594 152.464844 395.59375 Z M 152.464844 395.59375 " fill-opacity="1" fill-rule="nonzero"/><path fill="#fbb93f" d="M 222.097656 309.28125 C 199.570312 297.53125 174.898438 306.457031 169.671875 331.03125 C 169.574219 331.417969 169.542969 331.808594 169.476562 332.230469 C 159.1875 359.140625 192.558594 424.222656 227.617188 376.019531 C 243.003906 354.855469 249.429688 323.53125 222.097656 309.28125 Z M 222.097656 309.28125 " fill-opacity="1" fill-rule="nonzero"/><path fill="#fbb93f" d="M 388.855469 265.136719 C 375.027344 255.917969 353.113281 261.566406 340.066406 269 C 331.171875 274.0625 317.796875 283.671875 316.5625 294.578125 C 313.25 299.253906 312.277344 304.640625 316.335938 310.484375 C 325.035156 322.980469 344.253906 321.519531 357.398438 318.242188 C 370.808594 314.898438 383.109375 309.21875 391.355469 298.570312 C 399.179688 288.441406 401.257812 273.382812 388.855469 265.136719 Z M 388.855469 265.136719 " fill-opacity="1" fill-rule="nonzero"/><path fill="#fbb93f" d="M 446.734375 216.027344 C 442.773438 209.371094 437.515625 201.417969 427.941406 202.261719 C 418.136719 203.105469 416.253906 210.054688 417.910156 217.875 C 417.875 218.070312 417.84375 218.265625 417.8125 218.460938 C 416.96875 225.375 418.949219 230.957031 421.707031 237.285156 C 424.433594 243.550781 429.726562 249.75 437.453125 251.050781 C 445.664062 252.414062 450.5 244.816406 452.058594 238.390625 C 453.746094 231.476562 450.304688 222.0625 446.734375 216.027344 Z M 446.734375 216.027344 " fill-opacity="1" fill-rule="nonzero"/><path fill="#fbb93f" d="M 510.878906 281.886719 C 510.914062 281.53125 510.945312 281.171875 510.976562 280.816406 C 512.4375 257.25 507.796875 233.878906 499.324219 211.644531 C 484.617188 223.296875 479.488281 248.289062 476.082031 263.773438 C 472.25 281.105469 474.78125 307.722656 497.636719 313.632812 C 503.15625 315.058594 507.632812 314.441406 511.238281 312.527344 C 511.757812 302.402344 511.5625 292.144531 510.878906 281.886719 Z M 510.878906 281.886719 " fill-opacity="1" fill-rule="nonzero"/><path fill="#fbb93f" d="M 434.722656 354.175781 C 427.550781 349.078125 414.5 348.296875 406.253906 351.414062 C 398.953125 354.175781 393.140625 361.121094 388.953125 367.742188 C 386 371.898438 384.019531 376.277344 383.660156 379.847656 C 381.941406 397.476562 404.792969 408.511719 420.117188 397.960938 C 432.386719 389.488281 452.058594 366.476562 434.722656 354.175781 Z M 434.722656 354.175781 " fill-opacity="1" fill-rule="nonzero"/><path fill="#fbb93f" d="M 322.179688 361.121094 C 311.433594 354.464844 297.246094 354.984375 286.371094 360.992188 C 279.75 364.625 274.460938 369.039062 272.804688 375.109375 C 269.785156 381.601562 269.945312 389.652344 273.160156 395.722656 C 276.308594 401.628906 282.316406 404.324219 287.867188 408.121094 C 293.253906 411.789062 297.605469 412.730469 304.355469 412.570312 C 318.445312 412.242188 330.941406 404.777344 336.558594 392.445312 C 341.816406 380.886719 332.339844 367.386719 322.179688 361.121094 Z M 322.179688 361.121094 " fill-opacity="1" fill-rule="nonzero"/><path fill="#fbb93f" d="M 247.644531 435.226562 C 242.484375 431.621094 236.609375 428.246094 229.757812 428.960938 C 227.128906 429.21875 226.316406 430.257812 224.144531 431.265625 C 223.363281 431.621094 226.125 430.03125 223.167969 431.425781 C 220.898438 432.464844 219.597656 433.863281 218.820312 435.613281 C 215.214844 436.914062 212.617188 439.703125 213.007812 443.988281 C 214.273438 457.492188 234.5625 461.09375 246.152344 460.285156 C 252.710938 459.828125 259.785156 456.292969 259.203125 449.3125 C 258.714844 442.691406 252.871094 438.894531 247.644531 435.226562 Z M 247.644531 435.226562 " fill-opacity="1" fill-rule="nonzero"/><path fill="#f9b843" d="M 483.125 394.8125 C 509.128906 360.570312 513.511719 321.390625 510.878906 281.886719 C 510.914062 281.53125 510.945312 281.171875 510.976562 280.816406 C 513.316406 243.585938 500.394531 206.839844 481.210938 174.347656 C 470.917969 156.917969 458.585938 140.101562 441.605469 127.542969 C 421.382812 112.542969 397.035156 101.3125 371.324219 94.53125 C 380.285156 99.691406 387.492188 106.539062 396.648438 113.453125 C 420.050781 131.144531 439.5625 148.835938 455.207031 173.308594 C 462.933594 185.382812 469.6875 196.09375 472.542969 210.085938 C 475.433594 224.269531 476.566406 239.070312 478.289062 253.417969 C 481.179688 277.277344 477.023438 304.671875 470.917969 327.945312 C 463.257812 357.128906 449.625 392.347656 427.386719 414.09375 C 404.859375 436.101562 375.027344 446.230469 345.390625 457.753906 C 317.925781 468.429688 285.789062 476.222656 255.792969 476.058594 C 243.652344 475.996094 229.984375 475.019531 216.222656 472.945312 C 242.03125 482 269.785156 487.0625 296.015625 487.0625 C 309 487.0625 322.40625 485.863281 335.78125 483.558594 C 336.363281 483.6875 336.980469 483.753906 337.664062 483.71875 C 356.589844 483.265625 377.558594 474.597656 396.453125 464.957031 C 406.09375 460.578125 415.378906 455.578125 424.078125 449.996094 C 424.238281 449.929688 424.371094 449.832031 424.53125 449.734375 C 441.21875 440.546875 456.441406 429.804688 468.746094 415.78125 C 474.003906 409.875 480.820312 397.832031 483.125 394.8125 Z M 483.125 394.8125 " fill-opacity="1" fill-rule="nonzero"/><path fill="#333333" d="M 241.574219 281.238281 C 237.9375 280.394531 234.078125 283.703125 232.90625 286.496094 C 232.128906 288.410156 231.347656 291.429688 231.445312 294.1875 C 231.316406 297.757812 231.773438 301.652344 233.328125 304.574219 C 235.375 308.4375 238.296875 310.679688 243.070312 310.351562 C 247.679688 310.027344 250.082031 307.074219 251.867188 303.246094 C 255.175781 296.234375 249.984375 283.21875 241.574219 281.238281 Z M 241.574219 281.238281 " fill-opacity="1" fill-rule="nonzero"/><path fill="#333333" d="M 372.917969 281.757812 C 371.585938 279.417969 369.25 277.699219 365.484375 277.277344 C 361.910156 276.886719 358.144531 278.316406 355.9375 280.945312 C 352.496094 285.035156 353.015625 290.878906 353.894531 295.683594 C 354.769531 300.550781 358.375 305.386719 364.476562 305.453125 C 371.714844 305.515625 373.535156 297.5 374.214844 292.46875 C 374.734375 288.832031 374.636719 284.773438 372.917969 281.757812 Z M 372.917969 281.757812 " fill-opacity="1" fill-rule="nonzero"/><path fill="#333333" d="M 314.582031 294.480469 C 314.582031 291.589844 309.714844 291.589844 309.714844 294.480469 C 309.714844 297.792969 311.078125 300.90625 310.945312 304.285156 C 310.75 309.347656 308.675781 314.152344 303.351562 316.066406 C 291.4375 320.382812 289.683594 304.023438 289.652344 296.71875 C 289.617188 293.832031 284.75 293.832031 284.78125 296.71875 C 284.816406 303.570312 285.269531 310.96875 290.074219 316.519531 C 292.867188 319.765625 297.667969 322.753906 302.34375 321.519531 C 307.148438 320.253906 312.375 317.007812 314.0625 312.527344 C 315.230469 309.445312 315.976562 306.101562 315.847656 302.855469 C 315.6875 300.03125 314.582031 297.273438 314.582031 294.480469 Z M 314.582031 294.480469 " fill-opacity="1" fill-rule="nonzero"/><path fill="#fcaba7" d="M 369.605469 328.824219 C 362.203125 328.855469 355.875 331.0625 351.492188 336.644531 C 351.199219 337.035156 350.90625 337.488281 350.617188 337.945312 C 344.058594 344.4375 345.519531 358.265625 353.34375 363.488281 C 357.757812 366.445312 366.585938 367.417969 371.683594 366.445312 C 376.195312 365.566406 381.292969 365.371094 384.894531 362.125 C 397.359375 350.863281 386.097656 328.757812 369.605469 328.824219 Z M 369.605469 328.824219 " fill-opacity="1" fill-rule="nonzero"/><path fill="#fcaba7" d="M 242.160156 333.269531 C 234.757812 333.300781 228.429688 335.507812 224.046875 341.09375 C 223.753906 341.480469 223.460938 341.9375 223.167969 342.390625 C 216.613281 348.882812 218.074219 362.710938 225.894531 367.9375 C 230.3125 370.890625 239.140625 371.863281 244.238281 370.890625 C 248.75 370.015625 253.847656 369.820312 257.449219 366.574219 C 269.945312 355.308594 258.648438 333.203125 242.160156 333.269531 Z M 242.160156 333.269531 " fill-opacity="1" fill-rule="nonzero"/><path fill="#ffffff" d="M 359.574219 285.066406 C 356.425781 285.066406 356.425781 289.546875 359.574219 289.546875 C 362.722656 289.546875 362.722656 285.066406 359.574219 285.066406 Z M 359.574219 285.066406 " fill-opacity="1" fill-rule="nonzero"/><path fill="#ffffff" d="M 244.855469 288.152344 C 241.703125 288.152344 241.703125 292.628906 244.855469 292.628906 C 247.96875 292.628906 247.96875 288.152344 244.855469 288.152344 Z M 244.855469 288.152344 " fill-opacity="1" fill-rule="nonzero"/><path fill="#333333" d="M 374.085938 252.121094 C 373.5 250.886719 372.558594 249.785156 371.617188 248.746094 C 371.035156 248.097656 370.515625 247.804688 369.636719 247.511719 C 368.988281 247.285156 368.535156 246.992188 367.59375 246.734375 C 366.035156 246.3125 364.3125 245.890625 362.625 245.984375 C 360.742188 246.117188 359.605469 246.863281 358.050781 247.675781 C 355.320312 249.101562 357.757812 252.964844 360.515625 251.535156 C 361.230469 251.179688 361.816406 250.53125 362.625 250.433594 C 363.535156 250.304688 364.152344 250.691406 365.027344 250.917969 C 365.9375 251.148438 366.976562 251.34375 367.917969 251.632812 C 367.789062 251.699219 368.40625 252.25 368.664062 252.542969 C 369.152344 253.128906 369.574219 253.550781 369.769531 254.328125 C 369.960938 255.042969 370.675781 255.757812 371.457031 255.886719 L 371.714844 255.917969 C 374.3125 256.40625 375.644531 253.386719 374.085938 252.121094 Z M 374.085938 252.121094 " fill-opacity="1" fill-rule="nonzero"/><path fill="#333333" d="M 244.238281 246.503906 C 242.710938 246.601562 241.609375 245.726562 239.886719 246.117188 C 238.230469 246.472656 236.707031 246.925781 235.210938 247.738281 C 233.558594 248.648438 232.0625 249.816406 230.796875 251.148438 C 229.53125 252.445312 229.140625 254.070312 228.136719 255.464844 C 226.414062 257.898438 230.636719 260.136719 232.355469 257.738281 C 233.101562 256.664062 233.363281 255.367188 234.269531 254.359375 C 235.308594 253.191406 236.640625 252.1875 238.070312 251.4375 C 238.816406 251.050781 239.953125 250.59375 240.992188 250.5625 C 241.089844 250.53125 241.089844 250.53125 241.121094 250.496094 C 241.347656 250.628906 241.609375 250.726562 241.867188 250.824219 C 242.644531 251.113281 243.457031 251.050781 244.269531 250.984375 C 247.351562 250.789062 247.386719 246.34375 244.238281 246.503906 Z M 244.238281 246.503906 " fill-opacity="1" fill-rule="nonzero"/></svg>