<svg xmlns="http://www.w3.org/2000/svg" xmlns:xlink="http://www.w3.org/1999/xlink" width="800" zoomAndPan="magnify" viewBox="0 0 600 599.999999" height="800" preserveAspectRatio="xMidYMid meet" version="1.0"><defs><clipPath id="36de0622f0"><path d="M 13.363281 27 L 585 27 L 585 453 L 13.363281 453 Z M 13.363281 27 " clip-rule="nonzero"/></clipPath><clipPath id="fd63bb0a7a"><path d="M 13.363281 150 L 573 150 L 573 320 L 13.363281 320 Z M 13.363281 150 " clip-rule="nonzero"/></clipPath><clipPath id="c0cb8c5817"><path d="M 190 510 L 493 510 L 493 583.859375 L 190 583.859375 Z M 190 510 " clip-rule="nonzero"/></clipPath><clipPath id="76b7c0a41f"><path d="M 13.363281 215 L 583 215 L 583 389 L 13.363281 389 Z M 13.363281 215 " clip-rule="nonzero"/></clipPath></defs><g clip-path="url(#36de0622f0)"><path fill="#fbb900" d="M 579.183594 351.984375 C 576.757812 353.761719 574.429688 355.628906 572.105469 357.503906 C 568.003906 360.742188 563.757812 364.179688 559.308594 366.96875 C 545.804688 375.367188 516.734375 384.066406 506.769531 371.261719 C 503.984375 367.722656 503.074219 363.777344 502.21875 360.035156 C 500.441406 352.445312 498.621094 344.601562 481.6875 346.578125 C 471.476562 347.738281 462.171875 354.671875 456.710938 365.148438 C 453.871094 370.554688 452.25 376.019531 450.6875 381.28125 C 447.046875 393.476562 444.214844 403.085938 428.386719 408.144531 C 421.160156 410.425781 413.417969 409.617188 405.226562 408.707031 C 399.664062 408.097656 393.902344 407.484375 388.238281 407.941406 C 373.015625 409.109375 361.382812 417 350.160156 424.636719 C 344.597656 428.378906 338.878906 432.277344 332.765625 435.359375 L 331.394531 436.066406 C 311.777344 445.9375 293.214844 455.289062 271.574219 450.996094 C 258.988281 448.511719 246.695312 444.769531 234.808594 441.179688 C 209.179688 433.390625 182.675781 425.34375 152.390625 429.695312 L 141.71875 431.265625 C 104.199219 436.832031 73.097656 441.382812 40.019531 425.949219 C 30.976562 406.726562 24.246094 386.292969 19.851562 365.191406 C 15.648438 344.804688 13.625 323.757812 13.929688 302.457031 C 14.085938 289.105469 15.199219 275.648438 17.265625 262.191406 C 19.695312 246.105469 23.390625 230.527344 28.289062 215.554688 C 32.539062 202.402344 37.648438 189.699219 43.671875 177.558594 C 58.078125 148.265625 77.347656 122.265625 100.761719 100.613281 C 116.480469 85.992188 134.078125 73.390625 153.246094 63.070312 C 240.226562 16.375 351.675781 16.128906 440.015625 60.339844 C 449.53125 65.09375 458.734375 70.355469 467.632812 76.121094 C 485.980469 88.015625 502.363281 101.875 516.578125 117.351562 C 526.082031 127.671875 534.632812 138.652344 542.265625 150.289062 C 555.363281 170.320312 565.53125 192.171875 572.609375 215.25 C 577.160156 230.066406 580.5 245.398438 582.367188 261.136719 C 586.105469 290.417969 585.152344 321.027344 579.183594 351.984375 Z M 579.183594 351.984375 " fill-opacity="1" fill-rule="nonzero"/></g><g clip-path="url(#fd63bb0a7a)"><path fill="#fbb900" d="M 542.265625 150.289062 C 539.535156 150.851562 536.757812 151.199219 533.972656 151.605469 C 528.308594 152.414062 522.496094 153.222656 516.328125 154.941406 C 505.5 157.976562 499.128906 163.238281 491.09375 169.914062 C 489.675781 171.027344 488.261719 172.195312 486.789062 173.410156 C 459.789062 195.105469 412.710938 222.636719 369.023438 228.503906 C 360.933594 229.558594 352.28125 229.15625 343.890625 228.75 C 333.371094 228.246094 322.550781 227.738281 313.089844 230.222656 C 303.988281 232.652344 296.652344 237.609375 288.921875 242.867188 C 278.910156 249.695312 268.539062 256.730469 254.132812 257.742188 C 252.113281 257.898438 250.136719 257.945312 248.167969 257.945312 C 236.429688 257.945312 226.675781 255.414062 216.460938 252.785156 C 211 251.367188 205.335938 249.894531 199.3125 248.839844 C 179.136719 245.242188 161.089844 247.871094 142.019531 250.660156 C 134.988281 251.671875 127.761719 252.738281 120.324219 253.492188 C 85.785156 256.988281 45.289062 255.367188 28.289062 215.554688 C 23.390625 230.527344 19.695312 246.105469 17.265625 262.191406 C 15.199219 275.648438 14.085938 289.105469 13.929688 302.457031 C 36.839844 293.351562 59.144531 300.691406 82.449219 308.382812 C 95.953125 312.785156 109.910156 317.386719 124.324219 318.855469 C 125.988281 319.003906 127.558594 319.058594 129.125 319.058594 C 142.277344 319.058594 151.480469 313.496094 160.425781 308.03125 C 167.101562 303.984375 174.03125 299.78125 182.777344 297.804688 C 198.203125 294.320312 217.214844 299.320312 230.460938 304.1875 C 232.484375 304.941406 234.507812 305.703125 236.484375 306.414062 C 248.71875 311.011719 260.246094 315.363281 274.765625 314.710938 C 282.394531 314.304688 289.273438 313.292969 295.945312 312.28125 C 306.820312 310.605469 317.136719 309.042969 329.527344 310.460938 C 369.328125 314.855469 410.484375 319.464844 440.417969 278.941406 C 442.902344 275.601562 444.871094 272.363281 446.746094 269.230469 C 451.542969 261.179688 455.394531 254.863281 465.507812 251.523438 C 471.417969 249.59375 477.589844 249.492188 484.058594 249.34375 C 492.453125 249.1875 501.105469 248.984375 509.296875 244.589844 C 515.519531 241.25 520.21875 236.597656 524.722656 232.042969 C 530.183594 226.625 535.285156 221.523438 542.824219 218.6875 C 550.355469 215.800781 559.410156 215.597656 568.96875 215.351562 C 570.183594 215.296875 571.398438 215.296875 572.609375 215.25 C 565.53125 192.171875 555.363281 170.320312 542.265625 150.289062 Z M 396.109375 277.902344 C 393.304688 281.582031 389.285156 283.90625 385.726562 285.683594 C 376.425781 290.34375 366.488281 293.363281 356.164062 294.648438 C 355.023438 294.796875 353.789062 294.925781 352.53125 294.925781 C 350.914062 294.925781 349.25 294.714844 347.632812 294.050781 C 344.863281 292.9375 342.730469 290.628906 341.609375 287.558594 C 340.203125 283.714844 340.535156 279.070312 342.457031 275.425781 C 349.5625 261.933594 389.230469 245.554688 398.128906 264.058594 C 400.125 268.253906 399.335938 273.660156 396.109375 277.902344 Z M 396.109375 277.902344 " fill-opacity="1" fill-rule="nonzero"/></g><path fill="#fbb900" d="M 440.019531 60.339844 C 425.355469 75.515625 408.972656 89.074219 391.421875 100.40625 C 371.5 113.308594 355.0625 116.140625 342.574219 108.90625 C 338.425781 106.476562 335.140625 103.089844 331.957031 99.800781 C 329.171875 96.917969 326.542969 94.234375 323.410156 92.160156 C 307.984375 82.042969 286.898438 91.554688 271.929688 101.316406 L 269.707031 102.734375 C 256.152344 111.636719 241.035156 121.554688 225.054688 121.554688 C 222.222656 121.554688 219.390625 121.25 216.558594 120.542969 C 207 118.316406 199.113281 112.296875 191.476562 106.527344 C 183.285156 100.304688 175.597656 94.4375 166.246094 93.070312 C 157.191406 91.808594 148.445312 94.941406 139.191406 98.28125 C 135.449219 99.648438 131.605469 101.0625 127.710938 102.125 C 118.660156 104.605469 108.445312 104.25 100.757812 100.609375 C 116.484375 85.988281 134.082031 73.390625 153.25 63.070312 C 240.222656 16.378906 351.675781 16.125 440.019531 60.339844 Z M 440.019531 60.339844 " fill-opacity="1" fill-rule="nonzero"/><g clip-path="url(#c0cb8c5817)"><path fill="#fbb900" d="M 492.8125 511.347656 C 464.390625 537.753906 430.613281 557.6875 393.140625 569.425781 C 362.144531 579.136719 330.640625 583.894531 299.539062 583.894531 C 262.171875 583.894531 225.40625 577.011719 190.769531 563.554688 C 206.949219 550.25 222.523438 543.625 241.488281 541.902344 C 251.246094 541.042969 260.703125 542.308594 269.855469 543.574219 C 278.046875 544.6875 285.785156 545.75 293.675781 545.394531 C 306.621094 544.738281 318 539.527344 330.03125 533.960938 C 343.433594 527.789062 357.136719 521.464844 373.671875 521.871094 C 383.128906 522.125 390.511719 524.855469 397.035156 527.285156 C 407.046875 530.976562 415.644531 534.164062 429.550781 528.144531 C 433.140625 526.574219 436.679688 524.90625 440.269531 523.234375 C 446.996094 520.050781 453.824219 516.8125 460.953125 514.382812 C 468.082031 511.953125 475.464844 510.285156 483.253906 510.285156 C 486.691406 510.285156 489.878906 510.640625 492.8125 511.347656 Z M 492.8125 511.347656 " fill-opacity="1" fill-rule="nonzero"/></g><path fill="#fdcc00" d="M 542.265625 150.289062 C 539.535156 150.851562 536.757812 151.199219 533.972656 151.605469 C 528.308594 152.414062 522.496094 153.222656 516.328125 154.941406 C 505.5 157.976562 499.128906 163.238281 491.09375 169.914062 C 489.675781 171.027344 488.261719 172.195312 486.789062 173.410156 C 459.789062 195.105469 412.710938 222.636719 369.023438 228.503906 C 360.933594 229.558594 352.28125 229.15625 343.890625 228.75 C 333.371094 228.246094 322.550781 227.738281 313.089844 230.222656 C 303.988281 232.652344 296.652344 237.609375 288.921875 242.867188 C 278.910156 249.695312 268.539062 256.730469 254.132812 257.742188 C 252.113281 257.898438 250.136719 257.945312 248.167969 257.945312 C 236.429688 257.945312 226.675781 255.414062 216.460938 252.785156 C 211 251.367188 205.335938 249.894531 199.3125 248.839844 C 179.136719 245.242188 161.089844 247.871094 142.019531 250.660156 C 134.988281 251.671875 127.761719 252.738281 120.324219 253.492188 C 85.785156 256.988281 45.289062 255.367188 28.289062 215.554688 C 32.539062 202.402344 37.648438 189.699219 43.671875 177.558594 C 64.300781 170.21875 91.042969 175.433594 108.953125 186.8125 C 128.617188 199.308594 143.785156 201.691406 164.929688 195.511719 C 171.808594 193.488281 178.886719 190.609375 185.707031 187.824219 C 203.617188 180.492188 222.167969 172.851562 240.269531 180.234375 C 243.304688 181.503906 246.136719 182.820312 248.867188 184.136719 C 258.585938 188.734375 267.683594 193.039062 280.675781 190.8125 C 292.765625 188.734375 304.449219 182.96875 315.675781 177.402344 C 324.417969 173.050781 333.417969 168.601562 342.371094 166.070312 C 356.023438 162.179688 369.023438 163.945312 382.777344 165.867188 C 390.507812 166.9375 398.699219 167.992188 406.746094 167.992188 C 428.6875 167.949219 448.105469 159.753906 462.925781 144.265625 L 464.09375 143.105469 C 472.53125 134.25 477.183594 129.394531 489.117188 125.246094 C 492.914062 123.929688 497.058594 122.871094 501.453125 121.757812 C 506.519531 120.445312 511.722656 119.128906 516.578125 117.351562 C 526.082031 127.671875 534.632812 138.652344 542.265625 150.289062 Z M 542.265625 150.289062 " fill-opacity="1" fill-rule="nonzero"/><path fill="#fdcc00" d="M 579.183594 351.984375 C 577.714844 359.988281 575.847656 367.980469 573.621094 376.019531 C 568.8125 393.621094 562.5 410.527344 554.90625 426.457031 C 548.433594 427.570312 541.710938 429.796875 535.039062 432.277344 C 527.601562 435.054688 520.824219 439.203125 514.308594 443.203125 C 506.621094 447.90625 499.332031 452.355469 491.140625 454.683594 C 484.015625 456.761719 477.339844 456.097656 470.207031 455.445312 C 467.777344 455.1875 465.304688 454.988281 462.777344 454.839844 C 439.160156 453.671875 423.6875 455.648438 404.878906 469.609375 C 390.003906 480.691406 378.980469 479.78125 363.710938 478.46875 C 360.53125 478.210938 357.136719 477.90625 353.496094 477.703125 L 351.125 477.601562 C 338.730469 476.847656 321.742188 475.882812 312.28125 484.839844 C 308.84375 488.125 307.023438 491.921875 305.203125 495.609375 C 303.382812 499.511719 301.617188 503.199219 298.023438 506.132812 C 283.96875 517.574219 278.605469 512.765625 270.417969 505.480469 C 267.628906 503.050781 264.496094 500.21875 260.753906 497.9375 C 251.753906 492.429688 241.4375 494.296875 231.472656 496.070312 C 222.425781 497.691406 213.066406 499.355469 204.574219 495.710938 C 198.660156 493.183594 194.109375 490.046875 189.707031 487.066406 C 181.3125 481.347656 173.324219 475.882812 158.558594 476.242188 C 134.988281 476.792969 109.457031 482.714844 85.179688 493.136719 C 66.570312 473.355469 51.457031 450.589844 40.019531 425.949219 C 73.097656 441.382812 104.199219 436.832031 141.71875 431.265625 L 152.390625 429.695312 C 182.675781 425.34375 209.179688 433.390625 234.808594 441.179688 C 246.695312 444.769531 258.988281 448.511719 271.574219 450.996094 C 293.214844 455.289062 311.777344 445.9375 331.394531 436.066406 L 332.765625 435.359375 C 338.878906 432.277344 344.597656 428.378906 350.160156 424.636719 C 361.382812 417 373.015625 409.109375 388.238281 407.941406 C 393.902344 407.480469 399.664062 408.097656 405.226562 408.707031 C 413.417969 409.617188 421.160156 410.425781 428.386719 408.144531 C 444.214844 403.085938 447.046875 393.476562 450.6875 381.277344 C 452.25 376.019531 453.871094 370.554688 456.710938 365.148438 C 462.171875 354.671875 471.476562 347.738281 481.6875 346.578125 C 498.621094 344.601562 500.441406 352.445312 502.21875 360.035156 C 503.074219 363.777344 503.984375 367.722656 506.769531 371.261719 C 516.734375 384.066406 545.804688 375.367188 559.308594 366.96875 C 563.757812 364.179688 568.003906 360.742188 572.105469 357.503906 C 574.429688 355.628906 576.757812 353.761719 579.183594 351.984375 Z M 579.183594 351.984375 " fill-opacity="1" fill-rule="nonzero"/><path fill="#fdcc00" d="M 219.746094 152.324219 C 218.234375 147.515625 213.027344 144.828125 205.082031 144.753906 C 195.429688 144.664062 133.988281 149.390625 155.148438 172.820312 C 158.164062 176.15625 162.800781 176.882812 166.5 177.140625 C 168.277344 177.265625 170.054688 177.328125 171.839844 177.328125 C 185.425781 177.324219 199.125 173.761719 210.921875 167.085938 C 218.078125 163.042969 221.375 157.523438 219.746094 152.324219 Z M 219.746094 152.324219 " fill-opacity="1" fill-rule="nonzero"/><g clip-path="url(#76b7c0a41f)"><path fill="#e49a22" d="M 582.367188 261.136719 C 571.195312 272.464844 559.105469 282.683594 546.207031 291.285156 C 479.511719 335.597656 400.980469 355.480469 326.292969 371.972656 C 276.28125 383.054688 230.058594 388.5625 185.507812 388.5625 C 153.953125 388.5625 123.210938 385.785156 92.460938 380.324219 C 89.121094 379.714844 84.828125 379.109375 79.921875 378.402344 C 62.425781 375.917969 38.660156 372.53125 19.851562 365.191406 C 15.648438 344.804688 13.625 323.757812 13.929688 302.457031 C 36.839844 293.351562 59.144531 300.691406 82.449219 308.382812 C 95.953125 312.785156 109.910156 317.386719 124.324219 318.855469 C 125.988281 319.003906 127.558594 319.058594 129.125 319.058594 C 142.277344 319.058594 151.480469 313.496094 160.425781 308.03125 C 167.101562 303.984375 174.03125 299.78125 182.777344 297.804688 C 198.203125 294.320312 217.214844 299.320312 230.460938 304.1875 C 232.484375 304.941406 234.507812 305.703125 236.484375 306.414062 C 248.71875 311.011719 260.25 315.363281 274.765625 314.710938 C 282.394531 314.304688 289.273438 313.292969 295.945312 312.28125 C 306.820312 310.605469 317.136719 309.042969 329.53125 310.460938 C 369.328125 314.855469 410.484375 319.464844 440.417969 278.941406 C 442.902344 275.601562 444.871094 272.363281 446.746094 269.230469 C 451.542969 261.179688 455.394531 254.863281 465.507812 251.523438 C 471.417969 249.59375 477.589844 249.492188 484.0625 249.34375 C 492.453125 249.1875 501.105469 248.984375 509.296875 244.589844 C 515.519531 241.25 520.21875 236.597656 524.722656 232.042969 C 530.183594 226.625 535.285156 221.523438 542.824219 218.6875 C 550.355469 215.800781 559.410156 215.597656 568.96875 215.351562 C 570.183594 215.296875 571.398438 215.296875 572.609375 215.25 C 577.160156 230.066406 580.5 245.398438 582.367188 261.136719 Z M 582.367188 261.136719 " fill-opacity="1" fill-rule="nonzero"/></g><path fill="#e49a22" d="M 467.632812 76.121094 C 458.734375 70.355469 449.53125 65.09375 440.015625 60.339844 C 425.351562 75.515625 408.96875 89.070312 391.417969 100.410156 C 371.496094 113.304688 355.058594 116.140625 342.574219 108.910156 C 338.429688 106.480469 335.136719 103.089844 331.957031 99.804688 C 329.171875 96.917969 326.542969 94.230469 323.40625 92.160156 C 307.988281 82.042969 286.898438 91.554688 271.933594 101.324219 L 269.707031 102.738281 C 256.15625 111.640625 241.035156 121.554688 225.054688 121.554688 C 222.222656 121.554688 219.394531 121.253906 216.5625 120.542969 C 207 118.320312 199.113281 112.292969 191.472656 106.527344 C 183.28125 100.3125 175.59375 94.433594 166.246094 93.074219 C 157.191406 91.804688 148.449219 94.941406 139.191406 98.277344 C 135.449219 99.648438 131.605469 101.066406 127.707031 102.132812 C 118.660156 104.605469 108.445312 104.257812 100.761719 100.613281 C 77.347656 122.265625 58.078125 148.265625 43.671875 177.558594 C 64.300781 170.21875 91.042969 175.433594 108.953125 186.8125 C 128.617188 199.308594 143.785156 201.691406 164.929688 195.511719 C 171.808594 193.488281 178.886719 190.609375 185.707031 187.824219 C 203.617188 180.492188 222.167969 172.851562 240.269531 180.234375 C 243.304688 181.503906 246.136719 182.820312 248.867188 184.136719 C 258.585938 188.734375 267.6875 193.039062 280.675781 190.8125 C 292.765625 188.734375 304.449219 182.96875 315.675781 177.402344 C 324.417969 173.050781 333.417969 168.601562 342.371094 166.070312 C 356.023438 162.179688 369.023438 163.945312 382.777344 165.867188 C 390.507812 166.9375 398.699219 167.992188 406.746094 167.992188 C 428.6875 167.949219 448.105469 159.753906 462.925781 144.265625 L 464.09375 143.105469 C 472.53125 134.25 477.183594 129.394531 489.117188 125.246094 C 492.914062 123.929688 497.058594 122.871094 501.453125 121.757812 C 506.519531 120.445312 511.722656 119.128906 516.578125 117.351562 C 502.363281 101.875 485.980469 88.015625 467.632812 76.121094 Z M 210.925781 167.082031 C 199.121094 173.761719 185.421875 177.328125 171.835938 177.328125 C 170.0625 177.328125 168.277344 177.265625 166.503906 177.144531 C 162.796875 176.878906 158.164062 176.160156 155.148438 172.824219 C 133.988281 149.386719 195.425781 144.667969 205.078125 144.753906 C 213.023438 144.824219 218.234375 147.519531 219.742188 152.332031 C 221.378906 157.527344 218.078125 163.046875 210.925781 167.082031 Z M 210.925781 167.082031 " fill-opacity="1" fill-rule="nonzero"/><path fill="#e49a22" d="M 554.90625 426.457031 C 539.332031 459.042969 518.25 487.71875 492.8125 511.347656 C 489.878906 510.640625 486.691406 510.28125 483.25 510.28125 C 475.464844 510.28125 468.082031 511.953125 460.957031 514.382812 C 453.824219 516.8125 446.992188 520.046875 440.273438 523.238281 C 436.679688 524.90625 433.136719 526.578125 429.554688 528.140625 C 415.644531 534.167969 407.046875 530.976562 397.035156 527.285156 C 390.507812 524.859375 383.125 522.128906 373.675781 521.871094 C 357.136719 521.464844 343.429688 527.792969 330.035156 533.964844 C 318 539.527344 306.621094 544.734375 293.675781 545.394531 C 285.789062 545.746094 278.046875 544.6875 269.855469 543.574219 C 260.707031 542.304688 251.246094 541.046875 241.484375 541.902344 C 222.527344 543.621094 206.953125 550.253906 190.765625 563.5625 C 166.449219 554.042969 143.078125 541.292969 121.390625 525.363281 C 110.011719 517.011719 99.144531 507.550781 89.078125 497.332031 C 87.707031 495.96875 86.390625 494.554688 85.179688 493.136719 C 109.457031 482.714844 134.988281 476.792969 158.558594 476.242188 C 173.324219 475.882812 181.3125 481.347656 189.707031 487.066406 C 194.109375 490.046875 198.660156 493.183594 204.574219 495.710938 C 213.066406 499.355469 222.425781 497.691406 231.472656 496.070312 C 241.4375 494.296875 251.753906 492.429688 260.753906 497.9375 C 264.496094 500.21875 267.628906 503.050781 270.414062 505.480469 C 278.605469 512.765625 283.96875 517.574219 298.023438 506.132812 C 301.617188 503.199219 303.382812 499.511719 305.203125 495.609375 C 307.023438 491.921875 308.84375 488.125 312.28125 484.839844 C 321.742188 475.882812 338.730469 476.847656 351.125 477.601562 L 353.496094 477.703125 C 357.136719 477.90625 360.53125 478.210938 363.710938 478.46875 C 378.980469 479.78125 390.003906 480.691406 404.878906 469.609375 C 423.6875 455.648438 439.160156 453.671875 462.777344 454.839844 C 465.304688 454.988281 467.777344 455.1875 470.207031 455.445312 C 477.339844 456.097656 484.015625 456.761719 491.140625 454.683594 C 499.332031 452.355469 506.621094 447.90625 514.308594 443.203125 C 520.824219 439.203125 527.601562 435.054688 535.039062 432.277344 C 541.710938 429.796875 548.433594 427.570312 554.90625 426.457031 Z M 554.90625 426.457031 " fill-opacity="1" fill-rule="nonzero"/><path fill="#e49a22" d="M 398.125 264.058594 C 389.230469 245.554688 349.5625 261.9375 342.453125 275.425781 C 340.53125 279.070312 340.207031 283.71875 341.609375 287.5625 C 342.726562 290.628906 344.867188 292.9375 347.632812 294.058594 C 349.25 294.714844 350.914062 294.925781 352.53125 294.925781 C 353.789062 294.925781 355.019531 294.796875 356.164062 294.652344 C 366.480469 293.363281 376.425781 290.347656 385.726562 285.683594 C 389.285156 283.90625 393.304688 281.585938 396.105469 277.898438 C 399.332031 273.664062 400.128906 268.25 398.125 264.058594 Z M 398.125 264.058594 " fill-opacity="1" fill-rule="nonzero"/><path fill="#fd5e77" d="M 183.542969 313.75 C 181.832031 307.6875 176.835938 302.492188 170.183594 299.851562 C 161.457031 296.386719 145.347656 295.785156 134.566406 300.867188 C 128.792969 303.589844 124.867188 307.75 123.203125 312.894531 C 120.980469 319.789062 122.023438 326.28125 126.21875 331.667969 C 131.320312 338.210938 139.910156 341.699219 147.746094 342.765625 C 150.3125 343.117188 152.796875 343.203125 155.050781 343.058594 C 163.558594 342.496094 170.484375 340.089844 175.632812 335.914062 C 182.53125 330.324219 185.710938 321.414062 183.542969 313.75 Z M 183.542969 313.75 " fill-opacity="1" fill-rule="nonzero"/><path fill="#fd5e77" d="M 436.332031 313.699219 C 438.054688 307.640625 443.054688 302.453125 449.714844 299.824219 C 458.445312 296.375 474.554688 295.800781 485.332031 300.898438 C 491.097656 303.628906 495.019531 307.796875 496.671875 312.945312 C 498.886719 319.84375 497.832031 326.332031 493.625 331.714844 C 488.515625 338.25 479.917969 341.722656 472.078125 342.777344 C 469.511719 343.121094 467.03125 343.207031 464.777344 343.054688 C 456.269531 342.476562 449.347656 340.0625 444.203125 335.878906 C 437.316406 330.273438 434.152344 321.359375 436.332031 313.699219 Z M 436.332031 313.699219 " fill-opacity="1" fill-rule="nonzero"/><path fill="#cf3e3e" d="M 307.589844 395.679688 C 307.605469 395.679688 307.621094 395.679688 307.636719 395.679688 C 354.574219 395.679688 361.242188 352.210938 362.183594 339.121094 L 253.101562 339.121094 C 254.066406 352.210938 260.808594 395.679688 307.589844 395.679688 Z M 307.589844 395.679688 " fill-opacity="1" fill-rule="nonzero"/><path fill="#231f20" d="M 230.058594 279.84375 C 229.589844 279.84375 229.113281 279.796875 228.636719 279.699219 C 224.878906 278.914062 222.464844 275.234375 223.242188 271.472656 C 224.222656 266.769531 223.117188 261.640625 220.292969 257.757812 C 218.652344 255.503906 216.601562 253.96875 214.65625 253.546875 C 211.679688 252.894531 207.78125 254.882812 205.589844 258.160156 C 203.324219 261.546875 202.265625 266.332031 202.441406 272.382812 C 202.554688 276.222656 199.535156 279.429688 195.695312 279.539062 C 191.867188 279.617188 188.65625 276.632812 188.542969 272.789062 C 188.277344 263.789062 190.125 256.261719 194.03125 250.421875 C 199.484375 242.277344 208.964844 238.078125 217.609375 239.953125 C 222.917969 241.105469 227.863281 244.523438 231.535156 249.570312 C 236.628906 256.578125 238.621094 265.820312 236.859375 274.300781 C 236.175781 277.585938 233.285156 279.84375 230.058594 279.84375 Z M 230.058594 279.84375 " fill-opacity="1" fill-rule="nonzero"/><path fill="#231f20" d="M 417.253906 279.84375 C 416.785156 279.84375 416.308594 279.796875 415.832031 279.699219 C 412.070312 278.914062 409.65625 275.234375 410.4375 271.472656 C 411.417969 266.769531 410.3125 261.640625 407.488281 257.757812 C 405.847656 255.503906 403.792969 253.96875 401.851562 253.546875 C 398.871094 252.894531 394.976562 254.882812 392.785156 258.160156 C 390.519531 261.546875 389.460938 266.332031 389.636719 272.382812 C 389.75 276.222656 386.730469 279.429688 382.890625 279.539062 C 379.089844 279.617188 375.851562 276.632812 375.738281 272.789062 C 375.472656 263.789062 377.320312 256.261719 381.226562 250.421875 C 386.679688 242.277344 396.152344 238.078125 404.804688 239.953125 C 410.113281 241.105469 415.058594 244.523438 418.730469 249.570312 C 423.828125 256.578125 425.816406 265.820312 424.054688 274.300781 C 423.371094 277.585938 420.476562 279.84375 417.253906 279.84375 Z M 417.253906 279.84375 " fill-opacity="1" fill-rule="nonzero"/><path fill="#231f20" d="M 365.941406 331.910156 L 249.339844 331.910156 C 247.347656 331.910156 245.734375 333.523438 245.734375 335.515625 C 245.734375 336.195312 245.820312 352.4375 253.347656 368.910156 C 260.433594 384.414062 275.589844 402.886719 307.585938 402.886719 C 307.605469 402.886719 307.625 402.886719 307.636719 402.886719 C 368.835938 402.886719 369.546875 336.1875 369.546875 335.511719 C 369.546875 333.523438 367.933594 331.910156 365.941406 331.910156 Z M 307.636719 395.679688 C 307.621094 395.679688 307.605469 395.679688 307.589844 395.679688 C 260.808594 395.679688 254.066406 352.210938 253.101562 339.121094 L 362.183594 339.121094 C 361.242188 352.210938 354.574219 395.679688 307.636719 395.679688 Z M 307.636719 395.679688 " fill-opacity="1" fill-rule="nonzero"/></svg>