<svg xmlns="http://www.w3.org/2000/svg" xmlns:xlink="http://www.w3.org/1999/xlink" width="800" zoomAndPan="magnify" viewBox="0 0 600 599.999999" height="800" preserveAspectRatio="xMidYMid meet" version="1.0"><defs><clipPath id="b84766810a"><path d="M 16.5 16.5 L 583.5 16.5 L 583.5 583.5 L 16.5 583.5 Z M 16.5 16.5 " clip-rule="nonzero"/></clipPath></defs><g clip-path="url(#b84766810a)"><path fill="#4ed1ed" d="M 300 583.5 C 456.097656 583.5 583.5 456.097656 583.5 300 C 583.5 143.902344 456.097656 16.5 300 16.5 C 143.902344 16.5 16.5 143.902344 16.5 300 C 16.5 456.097656 143.902344 583.5 300 583.5 Z M 300 583.5 " fill-opacity="1" fill-rule="evenodd"/></g><path fill="#32bfda" d="M 117.996094 195.699219 C 137.59375 195.699219 153.695312 179.597656 153.695312 160.003906 C 153.695312 140.40625 137.59375 124.308594 117.996094 124.308594 C 98.402344 124.308594 82.300781 140.40625 82.300781 160.003906 C 82.300781 179.597656 98.402344 195.699219 117.996094 195.699219 Z M 117.996094 195.699219 " fill-opacity="1" fill-rule="evenodd"/><path fill="#32bfda" d="M 203.40625 146.707031 C 215.308594 146.707031 225.804688 136.902344 225.804688 124.308594 C 225.804688 111.710938 215.308594 101.910156 203.40625 101.910156 C 190.8125 101.910156 181.007812 111.710938 181.007812 124.308594 C 181.007812 136.902344 190.796875 146.707031 203.40625 146.707031 Z M 203.40625 146.707031 " fill-opacity="1" fill-rule="evenodd"/><path fill="#32bfda" d="M 117.996094 278.996094 C 130.589844 278.996094 140.394531 268.5 140.394531 256.597656 C 140.394531 244.003906 130.589844 234.199219 117.996094 234.199219 C 106.09375 234.199219 95.597656 244.003906 95.597656 256.597656 C 95.597656 268.5 106.105469 278.996094 117.996094 278.996094 Z M 117.996094 278.996094 " fill-opacity="1" fill-rule="evenodd"/><path fill="#32bfda" d="M 410.597656 528.195312 C 430.191406 528.195312 446.292969 512.09375 446.292969 492.5 C 446.292969 472.902344 430.191406 456.800781 410.597656 456.800781 C 391 456.800781 375.589844 472.902344 375.589844 492.5 C 375.605469 512.09375 391 528.195312 410.597656 528.195312 Z M 410.597656 528.195312 " fill-opacity="1" fill-rule="evenodd"/><path fill="#32bfda" d="M 330.792969 528.195312 C 343.390625 528.195312 353.191406 517.699219 353.191406 505.796875 C 353.191406 493.203125 343.390625 483.398438 330.792969 483.398438 C 318.890625 483.398438 308.394531 493.203125 308.394531 505.796875 C 308.394531 517.699219 318.902344 528.195312 330.792969 528.195312 Z M 330.792969 528.195312 " fill-opacity="1" fill-rule="evenodd"/><path fill="#32bfda" d="M 490.398438 479.199219 C 502.992188 479.199219 512.796875 468.703125 512.796875 456.800781 C 512.796875 444.207031 502.992188 434.402344 490.398438 434.402344 C 478.496094 434.402344 468.703125 444.207031 468.703125 456.800781 C 468.703125 468.703125 478.496094 479.199219 490.398438 479.199219 Z M 490.398438 479.199219 " fill-opacity="1" fill-rule="evenodd"/><path fill="#ffffff" d="M 515.601562 142.496094 C 518.402344 146.691406 516.996094 151.59375 512.796875 154.398438 C 509.304688 156.496094 504.402344 155.101562 501.597656 151.59375 C 500.203125 148.792969 498.105469 145.988281 495.992188 143.199219 C 493.894531 140.394531 492.5 138.296875 490.386719 135.492188 C 487.582031 132 487.582031 126.394531 491.78125 123.589844 C 495.277344 120.785156 500.179688 121.492188 502.980469 124.984375 C 505.785156 127.789062 507.882812 131.28125 509.980469 134.085938 C 512.105469 136.902344 513.5 139.703125 515.601562 142.496094 Z M 483.398438 103.996094 C 486.890625 107.488281 486.890625 112.390625 484.101562 115.898438 C 480.609375 119.390625 475.707031 119.390625 472.199219 115.898438 C 459.605469 103.996094 444.898438 93.5 428.09375 83.695312 C 412.695312 74.59375 395.199219 67.59375 376.296875 62 C 372.097656 60.605469 369.292969 55.703125 370.703125 51.503906 C 372.097656 47.308594 376.296875 44.503906 381.199219 45.898438 C 400.792969 52.195312 419.695312 59.902344 436.503906 69.707031 C 454 79.496094 470.101562 91.398438 483.398438 103.996094 Z M 483.398438 103.996094 " fill-opacity="1" fill-rule="nonzero"/><path fill="#ffffff" d="M 84.398438 458.902344 C 82.300781 454.703125 83.003906 449.800781 87.203125 447.703125 C 90.695312 444.898438 96.300781 446.304688 98.402344 449.800781 C 100.5 452.605469 101.894531 455.40625 104.007812 458.195312 C 106.105469 461 108.207031 463.804688 110.304688 465.902344 C 113.109375 469.394531 112.402344 475.003906 108.910156 477.804688 C 105.414062 480.609375 99.808594 479.902344 97.007812 476.410156 C 94.90625 473.605469 92.808594 470.804688 90.710938 468.015625 C 88.597656 464.492188 86.5 461.703125 84.398438 458.902344 Z M 116.601562 497.402344 C 113.109375 494.597656 113.109375 489.003906 116.601562 485.496094 C 119.40625 482.695312 124.308594 482.695312 127.800781 485.496094 C 140.394531 497.402344 155.101562 508.601562 171.90625 517.699219 C 188.007812 526.800781 205.503906 534.503906 224.410156 540.097656 C 228.605469 541.492188 230.707031 545.703125 229.3125 549.902344 C 228.605469 554.804688 223.71875 556.902344 219.507812 555.507812 C 199.207031 549.902344 180.304688 541.507812 163.511719 532.40625 C 146 521.898438 129.898438 510.699219 116.601562 497.402344 Z M 116.601562 497.402344 " fill-opacity="1" fill-rule="nonzero"/><path fill="#000000" d="M 213.195312 234.199219 C 232.792969 234.199219 248.894531 250.300781 248.894531 269.898438 C 248.894531 289.492188 232.792969 276.898438 213.195312 276.898438 C 193.601562 276.898438 177.5 289.492188 177.5 269.898438 C 177.5 250.300781 193.601562 234.199219 213.195312 234.199219 Z M 213.195312 234.199219 " fill-opacity="1" fill-rule="evenodd"/><path fill="#ffffff" d="M 227.902344 268.5 C 233.507812 268.5 239.101562 263.597656 239.101562 257.300781 C 239.101562 251.695312 233.507812 246.101562 227.902344 246.101562 C 221.605469 246.101562 216.703125 251.710938 216.703125 257.300781 C 216.703125 263.597656 221.605469 268.5 227.902344 268.5 Z M 227.902344 268.5 " fill-opacity="1" fill-rule="evenodd"/><path fill="#ffffff" d="M 209 250.300781 C 211.097656 250.300781 213.195312 248.90625 213.195312 246.101562 C 213.195312 244.003906 211.097656 242.609375 209 242.609375 C 206.898438 242.609375 205.503906 244.003906 205.503906 246.101562 C 205.503906 248.90625 206.898438 250.300781 209 250.300781 Z M 209 250.300781 " fill-opacity="1" fill-rule="evenodd"/><path fill="#fc3c87" d="M 345.5 300 C 349.699219 300 353.898438 303.496094 353.898438 308.394531 C 353.898438 318.890625 348.289062 327.992188 339.894531 334.992188 C 332.191406 340.597656 320.992188 344.09375 309.792969 344.09375 C 297.886719 344.09375 286.6875 340.597656 278.996094 334.992188 C 270.601562 327.992188 264.996094 318.890625 264.996094 308.394531 C 264.996094 303.496094 269.191406 300 274.09375 300 C 289.503906 300 316.804688 300 345.5 300 Z M 345.5 300 " fill-opacity="1" fill-rule="nonzero"/><path fill="#fab1cd" d="M 213.195312 317.496094 C 227.199219 317.496094 239.101562 313.296875 239.101562 307.691406 C 239.101562 301.394531 227.199219 297.195312 213.195312 297.195312 C 198.492188 297.195312 187.292969 301.394531 187.292969 307.691406 C 187.304688 313.296875 198.503906 317.496094 213.195312 317.496094 Z M 213.195312 317.496094 " fill-opacity="1" fill-rule="evenodd"/><path fill="#fab1cd" d="M 405.695312 317.496094 C 420.402344 317.496094 431.601562 313.296875 431.601562 307.691406 C 431.601562 301.394531 420.402344 297.195312 405.695312 297.195312 C 391.691406 297.195312 379.789062 301.394531 379.789062 307.691406 C 379.800781 313.296875 391.707031 317.496094 405.695312 317.496094 Z M 405.695312 317.496094 " fill-opacity="1" fill-rule="evenodd"/><path fill="#000000" d="M 408.496094 234.199219 C 388.902344 234.199219 372.800781 250.300781 372.800781 269.898438 C 372.800781 289.492188 388.902344 276.898438 408.496094 276.898438 C 428.09375 276.898438 444.195312 289.492188 444.195312 269.898438 C 444.195312 250.300781 428.105469 234.199219 408.496094 234.199219 Z M 408.496094 234.199219 " fill-opacity="1" fill-rule="evenodd"/><path fill="#ffffff" d="M 393.804688 268.5 C 400.101562 268.5 405.003906 263.597656 405.003906 257.300781 C 405.003906 251.695312 400.101562 246.101562 393.804688 246.101562 C 388.199219 246.101562 382.605469 251.710938 382.605469 257.300781 C 382.605469 263.597656 388.199219 268.5 393.804688 268.5 Z M 393.804688 268.5 " fill-opacity="1" fill-rule="evenodd"/><path fill="#ffffff" d="M 412.695312 250.300781 C 414.796875 250.300781 416.191406 248.90625 416.191406 246.101562 C 416.191406 244.003906 414.796875 242.609375 412.695312 242.609375 C 410.597656 242.609375 408.496094 244.003906 408.496094 246.101562 C 408.496094 248.90625 410.597656 250.300781 412.695312 250.300781 Z M 412.695312 250.300781 " fill-opacity="1" fill-rule="evenodd"/></svg>