<svg xmlns="http://www.w3.org/2000/svg" xmlns:xlink="http://www.w3.org/1999/xlink" width="800" zoomAndPan="magnify" viewBox="0 0 600 599.999999" height="800" preserveAspectRatio="xMidYMid meet" version="1.0"><path fill="#d52d20" d="M 341.152344 81.660156 C 338.480469 85.410156 334.683594 87.523438 330.558594 87.617188 C 326.949219 87.710938 323.761719 86.398438 320.667969 85.082031 L 319.449219 84.566406 C 304.683594 78.519531 287.527344 77.957031 272.386719 83.066406 C 269.433594 84.050781 265.777344 85.550781 263.292969 88.179688 C 258.558594 93.289062 259.308594 100.886719 260.058594 108.859375 C 260.761719 116.269531 261.464844 123.914062 258.089844 130.574219 C 252.605469 141.3125 238.402344 144.40625 227.199219 141.921875 C 219.980469 140.328125 213.371094 137.046875 206.996094 133.855469 C 203.761719 132.261719 200.386719 130.574219 197.058594 129.167969 C 181.496094 122.648438 163.824219 121.195312 147.417969 125.085938 C 130.636719 129.070312 112.121094 141.6875 111.089844 160.023438 C 110.574219 169.214844 114.417969 177.75 118.449219 186.800781 C 119.71875 189.664062 120.980469 192.570312 122.152344 195.476562 C 127.074219 208.046875 128.527344 224.738281 117.746094 233.882812 C 114.605469 236.558594 110.808594 238.199219 107.105469 239.839844 C 102.328125 241.902344 97.78125 243.871094 95.390625 247.8125 C 92.25 253.015625 93.890625 260.238281 95.4375 267.226562 C 97.40625 275.996094 99.417969 285.09375 92.480469 291.285156 C 89.667969 293.769531 86.152344 294.800781 82.589844 294.800781 C 78.605469 294.800781 74.621094 293.535156 71.480469 291.660156 C 67.121094 289.03125 63.652344 285.375 60.277344 281.855469 C 59.105469 280.589844 57.9375 279.371094 56.714844 278.152344 C 46.027344 267.695312 31.871094 260.941406 17.058594 259.066406 C 37.21875 147.363281 118.871094 65.433594 238.308594 38.421875 C 260.761719 33.359375 284.246094 31.578125 307.917969 32.890625 C 313.964844 36.40625 320.058594 40.347656 326.105469 44.566406 C 333.839844 49.960938 341.339844 56.152344 344.011719 65.011719 C 345.652344 70.453125 344.523438 76.972656 341.152344 81.660156 Z M 341.152344 81.660156 " fill-opacity="1" fill-rule="nonzero"/><path fill="#d52d20" d="M 484.855469 501.464844 C 486.855469 499.777344 488.832031 498.0625 490.773438 496.316406 C 489.558594 494.433594 488.144531 492.695312 486.550781 491.101562 C 476.472656 480.839844 460.402344 476.617188 445.488281 480.371094 C 441.601562 481.351562 437.804688 482.800781 434.152344 484.261719 C 428.191406 486.558594 422.570312 488.761719 416.574219 488.90625 C 411.230469 489.085938 405.183594 485.945312 402.230469 481.542969 C 400.960938 479.617188 399.746094 476.617188 401.195312 473.332031 C 401.476562 472.675781 401.476562 472.015625 401.195312 471.414062 C 400.917969 470.800781 400.402344 470.332031 399.792969 470.097656 C 383.097656 464.984375 365.570312 474.746094 346.210938 499.972656 C 328.214844 523.414062 312.320312 532.5625 297.699219 527.871094 C 289.96875 525.386719 284.152344 519.292969 278.007812 512.820312 C 271.355469 505.789062 264.417969 498.511719 254.761719 496.171875 C 243.648438 493.453125 233.203125 498.1875 223.078125 502.78125 C 215.714844 506.113281 208.164062 509.53125 200.527344 510.011719 C 188.152344 510.800781 176.714844 503.90625 165.609375 497.253906 C 162.324219 495.28125 159.039062 493.355469 155.71875 491.570312 C 138.835938 482.476562 116.617188 480.886719 106.871094 495.425781 C 104.109375 499.503906 102.929688 503.90625 102.605469 508.507812 C 105.164062 510.617188 107.773438 512.667969 110.421875 514.664062 C 99.9375 506.785156 90.160156 498.042969 81.1875 488.527344 C 78.136719 477.554688 75.933594 466.34375 74.484375 455 C 73.214844 445.105469 72.515625 433.609375 76.78125 423.480469 C 82.125 410.824219 95.433594 401.539062 109.871094 400.414062 C 123.464844 399.335938 137.476562 405.050781 147.421875 415.746094 C 150.699219 419.257812 153.414062 423.203125 156.132812 427 C 159.839844 432.394531 163.40625 437.410156 168.183594 441.308594 C 175.445312 447.304688 185.945312 449.417969 196.359375 446.980469 C 206.71875 444.585938 215.25 438.019531 219.136719 429.441406 L 219.9375 427.660156 C 222.699219 421.417969 226.453125 412.984375 234.417969 413.585938 C 238.683594 413.964844 241.824219 417.152344 243.839844 419.5 C 250.261719 427.144531 254.386719 436.238281 258.417969 445.050781 C 260.710938 450.167969 263.105469 455.414062 265.867188 460.25 C 272.527344 471.835938 285.46875 484.496094 300.039062 482.101562 C 315.839844 479.480469 323.667969 461.097656 326.945312 450.355469 C 329.851562 440.785156 331.910156 430.945312 332.992188 421.039062 C 334.261719 409.320312 337.445312 393.5625 350.34375 392.292969 C 358.820312 391.5 366.648438 398.441406 371.335938 410.867188 L 371.902344 412.324219 C 374.902344 420.25 377.996094 428.503906 384.980469 431.035156 C 393.699219 434.222656 401.761719 426.957031 410.339844 419.257812 C 419.527344 410.914062 429.085938 402.332031 440.433594 406.644531 C 447.792969 409.417969 451.347656 416.359375 454.820312 423.058594 C 456.089844 425.496094 457.261719 427.792969 458.617188 429.953125 C 465.179688 440.082031 477.742188 447.023438 492.175781 448.429688 C 506.621094 449.84375 521.199219 445.945312 532.257812 442.433594 C 533.707031 441.964844 535.164062 441.488281 536.613281 440.972656 C 522.945312 463.730469 505.519531 484.0625 484.855469 501.464844 Z M 484.855469 501.464844 " fill-opacity="1" fill-rule="nonzero"/><path fill="#aa1f15" d="M 382.964844 104.734375 C 379.167969 113.546875 370.726562 118.101562 357.792969 118.238281 C 348.972656 118.191406 341.246094 113.601562 333.882812 109.046875 C 326.808594 104.644531 320.148438 100.511719 312.699219 100.464844 L 312.652344 100.464844 C 307.496094 100.464844 302.339844 102.996094 298.5 107.316406 C 294.648438 111.675781 292.820312 117.113281 293.476562 122.269531 C 294.089844 126.960938 296.339844 131.320312 298.734375 135.917969 C 301.351562 140.980469 304.070312 146.136719 304.589844 152.054688 C 305.195312 159.085938 302.574219 165.648438 297.085938 171.09375 C 289.402344 178.683594 277.214844 182.90625 266.011719 181.828125 C 254.386719 180.703125 243.648438 175.921875 233.292969 171.230469 C 228 168.890625 222.554688 166.40625 217.074219 164.523438 C 198.464844 158.050781 160.121094 150.460938 148.125 168.089844 C 142.121094 176.957031 148.871094 192.800781 153.792969 204.34375 C 154.875 206.917969 155.898438 209.257812 156.65625 211.277344 C 159.652344 219.296875 163.359375 229.292969 158.148438 237.402344 C 154.449219 243.164062 147.933594 245.183594 141.652344 247.152344 C 135.886719 248.9375 130.40625 250.628906 127.6875 254.988281 C 124.125 260.613281 126.652344 267.132812 129.515625 274.683594 C 131.855469 280.734375 134.203125 286.964844 133.546875 293.347656 C 132.230469 306.105469 119.109375 313.886719 107.484375 314.6875 C 97.917969 315.390625 88.640625 312.667969 79.6875 310.039062 C 77.816406 309.484375 75.980469 308.914062 74.105469 308.402344 C 64.875 305.871094 53.011719 303.523438 43.125 308.214844 C 33.1875 312.992188 27.753906 323.832031 24.9375 332.132812 C 23.902344 335.132812 23.53125 340.851562 23.199219 346.386719 C 22.597656 355.625 22.03125 364.304688 18.84375 368.523438 C 12.183594 338.363281 10.589844 306.476562 14.722656 274.164062 C 15.371094 269.101562 16.125 264.035156 17.0625 259.066406 C 31.875 260.945312 46.03125 267.699219 56.722656 278.152344 C 57.9375 279.375 59.105469 280.589844 60.273438 281.859375 C 63.648438 285.371094 67.125 289.035156 71.480469 291.65625 C 74.621094 293.539062 78.605469 294.796875 82.59375 294.796875 C 86.15625 294.796875 89.667969 293.773438 92.484375 291.289062 C 99.421875 285.09375 97.40625 276 95.433594 267.230469 C 93.886719 260.234375 92.25 253.015625 95.390625 247.8125 C 97.785156 243.875 102.328125 241.90625 107.105469 239.84375 C 110.8125 238.195312 114.601562 236.558594 117.742188 233.882812 C 128.523438 224.734375 127.074219 208.042969 122.152344 195.476562 C 120.984375 192.566406 119.714844 189.660156 118.453125 186.796875 C 114.421875 177.75 110.582031 169.214844 111.09375 160.019531 C 112.117188 141.691406 130.640625 129.066406 147.421875 125.089844 C 163.828125 121.191406 181.492188 122.648438 197.0625 129.167969 C 200.390625 130.570312 203.765625 132.265625 206.996094 133.859375 C 213.367188 137.046875 219.980469 140.332031 227.199219 141.925781 C 238.402344 144.410156 252.601562 141.3125 258.09375 130.570312 C 261.46875 123.910156 260.757812 116.265625 260.054688 108.855469 C 259.308594 100.886719 258.5625 93.289062 263.292969 88.175781 C 265.777344 85.554688 269.429688 84.050781 272.382812 83.070312 C 287.527344 77.957031 304.679688 78.515625 319.449219 84.566406 L 320.664062 85.085938 C 323.757812 86.394531 326.945312 87.707031 330.554688 87.617188 C 334.683594 87.519531 338.480469 85.410156 341.152344 81.65625 C 344.527344 76.96875 345.652344 70.449219 344.007812 65.011719 C 341.335938 56.152344 333.839844 49.957031 326.109375 44.566406 C 320.058594 40.34375 313.960938 36.40625 307.921875 32.886719 C 327.789062 33.96875 347.804688 37.15625 367.40625 42.414062 C 378.789062 61.734375 389.945312 88.410156 382.964844 104.734375 Z M 382.964844 104.734375 " fill-opacity="1" fill-rule="nonzero"/><path fill="#aa1f15" d="M 558.554688 393.050781 C 552.929688 409.976562 545.566406 426.019531 536.613281 440.972656 C 535.164062 441.488281 533.707031 441.964844 532.257812 442.433594 C 521.199219 445.945312 506.621094 449.84375 492.175781 448.429688 C 477.742188 447.023438 465.179688 440.082031 458.617188 429.953125 C 457.261719 427.792969 456.089844 425.496094 454.820312 423.058594 C 451.347656 416.359375 447.792969 409.417969 440.433594 406.644531 C 429.085938 402.332031 419.527344 410.914062 410.339844 419.257812 C 401.761719 426.957031 393.699219 434.222656 384.980469 431.035156 C 377.996094 428.503906 374.902344 420.25 371.902344 412.324219 L 371.335938 410.867188 C 366.648438 398.441406 358.820312 391.5 350.34375 392.292969 C 337.445312 393.5625 334.261719 409.320312 332.992188 421.039062 C 331.914062 430.945312 329.851562 440.785156 326.945312 450.355469 C 323.667969 461.097656 315.839844 479.480469 300.039062 482.101562 C 285.46875 484.496094 272.527344 471.835938 265.867188 460.25 C 263.105469 455.414062 260.710938 450.164062 258.417969 445.050781 C 254.386719 436.238281 250.261719 427.144531 243.839844 419.5 C 241.824219 417.152344 238.683594 413.964844 234.417969 413.585938 C 226.453125 412.984375 222.699219 421.417969 219.9375 427.65625 L 219.136719 429.441406 C 215.25 438.019531 206.71875 444.585938 196.359375 446.980469 C 185.949219 449.417969 175.445312 447.304688 168.183594 441.308594 C 163.40625 437.410156 159.839844 432.394531 156.132812 427 C 153.414062 423.203125 150.699219 419.257812 147.421875 415.746094 C 137.476562 405.050781 123.46875 399.335938 109.871094 400.414062 C 95.433594 401.539062 82.125 410.820312 76.78125 423.480469 C 72.515625 433.609375 73.214844 445.105469 74.484375 455 C 75.933594 466.34375 78.136719 477.554688 81.1875 488.527344 C 70.824219 477.507812 61.5 465.5 53.347656 452.605469 C 47.722656 427.378906 48.46875 402.476562 55.828125 380.4375 C 63.894531 356.234375 85.734375 333.117188 110.390625 337.996094 C 131.71875 342.164062 142.734375 363.734375 152.480469 382.730469 L 154.828125 387.324219 C 158.339844 394.128906 162.890625 401.304688 169.964844 402.898438 C 176.757812 404.394531 183.375 400.035156 186.980469 395.769531 C 191.148438 390.890625 193.6875 384.558594 196.125 378.417969 L 196.683594 377.058594 C 200.902344 366.507812 206.25 354.542969 216.09375 346.429688 C 225.460938 338.699219 240.699219 334.988281 251.757812 342.964844 C 265.074219 352.582031 263.953125 372.136719 261.933594 386.007812 C 259.632812 401.484375 258.929688 417.007812 268.730469 425.363281 C 278.152344 433.472656 293.109375 430.097656 301.539062 422.355469 C 309.371094 415.179688 314.382812 404.113281 316.820312 388.503906 C 318.558594 377.574219 318.933594 366.453125 317.992188 355.433594 C 317.523438 349.808594 316.585938 342.585938 313.402344 336.347656 C 305.804688 321.484375 288.976562 315.902344 271.167969 309.996094 C 253.027344 303.992188 234.28125 297.75 226.121094 280.734375 C 222.746094 273.605469 222.464844 266.007812 225.417969 260.289062 C 231.652344 248.421875 248.90625 248.144531 254.574219 248.046875 C 288.085938 247.578125 312.976562 252.734375 333.089844 264.324219 C 358.964844 279.230469 374.855469 306.339844 372.605469 331.800781 C 372.136719 336.871094 371.011719 341.886719 369.933594 346.664062 C 368.621094 352.4375 367.40625 357.875 367.214844 363.457031 C 366.882812 373.261719 371.246094 384.515625 380.292969 387.1875 C 389.144531 389.808594 398.566406 383.109375 403.589844 375.789062 C 406.632812 371.433594 408.792969 366.597656 411.132812 361.441406 C 413.058594 357.21875 415.074219 352.816406 417.554688 348.683594 C 423.648438 338.789062 432.324219 331.144531 440.710938 323.78125 C 445.488281 319.566406 450.933594 314.777344 457.773438 312.714844 C 464.523438 310.699219 473.621094 312.101562 477.886719 318.71875 C 482.050781 325.140625 480.035156 333.160156 477.273438 340.902344 L 467.472656 367.957031 C 462.136719 382.730469 462.371094 392.113281 468.175781 397.40625 C 474.324219 403.035156 484.402344 400.972656 491.152344 397.453125 C 504.972656 390.332031 515.808594 375.980469 520.867188 358.0625 C 525.933594 340.246094 524.988281 321.203125 523.582031 306.621094 C 522.132812 291.1875 519.363281 273.558594 509.894531 259.53125 C 497.988281 241.859375 476.003906 230.273438 444.554688 225.203125 L 443.339844 225.023438 C 423.226562 221.738281 398.199219 217.703125 390.503906 197.769531 C 383.476562 179.675781 396.039062 160.589844 410.148438 148.722656 C 414.648438 144.96875 421.585938 139.621094 429.785156 137.234375 C 433.582031 136.109375 437.480469 135.6875 441.222656 135.21875 C 444.464844 134.839844 447.558594 134.460938 450.601562 133.714844 C 456.226562 132.265625 462.742188 128.601562 464.007812 122.605469 C 464.523438 120.253906 464.199219 117.769531 463.867188 115.09375 C 463.632812 113.3125 463.398438 111.441406 463.441406 109.511719 C 463.496094 102.996094 466.773438 96.710938 471.792969 92.675781 C 485.804688 103.230469 498.789062 115.003906 510.363281 127.898438 C 570.695312 195.152344 589.628906 299.210938 558.554688 393.050781 Z M 558.554688 393.050781 " fill-opacity="1" fill-rule="nonzero"/><path fill="#aa1f15" d="M 431.28125 259.796875 C 424.113281 243.683594 410.851562 233.0625 396.675781 232.074219 L 381.632812 231.027344 C 378.128906 230.789062 373.335938 230.460938 369.390625 232.757812 C 364.257812 235.746094 361.972656 242.738281 364.179688 248.667969 C 366.109375 253.863281 371.042969 257.851562 377.050781 259.078125 C 378.519531 259.378906 380.027344 259.515625 381.539062 259.648438 C 383.886719 259.851562 386.109375 260.046875 387.960938 260.941406 C 391.410156 262.621094 393.71875 266.789062 395.007812 273.691406 C 396.324219 280.710938 396.859375 287.886719 396.59375 295.019531 L 396.5625 295.847656 C 396.398438 299.960938 396.210938 304.621094 398.617188 308.554688 C 401.25 312.855469 406.136719 314.730469 410.738281 314.730469 C 412.183594 314.730469 413.601562 314.542969 414.914062 314.191406 C 419.710938 312.890625 424.238281 309.558594 428.355469 304.292969 C 437.289062 292.867188 438.410156 275.816406 431.28125 259.796875 Z M 431.28125 259.796875 " fill-opacity="1" fill-rule="nonzero"/><path fill="#eb4c40" d="M 523.582031 306.621094 C 522.132812 291.1875 519.363281 273.558594 509.894531 259.53125 C 497.988281 241.859375 476.003906 230.273438 444.554688 225.203125 L 443.339844 225.023438 C 423.226562 221.738281 398.199219 217.703125 390.503906 197.769531 C 383.476562 179.675781 396.039062 160.589844 410.148438 148.722656 C 414.648438 144.96875 421.585938 139.621094 429.785156 137.234375 C 433.582031 136.109375 437.480469 135.6875 441.222656 135.21875 C 444.464844 134.839844 447.558594 134.460938 450.601562 133.714844 C 456.226562 132.265625 462.742188 128.601562 464.007812 122.605469 C 464.523438 120.253906 464.199219 117.769531 463.867188 115.09375 C 463.632812 113.3125 463.398438 111.441406 463.441406 109.511719 C 463.496094 102.996094 466.773438 96.710938 471.792969 92.675781 C 440.855469 69.46875 404.847656 52.308594 367.40625 42.414062 C 378.789062 61.734375 389.945312 88.410156 382.964844 104.734375 C 379.167969 113.546875 370.726562 118.101562 357.792969 118.238281 C 348.972656 118.191406 341.246094 113.601562 333.882812 109.046875 C 326.808594 104.644531 320.148438 100.511719 312.699219 100.464844 L 312.652344 100.464844 C 307.496094 100.464844 302.339844 102.996094 298.5 107.316406 C 294.648438 111.675781 292.820312 117.113281 293.476562 122.269531 C 294.089844 126.960938 296.339844 131.320312 298.734375 135.917969 C 301.351562 140.980469 304.070312 146.136719 304.589844 152.054688 C 305.195312 159.085938 302.574219 165.648438 297.085938 171.09375 C 289.402344 178.683594 277.214844 182.90625 266.011719 181.828125 C 254.386719 180.703125 243.648438 175.921875 233.292969 171.230469 C 228 168.890625 222.554688 166.40625 217.074219 164.523438 C 198.464844 158.050781 160.121094 150.460938 148.125 168.089844 C 142.121094 176.957031 148.871094 192.800781 153.792969 204.34375 C 154.875 206.917969 155.898438 209.257812 156.65625 211.277344 C 159.652344 219.296875 163.359375 229.292969 158.148438 237.402344 C 154.449219 243.164062 147.933594 245.183594 141.652344 247.152344 C 135.886719 248.9375 130.40625 250.628906 127.6875 254.988281 C 124.125 260.613281 126.652344 267.132812 129.515625 274.683594 C 131.855469 280.734375 134.203125 286.964844 133.546875 293.347656 C 132.230469 306.105469 119.109375 313.886719 107.484375 314.6875 C 97.917969 315.390625 88.640625 312.667969 79.6875 310.039062 C 77.816406 309.484375 75.980469 308.914062 74.105469 308.402344 C 64.875 305.871094 53.011719 303.523438 43.125 308.214844 C 33.1875 312.992188 27.753906 323.832031 24.9375 332.132812 C 23.902344 335.132812 23.53125 340.851562 23.199219 346.386719 C 22.597656 355.625 22.027344 364.304688 18.84375 368.523438 C 25.449219 398.8125 37.175781 427.324219 53.347656 452.605469 C 47.722656 427.378906 48.46875 402.476562 55.828125 380.4375 C 63.894531 356.234375 85.734375 333.117188 110.390625 337.996094 C 131.71875 342.164062 142.734375 363.734375 152.480469 382.730469 L 154.828125 387.324219 C 158.339844 394.128906 162.890625 401.304688 169.964844 402.898438 C 176.757812 404.394531 183.375 400.035156 186.980469 395.769531 C 191.148438 390.890625 193.6875 384.558594 196.125 378.417969 L 196.683594 377.058594 C 200.902344 366.507812 206.25 354.542969 216.09375 346.429688 C 225.460938 338.699219 240.699219 334.988281 251.757812 342.964844 C 265.074219 352.582031 263.953125 372.136719 261.933594 386.007812 C 259.632812 401.484375 258.929688 417.007812 268.730469 425.363281 C 278.152344 433.472656 293.109375 430.097656 301.539062 422.355469 C 309.371094 415.179688 314.382812 404.113281 316.820312 388.503906 C 318.558594 377.574219 318.933594 366.453125 317.992188 355.433594 C 317.523438 349.808594 316.585938 342.585938 313.402344 336.347656 C 305.804688 321.484375 288.976562 315.902344 271.167969 309.996094 C 253.027344 303.992188 234.28125 297.75 226.117188 280.734375 C 222.746094 273.605469 222.464844 266.007812 225.417969 260.289062 C 231.652344 248.421875 248.90625 248.144531 254.574219 248.046875 C 288.085938 247.578125 312.976562 252.734375 333.089844 264.324219 C 358.964844 279.230469 374.855469 306.339844 372.605469 331.800781 C 372.136719 336.871094 371.011719 341.886719 369.933594 346.664062 C 368.621094 352.4375 367.40625 357.875 367.214844 363.457031 C 366.882812 373.261719 371.246094 384.515625 380.292969 387.1875 C 389.144531 389.808594 398.566406 383.109375 403.589844 375.789062 C 406.632812 371.433594 408.792969 366.597656 411.132812 361.441406 C 413.058594 357.21875 415.074219 352.816406 417.554688 348.683594 C 423.648438 338.789062 432.324219 331.144531 440.710938 323.78125 C 445.488281 319.566406 450.933594 314.777344 457.773438 312.714844 C 464.523438 310.699219 473.621094 312.101562 477.886719 318.71875 C 482.050781 325.140625 480.035156 333.160156 477.273438 340.902344 L 467.472656 367.957031 C 462.136719 382.730469 462.371094 392.113281 468.175781 397.40625 C 474.324219 403.035156 484.402344 400.972656 491.152344 397.453125 C 504.972656 390.332031 515.808594 375.980469 520.867188 358.0625 C 525.933594 340.246094 524.988281 321.203125 523.582031 306.621094 Z M 428.355469 304.296875 C 424.234375 309.5625 419.714844 312.894531 414.910156 314.191406 C 413.605469 314.542969 412.183594 314.730469 410.734375 314.730469 C 406.136719 314.730469 401.25 312.859375 398.621094 308.554688 C 396.210938 304.621094 396.398438 299.964844 396.5625 295.851562 L 396.597656 295.015625 C 396.859375 287.882812 396.328125 280.707031 395.011719 273.695312 C 393.71875 266.789062 391.40625 262.621094 387.957031 260.945312 C 386.105469 260.046875 383.890625 259.847656 381.542969 259.648438 C 380.03125 259.515625 378.519531 259.378906 377.050781 259.074219 C 371.039062 257.847656 366.109375 253.859375 364.183594 248.667969 C 361.96875 242.734375 364.265625 235.746094 369.394531 232.757812 C 373.335938 230.460938 378.132812 230.785156 381.632812 231.027344 L 396.679688 232.074219 C 410.851562 233.0625 424.117188 243.6875 431.28125 259.792969 C 438.40625 275.820312 437.292969 292.863281 428.355469 304.296875 Z M 94.273438 501.339844 C 99.160156 505.777344 104.246094 510 109.519531 513.988281 C 107.179688 512.207031 104.875 510.378906 102.605469 508.507812 C 99.773438 506.183594 97 503.796875 94.273438 501.339844 Z M 94.273438 501.339844 " fill-opacity="1" fill-rule="nonzero"/><path fill="#eb4c40" d="M 490.773438 496.3125 C 468.414062 516.429688 441.929688 532.890625 412.070312 545.035156 C 373.070312 560.933594 330.511719 568.8125 288.183594 568.8125 C 236.902344 568.8125 185.996094 557.277344 141.933594 534.484375 C 127.824219 527.21875 114.699219 518.496094 102.605469 508.503906 C 102.933594 503.910156 104.105469 499.5 106.871094 495.421875 C 116.621094 480.882812 138.839844 482.480469 155.714844 491.578125 C 159.042969 493.359375 162.324219 495.28125 165.605469 497.25 C 176.714844 503.910156 188.152344 510.804688 200.527344 510.007812 C 208.167969 509.539062 215.714844 506.113281 223.074219 502.785156 C 233.199219 498.1875 243.652344 493.453125 254.761719 496.171875 C 264.417969 498.515625 271.355469 505.785156 278.011719 512.820312 C 284.152344 519.292969 289.964844 525.386719 297.699219 527.875 C 312.320312 532.5625 328.210938 523.417969 346.210938 499.96875 C 365.570312 474.742188 383.101562 464.984375 399.789062 470.097656 C 400.398438 470.332031 400.914062 470.800781 401.195312 471.410156 C 401.476562 472.019531 401.476562 472.675781 401.195312 473.332031 C 399.742188 476.617188 400.960938 479.617188 402.226562 481.539062 C 405.179688 485.949219 411.226562 489.089844 416.570312 488.902344 C 422.570312 488.761719 428.195312 486.558594 434.148438 484.261719 C 437.804688 482.804688 441.601562 481.351562 445.492188 480.367188 C 460.398438 476.617188 476.476562 480.835938 486.554688 491.105469 C 488.148438 492.703125 489.554688 494.4375 490.773438 496.3125 Z M 490.773438 496.3125 " fill-opacity="1" fill-rule="nonzero"/><path fill="#231f20" d="M 221.640625 281.855469 C 221.4375 281.855469 221.234375 281.847656 221.027344 281.832031 C 217.160156 281.496094 214.292969 278.089844 214.628906 274.21875 C 215.40625 265.1875 214.949219 256.085938 213.257812 247.164062 C 212.746094 244.445312 212.09375 241.648438 210.8125 239.621094 C 208.144531 235.382812 201.488281 233.613281 195.996094 235.675781 C 190.4375 237.753906 185.695312 243.203125 183.3125 250.25 C 180.691406 258.003906 180.976562 266.671875 181.519531 273.359375 C 181.832031 277.230469 178.949219 280.625 175.078125 280.9375 C 171.210938 281.226562 167.820312 278.371094 167.503906 274.496094 C 166.851562 266.460938 166.546875 255.9375 169.988281 245.742188 C 173.714844 234.730469 181.597656 226.039062 191.070312 222.496094 C 202.867188 218.082031 216.472656 222.21875 222.710938 232.121094 C 225.238281 236.132812 226.300781 240.464844 227.074219 244.546875 C 229.003906 254.730469 229.527344 265.121094 228.636719 275.429688 C 228.324219 279.09375 225.25 281.855469 221.640625 281.855469 Z M 221.640625 281.855469 " fill-opacity="1" fill-rule="nonzero"/><path fill="#231f20" d="M 366.253906 281.855469 C 362.640625 281.859375 359.570312 279.089844 359.257812 275.425781 C 358.367188 265.105469 358.894531 254.714844 360.824219 244.546875 C 361.59375 240.460938 362.660156 236.128906 365.1875 232.117188 C 371.417969 222.21875 385.007812 218.082031 396.828125 222.496094 C 406.304688 226.042969 414.183594 234.734375 417.90625 245.742188 C 421.355469 255.949219 421.042969 266.472656 420.390625 274.5 C 420.074219 278.375 416.703125 281.261719 412.8125 280.9375 C 408.945312 280.625 406.0625 277.230469 406.375 273.355469 C 406.921875 266.675781 407.207031 258.011719 404.582031 250.246094 C 402.203125 243.203125 397.460938 237.753906 391.902344 235.671875 C 386.394531 233.617188 379.75 235.386719 377.082031 239.617188 C 375.804688 241.644531 375.152344 244.441406 374.636719 247.164062 C 372.949219 256.074219 372.488281 265.175781 373.265625 274.21875 C 373.601562 278.089844 370.734375 281.496094 366.863281 281.832031 C 366.660156 281.847656 366.457031 281.855469 366.253906 281.855469 Z M 366.253906 281.855469 " fill-opacity="1" fill-rule="nonzero"/><path fill="#231f20" d="M 296.773438 392.464844 C 275.003906 392.464844 254.640625 375.148438 251.230469 353.609375 C 250.625 349.773438 253.242188 346.167969 257.078125 345.5625 C 260.894531 344.949219 264.515625 347.570312 265.125 351.410156 C 267.449219 366.117188 281.894531 378.398438 296.773438 378.398438 C 296.894531 378.398438 297.011719 378.398438 297.132812 378.394531 C 312.140625 378.195312 326.464844 365.449219 328.417969 350.566406 C 328.921875 346.714844 332.425781 343.988281 336.304688 344.503906 C 340.152344 345.011719 342.863281 348.542969 342.359375 352.394531 C 339.503906 374.195312 319.296875 392.171875 297.324219 392.464844 C 297.140625 392.464844 296.957031 392.464844 296.773438 392.464844 Z M 296.773438 392.464844 " fill-opacity="1" fill-rule="nonzero"/><path fill="#ff8f86" d="M 173.058594 329.6875 C 173.582031 335.203125 170.277344 340.5625 165.78125 343.800781 C 161.289062 347.042969 155.765625 348.496094 150.3125 349.46875 C 142.59375 350.84375 134.511719 351.355469 127.019531 349.046875 C 116.25 345.71875 101.699219 328.574219 113.917969 318.320312 C 116.976562 315.757812 121.042969 314.789062 124.984375 314.1875 C 137.605469 312.261719 171.265625 310.816406 173.058594 329.6875 Z M 173.058594 329.6875 " fill-opacity="1" fill-rule="nonzero"/><path fill="#ff8f86" d="M 438.109375 329.6875 C 437.585938 335.203125 440.890625 340.5625 445.382812 343.800781 C 449.875 347.042969 455.398438 348.496094 460.851562 349.46875 C 468.570312 350.84375 476.652344 351.355469 484.144531 349.046875 C 494.914062 345.71875 509.464844 328.574219 497.246094 318.320312 C 494.191406 315.757812 490.121094 314.789062 486.179688 314.1875 C 473.558594 312.261719 439.898438 310.816406 438.109375 329.6875 Z M 438.109375 329.6875 " fill-opacity="1" fill-rule="nonzero"/></svg>