<svg xmlns="http://www.w3.org/2000/svg" xmlns:xlink="http://www.w3.org/1999/xlink" width="800" zoomAndPan="magnify" viewBox="0 0 600 599.999999" height="800" preserveAspectRatio="xMidYMid meet" version="1.0"><defs><clipPath id="38f2483528"><path d="M 153.300781 153 L 443 153 L 443 502 L 153.300781 502 Z M 153.300781 153 " clip-rule="nonzero"/></clipPath></defs><g clip-path="url(#38f2483528)"><path fill="#ffdf5a" d="M 343.53125 465.453125 C 298.429688 493.472656 153.984375 539.890625 153.417969 444.632812 C 153.289062 423.039062 161.527344 402.324219 164.433594 380.925781 C 169.171875 346.066406 159.644531 310.953125 158.625 275.789062 C 156.601562 205.761719 210.074219 160.378906 277.527344 154.074219 C 363.867188 146.007812 437.332031 199.140625 442.414062 288.023438 C 446.539062 360.164062 403.90625 427.945312 343.53125 465.453125 Z M 343.53125 465.453125 " fill-opacity="1" fill-rule="nonzero"/></g><path fill="#000000" d="M 242.75 290.339844 C 244.9375 296.761719 238.308594 302.214844 232.238281 299.996094 C 229.117188 298.859375 226.808594 295.839844 227.007812 292.425781 C 227.125 290.402344 228.109375 288.730469 229.546875 287.675781 C 231.027344 285.785156 233.410156 284.605469 235.863281 284.75 C 239.125 284.945312 241.71875 287.316406 242.75 290.339844 Z M 307.457031 303.578125 C 302.523438 301.132812 299 296.386719 298.511719 290.832031 C 298.222656 287.542969 293.050781 287.511719 293.34375 290.832031 C 293.53125 292.941406 294.023438 294.984375 294.773438 296.914062 C 290.425781 300.035156 284.703125 300.5625 279.511719 300.636719 C 273.9375 300.71875 266.796875 300.609375 263.09375 295.667969 C 261.121094 293.035156 256.632812 295.609375 258.628906 298.277344 C 263.464844 304.722656 271.246094 305.867188 278.835938 305.816406 C 285.3125 305.769531 291.730469 304.917969 297.1875 301.425781 C 299.125 304.1875 301.710938 306.488281 304.847656 308.042969 C 307.820312 309.519531 310.441406 305.058594 307.457031 303.582031 Z M 328.9375 290.707031 C 327.394531 291.578125 326.125 293.046875 325.511719 294.726562 C 323.929688 297.246094 324.449219 300.761719 326.523438 302.90625 C 330.445312 306.964844 338.164062 305.226562 339.589844 299.628906 C 341.085938 293.738281 334.613281 287.5 328.9375 290.707031 Z M 328.9375 290.707031 " fill-opacity="1" fill-rule="nonzero"/><path fill="#338735" d="M 341.402344 107.710938 C 333.609375 118.019531 326.175781 127.976562 321.699219 140.265625 C 317.316406 152.300781 315.441406 165.070312 313.609375 177.6875 C 312.683594 184.066406 302.414062 183.644531 301.148438 177.6875 C 300.285156 173.640625 299.8125 169.578125 299.679688 165.519531 C 291.910156 169.242188 280.726562 167.152344 273.066406 165.90625 C 260.074219 163.792969 247.507812 158.929688 236.5625 151.59375 C 219.027344 139.835938 208.890625 122.414062 198.617188 104.699219 C 195.414062 99.175781 192.503906 93.382812 190.335938 87.371094 C 188.71875 82.878906 187.585938 77.695312 189.019531 73.007812 C 192.972656 60.109375 210.148438 62.417969 220.625 63.542969 C 232.984375 64.867188 245.097656 68.554688 256.046875 74.453125 C 274.90625 84.609375 291.128906 102.621094 300.015625 122.882812 C 301.785156 126.921875 303.257812 131.050781 304.410156 135.222656 C 304.480469 135.007812 304.550781 134.792969 304.621094 134.578125 C 309.199219 120.863281 316.257812 106.609375 326.488281 96.203125 C 333.882812 88.683594 347.992188 98.996094 341.402344 107.710938 Z M 341.402344 107.710938 " fill-opacity="1" fill-rule="nonzero"/><path fill="#ffffff" d="M 248.550781 92.625 C 243.335938 88.59375 238.085938 84.761719 232.578125 81.148438 C 229.289062 78.996094 231.472656 74.363281 235.15625 75.03125 C 242.6875 76.398438 249.527344 81.035156 253.875 87.296875 C 256.011719 90.375 251.636719 95.011719 248.550781 92.625 Z M 263.175781 95.875 C 263.035156 95.273438 262.757812 94.75 262.347656 94.300781 C 262.023438 93.796875 261.589844 93.402344 261.054688 93.113281 C 260.523438 92.773438 259.949219 92.589844 259.335938 92.5625 C 258.722656 92.425781 258.109375 92.453125 257.492188 92.644531 C 256.375 93.007812 255.296875 93.699219 254.734375 94.769531 C 254.578125 95.136719 254.421875 95.503906 254.265625 95.875 C 254.046875 96.691406 254.046875 97.511719 254.265625 98.332031 C 254.308594 98.566406 254.351562 98.800781 254.394531 99.035156 C 254.617188 99.828125 255.019531 100.515625 255.597656 101.101562 C 256.183594 101.679688 256.871094 102.082031 257.664062 102.304688 C 257.679688 102.308594 257.695312 102.3125 257.710938 102.320312 C 259.269531 102.761719 261.042969 102.296875 262.175781 101.136719 C 262.1875 101.125 262.199219 101.113281 262.210938 101.101562 C 262.792969 100.519531 263.191406 99.828125 263.414062 99.035156 C 263.636719 98.207031 263.636719 97.378906 263.414062 96.550781 C 263.335938 96.324219 263.257812 96.097656 263.175781 95.875 Z M 387.421875 236.660156 C 387.683594 236.46875 387.890625 236.167969 387.980469 235.734375 C 387.980469 235.722656 387.980469 235.714844 387.984375 235.703125 C 388 235.660156 388.015625 235.621094 388.03125 235.578125 C 388.300781 234.667969 388.429688 233.761719 388.296875 232.851562 C 388.390625 228.535156 386.722656 224.730469 384.957031 220.59375 C 383.148438 216.359375 380.78125 209.757812 374.804688 211.792969 C 372.265625 212.65625 370.878906 215.371094 371.550781 217.953125 C 372.171875 220.347656 374.074219 222.265625 375.402344 224.289062 C 376.882812 226.542969 378.191406 228.910156 379.367188 231.339844 C 380.515625 233.710938 381.496094 235.828125 383.78125 237.308594 C 385.007812 238.105469 386.539062 237.671875 387.421875 236.660156 Z M 396.730469 250.667969 C 396.367188 248.691406 395.234375 246.257812 393.476562 245.152344 C 391.675781 244.015625 389.324219 244.492188 387.90625 246.003906 C 386.492188 247.507812 386.078125 249.671875 386.777344 251.597656 C 386.832031 251.75 386.898438 251.902344 386.964844 252.0625 C 387.160156 253.492188 387.738281 254.851562 388.660156 255.761719 C 390.195312 257.273438 392.613281 257.710938 394.476562 256.542969 C 396.453125 255.304688 397.132812 252.863281 396.730469 250.667969 Z M 349.707031 386.578125 C 348.140625 387.847656 347.089844 390.0625 346.589844 391.804688 C 345.832031 394.433594 345.386719 398.410156 347.832031 400.296875 C 350.796875 402.585938 354.046875 400.285156 355.285156 397.394531 C 356.574219 394.386719 356.871094 391.320312 356.308594 388.109375 C 355.757812 384.960938 351.578125 384.695312 349.707031 386.578125 Z M 329.710938 409.390625 C 328.699219 408.6875 327.558594 408.691406 326.574219 409.121094 C 324.253906 409.46875 322.382812 412.179688 321.339844 414.207031 C 319.71875 417.367188 317.902344 422.335938 321.132812 425.085938 C 322.828125 426.53125 325.277344 426.515625 326.992188 425.113281 C 328.457031 423.914062 329.269531 421.964844 329.996094 420.253906 C 331.414062 416.894531 333.351562 411.921875 329.710938 409.390625 Z M 350.28125 410.136719 C 349.15625 410.304688 348.359375 411.003906 347.992188 411.972656 C 347.441406 412.644531 347.019531 413.410156 346.660156 414.277344 C 345.898438 416.132812 345.660156 418.675781 347.679688 419.859375 C 349.65625 421.015625 351.855469 419.824219 352.773438 417.941406 C 353.621094 416.203125 353.878906 414.09375 353.453125 412.207031 C 353.136719 410.820312 351.632812 409.933594 350.28125 410.136719 Z M 350.28125 410.136719 " fill-opacity="0.33" fill-rule="nonzero"/><path fill="#ffce00" d="M 325.203125 186.347656 C 316.964844 189.398438 306.476562 188.78125 297.929688 187.414062 C 293.492188 186.707031 289.144531 185.566406 285.386719 183.003906 C 282.347656 180.9375 278.070312 177.882812 278.449219 173.71875 C 278.601562 172.078125 279.425781 170.964844 280.988281 170.382812 C 284.210938 169.179688 288.054688 171.210938 291.296875 171.734375 C 294.347656 172.226562 297.355469 172.816406 300.449219 172.984375 C 307.09375 173.34375 314.902344 174.265625 321.335938 172.308594 C 325.109375 171.160156 329.261719 173.667969 330.285156 177.390625 C 331.390625 181.414062 328.886719 184.984375 325.203125 186.347656 Z M 212.539062 322.960938 C 211.691406 322.949219 210.84375 323.027344 210.019531 323.191406 C 208.039062 323.125 206.082031 323.527344 204.15625 324.808594 C 200.753906 327.070312 199.078125 331.460938 200.347656 335.363281 C 203.015625 343.574219 215.726562 344.226562 221.808594 339.765625 C 225.257812 337.242188 226.523438 332.738281 224.511719 328.855469 C 222.222656 324.421875 217.179688 323.039062 212.539062 322.960938 Z M 343.273438 333.332031 C 340.683594 329.203125 335.589844 329.574219 331.328125 329.3125 C 331.148438 329.300781 330.96875 329.296875 330.792969 329.289062 C 330.722656 329.285156 330.652344 329.28125 330.582031 329.28125 C 326.4375 329.191406 322.171875 330.519531 321.019531 335.074219 C 320.871094 335.652344 320.8125 336.222656 320.824219 336.773438 C 320.738281 337.785156 320.863281 338.847656 321.246094 339.929688 C 323.949219 347.632812 337.351562 349.910156 342.421875 343.632812 C 344.742188 340.757812 345.28125 336.539062 343.273438 333.332031 Z M 343.273438 333.332031 " fill-opacity="1" fill-rule="nonzero"/></svg>