<svg xmlns="http://www.w3.org/2000/svg" xmlns:xlink="http://www.w3.org/1999/xlink" width="800" zoomAndPan="magnify" viewBox="0 0 600 599.999999" height="800" preserveAspectRatio="xMidYMid meet" version="1.0"><path fill="#ff862e" d="M 479.996094 257.183594 C 467.984375 239.101562 452.855469 222.851562 435.300781 209.277344 C 378.128906 165.070312 304.945312 155.261719 236.296875 174.84375 C 150.039062 199.4375 81.984375 272.191406 91.125 365.957031 C 99.472656 451.640625 166.171875 519.347656 250.480469 531.746094 C 306.566406 539.992188 364.59375 535.449219 415.300781 508.25 C 458.871094 484.882812 495.585938 442.867188 506.703125 393.96875 C 517.722656 345.503906 506.382812 296.921875 479.988281 257.183594 Z M 479.996094 257.183594 " fill-opacity="1" fill-rule="nonzero"/><path fill="#005c36" d="M 343.152344 79.058594 C 339.140625 76.160156 334.367188 76.953125 331.117188 80.476562 C 325.0625 87.03125 320.085938 94.839844 315.421875 102.417969 C 310.363281 110.640625 305.824219 119.144531 301.871094 127.949219 C 299.941406 132.238281 298.148438 136.597656 296.484375 141.007812 C 295.960938 139.691406 295.425781 138.382812 294.855469 137.078125 C 283.949219 112.199219 264.03125 90.082031 240.871094 77.613281 C 227.429688 70.371094 212.558594 65.84375 197.386719 64.21875 C 184.527344 62.84375 163.4375 60.007812 158.589844 75.84375 C 156.824219 81.601562 158.21875 87.964844 160.203125 93.476562 C 162.863281 100.863281 166.4375 107.972656 170.367188 114.75 C 182.984375 136.503906 195.421875 157.890625 216.957031 172.328125 C 230.394531 181.335938 245.820312 187.304688 261.773438 189.902344 C 267.980469 190.914062 276.078125 192.371094 283.609375 191.941406 C 282.730469 198.519531 282.144531 205.136719 281.855469 211.769531 C 281.648438 216.523438 284.386719 221.574219 289.617188 222.070312 C 294.148438 222.496094 299.695312 219.40625 299.910156 214.300781 C 300.292969 205.445312 301.183594 196.621094 302.621094 187.878906 C 303.328125 183.585938 304.164062 179.308594 305.121094 175.058594 C 305.585938 173.007812 306.074219 170.964844 306.601562 168.929688 C 306.875 167.855469 307.164062 166.789062 307.453125 165.71875 C 307.25 166.492188 308 163.800781 308.097656 163.464844 C 313.082031 146.578125 320.109375 130.433594 328.789062 115.128906 C 329.457031 113.953125 330.125 112.78125 330.8125 111.621094 C 330.8125 111.613281 330.996094 111.3125 331.132812 111.082031 C 331.359375 110.71875 331.957031 109.734375 331.933594 109.769531 C 333.199219 107.722656 334.492188 105.695312 335.816406 103.695312 C 338.640625 99.433594 341.757812 95.375 344.570312 91.109375 C 347.03125 87.371094 347.121094 81.933594 343.152344 79.066406 Z M 343.152344 79.058594 " fill-opacity="1" fill-rule="nonzero"/><path fill="#f77014" d="M 312.300781 205.488281 C 310.398438 205.757812 308.554688 206.695312 306.71875 207.28125 C 304.847656 207.878906 302.941406 208.367188 301.007812 208.742188 C 300.714844 208.796875 299.476562 208.996094 299.363281 209.027344 C 298.792969 209.085938 298.214844 209.144531 297.644531 209.183594 C 295.683594 209.328125 293.707031 209.390625 291.746094 209.367188 C 290.90625 209.355469 290.0625 209.324219 289.222656 209.273438 C 289.035156 209.261719 287.835938 209.160156 287.226562 209.109375 C 286.824219 209.03125 285.214844 208.792969 284.988281 208.746094 C 284.160156 208.585938 283.339844 208.402344 282.519531 208.199219 C 280.613281 207.730469 278.746094 207.117188 276.886719 206.5 C 276.09375 206.234375 275.308594 205.953125 274.519531 205.667969 C 274.316406 205.585938 274.15625 205.523438 274.03125 205.472656 C 273.59375 205.277344 273.160156 205.074219 272.730469 204.867188 C 268.722656 202.957031 263.367188 203.625 261.09375 207.921875 C 258.851562 212.171875 260.160156 216.960938 264.144531 219.566406 C 272.402344 224.960938 281.949219 227.550781 291.75 228.023438 C 296.488281 228.257812 301.328125 227.660156 305.957031 226.675781 C 311.167969 225.570312 316.878906 223.84375 320.898438 220.253906 C 323.691406 217.757812 324.300781 212.691406 322.28125 209.550781 C 319.960938 205.953125 316.382812 204.914062 312.3125 205.492188 Z M 312.300781 205.488281 " fill-opacity="1" fill-rule="nonzero"/><path fill="#f77014" d="M 208.394531 376.292969 C 198.484375 370.496094 184.761719 372.351562 178.660156 382.625 C 176.148438 386.847656 177.148438 392.878906 180.925781 396.019531 C 185.328125 402.195312 194.949219 404.738281 202.613281 403.015625 C 208.171875 401.761719 213.519531 398.03125 215.246094 392.382812 C 217.1875 386.027344 213.972656 379.554688 208.402344 376.296875 Z M 208.394531 376.292969 " fill-opacity="1" fill-rule="nonzero"/><path fill="#f77014" d="M 423.730469 388.003906 C 420.164062 381.5 412.429688 380.199219 405.636719 380.578125 C 398.417969 380.980469 391.378906 384.363281 388.988281 391.695312 C 386.683594 398.765625 389.773438 406.363281 396.148438 410.0625 C 397.792969 411.015625 399.667969 411.578125 401.589844 411.789062 C 401.773438 411.859375 401.953125 411.933594 402.132812 412 C 408.183594 414.160156 415.542969 413.140625 420.382812 408.789062 C 425.796875 403.917969 427.246094 394.417969 423.722656 388 Z M 423.730469 388.003906 " fill-opacity="1" fill-rule="nonzero"/><path fill="#ffffff" d="M 238.207031 93.390625 C 232.875 85.695312 224.472656 80.007812 215.226562 78.324219 C 210.703125 77.503906 208.023438 83.191406 212.058594 85.832031 C 218.828125 90.269531 225.269531 94.972656 231.671875 99.921875 C 235.460938 102.851562 240.832031 97.164062 238.207031 93.382812 Z M 238.207031 93.390625 " fill-opacity="0.33" fill-rule="nonzero"/><path fill="#ffffff" d="M 249.625 103.921875 C 249.449219 103.183594 249.109375 102.539062 248.609375 101.992188 C 248.207031 101.371094 247.683594 100.886719 247.015625 100.53125 C 246.367188 100.121094 245.660156 99.890625 244.910156 99.855469 C 244.15625 99.6875 243.398438 99.722656 242.644531 99.960938 C 241.273438 100.402344 239.949219 101.253906 239.253906 102.570312 C 239.0625 103.023438 238.875 103.472656 238.683594 103.925781 C 238.414062 104.929688 238.414062 105.9375 238.683594 106.941406 C 238.734375 107.230469 238.789062 107.519531 238.84375 107.808594 C 239.117188 108.785156 239.605469 109.628906 240.316406 110.339844 C 241.03125 111.054688 241.878906 111.546875 242.847656 111.816406 C 242.867188 111.820312 242.886719 111.828125 242.910156 111.832031 C 244.820312 112.375 246.996094 111.804688 248.386719 110.382812 C 248.402344 110.367188 248.417969 110.351562 248.433594 110.335938 C 249.144531 109.621094 249.640625 108.773438 249.910156 107.804688 C 250.183594 106.789062 250.183594 105.765625 249.910156 104.75 C 249.8125 104.472656 249.710938 104.199219 249.613281 103.921875 Z M 249.625 103.921875 " fill-opacity="0.33" fill-rule="nonzero"/><path fill="#ffffff" d="M 431.199219 279.199219 C 431.867188 274.976562 431.914062 270.847656 431.449219 266.597656 C 431.109375 263.476562 429.203125 260.746094 426.101562 260.207031 C 425.859375 260.101562 425.605469 260.003906 425.332031 259.933594 C 422.246094 259.082031 419.320312 260.976562 418.351562 263.898438 C 416.148438 270.546875 411.636719 284.574219 421.34375 287.332031 C 426.898438 288.910156 430.433594 283.964844 431.191406 279.210938 Z M 431.199219 279.199219 " fill-opacity="0.33" fill-rule="nonzero"/><path fill="#ffffff" d="M 434.402344 294.332031 C 433.652344 293.578125 432.417969 293.015625 431.34375 293.0625 C 430.222656 293.113281 429.058594 293.480469 428.28125 294.332031 C 427.53125 295.148438 426.929688 296.253906 427.011719 297.394531 C 427.109375 298.808594 427.042969 300.429688 427.8125 301.648438 C 429.472656 304.296875 433.21875 304.296875 434.878906 301.648438 C 435.640625 300.433594 435.574219 298.804688 435.675781 297.394531 C 435.753906 296.332031 435.140625 295.066406 434.410156 294.332031 Z M 434.402344 294.332031 " fill-opacity="0.33" fill-rule="nonzero"/><path fill="#ffffff" d="M 123.253906 370 C 122.152344 367.71875 119.855469 367.203125 117.824219 367.808594 C 116.871094 367.953125 115.984375 368.4375 115.332031 369.304688 C 114.40625 370.261719 113.863281 371.550781 114.074219 373.015625 C 113.328125 376.710938 113.257812 380.441406 113.839844 384.203125 C 114.476562 388.316406 116.375 393.691406 121.394531 393.691406 C 126.957031 393.691406 127.632812 387.28125 127.183594 383.113281 C 126.695312 378.566406 125.238281 374.109375 123.253906 369.996094 Z M 123.253906 370 " fill-opacity="0.33" fill-rule="nonzero"/><path fill="#ffffff" d="M 119.226562 363.460938 C 121.914062 363.820312 124.089844 361.792969 124.214844 359.132812 C 124.265625 358.039062 124.316406 356.945312 124.363281 355.851562 C 124.460938 353.773438 122.699219 352.007812 120.738281 351.742188 C 118.839844 351.484375 116.523438 352.6875 116.152344 354.738281 C 115.957031 355.8125 115.761719 356.882812 115.566406 357.960938 C 115.34375 359.183594 115.425781 360.257812 116.007812 361.355469 C 116.648438 362.566406 117.914062 363.285156 119.226562 363.460938 Z M 119.226562 363.460938 " fill-opacity="0.33" fill-rule="nonzero"/><path fill="#000000" d="M 244.128906 328.355469 C 240.183594 328.121094 236.359375 330.015625 233.976562 333.058594 C 231.664062 334.753906 230.078125 337.445312 229.890625 340.703125 C 229.570312 346.1875 233.28125 351.046875 238.300781 352.878906 C 248.070312 356.441406 258.722656 347.671875 255.207031 337.34375 C 253.550781 332.480469 249.378906 328.664062 244.128906 328.355469 Z M 244.128906 328.355469 " fill-opacity="1" fill-rule="nonzero"/><path fill="#000000" d="M 386.128906 338.375 C 384.472656 333.511719 380.296875 329.695312 375.050781 329.386719 C 371.101562 329.152344 367.277344 331.046875 364.898438 334.089844 C 362.582031 335.785156 361 338.476562 360.808594 341.734375 C 360.492188 347.21875 364.203125 352.078125 369.222656 353.910156 C 378.988281 357.472656 389.644531 348.707031 386.128906 338.375 Z M 386.128906 338.375 " fill-opacity="1" fill-rule="nonzero"/><path fill="#000000" d="M 330.304688 357.984375 C 316.253906 365.367188 298.703125 364.753906 284.523438 358.132812 C 280.773438 356.378906 276.640625 361.9375 280.355469 364.433594 C 283.035156 366.234375 285.835938 367.75 288.714844 368.992188 C 285.453125 374.738281 284.933594 381.808594 287.839844 387.90625 C 291.335938 395.25 298.339844 399.5 306.390625 399.851562 C 314.234375 400.191406 321.609375 396.183594 325.574219 389.410156 C 328.804688 383.894531 329.238281 376.539062 326.851562 370.53125 C 330.054688 369.503906 333.191406 368.195312 336.222656 366.601562 C 338.722656 365.285156 339.039062 361.464844 337.574219 359.328125 C 335.820312 356.777344 332.816406 356.65625 330.304688 357.976562 Z M 316.679688 384.285156 C 314.667969 388.203125 310.726562 390.222656 306.394531 390.242188 C 296.675781 390.285156 291.957031 379.519531 295.757812 371.445312 C 302.683594 373.3125 309.914062 373.722656 317.035156 372.765625 C 318.558594 376.636719 318.671875 380.390625 316.679688 384.285156 Z M 316.679688 384.285156 " fill-opacity="1" fill-rule="nonzero"/></svg>