<svg xmlns="http://www.w3.org/2000/svg" xmlns:xlink="http://www.w3.org/1999/xlink" width="800" zoomAndPan="magnify" viewBox="0 0 600 599.999999" height="800" preserveAspectRatio="xMidYMid meet" version="1.0"><path fill="#17ad34" d="M 317.65625 159.898438 C 318.542969 152.945312 318.734375 145.972656 320.453125 139.136719 C 321.992188 133.003906 324.769531 127.445312 328.496094 122.355469 C 331.105469 118.800781 335.1875 113.351562 340.21875 113.804688 C 343.683594 114.113281 345.285156 116.796875 346.15625 119.886719 C 351.0625 113.914062 358.078125 109.660156 364.992188 106.257812 C 369.320312 104.128906 373.933594 102.101562 378.664062 101.082031 C 382.71875 100.210938 389.472656 99.714844 391.210938 104.636719 C 391.863281 106.488281 391.554688 108.527344 390.984375 110.40625 C 391.816406 110.414062 392.65625 110.429688 393.484375 110.453125 C 401.636719 110.671875 410.105469 111.40625 417.777344 114.359375 C 421.339844 115.726562 425.050781 117.6875 427.042969 121.089844 C 429.378906 125.066406 428.921875 130.195312 427.691406 134.441406 C 426.324219 139.167969 423.914062 143.574219 421.535156 147.851562 C 420.292969 150.082031 419.082031 152.316406 417.796875 154.5 C 419.769531 154.878906 421.6875 155.589844 422.964844 157.046875 C 426.003906 160.492188 423.09375 165.644531 420.789062 168.597656 C 416.871094 173.628906 411.292969 177.316406 405.5625 179.980469 C 402.351562 181.472656 398.925781 182.886719 395.449219 183.609375 C 392.175781 184.296875 388.828125 184.128906 385.511719 184.296875 C 385.992188 184.890625 386.472656 185.472656 386.84375 186.070312 C 388.042969 188.023438 388.488281 190.328125 387.453125 192.441406 C 385.039062 197.394531 378.441406 197.882812 373.664062 197.359375 C 361.121094 196 349.058594 192.183594 337.570312 187.0625 C 334.230469 185.570312 330.722656 183.984375 327.550781 181.960938 C 327.257812 181.796875 326.964844 181.625 326.675781 181.445312 C 325.613281 180.792969 324.582031 180.0625 323.613281 179.261719 C 320.386719 177.855469 317.769531 175.554688 317.164062 171.761719 C 317.09375 171.355469 317.046875 170.941406 317.011719 170.527344 C 316.527344 167.054688 317.222656 163.289062 317.65625 159.898438 Z M 317.65625 159.898438 " fill-opacity="1" fill-rule="nonzero"/><path fill="#008627" d="M 316.976562 170.460938 C 322.574219 168.128906 328.578125 167.289062 334.414062 165.773438 C 340.492188 164.195312 346.558594 162.585938 352.578125 160.804688 C 358.707031 158.996094 364.847656 157.152344 370.84375 154.933594 C 376.574219 152.8125 381.921875 149.820312 387.324219 147.007812 C 390.324219 145.449219 393.066406 143.835938 395.71875 141.726562 C 398.113281 139.816406 400.496094 137.941406 403.085938 136.285156 C 403.8125 135.820312 404.574219 136.921875 403.957031 137.492188 C 399.890625 141.253906 396.289062 145.492188 391.578125 148.507812 C 386.464844 151.78125 380.957031 154.757812 375.445312 157.300781 C 363.9375 162.621094 351.613281 166.085938 339.410156 169.402344 C 336.121094 170.296875 332.835938 171.195312 329.503906 171.933594 C 326.066406 172.695312 322.542969 173.371094 319.257812 174.65625 C 318.046875 175.128906 316.699219 174.921875 316.015625 173.699219 C 315.4375 172.660156 315.789062 170.957031 316.976562 170.460938 Z M 316.976562 170.460938 " fill-opacity="1" fill-rule="nonzero"/><path fill="#b924d0" d="M 488.40625 252.761719 C 473.394531 159.046875 330.683594 138.820312 300.5 234.085938 C 300.199219 235.046875 299.914062 236.007812 299.640625 236.976562 C 287.375 280.359375 310.476562 329.9375 350.933594 349.449219 C 417.253906 381.433594 500.484375 328.15625 488.40625 252.757812 Z M 488.40625 252.761719 " fill-opacity="1" fill-rule="nonzero"/><path fill="#b924d0" d="M 371.371094 424.816406 C 356.359375 331.101562 213.648438 310.875 183.464844 406.140625 C 183.164062 407.101562 182.875 408.0625 182.601562 409.03125 C 170.335938 452.414062 193.441406 501.992188 233.894531 521.503906 C 300.21875 553.492188 383.449219 500.210938 371.371094 424.816406 Z M 371.371094 424.816406 " fill-opacity="1" fill-rule="nonzero"/><path fill="#b94ed0" d="M 462.628906 356.816406 C 447.617188 263.105469 304.90625 242.878906 274.722656 338.144531 C 274.421875 339.101562 274.132812 340.066406 273.859375 341.035156 C 261.59375 384.417969 284.699219 433.996094 325.152344 453.507812 C 391.476562 485.492188 474.707031 432.214844 462.628906 356.816406 Z M 462.628906 356.816406 " fill-opacity="1" fill-rule="nonzero"/><path fill="#b924d0" d="M 311.5625 332.605469 C 296.550781 238.894531 153.839844 218.667969 123.65625 313.933594 C 123.355469 314.890625 123.070312 315.855469 122.796875 316.824219 C 110.53125 360.203125 133.632812 409.785156 174.089844 429.296875 C 240.414062 461.28125 323.640625 408 311.5625 332.605469 Z M 311.5625 332.605469 " fill-opacity="1" fill-rule="nonzero"/><path fill="#b924d0" d="M 313.109375 221.335938 C 298.097656 127.625 155.386719 107.398438 125.203125 202.664062 C 124.902344 203.621094 124.617188 204.585938 124.34375 205.554688 C 112.078125 248.9375 135.179688 298.515625 175.636719 318.027344 C 241.960938 350.011719 325.1875 296.734375 313.109375 221.335938 Z M 313.109375 221.335938 " fill-opacity="1" fill-rule="nonzero"/><path fill="#b94ed0" d="M 382.714844 245.03125 C 367.703125 151.320312 224.992188 131.09375 194.808594 226.359375 C 194.507812 227.320312 194.21875 228.28125 193.945312 229.25 C 181.679688 272.632812 204.785156 322.210938 245.238281 341.722656 C 311.5625 373.707031 394.792969 320.429688 382.714844 245.03125 Z M 382.714844 245.03125 " fill-opacity="1" fill-rule="nonzero"/><path fill="#ffffff" d="M 188.429688 386.613281 C 188.125 383.71875 187.066406 380.386719 184.96875 378.265625 C 182.273438 375.546875 178.46875 376.121094 176.257812 379.054688 C 173.308594 382.96875 173.9375 389.875 176.554688 394.515625 C 177.238281 396.140625 178.289062 397.507812 179.703125 398.332031 C 183.066406 400.292969 186.980469 398.128906 188.035156 394.644531 C 188.789062 392.160156 188.695312 389.171875 188.429688 386.613281 Z M 188.429688 386.613281 " fill-opacity="0.33" fill-rule="nonzero"/><path fill="#ffffff" d="M 168.648438 368.453125 C 169.207031 365.507812 169.035156 362.519531 167.097656 360.339844 C 165.296875 358.316406 162.25 357.617188 160.09375 359.527344 C 158.367188 361.054688 157.863281 363.394531 157.644531 365.59375 C 157.539062 366.683594 157.507812 367.824219 157.632812 368.9375 C 157.625 369.039062 157.617188 369.144531 157.609375 369.246094 C 157.566406 370.109375 157.640625 370.941406 157.816406 371.71875 C 157.835938 371.878906 157.859375 372.035156 157.886719 372.179688 C 157.945312 372.484375 158.070312 372.777344 158.242188 373.042969 C 159.132812 375.101562 160.917969 376.566406 163.519531 376.835938 C 164.546875 376.941406 165.890625 376.160156 166.324219 375.226562 C 166.644531 374.535156 166.980469 373.773438 167.296875 372.96875 C 168.167969 371.695312 168.613281 370.082031 168.648438 368.453125 Z M 168.648438 368.453125 " fill-opacity="0.33" fill-rule="nonzero"/><path fill="#ffffff" d="M 453.0625 235.644531 C 451.238281 233.257812 448.175781 231.964844 445.351562 233.519531 C 442.898438 234.875 441.796875 237.898438 441.417969 240.511719 C 440.78125 244.910156 441.171875 251.558594 445.414062 254.132812 C 446.195312 255.222656 447.25 256.105469 448.675781 256.644531 C 450.128906 257.195312 452.296875 256.300781 452.96875 254.902344 C 455.796875 249.023438 457.351562 241.253906 453.0625 235.644531 Z M 453.0625 235.644531 " fill-opacity="0.33" fill-rule="nonzero"/><path fill="#ffffff" d="M 468.546875 254.460938 C 467.222656 253.582031 464.976562 253.847656 463.917969 255.058594 C 462.527344 256.648438 461.695312 258.628906 461.375 260.707031 C 459.710938 265.089844 460.917969 271.679688 466.519531 270.777344 C 473.289062 269.6875 473.441406 257.71875 468.546875 254.460938 Z M 468.546875 254.460938 " fill-opacity="0.33" fill-rule="nonzero"/><path fill="#ffffff" d="M 167.449219 203.976562 C 166.125 203.097656 163.878906 203.363281 162.820312 204.574219 C 161.429688 206.164062 160.597656 208.144531 160.277344 210.222656 C 158.613281 214.609375 159.820312 221.195312 165.421875 220.292969 C 172.191406 219.203125 172.34375 207.238281 167.449219 203.976562 Z M 167.449219 203.976562 " fill-opacity="0.33" fill-rule="nonzero"/><path fill="#ffffff" d="M 234.847656 265.398438 C 230.183594 265.15625 225.503906 266.308594 222.539062 268.976562 C 211.273438 279.113281 223.097656 292.332031 235.5 290.726562 C 241.800781 289.910156 248.417969 287.265625 249.742188 280.234375 C 251.5 270.875 242.929688 265.820312 234.847656 265.398438 Z M 234.847656 265.398438 " fill-opacity="0.33" fill-rule="nonzero"/><path fill="#ffffff" d="M 339.695312 268.238281 C 335.027344 267.996094 330.351562 269.148438 327.386719 271.816406 C 316.121094 281.953125 327.941406 295.171875 340.347656 293.566406 C 346.648438 292.75 353.265625 290.105469 354.585938 283.074219 C 356.347656 273.714844 347.777344 268.660156 339.695312 268.238281 Z M 339.695312 268.238281 " fill-opacity="0.33" fill-rule="nonzero"/><path fill="#17ad34" d="M 437.785156 204.945312 C 437.046875 202.578125 433.933594 200.691406 431.804688 202.890625 C 430.179688 204.574219 429.023438 206.050781 428.191406 208.273438 C 427.386719 210.421875 426.65625 212.585938 425.761719 214.699219 C 424.273438 218.214844 422.355469 221.496094 419.453125 224.027344 C 413.609375 229.121094 405.765625 231.945312 398.269531 233.496094 C 390.792969 235.042969 383.449219 234.753906 376.390625 231.640625 C 373.6875 230.449219 371.175781 228.839844 368.949219 226.914062 C 375.519531 223.710938 380.667969 217.957031 381.601562 210.339844 C 382.898438 199.765625 376.609375 188.574219 365.367188 187.277344 C 354.972656 186.078125 351.546875 197.375 351.378906 205.617188 C 351.265625 211.195312 352.453125 216.472656 354.636719 221.230469 C 349.492188 220.820312 344.65625 218.476562 340.445312 215.074219 C 332.4375 208.597656 326.921875 199.199219 322.703125 189.960938 C 320.777344 185.734375 319.21875 181.390625 317.167969 177.21875 C 315.335938 173.492188 312.671875 168.699219 313.667969 164.398438 C 314.191406 162.140625 311.023438 160.894531 310.195312 163.175781 C 308.664062 167.402344 309.773438 172.03125 311.035156 176.179688 C 312.445312 180.828125 314.070312 185.453125 315.707031 190.027344 C 319.539062 200.742188 325.367188 211.402344 333.625 219.367188 C 340.785156 226.28125 349.882812 230.765625 359.894531 229.574219 C 366.785156 237.867188 377.167969 243.332031 388.472656 243.96875 C 399.585938 244.597656 411.78125 241.253906 421.195312 235.371094 C 426.117188 232.292969 430.230469 228.5 433.121094 223.410156 C 436.109375 218.148438 439.6875 211.023438 437.785156 204.945312 Z M 359.21875 205.917969 C 359.3125 202.929688 359.527344 199.316406 361.222656 196.734375 C 362.875 194.226562 365.867188 195.363281 368.035156 196.777344 C 371.15625 198.816406 372.261719 202.136719 372.675781 205.683594 C 373.492188 212.6875 369.4375 217.800781 363.105469 220.085938 C 362.421875 218.984375 361.8125 217.839844 361.285156 216.652344 C 359.789062 213.273438 359.105469 209.609375 359.21875 205.917969 Z M 359.21875 205.917969 " fill-opacity="1" fill-rule="nonzero"/><path fill="#17ad34" d="M 312.167969 155.164062 C 311.261719 145.667969 311.296875 136.175781 309.253906 126.804688 C 307.425781 118.398438 303.882812 110.714844 299.03125 103.640625 C 295.636719 98.695312 290.316406 91.105469 283.453125 91.507812 C 278.726562 91.78125 276.4375 95.359375 275.117188 99.523438 C 268.703125 91.191406 259.339844 85.109375 250.085938 80.183594 C 244.292969 77.105469 238.105469 74.148438 231.710938 72.5625 C 226.234375 71.199219 217.070312 70.238281 214.496094 76.855469 C 213.527344 79.351562 213.863281 82.136719 214.558594 84.71875 C 213.425781 84.691406 212.285156 84.675781 211.15625 84.671875 C 200.058594 84.621094 188.507812 85.257812 177.945312 88.945312 C 173.042969 90.65625 167.914062 93.164062 165.058594 97.703125 C 161.710938 103.015625 162.113281 110.011719 163.605469 115.835938 C 165.265625 122.324219 168.351562 128.417969 171.402344 134.339844 C 172.996094 137.425781 174.550781 140.515625 176.203125 143.542969 C 173.503906 143.96875 170.867188 144.855469 169.0625 146.78125 C 164.785156 151.339844 168.523438 158.46875 171.527344 162.585938 C 176.640625 169.597656 184.070312 174.851562 191.753906 178.71875 C 196.054688 180.882812 200.652344 182.953125 205.351562 184.085938 C 209.773438 185.160156 214.332031 185.078125 218.835938 185.449219 C 218.15625 186.230469 217.480469 187.003906 216.949219 187.800781 C 215.234375 190.402344 214.53125 193.519531 215.847656 196.441406 C 218.921875 203.28125 227.871094 204.222656 234.390625 203.71875 C 251.507812 202.40625 268.074219 197.726562 283.917969 191.253906 C 288.527344 189.367188 293.363281 187.359375 297.765625 184.746094 C 298.175781 184.535156 298.578125 184.3125 298.980469 184.082031 C 300.453125 183.238281 301.886719 182.289062 303.238281 181.242188 C 307.6875 179.464844 311.34375 176.449219 312.332031 171.316406 C 312.441406 170.765625 312.523438 170.203125 312.589844 169.644531 C 313.398438 164.945312 312.609375 159.792969 312.167969 155.164062 Z M 312.167969 155.164062 " fill-opacity="1" fill-rule="nonzero"/><path fill="#008627" d="M 312.640625 169.558594 C 305.128906 166.144531 297 164.75 289.121094 162.4375 C 280.925781 160.03125 272.742188 157.578125 264.632812 154.902344 C 256.378906 152.179688 248.101562 149.40625 240.042969 146.136719 C 232.34375 143.007812 225.199219 138.710938 217.964844 134.65625 C 213.957031 132.40625 210.292969 130.09375 206.777344 127.109375 C 203.597656 124.410156 200.4375 121.757812 196.992188 119.394531 C 196.023438 118.730469 194.9375 120.199219 195.75 121 C 201.121094 126.289062 205.835938 132.210938 212.113281 136.511719 C 218.929688 141.183594 226.296875 145.464844 233.679688 149.160156 C 249.105469 156.886719 265.722656 162.125 282.171875 167.15625 C 286.609375 168.511719 291.039062 169.878906 295.539062 171.023438 C 300.179688 172.207031 304.941406 173.277344 309.359375 175.167969 C 310.984375 175.863281 312.824219 175.636719 313.804688 174 C 314.636719 172.613281 314.234375 170.28125 312.640625 169.558594 Z M 312.640625 169.558594 " fill-opacity="1" fill-rule="nonzero"/><path fill="#b924d0" d="M 363.941406 303.175781 C 362.972656 304.847656 362.429688 306.796875 361.546875 308.53125 C 360.613281 310.367188 359.5625 312.140625 358.433594 313.859375 C 355.832031 317.824219 352.78125 321.4375 349.472656 324.820312 C 343.417969 331.003906 336.070312 336.285156 328.027344 339.585938 C 326.746094 340.113281 326.789062 342.140625 328.375 342.148438 C 337.882812 342.199219 346.304688 335.507812 352.832031 329.25 C 356.503906 325.730469 359.792969 321.765625 362.671875 317.578125 C 365.039062 314.132812 368.316406 309.496094 368.90625 305.265625 C 369.300781 302.429688 365.617188 300.285156 363.941406 303.175781 Z M 363.941406 303.175781 " fill-opacity="1" fill-rule="nonzero"/><path fill="#b924d0" d="M 435.9375 358.316406 C 434.882812 355.933594 431.234375 356.78125 430.613281 359.007812 C 429.828125 361.835938 429.574219 364.828125 428.78125 367.6875 C 427.960938 370.667969 425.972656 373.695312 427.808594 376.671875 C 428.648438 378.035156 430.453125 378.914062 432.050781 378.398438 C 436.105469 377.078125 436.449219 372.582031 436.925781 368.914062 C 437.375 365.484375 437.351562 361.507812 435.9375 358.316406 Z M 435.9375 358.316406 " fill-opacity="1" fill-rule="nonzero"/><path fill="#b924d0" d="M 449 359.78125 C 448.769531 357.480469 445.472656 356.734375 444.773438 359.210938 C 443.675781 363.109375 442.535156 367.238281 441.972656 371.246094 C 441.746094 372.871094 442.101562 374.765625 443.742188 375.59375 C 444.386719 375.917969 444.953125 376.132812 445.6875 376.117188 C 447.339844 376.089844 449.003906 374.949219 449.402344 373.292969 C 450.46875 368.886719 449.4375 364.207031 449 359.785156 Z M 449 359.78125 " fill-opacity="1" fill-rule="nonzero"/><path fill="#ffffff" d="M 245.167969 485.539062 C 244.351562 483.078125 243.304688 480.429688 241.171875 478.8125 C 238.527344 476.808594 234.957031 477.121094 232.683594 479.558594 C 231.058594 481.308594 230.664062 483.605469 230.777344 485.894531 C 230.210938 489.859375 231.480469 494.613281 232.582031 497.714844 C 233.558594 500.453125 234.664062 503.761719 237.296875 505.351562 C 241.203125 507.703125 245.542969 504.957031 246.847656 500.992188 C 248.371094 496.367188 246.667969 490.085938 245.164062 485.539062 Z M 245.167969 485.539062 " fill-opacity="0.33" fill-rule="nonzero"/><path fill="#008627" d="M 350.125 66.261719 C 340.445312 60.011719 332.125 74.585938 328.328125 81.292969 C 322.273438 91.988281 317.011719 103.300781 313.964844 115.222656 C 310.78125 127.667969 309.128906 140.535156 309.183594 153.382812 C 309.207031 159.808594 309.664062 166.234375 310.609375 172.59375 C 310.804688 173.917969 311.070312 180.324219 312.457031 180.886719 C 316.429688 182.46875 317.988281 165.386719 318.730469 162.234375 C 321.195312 151.796875 323.84375 140.878906 327.753906 130.90625 C 329.496094 126.464844 331.582031 122.171875 333.625 117.863281 C 335.707031 113.472656 337.53125 108.96875 339.660156 104.605469 C 341.730469 100.351562 344.25 96.421875 346.9375 92.535156 C 348.113281 90.832031 349.308594 89.136719 350.707031 87.601562 C 351.9375 86.25 353.46875 85.113281 354.457031 83.554688 C 357.503906 78.738281 354.933594 69.367188 350.125 66.261719 Z M 350.125 66.261719 " fill-opacity="1" fill-rule="nonzero"/><path fill="#ffffff" d="M 224.75 479.300781 C 223.050781 478.355469 220.355469 479.117188 219.960938 481.25 C 219.78125 482.226562 219.5625 483.316406 219.929688 484.277344 C 220.171875 484.898438 220.554688 485.484375 221.050781 485.921875 C 221.304688 486.3125 221.625 486.683594 222.015625 487.019531 C 223.480469 488.273438 225.523438 488.09375 226.601562 486.429688 C 228.128906 484.070312 227.167969 480.644531 224.75 479.300781 Z M 224.75 479.300781 " fill-opacity="0.33" fill-rule="nonzero"/><path fill="#ffffff" d="M 285.363281 123.515625 C 284.65625 119.242188 283.050781 113.261719 278.992188 110.941406 C 277.519531 110.101562 275.5 110.308594 274.300781 111.546875 C 270.605469 115.371094 271.277344 121.121094 272.253906 125.914062 C 272.546875 127.351562 272.9375 129.066406 273.566406 130.664062 C 274.679688 134.367188 276.953125 137.851562 281.375 136.5 C 286.625 134.894531 286.054688 127.707031 285.363281 123.515625 Z M 285.363281 123.515625 " fill-opacity="0.33" fill-rule="nonzero"/><path fill="#ffffff" d="M 261.996094 107.65625 C 261.574219 107.136719 260.820312 106.851562 260.195312 106.945312 C 259.253906 107.085938 258.535156 107.859375 258.527344 108.835938 C 258.523438 109.128906 258.539062 109.417969 258.554688 109.707031 C 258.285156 110.382812 258.203125 111.136719 258.335938 111.851562 C 258.410156 112.253906 258.636719 112.644531 258.945312 112.984375 C 259.003906 113.238281 259.078125 113.488281 259.183594 113.726562 C 259.195312 113.75 259.210938 113.773438 259.222656 113.800781 C 259.261719 113.878906 259.292969 113.960938 259.339844 114.039062 C 259.339844 114.035156 259.34375 114.035156 259.34375 114.035156 C 260.160156 115.34375 262.269531 115.890625 263.355469 114.554688 C 264.003906 113.757812 264.25 113.035156 264.339844 112.019531 C 264.390625 111.488281 264.398438 110.957031 264.40625 110.425781 C 264.433594 108.890625 263.304688 107.863281 261.996094 107.65625 Z M 261.996094 107.65625 " fill-opacity="0.33" fill-rule="nonzero"/><path fill="#000000" d="M 294.714844 253.984375 C 292.566406 257.566406 288.484375 259.980469 284.273438 259.921875 C 280.054688 259.863281 276.011719 257.179688 273.855469 253.632812 C 272.34375 251.144531 268.921875 253.316406 270.039062 255.859375 C 272.496094 261.449219 278.210938 265 284.273438 265.171875 C 290.386719 265.34375 296.191406 261.871094 299.125 256.558594 C 300.714844 253.679688 296.40625 251.160156 294.714844 253.984375 Z M 294.714844 253.984375 " fill-opacity="1" fill-rule="nonzero"/><path fill="#000000" d="M 249.53125 242.636719 C 246.441406 241.125 243.308594 239.871094 239.84375 239.777344 C 237.222656 239.707031 236.136719 243.53125 238.488281 244.777344 C 240.464844 245.820312 242.535156 246.585938 244.523438 247.597656 C 244.890625 247.785156 247.632812 249.476562 248.738281 250.152344 C 247.792969 250.585938 246.871094 251.316406 245.9375 251.777344 C 243.96875 252.75 241.929688 253.503906 239.828125 254.132812 C 235.886719 255.308594 237.566406 261.484375 241.53125 260.300781 C 244.664062 259.367188 247.683594 258.101562 250.578125 256.578125 C 253.507812 255.042969 256.351562 252.699219 255.671875 249.007812 C 255.097656 245.90625 252.175781 243.933594 249.53125 242.636719 Z M 249.53125 242.636719 " fill-opacity="1" fill-rule="nonzero"/><path fill="#000000" d="M 330.839844 257.839844 C 329.140625 257.125 327.488281 256.28125 325.886719 255.375 C 325.167969 254.972656 324.460938 254.546875 323.761719 254.105469 C 323.804688 254.074219 323.847656 254.042969 323.890625 254.015625 C 324.75 253.429688 325.59375 252.820312 326.4375 252.210938 C 328.144531 250.992188 330.183594 249.871094 331.484375 248.21875 C 332.269531 247.222656 332.609375 245.980469 331.925781 244.8125 C 331.3125 243.765625 329.929688 243.152344 328.746094 243.519531 C 326.054688 244.359375 323.636719 246.367188 321.320312 247.941406 C 318.941406 249.558594 316.328125 251.320312 316.59375 254.554688 C 316.824219 257.378906 319.347656 258.878906 321.566406 260.148438 C 324.019531 261.550781 326.582031 262.71875 329.203125 263.761719 C 330.746094 264.375 332.578125 263.089844 332.984375 261.617188 C 333.472656 259.84375 332.375 258.484375 330.839844 257.839844 Z M 330.839844 257.839844 " fill-opacity="1" fill-rule="nonzero"/></svg>