<svg xmlns="http://www.w3.org/2000/svg" xmlns:xlink="http://www.w3.org/1999/xlink" width="800" zoomAndPan="magnify" viewBox="0 0 600 599.999999" height="800" preserveAspectRatio="xMidYMid meet" version="1.0"><path fill="#c0b0a4" d="M 167.792969 121.996094 C 149.910156 145.496094 155.308594 163.695312 151.988281 181.585938 L 126.964844 198.15625 C 126.964844 198.15625 90.773438 162.902344 120.195312 119.316406 C 149.613281 75.730469 184.40625 100.171875 167.792969 121.996094 Z M 175.308594 374.429688 C 269.457031 390.765625 296.046875 344.726562 307.09375 309.691406 C 284.621094 303.214844 278.910156 269.703125 298.714844 246.09375 C 282.71875 252.1875 256.4375 245.332031 257.960938 214.484375 C 233.964844 234.667969 205.019531 219.4375 199.6875 194.300781 C 177.59375 220.960938 152.648438 178.824219 144.078125 188.207031 C 60.664062 279.542969 83.136719 358.4375 175.308594 374.429688 Z M 412.058594 301.640625 C 408.75 306.523438 398.996094 316.792969 375.304688 317.453125 C 371.765625 317.550781 367.914062 317.433594 363.726562 317.054688 C 304.363281 311.65625 298.625 254.421875 298.578125 253.84375 C 298.507812 253.046875 299.097656 252.339844 299.898438 252.269531 C 299.898438 252.269531 299.902344 252.269531 299.902344 252.269531 L 299.855469 252.128906 C 325.753906 257.910156 330.097656 247.125 330.8125 243.890625 C 330.773438 243.59375 330.796875 243.289062 330.953125 243.007812 C 331.335938 242.304688 332.21875 242.042969 332.929688 242.429688 C 337.949219 245.175781 342.398438 248.445312 347.113281 251.90625 C 359.246094 260.808594 371.792969 270.019531 395.378906 270.820312 C 403.972656 271.109375 410.765625 274.945312 414.023438 281.339844 C 417.191406 287.558594 416.457031 295.148438 412.058594 301.640625 Z M 250.601562 426.390625 C 250.601562 426.390625 258.269531 472.183594 259.792969 483.84375 C 261.3125 495.5 259.792969 503.613281 259.792969 503.613281 C 259.792969 503.613281 251.769531 511.214844 257.300781 515.777344 C 262.835938 520.339844 295.28125 522.367188 297.3125 508.683594 C 299.113281 496.515625 303.316406 453.9375 304.585938 434.648438 Z M 401.703125 428.300781 C 401.703125 428.300781 409.371094 474.09375 410.894531 485.753906 C 412.414062 497.410156 410.894531 505.523438 410.894531 505.523438 C 410.894531 505.523438 402.871094 513.125 408.402344 517.6875 C 413.933594 522.25 446.382812 524.277344 448.410156 510.589844 C 450.214844 498.425781 454.417969 455.847656 455.6875 436.558594 Z M 401.703125 428.300781 " fill-opacity="1" fill-rule="nonzero"/><path fill="#897666" d="M 244.894531 430.828125 C 243.625 450.117188 239.421875 492.695312 237.621094 504.863281 C 235.59375 518.550781 203.144531 516.519531 197.609375 511.960938 C 192.078125 507.398438 200.101562 499.792969 200.101562 499.792969 C 200.101562 499.792969 201.621094 491.683594 200.101562 480.023438 C 198.582031 468.363281 190.910156 422.570312 190.910156 422.570312 Z M 339.761719 424.480469 C 339.761719 424.480469 347.429688 470.273438 348.953125 481.933594 C 350.472656 493.589844 348.953125 501.703125 348.953125 501.703125 C 348.953125 501.703125 340.929688 509.308594 346.460938 513.867188 C 351.996094 518.429688 384.441406 520.460938 386.472656 506.773438 C 388.273438 494.605469 392.476562 452.027344 393.746094 432.738281 Z M 188.429688 314.8125 C 193.675781 312.121094 195.84375 305.644531 195.933594 305.367188 C 196.152344 304.691406 195.792969 303.96875 195.125 303.757812 C 194.449219 303.542969 193.738281 303.921875 193.511719 304.597656 C 193.496094 304.65625 191.582031 310.332031 187.296875 312.527344 C 185.28125 313.554688 183.007812 313.65625 180.535156 312.816406 C 171.898438 309.886719 175.261719 297.992188 175.40625 297.488281 C 175.609375 296.804688 175.222656 296.09375 174.550781 295.902344 C 173.859375 295.710938 173.167969 296.113281 172.964844 296.796875 C 171.46875 301.886719 170.945312 312.296875 179.683594 315.261719 C 180.464844 315.527344 181.230469 315.71875 181.984375 315.832031 C 184.273438 316.179688 186.429688 315.839844 188.429688 314.8125 Z M 188.429688 314.8125 " fill-opacity="1" fill-rule="nonzero"/><path fill="#f9f1e9" d="M 508.628906 290.386719 C 524.175781 269.773438 489.933594 238.953125 470.769531 250.847656 C 477.871094 230.570312 432.574219 213.335938 421.621094 234.304688 C 422.730469 218 377.25 210.515625 365.488281 231.484375 C 369.507812 219.011719 356.539062 186.550781 329.820312 194.410156 C 345.371094 180.554688 307.511719 139.152344 288.921875 161.964844 C 298.050781 146.082031 255.882812 118.199219 234.503906 141.6875 C 236.109375 128.339844 183.800781 114.058594 172.394531 148.785156 C 157.523438 135.605469 112.566406 164.246094 124.3125 182.242188 C 98.371094 173.625 67.695312 222.289062 89.496094 239.019531 C 67.867188 246.453125 60.988281 303.230469 84.707031 315.398438 C 70.570312 332.292969 73.949219 373.953125 109.101562 378.132812 C 96.597656 401.914062 124.652344 429.289062 148.3125 420.164062 C 145.269531 443.144531 188.195312 453.28125 200.363281 440.441406 C 200.027344 466.125 255.121094 464.773438 257.488281 444.496094 C 260.191406 467.476562 317.316406 465.785156 316.976562 446.523438 C 323.0625 470.519531 378.832031 464.433594 376.804688 445.171875 C 387.28125 469.84375 439.675781 457 435.957031 440.441406 C 452.855469 459.027344 500.855469 434.355469 486.65625 410.699219 C 509.640625 417.796875 539.386719 368.457031 510.316406 350.882812 C 539.386719 347.839844 535.667969 294.105469 508.628906 290.386719 Z M 178.054688 364.0625 C 96.257812 349.867188 76.316406 279.855469 150.339844 198.800781 C 150.898438 207.480469 182.335938 226.492188 199.6875 204.210938 C 204.421875 226.515625 230.109375 240.03125 251.402344 222.121094 C 250.050781 249.496094 273.375 255.578125 287.570312 250.171875 C 269.996094 271.125 275.0625 300.863281 295.007812 306.609375 C 285.203125 337.703125 261.605469 378.558594 178.054688 364.0625 Z M 406.0625 299.238281 C 403.121094 303.582031 394.4375 312.722656 373.347656 313.308594 C 370.195312 313.398438 366.769531 313.292969 363.042969 312.957031 C 310.203125 308.152344 305.097656 257.207031 305.050781 256.691406 C 304.988281 255.980469 305.515625 255.351562 306.226562 255.289062 C 306.230469 255.289062 306.230469 255.289062 306.234375 255.289062 L 306.191406 255.164062 C 329.242188 260.308594 333.105469 250.707031 333.742188 247.832031 C 333.710938 247.566406 333.730469 247.296875 333.867188 247.042969 C 334.210938 246.417969 335 246.1875 335.628906 246.53125 C 340.097656 248.976562 344.058594 251.886719 348.253906 254.964844 C 359.054688 262.890625 370.222656 271.089844 391.21875 271.800781 C 398.867188 272.058594 404.914062 275.472656 407.8125 281.164062 C 410.632812 286.699219 409.976562 293.457031 406.0625 299.238281 Z M 406.0625 299.238281 " fill-opacity="1" fill-rule="nonzero"/><path fill="#f1f1f2" d="M 230.144531 305.722656 C 241.265625 307 254.535156 302.054688 255.902344 279.964844 C 257.226562 258.609375 242.316406 254.464844 233.460938 253.847656 C 224.605469 253.230469 209.558594 258.472656 208.917969 279.003906 C 208.28125 299.53125 220.597656 304.625 230.144531 305.722656 Z M 174.414062 266.484375 C 181.417969 247.34375 169.5 236.949219 161.113281 234.242188 C 152.730469 231.539062 137.464844 229.839844 130.785156 250 C 123.871094 270.847656 134.261719 280.3125 144.980469 283.246094 C 154.179688 285.765625 167.40625 285.628906 174.414062 266.484375 Z M 174.414062 266.484375 " fill-opacity="1" fill-rule="nonzero"/><path fill="#231f20" d="M 238.082031 501.492188 C 205.761719 508.191406 200.25 498.847656 200.25 498.847656 C 200.25 498.847656 192.078125 507.398438 197.609375 511.960938 C 203.144531 516.523438 235.59375 518.550781 237.621094 504.863281 C 237.761719 503.917969 237.914062 502.777344 238.082031 501.492188 Z M 297.773438 505.3125 C 265.453125 512.011719 259.9375 502.667969 259.9375 502.667969 C 259.9375 502.667969 251.769531 511.214844 257.300781 515.777344 C 262.835938 520.339844 295.28125 522.367188 297.3125 508.683594 C 297.449219 507.738281 297.605469 506.59375 297.773438 505.3125 Z M 386.933594 503.402344 C 354.613281 510.101562 349.097656 500.757812 349.097656 500.757812 C 349.097656 500.757812 340.929688 509.304688 346.460938 513.867188 C 351.996094 518.429688 384.441406 520.460938 386.472656 506.773438 C 386.609375 505.828125 386.765625 504.683594 386.933594 503.402344 Z M 448.871094 507.222656 C 416.554688 513.921875 411.039062 504.578125 411.039062 504.578125 C 411.039062 504.578125 402.871094 513.125 408.402344 517.6875 C 413.933594 522.25 446.382812 524.277344 448.410156 510.589844 C 448.550781 509.648438 448.707031 508.503906 448.871094 507.222656 Z M 223.089844 299.726562 C 219.523438 299.328125 215.46875 298.183594 212.277344 295.273438 C 210.003906 291.921875 208.210938 286.199219 208.433594 279.074219 C 208.722656 269.746094 212.566406 263.082031 216.789062 259.609375 C 219.976562 257.929688 223.347656 257.375 226.003906 257.546875 C 232.914062 257.992188 244.53125 261.265625 243.363281 278.632812 C 242.15625 296.59375 231.765625 300.695312 223.089844 299.726562 Z M 142.828125 253.40625 C 148.175781 236.980469 160.085938 238.261719 166.617188 240.40625 C 169.125 241.230469 172.027344 242.992188 174.339844 245.714844 C 176.945312 250.472656 178.019531 258.03125 174.832031 266.734375 C 172.402344 273.375 168.632812 277.984375 165.300781 280.230469 C 161.285156 281.730469 157.125 281.285156 153.695312 280.332031 C 145.34375 278.015625 137.292969 270.394531 142.828125 253.40625 Z M 142.828125 253.40625 " fill-opacity="1" fill-rule="nonzero"/><path fill="#897666" d="M 209.402344 368.5625 C 201.597656 368.5625 193.09375 367.863281 183.832031 366.292969 C 183.125 366.171875 182.652344 365.503906 182.769531 364.800781 C 182.890625 364.09375 183.554688 363.617188 184.265625 363.738281 C 222.664062 370.246094 253.769531 362.371094 274.21875 340.957031 C 289.648438 324.792969 293.699219 306.519531 293.738281 306.339844 C 293.890625 305.640625 294.578125 305.191406 295.277344 305.34375 C 295.976562 305.492188 296.421875 306.179688 296.273438 306.882812 C 296.105469 307.65625 292.023438 326.058594 276.089844 342.746094 C 264.140625 355.261719 243.429688 368.5625 209.402344 368.5625 Z M 209.402344 368.5625 C 201.597656 368.5625 193.09375 367.863281 183.832031 366.292969 C 183.125 366.171875 182.652344 365.503906 182.769531 364.800781 C 182.890625 364.09375 183.554688 363.617188 184.265625 363.738281 C 222.664062 370.246094 253.769531 362.371094 274.21875 340.957031 C 289.648438 324.792969 293.699219 306.519531 293.738281 306.339844 C 293.890625 305.640625 294.578125 305.191406 295.277344 305.34375 C 295.976562 305.492188 296.421875 306.179688 296.273438 306.882812 C 296.105469 307.65625 292.023438 326.058594 276.089844 342.746094 C 264.140625 355.261719 243.429688 368.5625 209.402344 368.5625 Z M 209.402344 368.5625 " fill-opacity="1" fill-rule="nonzero"/><path fill="#c0b0a4" d="M 469.105469 267.542969 C 465.839844 272.277344 465.351562 278.640625 474.148438 284.90625 C 482.640625 290.960938 489.398438 285.476562 492.023438 281.75 C 495.046875 277.457031 494.707031 270.402344 485.78125 264.554688 C 476.789062 258.660156 471.914062 263.476562 469.105469 267.542969 Z M 431.449219 266.101562 C 430.203125 269.949219 431.230469 274.363281 438.652344 276.929688 C 445.820312 279.40625 449.316406 274.378906 450.335938 271.34375 C 451.503906 267.84375 449.761719 263.113281 442.339844 260.859375 C 434.859375 258.585938 432.519531 262.796875 431.449219 266.101562 Z M 448.722656 295.964844 C 447.480469 298.773438 448.003906 302.246094 453.722656 304.96875 C 459.25 307.59375 462.355469 304.117188 463.363281 301.902344 C 464.523438 299.355469 463.449219 295.566406 457.707031 293.082031 C 451.921875 290.578125 449.789062 293.550781 448.722656 295.964844 Z M 448.722656 295.964844 " fill-opacity="0.2" fill-rule="nonzero"/></svg>