<svg xmlns="http://www.w3.org/2000/svg" xmlns:xlink="http://www.w3.org/1999/xlink" width="800" zoomAndPan="magnify" viewBox="0 0 600 599.999999" height="800" preserveAspectRatio="xMidYMid meet" version="1.0"><path fill="#c58149" d="M 404.867188 369.917969 C 404.867188 369.917969 437.15625 412.8125 438.984375 421.4375 C 440.816406 430.0625 425.652344 472.667969 423.039062 486.78125 C 420.425781 500.113281 393.238281 479.984375 393.238281 477.894531 C 393.238281 475.804688 401.605469 431.109375 401.867188 428.234375 C 402.128906 425.359375 377.6875 405.363281 377.6875 405.363281 Z M 236.980469 392.035156 C 236.980469 392.035156 241.628906 421.960938 248.566406 454.632812 C 237.0625 466.65625 240.199219 488.582031 254.316406 532.246094 C 258.496094 535.660156 286.824219 539.839844 285.683594 532.246094 C 285.25 529.371094 276.273438 467.300781 277.320312 461.953125 C 278.363281 456.601562 290.773438 430.457031 285.542969 410.070312 C 280.316406 389.683594 247.519531 380.925781 247.519531 380.925781 Z M 374.597656 82.433594 C 357.570312 60.238281 336.027344 101.839844 355.40625 126.171875 L 385.097656 121.117188 C 386.519531 115.949219 388.777344 100.914062 374.597656 82.433594 Z M 374.597656 82.433594 " fill-opacity="1" fill-rule="nonzero"/><path fill="#e9a65e" d="M 427.875 198.75 C 417.679688 204.238281 411.800781 207.769531 412.191406 242.269531 C 412.582031 276.769531 429.445312 382.234375 368.277344 415.949219 C 367.863281 416.179688 367.441406 416.394531 367.023438 416.621094 C 366.496094 429.976562 365.925781 447.808594 365.925781 462.214844 C 365.925781 488.871094 372.972656 526.757812 372.199219 530.039062 C 370.5 537.226562 344.359375 533.175781 342.007812 530.039062 C 339.652344 526.902344 331.417969 483.777344 335.035156 466.917969 C 331.609375 453.660156 327.03125 438.816406 324.769531 431.65625 C 295.109375 438.140625 262.984375 438.371094 236.972656 434.269531 C 236.859375 450.382812 225.796875 462.757812 224.910156 467.300781 C 223.863281 472.652344 234.320312 529.339844 234.320312 532.246094 C 234.308594 539.839844 207.132812 535.660156 202.949219 532.246094 C 188.835938 488.582031 185.699219 466.65625 197.199219 454.632812 C 184.238281 428.355469 178.910156 402.105469 176.847656 388.292969 C 157.433594 410.527344 158.566406 417.496094 160.074219 446.140625 C 161.640625 475.933594 153.800781 483.382812 153.800781 483.382812 C 153.800781 483.382812 150.664062 486.914062 147.917969 483.382812 C 154.191406 474.757812 154.585938 457.898438 151.839844 441.824219 C 149.09375 425.75 151.449219 406.148438 161.640625 392.820312 C 171.835938 379.488281 176.371094 360.359375 176.371094 360.359375 C 179.214844 343.417969 188.398438 327.078125 205.949219 315.191406 C 242.414062 290.492188 303.1875 295.589844 315.34375 296.765625 C 327.5 297.941406 335.25 271.730469 334.464844 230.957031 C 333.804688 196.773438 316.128906 202.277344 314.953125 165.425781 C 314.6875 157.117188 315.90625 149.890625 318.15625 143.585938 C 287.316406 139.511719 273.957031 94.609375 301.621094 98.777344 C 324.65625 102.246094 333.464844 114.640625 336.027344 119.347656 C 341.476562 115.097656 347.402344 111.898438 353.074219 109.527344 L 347.980469 90.253906 C 347.644531 88.09375 348.722656 85.738281 348.722656 85.738281 C 349.453125 83.214844 352.515625 82.242188 354.566406 83.882812 C 354.566406 83.882812 356.382812 85.121094 357.480469 86.65625 L 365.527344 105.300781 C 366.871094 104.746094 371.371094 103.117188 379.710938 102.082031 C 379.710938 102.042969 379.703125 102.007812 379.703125 101.96875 L 380.699219 81.253906 C 381.027344 79.089844 382.765625 77.167969 382.765625 77.167969 C 384.226562 74.980469 387.4375 74.980469 388.902344 77.164062 C 388.902344 77.164062 390.257812 78.890625 390.839844 80.683594 L 392.921875 101.210938 C 397.1875 101.144531 401.980469 101.246094 407.355469 101.605469 C 425.671875 102.828125 421.667969 109.613281 411.664062 114.015625 C 418.808594 119.429688 424.539062 127.085938 427.089844 137.378906 C 433.757812 139.550781 469.992188 140.375 471.398438 162.679688 C 473.226562 191.695312 438.070312 193.261719 427.875 198.75 Z M 427.875 198.75 C 417.679688 204.238281 411.800781 207.769531 412.191406 242.269531 C 412.582031 276.769531 429.445312 382.234375 368.277344 415.949219 C 367.863281 416.179688 367.441406 416.394531 367.023438 416.621094 C 366.496094 429.976562 365.925781 447.808594 365.925781 462.214844 C 365.925781 488.871094 372.972656 526.757812 372.199219 530.039062 C 370.5 537.226562 344.359375 533.175781 342.007812 530.039062 C 339.652344 526.902344 331.417969 483.777344 335.035156 466.917969 C 331.609375 453.660156 327.03125 438.816406 324.769531 431.65625 C 295.109375 438.140625 262.984375 438.371094 236.972656 434.269531 C 236.859375 450.382812 225.796875 462.757812 224.910156 467.300781 C 223.863281 472.652344 234.320312 529.339844 234.320312 532.246094 C 234.308594 539.839844 207.132812 535.660156 202.949219 532.246094 C 188.835938 488.582031 185.699219 466.65625 197.199219 454.632812 C 184.238281 428.355469 178.910156 402.105469 176.847656 388.292969 C 157.433594 410.527344 158.566406 417.496094 160.074219 446.140625 C 161.640625 475.933594 153.800781 483.382812 153.800781 483.382812 C 153.800781 483.382812 150.664062 486.914062 147.917969 483.382812 C 154.191406 474.757812 154.585938 457.898438 151.839844 441.824219 C 149.09375 425.75 151.449219 406.148438 161.640625 392.820312 C 171.835938 379.488281 176.371094 360.359375 176.371094 360.359375 C 179.214844 343.417969 188.398438 327.078125 205.949219 315.191406 C 242.414062 290.492188 303.1875 295.589844 315.34375 296.765625 C 327.5 297.941406 335.25 271.730469 334.464844 230.957031 C 333.804688 196.773438 316.128906 202.277344 314.953125 165.425781 C 314.6875 157.117188 315.90625 149.890625 318.15625 143.585938 C 287.316406 139.511719 273.957031 94.609375 301.621094 98.777344 C 324.65625 102.246094 333.464844 114.640625 336.027344 119.347656 C 341.476562 115.097656 347.402344 111.898438 353.074219 109.527344 L 347.980469 90.253906 C 347.644531 88.09375 348.722656 85.738281 348.722656 85.738281 C 349.453125 83.214844 352.515625 82.242188 354.566406 83.882812 C 354.566406 83.882812 356.382812 85.121094 357.480469 86.65625 L 365.527344 105.300781 C 366.871094 104.746094 371.371094 103.117188 379.710938 102.082031 C 379.710938 102.042969 379.703125 102.007812 379.703125 101.96875 L 380.699219 81.253906 C 381.027344 79.089844 382.765625 77.167969 382.765625 77.167969 C 384.226562 74.980469 387.4375 74.980469 388.902344 77.164062 C 388.902344 77.164062 390.257812 78.890625 390.839844 80.683594 L 392.921875 101.210938 C 397.1875 101.144531 401.980469 101.246094 407.355469 101.605469 C 425.671875 102.828125 421.667969 109.613281 411.664062 114.015625 C 418.808594 119.429688 424.539062 127.085938 427.089844 137.378906 C 433.757812 139.550781 469.992188 140.375 471.398438 162.679688 C 473.226562 191.695312 438.070312 193.261719 427.875 198.75 Z M 427.875 198.75 " fill-opacity="1" fill-rule="nonzero"/><path fill="#c58149" d="M 322.164062 135.914062 C 302.503906 134.453125 288.246094 105.875 305.542969 108.480469 C 322.839844 111.085938 330.949219 123.597656 330.949219 123.597656 C 330.949219 123.597656 326.324219 126.21875 322.164062 135.914062 Z M 435.097656 196.089844 C 449.140625 191.898438 472.910156 186.671875 471.398438 162.679688 C 470.371094 146.398438 450.792969 141.566406 437.699219 139.296875 C 437.699219 139.296875 422.808594 140.976562 419.902344 162.980469 C 417.015625 184.828125 428.726562 193.429688 435.097656 196.089844 Z M 435.097656 196.089844 " fill-opacity="1" fill-rule="nonzero"/><path fill="#f1f1f2" d="M 373.617188 144.507812 C 364.636719 145.082031 354.890625 150.304688 357.097656 165.980469 C 359.230469 181.140625 371.632812 182.078125 378.71875 181.339844 C 385.808594 180.601562 396.917969 174.9375 394.367188 160.449219 C 391.8125 145.960938 381.324219 144.015625 373.617188 144.507812 Z M 373.617188 144.507812 C 364.636719 145.082031 354.890625 150.304688 357.097656 165.980469 C 359.230469 181.140625 371.632812 182.078125 378.71875 181.339844 C 385.808594 180.601562 396.917969 174.9375 394.367188 160.449219 C 391.8125 145.960938 381.324219 144.015625 373.617188 144.507812 Z M 373.617188 144.507812 " fill-opacity="1" fill-rule="nonzero"/><path fill="#231f20" d="M 380.082031 147.78125 C 382.960938 147.589844 386.332031 147.855469 389.289062 149.476562 C 391.585938 151.527344 393.851562 155.304688 394.738281 160.332031 C 395.898438 166.917969 393.855469 172.101562 391.035156 175.097656 C 388.769531 176.691406 386.1875 177.53125 384.0625 177.761719 C 378.535156 178.359375 368.867188 177.597656 367.203125 165.261719 C 365.484375 152.5 373.082031 148.25 380.082031 147.78125 Z M 380.082031 147.78125 C 382.960938 147.589844 386.332031 147.855469 389.289062 149.476562 C 391.585938 151.527344 393.851562 155.304688 394.738281 160.332031 C 395.898438 166.917969 393.855469 172.101562 391.035156 175.097656 C 388.769531 176.691406 386.1875 177.53125 384.0625 177.761719 C 378.535156 178.359375 368.867188 177.597656 367.203125 165.261719 C 365.484375 152.5 373.082031 148.25 380.082031 147.78125 Z M 380.082031 147.78125 " fill-opacity="1" fill-rule="nonzero"/><path fill="#a85636" d="M 360.71875 226.3125 L 369.589844 235.316406 C 370.664062 236.40625 370.542969 238.191406 369.328125 239.128906 L 359.796875 246.480469 C 358.722656 247.308594 357.195312 247.15625 356.308594 246.132812 L 349.210938 237.941406 C 348.347656 236.949219 348.382812 235.464844 349.289062 234.511719 L 357.050781 226.34375 C 358.042969 225.296875 359.707031 225.28125 360.71875 226.3125 Z M 385.21875 253.671875 L 373.359375 264.078125 C 372.476562 264.855469 372.304688 266.167969 372.960938 267.144531 L 380.800781 278.84375 C 381.398438 279.738281 382.527344 280.109375 383.539062 279.746094 L 395.917969 275.300781 C 396.945312 274.929688 397.582031 273.902344 397.449219 272.816406 L 396.226562 262.527344 C 396.164062 262.015625 395.9375 261.542969 395.582031 261.175781 L 388.449219 253.804688 C 387.582031 252.90625 386.160156 252.847656 385.21875 253.671875 Z M 329.164062 281.511719 L 339.625 289.230469 C 341.230469 290.414062 343.457031 290.285156 344.914062 288.917969 L 355.871094 278.644531 C 357.1875 277.410156 357.554688 275.46875 356.777344 273.839844 L 349.28125 258.140625 C 348.375 256.246094 346.191406 255.328125 344.203125 256.007812 L 333.402344 259.699219 C 331.792969 271.898438 329.164062 281.511719 329.164062 281.511719 Z M 370.523438 294.464844 L 359.515625 304.632812 C 358.261719 305.789062 358.113281 307.71875 359.179688 309.050781 L 369.601562 322.105469 C 370.574219 323.320312 372.269531 323.679688 373.648438 322.960938 L 382.324219 318.441406 C 383.113281 318.027344 383.699219 317.308594 383.945312 316.453125 L 386.53125 307.453125 C 386.871094 306.265625 386.507812 304.984375 385.59375 304.148438 L 374.917969 294.445312 C 373.671875 293.3125 371.761719 293.320312 370.523438 294.464844 Z M 414.496094 309.527344 L 408.84375 304.234375 C 407.472656 302.949219 405.296875 303.09375 404.105469 304.542969 L 398.207031 311.714844 C 397.28125 312.84375 397.21875 314.453125 398.054688 315.648438 L 406.050781 327.070312 C 406.957031 328.363281 408.660156 328.820312 410.09375 328.15625 L 413.578125 326.535156 C 413.578125 326.535156 414.390625 316.460938 414.496094 309.527344 Z M 332.101562 304.976562 L 317.863281 308.019531 C 316.089844 308.398438 314.765625 309.886719 314.601562 311.695312 L 313.53125 323.28125 C 313.371094 324.984375 314.277344 326.609375 315.808594 327.375 L 329.234375 334.070312 C 330.75 334.824219 332.570312 334.582031 333.835938 333.460938 L 341.015625 327.109375 C 342.28125 325.988281 342.742188 324.210938 342.179688 322.617188 L 336.878906 307.648438 C 336.183594 305.683594 334.136719 304.539062 332.101562 304.976562 Z M 362.929688 341.5625 L 354.71875 344.351562 C 353.15625 344.878906 352.152344 346.394531 352.265625 348.039062 L 352.707031 354.269531 C 352.796875 355.5625 353.570312 356.707031 354.738281 357.273438 L 360.320312 359.992188 C 361.78125 360.703125 363.535156 360.355469 364.613281 359.144531 L 369.777344 353.359375 C 370.765625 352.25 370.976562 350.652344 370.3125 349.320312 L 367.339844 343.375 C 366.527344 341.753906 364.644531 340.980469 362.929688 341.5625 Z M 306.167969 346.773438 L 300.035156 346.773438 C 298.667969 346.773438 297.484375 347.71875 297.179688 349.050781 L 296.40625 352.46875 C 296.039062 354.074219 297.070312 355.664062 298.6875 355.988281 L 305.042969 357.257812 C 306.71875 357.59375 308.328125 356.429688 308.527344 354.730469 L 309.078125 350.042969 C 309.28125 348.300781 307.921875 346.773438 306.167969 346.773438 Z M 272.785156 305.328125 L 263.59375 315.617188 C 262.65625 316.664062 262.734375 318.273438 263.769531 319.222656 L 273.015625 327.71875 C 273.726562 328.371094 274.742188 328.574219 275.648438 328.238281 L 290.398438 322.785156 C 291.410156 322.410156 292.078125 321.449219 292.078125 320.371094 L 292.078125 310.214844 C 292.078125 309 291.230469 307.953125 290.046875 307.699219 L 275.242188 304.527344 C 274.339844 304.332031 273.402344 304.640625 272.785156 305.328125 Z M 220.53125 307.300781 L 228.835938 318.066406 C 230.695312 320.480469 233.902344 321.410156 236.761719 320.363281 L 248.390625 316.121094 C 250.242188 315.445312 251.726562 314.019531 252.46875 312.191406 L 258.460938 297.457031 C 234.121094 299.980469 220.53125 307.300781 220.53125 307.300781 Z M 245.613281 337.996094 L 247.878906 342.894531 C 248.191406 343.574219 248.871094 344.007812 249.621094 344.007812 L 254.0625 344.007812 C 254.742188 344.007812 255.367188 343.648438 255.714844 343.066406 L 257.710938 339.6875 C 258.152344 338.941406 258.039062 337.988281 257.433594 337.367188 L 253.898438 333.753906 C 253.355469 333.199219 252.527344 333.023438 251.808594 333.316406 L 246.632812 335.410156 C 245.617188 335.820312 245.152344 337 245.613281 337.996094 Z M 236.972656 434.269531 C 236.980469 434.121094 237.796875 419.613281 235.8125 403.625 C 235.746094 403.078125 236.136719 402.574219 236.683594 402.507812 C 237.234375 402.429688 237.734375 402.832031 237.804688 403.378906 C 239.808594 419.554688 238.964844 434.425781 238.957031 434.570312 C 238.433594 434.515625 237.761719 434.40625 236.972656 434.269531 Z M 385.316406 130.804688 C 384.722656 130.804688 384.121094 130.785156 383.507812 130.75 C 371.925781 130.0625 365.617188 117.875 365.058594 113.136719 C 364.996094 112.589844 365.386719 112.089844 365.9375 112.027344 C 366.492188 111.953125 366.984375 112.355469 367.050781 112.902344 C 367.535156 117.027344 373.367188 128.140625 383.628906 128.75 C 390.902344 129.175781 396.273438 126.769531 396.738281 124.246094 C 396.917969 123.28125 396.605469 119.84375 385.097656 116.199219 C 384.59375 116.039062 384.300781 115.519531 384.425781 115.007812 C 384.546875 114.496094 385.046875 114.167969 385.566406 114.253906 C 402.113281 117.054688 411.566406 114.050781 411.664062 114.019531 C 412.214844 114.386719 413.136719 115.109375 413.507812 115.492188 C 413.152344 115.613281 405.289062 118.125 392.902344 117.179688 C 398.152344 119.941406 399.078125 122.628906 398.710938 124.613281 C 398.03125 128.273438 392.414062 130.804688 385.316406 130.804688 Z M 447.46875 181.582031 C 446.890625 181.746094 446.277344 181.859375 445.628906 181.929688 C 438.378906 182.679688 435.28125 175.199219 434.65625 171.140625 C 434.570312 170.59375 434.933594 170.089844 435.492188 169.996094 C 436.039062 169.914062 436.550781 170.289062 436.636719 170.835938 C 436.699219 171.238281 438.257812 180.679688 445.421875 179.933594 C 447.476562 179.722656 449.074219 178.914062 450.171875 177.539062 C 452.511719 174.609375 451.988281 170.003906 451.984375 169.957031 C 451.917969 169.40625 452.300781 168.910156 452.855469 168.839844 C 453.40625 168.773438 453.90625 169.164062 453.972656 169.710938 C 454 169.933594 454.609375 175.183594 451.746094 178.777344 C 450.65625 180.144531 449.222656 181.085938 447.46875 181.582031 Z M 456.953125 152.523438 C 452.996094 150.730469 445.390625 152.9375 453.507812 156.824219 C 461.628906 160.710938 463.804688 155.628906 456.953125 152.523438 Z M 392.925781 101.25 C 392.925781 101.25 384.59375 101.273438 379.703125 101.96875 C 379.703125 101.203125 379.777344 100.199219 379.777344 100.199219 C 379.777344 100.199219 387.691406 99.238281 392.777344 99.707031 C 392.886719 100.449219 392.925781 101.25 392.925781 101.25 Z M 359.222656 90.253906 C 359.628906 89.558594 361.203125 86.890625 360.53125 83.074219 C 359.75 78.609375 353.917969 74.519531 347.914062 76.820312 C 343.066406 78.683594 339.75 83.074219 341.089844 88.191406 C 342.648438 94.136719 348.738281 93.914062 348.738281 93.914062 L 350.039062 98.046875 C 350.039062 98.046875 354.289062 95.136719 360.726562 94.179688 C 360.3125 93.21875 359.6875 91.535156 359.222656 90.253906 Z M 391.417969 84.640625 C 392.011719 84.101562 394.320312 82.035156 394.832031 78.191406 C 395.433594 73.699219 391.105469 68.039062 384.6875 68.425781 C 379.503906 68.734375 375.019531 71.921875 374.753906 77.207031 C 374.441406 83.347656 380.316406 84.972656 380.316406 84.972656 L 380.3125 89.300781 C 380.3125 89.300781 385.238281 87.808594 391.667969 88.839844 C 391.5625 87.796875 391.476562 86.003906 391.417969 84.640625 Z M 202.949219 532.246094 C 201.78125 528.632812 200.699219 525.183594 199.683594 521.859375 C 199.757812 521.878906 228.058594 528.042969 232.441406 520.054688 C 233.546875 526.683594 234.320312 531.457031 234.320312 532.246094 C 234.308594 539.839844 207.132812 535.660156 202.949219 532.246094 Z M 285.683594 532.246094 C 285.570312 531.5 284.882812 526.757812 283.941406 520.054688 C 281.753906 531.621094 251.332031 522.550781 251.25 522.527344 C 252.207031 525.644531 253.226562 528.875 254.316406 532.246094 C 258.496094 535.660156 286.824219 539.839844 285.683594 532.246094 Z M 372.199219 530.039062 C 372.441406 529.015625 371.921875 524.628906 371.09375 518.269531 C 367.4375 526.097656 339.167969 520.058594 339.164062 520.054688 C 340.308594 525.425781 341.371094 529.191406 342.007812 530.039062 C 344.359375 533.175781 370.5 537.226562 372.199219 530.039062 Z M 395.035156 466.898438 C 393.984375 472.859375 393.238281 477.273438 393.238281 477.894531 C 393.238281 479.984375 420.425781 500.113281 423.039062 486.78125 C 423.476562 484.410156 424.277344 481.226562 425.285156 477.542969 C 425.28125 477.542969 425.28125 477.542969 425.28125 477.542969 C 417.589844 483.074219 395.035156 466.898438 395.035156 466.898438 Z M 151.710938 474.972656 C 151.710938 474.972656 146.871094 482.207031 136.808594 484.039062 C 126.746094 485.867188 139.03125 487.957031 144.78125 484.953125 C 138.507812 489.265625 135.503906 491.878906 136.417969 493.445312 C 137.332031 495.015625 145.828125 490.441406 147.917969 486.390625 C 144.390625 493.183594 144.914062 494.621094 146.089844 495.277344 C 147.265625 495.929688 154.023438 487.425781 157.503906 475.996094 C 152.230469 479.59375 151.710938 474.972656 151.710938 474.972656 Z M 151.710938 474.972656 " fill-opacity="1" fill-rule="nonzero"/></svg>