<svg xmlns="http://www.w3.org/2000/svg" xmlns:xlink="http://www.w3.org/1999/xlink" width="800" zoomAndPan="magnify" viewBox="0 0 600 599.999999" height="800" preserveAspectRatio="xMidYMid meet" version="1.0"><defs><clipPath id="70a20a9a3f"><path d="M 77 59.097656 L 248 59.097656 L 248 230 L 77 230 Z M 77 59.097656 " clip-rule="nonzero"/></clipPath><clipPath id="a73570f8c2"><path d="M 100 99 L 534 99 L 534 539.847656 L 100 539.847656 Z M 100 99 " clip-rule="nonzero"/></clipPath><clipPath id="50b0bf5906"><path d="M 60 135 L 517 135 L 517 415 L 60 415 Z M 60 135 " clip-rule="nonzero"/></clipPath></defs><g clip-path="url(#70a20a9a3f)"><path fill="#ea2e46" d="M 245.914062 89.421875 C 237.082031 71.003906 216.058594 86.777344 216.058594 86.777344 C 219.71875 67.726562 209.03125 64.308594 209.03125 64.308594 C 191.570312 59.703125 181.375 80.886719 181.375 80.886719 C 180.820312 61.300781 161.90625 59.71875 161.90625 59.71875 C 145.988281 59.179688 142.683594 83.214844 142.683594 83.214844 C 130.070312 64.484375 117.359375 73.738281 117.359375 73.738281 C 86.019531 97.257812 130.785156 133.335938 130.785156 133.335938 L 221.269531 124.824219 C 255.988281 107.746094 245.914062 89.421875 245.914062 89.421875 Z M 109.355469 178.699219 C 129.195312 202.132812 125.941406 227.828125 112.925781 228.972656 C 100.4375 230.070312 97.160156 222.636719 97.804688 213.167969 C 88.496094 227.683594 79.289062 220.082031 79.289062 220.082031 C 67.03125 200.492188 109.355469 178.699219 109.355469 178.699219 " fill-opacity="1" fill-rule="nonzero"/></g><path fill="#f5dc7c" d="M 466.328125 395.648438 C 455.847656 415.601562 443.5 431.839844 425.1875 444.683594 C 426.984375 457.191406 427.179688 489.976562 373.636719 467.617188 L 373.644531 467.613281 C 371.90625 468.089844 370.136719 468.558594 368.332031 469.015625 C 350.039062 473.636719 325.496094 475.570312 299.191406 473.515625 C 251.503906 507.660156 245.859375 469.167969 245.304688 463.625 C 210.484375 453.191406 177.765625 434.460938 157.144531 404.519531 C 134.535156 371.703125 129.253906 340.804688 131.722656 317.734375 C 135.148438 285.761719 144.992188 227.726562 217.21875 221.605469 C 289.445312 215.488281 327.84375 229.570312 364.570312 233.730469 C 385.46875 236.097656 414.40625 232.835938 429.722656 228.878906 C 432.132812 228.25 434.460938 228.167969 436.699219 228.542969 C 444.421875 229.839844 466.636719 229.777344 472.199219 238.800781 C 478.488281 249 467.800781 268.910156 471.042969 280.285156 C 473.910156 290.363281 475.519531 299.09375 475.757812 303.25 C 476.578125 317.46875 485.113281 359.871094 466.328125 395.648438 " fill-opacity="1" fill-rule="nonzero"/><g clip-path="url(#a73570f8c2)"><path fill="#da7747" d="M 522.015625 219.074219 C 512.917969 216.125 491.714844 227.355469 491.714844 227.355469 C 491.714844 227.355469 524.53125 206.839844 528.503906 197.253906 C 532.480469 187.667969 521.746094 179.550781 511.070312 178.195312 C 500.394531 176.835938 483.097656 195.402344 483.097656 195.402344 C 483.097656 195.402344 500.636719 174.28125 501.511719 162.800781 C 502.390625 151.320312 491.867188 146.148438 480.558594 153.714844 C 469.246094 161.285156 436.742188 227.871094 436.742188 227.871094 C 436.722656 228.105469 436.714844 228.324219 436.699219 228.554688 C 453.144531 231.316406 464.941406 258.851562 471.042969 280.285156 C 489.300781 275.96875 518.9375 268.40625 521.835938 264.160156 C 526.050781 257.980469 527.722656 256.027344 520.542969 251.949219 C 515.089844 248.851562 495.941406 251.15625 495.941406 251.15625 C 495.941406 251.15625 518.441406 246.175781 528.820312 237.40625 C 539.199219 228.632812 531.109375 222.019531 522.015625 219.074219 Z M 363.835938 292.246094 C 364.363281 293.261719 365.402344 293.898438 366.550781 293.898438 C 367.035156 293.898438 367.515625 293.777344 367.945312 293.554688 C 369.546875 292.730469 370.765625 291.6875 371.660156 290.855469 C 372.660156 289.910156 373.597656 288.851562 374.445312 287.71875 C 375.289062 286.59375 376.042969 285.394531 376.675781 284.128906 C 377.203125 283.054688 377.855469 281.589844 378.164062 279.8125 C 378.292969 279.101562 378.171875 278.359375 377.835938 277.71875 C 377.269531 276.660156 376.167969 276 374.964844 276 C 374.433594 276 373.90625 276.128906 373.4375 276.382812 C 371.835938 277.234375 370.648438 278.300781 369.777344 279.148438 C 368.785156 280.136719 367.875 281.21875 367.070312 282.367188 C 366.253906 283.53125 365.539062 284.75 364.941406 286.011719 C 364.441406 287.105469 363.824219 288.585938 363.535156 290.359375 C 363.429688 291.007812 363.535156 291.65625 363.835938 292.246094 Z M 374.039062 386.316406 C 373.875 386.316406 373.707031 386.332031 373.496094 386.363281 C 373.269531 386.398438 373.054688 386.449219 372.832031 386.488281 C 375.765625 371.148438 370.960938 354.578125 367.414062 347.214844 C 365.296875 342.8125 362.375 336.304688 358.492188 329.953125 C 358.320312 329.367188 357.992188 328.855469 357.550781 328.453125 C 355.03125 324.515625 352.128906 320.710938 348.808594 317.589844 C 350.089844 317.351562 351.167969 316.945312 352.007812 316.582031 C 353.132812 316.078125 354.230469 315.449219 355.269531 314.722656 C 356.296875 313.996094 357.253906 313.164062 358.125 312.238281 C 358.859375 311.441406 359.789062 310.332031 360.488281 308.804688 C 360.738281 308.246094 360.832031 307.636719 360.757812 307.035156 C 360.554688 305.394531 359.152344 304.152344 357.496094 304.152344 C 357.363281 304.152344 357.226562 304.160156 357.089844 304.179688 C 355.421875 304.378906 354.085938 304.9375 353.089844 305.40625 C 351.957031 305.945312 350.875 306.609375 349.882812 307.371094 C 348.871094 308.136719 347.941406 308.992188 347.101562 309.9375 C 346.390625 310.757812 345.488281 311.894531 344.816406 313.421875 C 344.707031 313.667969 344.632812 313.925781 344.59375 314.1875 C 338.714844 310.207031 331.714844 308.523438 323.417969 311.417969 C 314.882812 315.292969 305.1875 318.328125 294.320312 319.839844 C 278.824219 322 267.363281 327.003906 259.199219 332.207031 C 247.289062 339.800781 239.648438 354.066406 240.542969 366.921875 C 240.953125 372.890625 242.222656 380.085938 245.101562 388.21875 C 253.675781 412.445312 294.871094 429.421875 344.195312 416.09375 C 345.667969 415.695312 347.105469 415.285156 348.515625 414.855469 C 359.046875 410.980469 365.535156 404.5625 369.289062 397.117188 C 370.71875 396.574219 372.0625 395.855469 373.296875 394.957031 C 374.84375 393.8125 375.996094 392.582031 376.816406 391.195312 C 377.203125 390.550781 377.351562 389.785156 377.234375 389.042969 C 376.984375 387.464844 375.640625 386.316406 374.039062 386.316406 Z M 389.34375 363.984375 C 388.675781 363.84375 388.011719 363.777344 387.3125 363.777344 C 386.738281 363.777344 386.160156 363.820312 385.46875 363.917969 C 384.335938 364.089844 383.226562 364.394531 382.171875 364.816406 C 381.101562 365.242188 380.082031 365.777344 379.125 366.425781 C 378.316406 366.996094 377.265625 367.808594 376.332031 369.085938 C 376.078125 369.429688 375.898438 369.828125 375.808594 370.238281 C 375.625 371.050781 375.769531 371.890625 376.21875 372.597656 C 376.664062 373.296875 377.359375 373.789062 378.171875 373.96875 C 378.921875 374.136719 379.675781 374.21875 380.476562 374.21875 C 380.953125 374.21875 381.460938 374.191406 382.046875 374.125 C 383.167969 373.992188 384.285156 373.730469 385.363281 373.347656 C 386.441406 372.972656 387.480469 372.46875 388.464844 371.839844 C 389.292969 371.296875 390.367188 370.519531 391.328125 369.25 C 391.621094 368.859375 391.828125 368.398438 391.925781 367.925781 C 392.300781 366.125 391.140625 364.359375 389.34375 363.984375 Z M 374.335938 334.433594 C 373.273438 335.292969 372.316406 336.089844 371.28125 337.183594 C 370.839844 337.65625 370.5625 338.25 370.484375 338.890625 C 370.382812 339.695312 370.597656 340.492188 371.097656 341.132812 C 371.597656 341.777344 372.316406 342.183594 373.121094 342.285156 C 373.554688 342.339844 373.992188 342.363281 374.429688 342.363281 C 375.601562 342.363281 376.808594 342.179688 378.132812 341.789062 C 379.636719 341.335938 381.074219 340.652344 382.410156 339.765625 C 383.742188 338.882812 384.929688 337.816406 385.941406 336.574219 C 387.117188 335.113281 387.886719 333.664062 388.292969 332.132812 C 388.472656 331.445312 388.421875 330.707031 388.144531 330.050781 C 387.640625 328.839844 386.46875 328.058594 385.15625 328.058594 C 384.726562 328.058594 384.304688 328.144531 383.863281 328.328125 C 382.480469 328.90625 381.378906 329.5625 380.261719 330.246094 C 379.210938 330.902344 378.226562 331.558594 377.253906 332.257812 C 376.230469 332.980469 375.28125 333.6875 374.335938 334.433594 Z M 375.929688 295.800781 C 375.070312 295.800781 374.230469 296.15625 373.613281 296.796875 C 372.46875 297.972656 371.519531 299.140625 370.597656 300.265625 L 370.3125 300.617188 L 367.414062 304.230469 L 364.476562 307.863281 L 364.082031 308.359375 C 363.210938 309.457031 362.308594 310.585938 361.398438 311.914062 C 360.933594 312.605469 360.773438 313.464844 360.964844 314.269531 C 361.285156 315.636719 362.480469 316.589844 363.882812 316.589844 C 364.113281 316.589844 364.34375 316.5625 364.5625 316.511719 C 366.410156 316.078125 368.21875 315.253906 370.109375 313.980469 C 371.707031 312.875 373.167969 311.542969 374.445312 310.027344 C 375.726562 308.515625 376.785156 306.839844 377.601562 305.042969 C 378.53125 302.972656 379.023438 301.046875 379.117188 299.140625 C 379.15625 298.226562 378.808594 297.335938 378.152344 296.703125 C 377.550781 296.121094 376.761719 295.800781 375.929688 295.800781 Z M 248.785156 300.707031 C 268.316406 296.847656 266.132812 266.175781 266.132812 266.175781 C 277.238281 283.085938 299.089844 287.8125 313.628906 280.695312 C 328.167969 273.570312 318.824219 249.304688 318.824219 249.304688 C 318.824219 249.304688 350.890625 259.679688 364.570312 233.730469 C 364.570312 233.730469 313.40625 225.945312 258.503906 165.921875 C 227.761719 132.308594 205.921875 83.382812 140.628906 104.253906 C 75.339844 125.128906 106.710938 192.429688 121.976562 217.792969 C 141.417969 250.097656 131.933594 317.730469 131.933594 317.730469 C 160.792969 316.605469 163.570312 291.34375 163.570312 291.34375 C 163.570312 291.34375 172.640625 317.148438 188.757812 313.53125 C 204.878906 309.914062 208.183594 281.324219 208.183594 281.324219 C 208.183594 281.324219 229.253906 304.566406 248.785156 300.707031 Z M 238.605469 505.976562 C 232.3125 503.367188 215.746094 497.300781 208.757812 502.441406 C 201.441406 507.820312 197.5625 513.800781 197.402344 514.054688 C 196.617188 515.277344 196.976562 516.90625 198.199219 517.691406 C 198.640625 517.976562 199.132812 518.109375 199.621094 518.109375 C 200.488281 518.109375 201.339844 517.683594 201.84375 516.902344 C 201.878906 516.847656 205.398438 511.460938 211.882812 506.6875 C 213.65625 505.382812 217.394531 505.464844 221.753906 506.285156 C 221.640625 506.3125 221.53125 506.335938 221.429688 506.367188 C 217.457031 507.523438 209.019531 515.925781 206.53125 518.472656 C 205.511719 519.515625 205.53125 521.1875 206.574219 522.203125 C 207.085938 522.707031 207.75 522.953125 208.417969 522.953125 C 209.101562 522.953125 209.789062 522.6875 210.300781 522.160156 C 214.945312 517.414062 221.082031 511.960938 222.90625 511.429688 C 224.171875 511.058594 227.664062 511.066406 231.425781 511.242188 C 228.175781 513.511719 224.730469 516.140625 223.453125 517.886719 C 221.015625 521.230469 219.476562 533.035156 219.0625 536.570312 C 218.894531 538.019531 219.929688 539.328125 221.378906 539.492188 C 221.484375 539.507812 221.585938 539.511719 221.6875 539.511719 C 223.007812 539.511719 224.148438 538.527344 224.304688 537.183594 C 225.074219 530.59375 226.597656 522.527344 227.71875 520.996094 C 229.042969 519.179688 236.132812 514.289062 240.742188 511.394531 C 240.769531 511.378906 240.792969 511.355469 240.816406 511.335938 C 240.863281 511.308594 240.910156 511.273438 240.957031 511.238281 C 240.980469 511.21875 241.003906 511.210938 241.027344 511.191406 C 241.054688 511.164062 241.082031 511.136719 241.109375 511.113281 C 241.152344 511.070312 241.195312 511.023438 241.238281 510.984375 C 241.273438 510.945312 241.3125 510.917969 241.34375 510.878906 L 261.894531 486.988281 C 259.941406 486.550781 258.222656 485.839844 256.703125 484.933594 Z M 486.109375 514.5625 C 486.414062 515.984375 485.507812 517.378906 484.085938 517.6875 C 483.84375 517.738281 462.230469 522.128906 448.929688 507.261719 C 449.140625 509.933594 449.855469 513.058594 451.6875 516.023438 C 454.953125 521.324219 460.988281 524.902344 469.605469 526.664062 C 471.03125 526.953125 471.949219 528.347656 471.65625 529.773438 C 471.40625 531.019531 470.304688 531.882812 469.078125 531.882812 C 468.902344 531.882812 468.726562 531.863281 468.546875 531.828125 C 458.410156 529.761719 451.214844 525.351562 447.152344 518.726562 C 445.472656 515.984375 444.527344 513.171875 444.039062 510.554688 C 442.257812 516.847656 442.558594 525.785156 451.90625 535.328125 C 452.929688 536.371094 452.910156 538.039062 451.871094 539.058594 C 451.355469 539.558594 450.6875 539.808594 450.023438 539.808594 C 449.339844 539.808594 448.652344 539.546875 448.136719 539.015625 C 431.089844 521.609375 439.699219 505.285156 443.449219 499.867188 L 418.230469 471.007812 C 419.675781 469.867188 420.859375 468.546875 421.820312 467.105469 L 448.828125 498.015625 C 448.882812 498.070312 448.917969 498.140625 448.960938 498.203125 C 449.027344 498.296875 449.105469 498.382812 449.160156 498.484375 C 459.425781 517.25 482.027344 512.726562 482.984375 512.53125 C 484.410156 512.230469 485.808594 513.136719 486.109375 514.5625 " fill-opacity="1" fill-rule="nonzero"/></g><g clip-path="url(#50b0bf5906)"><path fill="#f7ae3b" d="M 388.949219 365.863281 C 387.800781 365.625 386.765625 365.675781 385.757812 365.816406 C 384.757812 365.96875 383.800781 366.230469 382.878906 366.597656 C 381.957031 366.964844 381.074219 367.425781 380.230469 368 C 379.394531 368.585938 378.585938 369.257812 377.886719 370.210938 C 377.792969 370.339844 377.71875 370.496094 377.679688 370.660156 C 377.535156 371.304688 377.945312 371.949219 378.59375 372.097656 C 379.75 372.355469 380.796875 372.328125 381.8125 372.222656 C 382.828125 372.097656 383.796875 371.863281 384.730469 371.535156 C 385.664062 371.207031 386.5625 370.777344 387.414062 370.234375 C 388.265625 369.675781 389.082031 369.03125 389.789062 368.097656 C 389.910156 367.9375 390.003906 367.746094 390.042969 367.535156 C 390.207031 366.769531 389.714844 366.019531 388.949219 365.863281 Z M 377.578125 339.953125 C 378.917969 339.546875 380.1875 338.941406 381.347656 338.164062 C 382.511719 337.394531 383.558594 336.453125 384.445312 335.375 C 385.320312 334.28125 386.054688 333.0625 386.433594 331.636719 C 386.503906 331.367188 386.488281 331.070312 386.375 330.789062 C 386.09375 330.117188 385.320312 329.804688 384.648438 330.085938 L 384.601562 330.101562 C 383.335938 330.632812 382.292969 331.25 381.277344 331.875 C 380.269531 332.503906 379.308594 333.144531 378.363281 333.820312 C 377.417969 334.492188 376.488281 335.1875 375.546875 335.929688 C 374.613281 336.6875 373.65625 337.460938 372.707031 338.476562 L 372.6875 338.5 C 372.527344 338.667969 372.417969 338.882812 372.390625 339.128906 C 372.3125 339.742188 372.75 340.300781 373.363281 340.378906 C 374.824219 340.5625 376.234375 340.347656 377.578125 339.953125 Z M 375.335938 389.34375 C 375.222656 388.628906 374.550781 388.144531 373.835938 388.253906 L 373.796875 388.261719 C 372.382812 388.484375 371.160156 388.855469 369.957031 389.242188 C 368.761719 389.632812 367.609375 390.050781 366.46875 390.503906 C 365.324219 390.957031 364.183594 391.4375 363.03125 391.960938 C 361.878906 392.496094 360.714844 393.054688 359.496094 393.84375 L 359.472656 393.859375 C 359.273438 393.988281 359.109375 394.1875 359.023438 394.433594 C 358.828125 395.015625 359.140625 395.648438 359.71875 395.84375 C 361.167969 396.335938 362.640625 396.429688 364.089844 396.34375 C 365.539062 396.242188 366.964844 395.929688 368.324219 395.4375 C 369.6875 394.945312 370.980469 394.269531 372.15625 393.414062 C 373.320312 392.550781 374.386719 391.53125 375.167969 390.21875 C 375.316406 389.964844 375.382812 389.65625 375.335938 389.34375 Z M 358.226562 363.167969 C 359.289062 362.890625 360.296875 362.507812 361.257812 362.03125 C 362.21875 361.558594 363.128906 360.988281 363.984375 360.3125 C 364.835938 359.621094 365.640625 358.847656 366.304688 357.804688 C 366.429688 357.609375 366.507812 357.378906 366.519531 357.136719 C 366.5625 356.375 365.976562 355.722656 365.210938 355.679688 C 363.972656 355.617188 362.875 355.824219 361.820312 356.117188 C 360.773438 356.425781 359.777344 356.835938 358.835938 357.347656 C 357.894531 357.855469 356.996094 358.457031 356.15625 359.160156 C 355.320312 359.878906 354.523438 360.675781 353.871094 361.742188 C 353.777344 361.898438 353.714844 362.082031 353.703125 362.277344 C 353.65625 362.925781 354.144531 363.488281 354.792969 363.53125 C 356.042969 363.617188 357.15625 363.433594 358.226562 363.167969 Z M 354.28125 334.234375 C 355.117188 333.484375 355.902344 332.648438 356.53125 331.550781 C 356.648438 331.34375 356.714844 331.101562 356.710938 330.847656 C 356.703125 330.089844 356.078125 329.480469 355.316406 329.496094 C 354.050781 329.515625 352.941406 329.804688 351.882812 330.171875 C 350.828125 330.550781 349.832031 331.035156 348.894531 331.609375 C 347.957031 332.1875 347.070312 332.851562 346.246094 333.617188 C 345.425781 334.398438 344.652344 335.253906 344.035156 336.371094 C 343.945312 336.539062 343.886719 336.734375 343.886719 336.9375 C 343.890625 337.582031 344.414062 338.109375 345.058594 338.105469 C 346.339844 338.105469 347.460938 337.839844 348.539062 337.5 C 349.609375 337.148438 350.617188 336.695312 351.578125 336.148438 C 352.535156 335.609375 353.441406 334.972656 354.28125 334.234375 Z M 346.484375 314.785156 C 346.554688 315.421875 347.128906 315.882812 347.765625 315.816406 C 349.054688 315.675781 350.164062 315.292969 351.21875 314.832031 C 352.265625 314.363281 353.246094 313.796875 354.160156 313.148438 C 355.078125 312.503906 355.933594 311.769531 356.710938 310.9375 C 357.484375 310.097656 358.203125 309.179688 358.738281 308.007812 C 358.835938 307.785156 358.882812 307.53125 358.851562 307.273438 C 358.757812 306.523438 358.074219 305.988281 357.324219 306.082031 C 356.046875 306.242188 354.957031 306.648438 353.921875 307.132812 C 352.890625 307.628906 351.933594 308.21875 351.042969 308.898438 C 350.148438 309.578125 349.316406 310.339844 348.554688 311.195312 C 347.800781 312.066406 347.097656 313.007812 346.574219 314.191406 C 346.496094 314.371094 346.460938 314.578125 346.484375 314.785156 Z M 362.835938 313.835938 C 362.96875 314.417969 363.550781 314.777344 364.128906 314.640625 C 365.917969 314.222656 367.53125 313.398438 369.015625 312.394531 C 370.496094 311.378906 371.828125 310.15625 372.980469 308.789062 C 374.132812 307.417969 375.105469 305.890625 375.851562 304.261719 C 376.582031 302.625 377.109375 300.886719 377.199219 299.054688 C 377.210938 298.707031 377.085938 298.34375 376.816406 298.082031 C 376.308594 297.589844 375.503906 297.605469 375.015625 298.109375 L 374.996094 298.132812 C 373.796875 299.371094 372.804688 300.605469 371.8125 301.820312 L 368.90625 305.4375 L 365.984375 309.0625 C 365 310.296875 363.984375 311.535156 363.007812 312.964844 L 362.992188 312.988281 C 362.832031 313.230469 362.761719 313.53125 362.835938 313.835938 Z M 365.542969 291.367188 C 365.828125 291.921875 366.511719 292.136719 367.0625 291.847656 C 368.34375 291.1875 369.378906 290.351562 370.339844 289.460938 C 371.289062 288.5625 372.140625 287.59375 372.910156 286.566406 C 373.683594 285.535156 374.367188 284.445312 374.953125 283.28125 C 375.527344 282.113281 376.027344 280.886719 376.273438 279.480469 C 376.324219 279.199219 376.28125 278.894531 376.140625 278.625 C 375.792969 277.976562 374.988281 277.730469 374.339844 278.078125 C 373.078125 278.746094 372.066406 279.601562 371.132812 280.515625 C 370.207031 281.429688 369.378906 282.417969 368.644531 283.46875 C 367.90625 284.523438 367.246094 285.632812 366.6875 286.816406 C 366.140625 288.003906 365.664062 289.246094 365.433594 290.667969 C 365.398438 290.898438 365.429688 291.140625 365.542969 291.367188 Z M 411.398438 361.367188 C 410.910156 373.574219 394.535156 401.054688 348.515625 414.855469 C 351.347656 409.027344 353.875 401.683594 353.6875 394.238281 C 353.273438 377.699219 335.347656 382.652344 335.347656 382.652344 C 335.347656 382.652344 354.410156 372.269531 348.15625 359.277344 C 341.902344 346.28125 323.929688 355.773438 323.929688 355.773438 C 323.929688 355.773438 336.773438 343.765625 336.621094 325.585938 C 336.554688 317.394531 330.285156 313.371094 323.417969 311.417969 C 345.101562 301.570312 359.3125 286.292969 366.28125 276.683594 C 375.992188 263.289062 393.035156 245.839844 397.308594 273.859375 C 401.585938 301.878906 376.472656 323.628906 376.472656 323.628906 C 376.472656 323.628906 403.714844 305.035156 408.324219 321.691406 C 412.9375 338.347656 382.480469 359.980469 382.480469 359.980469 C 382.480469 359.980469 411.90625 348.78125 411.398438 361.367188 Z M 513.355469 257.929688 C 512.253906 257.542969 511.222656 257.453125 510.210938 257.460938 C 509.207031 257.480469 508.226562 257.613281 507.269531 257.855469 C 506.316406 258.097656 505.382812 258.4375 504.476562 258.894531 C 503.578125 259.363281 502.695312 259.921875 501.878906 260.773438 C 501.773438 260.886719 501.679688 261.027344 501.621094 261.1875 C 501.390625 261.808594 501.707031 262.503906 502.335938 262.734375 C 503.4375 263.144531 504.476562 263.257812 505.496094 263.285156 C 506.507812 263.296875 507.496094 263.195312 508.460938 262.992188 C 509.425781 262.792969 510.363281 262.480469 511.273438 262.058594 C 512.1875 261.617188 513.074219 261.089844 513.890625 260.257812 C 514.03125 260.113281 514.144531 259.9375 514.21875 259.734375 C 514.480469 259 514.089844 258.191406 513.355469 257.929688 Z M 477.042969 183.359375 C 478.292969 182.785156 479.292969 182.003906 480.21875 181.160156 C 481.125 180.308594 481.929688 179.371094 482.632812 178.367188 C 483.339844 177.363281 483.945312 176.292969 484.429688 175.148438 C 484.902344 173.996094 485.28125 172.792969 485.371094 171.425781 C 485.390625 171.160156 485.328125 170.886719 485.179688 170.644531 C 484.796875 170.007812 483.96875 169.804688 483.332031 170.1875 L 483.324219 170.191406 C 482.171875 170.890625 481.28125 171.726562 480.453125 172.605469 C 479.640625 173.488281 478.914062 174.421875 478.273438 175.410156 C 477.625 176.398438 477.050781 177.433594 476.554688 178.53125 C 476.070312 179.640625 475.640625 180.796875 475.4375 182.140625 L 475.4375 182.148438 C 475.402344 182.359375 475.429688 182.585938 475.527344 182.796875 C 475.789062 183.371094 476.46875 183.621094 477.042969 183.359375 Z M 501.859375 197.695312 C 501.742188 196.960938 501.054688 196.464844 500.324219 196.578125 C 498.953125 196.796875 497.765625 197.261719 496.632812 197.808594 C 495.511719 198.363281 494.457031 199.015625 493.464844 199.761719 C 492.476562 200.5 491.542969 201.320312 490.683594 202.238281 C 489.828125 203.171875 489.03125 204.175781 488.40625 205.425781 C 488.308594 205.625 488.265625 205.855469 488.300781 206.089844 C 488.390625 206.714844 488.964844 207.144531 489.589844 207.054688 C 490.96875 206.855469 492.175781 206.410156 493.328125 205.894531 C 494.46875 205.363281 495.542969 204.738281 496.554688 204.027344 C 497.570312 203.320312 498.523438 202.523438 499.398438 201.632812 C 500.273438 200.726562 501.089844 199.746094 501.722656 198.515625 C 501.851562 198.269531 501.902344 197.988281 501.859375 197.695312 Z M 515.183594 228 L 515.15625 227.992188 C 514.019531 227.796875 513.019531 227.851562 512.050781 227.964844 C 511.085938 228.097656 510.167969 228.308594 509.269531 228.605469 C 508.375 228.898438 507.5 229.269531 506.632812 229.730469 C 505.769531 230.207031 504.914062 230.746094 504.082031 231.566406 L 504.066406 231.585938 C 503.953125 231.695312 503.859375 231.832031 503.796875 231.988281 C 503.550781 232.601562 503.847656 233.296875 504.460938 233.542969 C 505.578125 233.988281 506.660156 234.101562 507.71875 234.101562 C 508.773438 234.085938 509.8125 233.929688 510.808594 233.644531 C 511.808594 233.363281 512.769531 232.949219 513.664062 232.398438 C 514.558594 231.835938 515.402344 231.164062 516.089844 230.191406 C 516.207031 230.027344 516.289062 229.835938 516.328125 229.625 C 516.457031 228.859375 515.949219 228.132812 515.183594 228 Z M 491.09375 262.609375 C 489.460938 262.386719 487.910156 262.46875 486.382812 262.640625 C 484.859375 262.824219 483.367188 263.125 481.898438 263.535156 C 480.433594 263.941406 478.992188 264.441406 477.582031 265.0625 C 476.175781 265.695312 474.792969 266.410156 473.488281 267.425781 C 473.273438 267.59375 473.117188 267.839844 473.074219 268.132812 C 472.988281 268.730469 473.402344 269.285156 474 269.375 C 475.636719 269.613281 477.195312 269.5625 478.730469 269.417969 C 480.261719 269.265625 481.765625 268.996094 483.242188 268.628906 C 484.71875 268.265625 486.167969 267.792969 487.585938 267.203125 C 489 266.601562 490.386719 265.910156 491.703125 264.917969 C 491.964844 264.714844 492.152344 264.414062 492.203125 264.058594 C 492.300781 263.355469 491.800781 262.703125 491.09375 262.609375 Z M 484.148438 242.746094 C 486.433594 241.613281 488.6875 240.398438 490.828125 238.890625 C 491.1875 238.636719 491.398438 238.195312 491.339844 237.730469 C 491.25 237.054688 490.636719 236.578125 489.960938 236.664062 C 487.363281 237 484.882812 237.640625 482.433594 238.351562 C 479.988281 239.078125 477.585938 239.917969 475.226562 240.863281 C 472.863281 241.804688 470.542969 242.839844 468.261719 243.984375 C 465.984375 245.152344 463.738281 246.386719 461.605469 247.917969 C 461.308594 248.128906 461.136719 248.496094 461.179688 248.882812 C 461.25 249.453125 461.769531 249.859375 462.339844 249.792969 C 464.945312 249.476562 467.433594 248.863281 469.894531 248.183594 C 472.355469 247.484375 474.769531 246.675781 477.140625 245.769531 C 479.519531 244.867188 481.855469 243.863281 484.148438 242.746094 Z M 471.101562 224.996094 C 472.957031 223.566406 474.753906 222.046875 476.464844 220.414062 C 478.160156 218.761719 479.8125 217.027344 481.191406 214.992188 C 481.425781 214.640625 481.480469 214.175781 481.28125 213.765625 C 480.984375 213.152344 480.242188 212.890625 479.632812 213.1875 L 479.617188 213.195312 C 477.460938 214.234375 475.472656 215.453125 473.519531 216.730469 C 471.570312 218.019531 469.675781 219.386719 467.847656 220.847656 C 466.015625 222.308594 464.242188 223.851562 462.546875 225.511719 C 460.875 227.191406 459.242188 228.941406 457.878906 230.992188 C 457.683594 231.285156 457.640625 231.671875 457.804688 232.011719 C 458.050781 232.535156 458.675781 232.757812 459.195312 232.511719 L 459.203125 232.507812 C 461.378906 231.480469 463.382812 230.285156 465.363281 229.03125 C 467.332031 227.765625 469.242188 226.425781 471.101562 224.996094 Z M 465.007812 204.480469 C 466.402344 201.855469 467.726562 199.195312 468.777344 196.355469 C 468.9375 195.914062 468.839844 195.402344 468.488281 195.058594 C 468.003906 194.585938 467.230469 194.59375 466.757812 195.074219 C 464.640625 197.238281 462.800781 199.578125 461.023438 201.957031 C 459.261719 204.347656 457.601562 206.800781 456.035156 209.3125 C 454.472656 211.828125 452.988281 214.390625 451.605469 217.023438 C 450.246094 219.660156 448.941406 222.34375 447.90625 225.195312 C 447.773438 225.558594 447.859375 225.984375 448.152344 226.273438 C 448.554688 226.675781 449.210938 226.675781 449.609375 226.269531 C 451.746094 224.117188 453.613281 221.792969 455.417969 219.433594 C 457.207031 217.058594 458.890625 214.625 460.492188 212.128906 C 462.09375 209.644531 463.601562 207.09375 465.007812 204.480469 Z M 275.390625 401.054688 C 274.570312 400.40625 273.695312 399.863281 272.773438 399.421875 C 271.851562 398.976562 270.878906 398.617188 269.855469 398.367188 C 268.824219 398.132812 267.753906 397.976562 266.546875 398.089844 C 266.378906 398.105469 266.207031 398.160156 266.046875 398.25 C 265.484375 398.589844 265.300781 399.320312 265.636719 399.886719 C 266.257812 400.925781 267.015625 401.699219 267.816406 402.386719 C 268.621094 403.066406 269.480469 403.636719 270.386719 404.121094 C 271.289062 404.601562 272.246094 404.988281 273.253906 405.265625 C 274.269531 405.53125 275.324219 405.710938 276.527344 405.617188 C 276.738281 405.597656 276.953125 405.53125 277.148438 405.414062 C 277.804688 405.007812 278.011719 404.148438 277.609375 403.488281 C 276.976562 402.464844 276.203125 401.71875 275.390625 401.054688 Z M 332.734375 405.417969 L 332.71875 405.417969 C 330.640625 405.417969 328.679688 405.613281 326.730469 405.808594 C 324.785156 406.015625 322.863281 406.246094 320.941406 406.5 C 319.019531 406.746094 317.097656 407.007812 315.152344 407.296875 C 313.210938 407.601562 311.253906 407.90625 309.226562 408.410156 L 309.210938 408.414062 C 308.894531 408.5 308.621094 408.722656 308.492188 409.050781 C 308.277344 409.59375 308.542969 410.203125 309.085938 410.417969 C 311.089844 411.210938 313.171875 411.605469 315.269531 411.800781 C 317.363281 411.992188 319.476562 411.960938 321.5625 411.730469 C 323.65625 411.503906 325.722656 411.066406 327.726562 410.417969 C 329.722656 409.761719 331.671875 408.914062 333.441406 407.695312 C 333.765625 407.46875 333.984375 407.085938 333.984375 406.664062 C 333.980469 405.976562 333.421875 405.417969 332.734375 405.417969 Z M 309.003906 395.851562 C 309.082031 395.152344 308.574219 394.519531 307.871094 394.445312 L 307.84375 394.441406 C 306.183594 394.257812 304.644531 394.265625 303.125 394.273438 C 301.609375 394.285156 300.117188 394.328125 298.628906 394.386719 C 297.140625 394.445312 295.644531 394.511719 294.121094 394.601562 C 292.59375 394.707031 291.046875 394.808594 289.386719 395.09375 L 289.363281 395.097656 C 289.085938 395.144531 288.824219 395.304688 288.652344 395.550781 C 288.320312 396.046875 288.441406 396.71875 288.9375 397.054688 C 290.398438 398.054688 292.015625 398.667969 293.679688 399.085938 C 295.339844 399.492188 297.050781 399.679688 298.765625 399.652344 C 300.472656 399.636719 302.179688 399.390625 303.828125 398.933594 C 305.476562 398.460938 307.074219 397.792969 308.496094 396.738281 C 308.765625 396.535156 308.960938 396.21875 309.003906 395.851562 Z M 282.59375 378.03125 C 281.234375 377.71875 279.945312 377.707031 278.679688 377.789062 C 277.417969 377.882812 276.179688 378.097656 274.972656 378.417969 C 273.765625 378.730469 272.582031 379.148438 271.425781 379.675781 C 270.273438 380.222656 269.144531 380.855469 268.085938 381.78125 C 267.914062 381.929688 267.785156 382.128906 267.730469 382.367188 C 267.582031 382.972656 267.953125 383.589844 268.566406 383.734375 C 269.933594 384.070312 271.226562 384.105469 272.503906 384.054688 C 273.773438 383.992188 275.015625 383.8125 276.230469 383.53125 C 277.449219 383.253906 278.644531 382.871094 279.804688 382.371094 C 280.964844 381.859375 282.105469 381.257812 283.164062 380.347656 C 283.375 380.167969 283.535156 379.921875 283.601562 379.628906 C 283.765625 378.910156 283.316406 378.195312 282.59375 378.03125 Z M 308.050781 372.355469 C 306.824219 372.964844 305.601562 373.625 304.410156 374.550781 L 304.398438 374.558594 C 304.203125 374.710938 304.054688 374.929688 303.996094 375.195312 C 303.863281 375.792969 304.242188 376.382812 304.839844 376.515625 C 306.351562 376.84375 307.820312 376.835938 309.265625 376.699219 C 310.703125 376.546875 312.109375 376.238281 313.476562 375.792969 C 314.839844 375.351562 316.15625 374.765625 317.402344 374.035156 C 318.644531 373.296875 319.832031 372.433594 320.835938 371.269531 C 321.035156 371.035156 321.15625 370.730469 321.152344 370.40625 C 321.148438 369.679688 320.554688 369.105469 319.835938 369.109375 L 319.816406 369.109375 C 318.316406 369.117188 316.964844 369.367188 315.632812 369.667969 C 314.3125 369.972656 313.035156 370.351562 311.777344 370.808594 C 310.519531 371.253906 309.28125 371.761719 308.050781 372.355469 Z M 293.347656 358.574219 C 294.660156 358.234375 295.984375 357.839844 297.335938 357.179688 L 297.34375 357.175781 C 297.570312 357.0625 297.757812 356.878906 297.871094 356.636719 C 298.121094 356.078125 297.875 355.421875 297.320312 355.164062 C 295.914062 354.527344 294.484375 354.234375 293.050781 354.074219 C 291.621094 353.929688 290.183594 353.941406 288.769531 354.097656 C 287.347656 354.246094 285.945312 354.550781 284.585938 355.007812 C 283.226562 355.480469 281.902344 356.082031 280.683594 357.019531 C 280.445312 357.207031 280.269531 357.476562 280.199219 357.800781 C 280.058594 358.507812 280.519531 359.195312 281.230469 359.335938 L 281.246094 359.339844 C 282.707031 359.632812 284.074219 359.671875 285.425781 359.648438 C 286.773438 359.617188 288.09375 359.507812 289.410156 359.324219 C 290.726562 359.144531 292.03125 358.902344 293.347656 358.574219 Z M 268.710938 355.992188 C 269.339844 355.167969 269.972656 354.324219 270.578125 353.246094 L 270.617188 353.179688 C 270.734375 352.964844 270.796875 352.714844 270.785156 352.453125 C 270.742188 351.714844 270.113281 351.144531 269.371094 351.1875 C 268.003906 351.257812 266.769531 351.742188 265.65625 352.398438 C 264.546875 353.066406 263.5625 353.929688 262.753906 354.933594 C 261.9375 355.933594 261.289062 357.070312 260.859375 358.289062 C 260.441406 359.511719 260.210938 360.820312 260.40625 362.171875 C 260.4375 362.367188 260.515625 362.5625 260.652344 362.722656 C 261.042969 363.21875 261.765625 363.292969 262.257812 362.898438 L 262.296875 362.867188 C 263.277344 362.074219 264.027344 361.304688 264.757812 360.554688 C 265.476562 359.800781 266.144531 359.0625 266.792969 358.3125 C 267.453125 357.566406 268.078125 356.800781 268.710938 355.992188 Z M 286.453125 341.386719 C 288.132812 342.074219 289.886719 342.359375 291.644531 342.453125 C 293.402344 342.535156 295.164062 342.382812 296.882812 342.035156 C 298.605469 341.691406 300.289062 341.132812 301.871094 340.371094 C 303.453125 339.605469 304.953125 338.648438 306.21875 337.347656 C 306.460938 337.09375 306.601562 336.742188 306.574219 336.363281 C 306.523438 335.664062 305.910156 335.136719 305.210938 335.1875 L 305.1875 335.191406 C 303.464844 335.320312 301.902344 335.613281 300.351562 335.910156 C 298.804688 336.214844 297.292969 336.535156 295.78125 336.882812 C 294.269531 337.226562 292.757812 337.582031 291.222656 337.964844 C 289.683594 338.367188 288.132812 338.765625 286.503906 339.371094 L 286.484375 339.378906 C 286.214844 339.480469 285.984375 339.691406 285.863281 339.976562 C 285.640625 340.527344 285.902344 341.15625 286.453125 341.386719 Z M 186.824219 164.917969 C 187.597656 166.109375 188.460938 167.214844 189.40625 168.25 C 190.34375 169.292969 191.363281 170.257812 192.472656 171.136719 C 193.585938 172.011719 194.773438 172.824219 196.1875 173.417969 C 196.472656 173.539062 196.800781 173.5625 197.117188 173.453125 C 197.804688 173.21875 198.167969 172.476562 197.9375 171.792969 C 197.441406 170.339844 196.71875 169.101562 195.925781 167.925781 C 195.125 166.757812 194.234375 165.671875 193.261719 164.660156 C 192.292969 163.652344 191.25 162.710938 190.121094 161.847656 C 188.980469 160.996094 187.777344 160.203125 186.347656 159.625 C 186.109375 159.527344 185.84375 159.511719 185.582031 159.59375 C 185 159.785156 184.679688 160.410156 184.871094 160.992188 C 185.351562 162.460938 186.054688 163.71875 186.824219 164.917969 Z M 216.4375 153.332031 C 218.007812 154.828125 219.699219 156.21875 221.636719 157.320312 C 221.988281 157.515625 222.4375 157.546875 222.824219 157.347656 C 223.433594 157.03125 223.675781 156.277344 223.359375 155.671875 L 223.355469 155.664062 C 222.355469 153.722656 221.203125 151.984375 220.027344 150.269531 C 218.84375 148.5625 217.625 146.90625 216.367188 145.273438 C 215.109375 143.640625 213.824219 142.03125 212.480469 140.441406 C 211.125 138.859375 209.742188 137.285156 208.132812 135.796875 L 208.125 135.789062 C 207.878906 135.5625 207.523438 135.460938 207.175781 135.539062 C 206.609375 135.675781 206.257812 136.238281 206.386719 136.804688 C 206.898438 138.976562 207.742188 140.992188 208.722656 142.933594 C 209.714844 144.863281 210.867188 146.707031 212.15625 148.445312 C 213.445312 150.191406 214.875 151.824219 216.4375 153.332031 Z M 175.554688 280.75 C 175.433594 280.464844 175.203125 280.222656 174.894531 280.085938 C 174.238281 279.789062 173.464844 280.082031 173.167969 280.738281 C 172.535156 282.148438 172.210938 283.554688 171.988281 284.964844 C 171.769531 286.375 171.675781 287.785156 171.691406 289.195312 C 171.703125 290.605469 171.816406 292.015625 172.054688 293.429688 C 172.300781 294.839844 172.640625 296.25 173.28125 297.664062 C 173.386719 297.894531 173.574219 298.09375 173.824219 298.210938 C 174.382812 298.464844 175.039062 298.226562 175.296875 297.671875 C 175.949219 296.265625 176.300781 294.859375 176.5625 293.445312 C 176.808594 292.035156 176.9375 290.625 176.964844 289.214844 C 176.988281 287.808594 176.90625 286.398438 176.703125 284.984375 C 176.488281 283.574219 176.179688 282.164062 175.554688 280.75 Z M 194.515625 249.628906 C 193.902344 248.367188 193.140625 247.160156 192.050781 246.136719 C 191.839844 245.9375 191.558594 245.804688 191.242188 245.78125 C 190.519531 245.730469 189.890625 246.273438 189.835938 246.996094 L 189.835938 247.027344 C 189.730469 248.449219 189.847656 249.734375 189.996094 250.996094 C 190.160156 252.253906 190.375 253.476562 190.652344 254.6875 C 190.925781 255.898438 191.242188 257.101562 191.628906 258.316406 C 192.027344 259.53125 192.464844 260.757812 193.148438 262.027344 L 193.15625 262.050781 C 193.269531 262.253906 193.449219 262.433594 193.6875 262.535156 C 194.25 262.789062 194.910156 262.535156 195.164062 261.972656 C 195.773438 260.605469 196.019531 259.195312 196.109375 257.792969 C 196.1875 256.386719 196.082031 254.984375 195.816406 253.609375 C 195.550781 252.242188 195.117188 250.902344 194.515625 249.628906 Z M 235.265625 266.953125 C 234.523438 265.699219 233.691406 264.523438 232.785156 263.414062 C 231.875 262.304688 230.882812 261.265625 229.800781 260.300781 C 228.707031 259.34375 227.539062 258.453125 226.136719 257.757812 C 225.851562 257.621094 225.515625 257.582031 225.1875 257.675781 C 224.496094 257.882812 224.101562 258.605469 224.308594 259.296875 C 224.753906 260.796875 225.433594 262.097656 226.1875 263.339844 C 226.953125 264.570312 227.808594 265.726562 228.75 266.808594 C 229.6875 267.894531 230.707031 268.914062 231.816406 269.855469 C 232.933594 270.789062 234.125 271.664062 235.542969 272.34375 C 235.773438 272.453125 236.050781 272.488281 236.320312 272.414062 C 236.910156 272.242188 237.25 271.636719 237.085938 271.046875 C 236.652344 269.53125 235.996094 268.210938 235.265625 266.953125 Z M 270.824219 240.878906 C 268.988281 239.929688 267.09375 239.058594 265.035156 238.433594 C 264.714844 238.339844 264.355469 238.394531 264.074219 238.613281 C 263.617188 238.976562 263.535156 239.636719 263.898438 240.097656 C 265.226562 241.792969 266.726562 243.230469 268.28125 244.601562 C 269.839844 245.957031 271.46875 247.21875 273.152344 248.394531 C 274.835938 249.570312 276.582031 250.65625 278.398438 251.640625 C 280.21875 252.617188 282.09375 253.515625 284.140625 254.15625 C 284.523438 254.273438 284.964844 254.207031 285.296875 253.941406 C 285.835938 253.507812 285.925781 252.726562 285.492188 252.183594 C 284.148438 250.507812 282.632812 249.089844 281.058594 247.746094 C 279.484375 246.417969 277.835938 245.183594 276.128906 244.042969 C 274.421875 242.898438 272.65625 241.839844 270.824219 240.878906 Z M 299.675781 230.886719 C 300.890625 232.136719 302.277344 233.214844 303.777344 234.101562 C 305.273438 234.996094 306.890625 235.683594 308.570312 236.144531 C 310.257812 236.59375 312.003906 236.832031 313.792969 236.636719 C 314.132812 236.601562 314.464844 236.421875 314.679688 236.121094 C 315.097656 235.554688 314.96875 234.753906 314.398438 234.34375 L 314.378906 234.324219 C 313.015625 233.328125 311.675781 232.554688 310.355469 231.777344 L 306.414062 229.542969 L 302.441406 227.328125 C 301.082031 226.597656 299.71875 225.84375 298.152344 225.167969 L 298.128906 225.15625 C 297.867188 225.042969 297.5625 225.035156 297.28125 225.15625 C 296.734375 225.390625 296.476562 226.023438 296.710938 226.570312 C 297.410156 228.222656 298.46875 229.632812 299.675781 230.886719 Z M 260.660156 214.9375 C 259.746094 213.855469 258.714844 213.058594 257.652344 212.339844 C 256.578125 211.636719 255.464844 211.042969 254.308594 210.542969 C 253.152344 210.042969 251.953125 209.644531 250.710938 209.355469 C 249.464844 209.078125 248.183594 208.886719 246.777344 208.988281 C 246.5 209.007812 246.222656 209.109375 246 209.308594 C 245.441406 209.792969 245.382812 210.636719 245.867188 211.191406 C 246.785156 212.253906 247.828125 213.027344 248.90625 213.714844 C 249.992188 214.382812 251.117188 214.949219 252.289062 215.414062 C 253.460938 215.875 254.667969 216.246094 255.921875 216.503906 C 257.183594 216.75 258.476562 216.914062 259.890625 216.796875 C 260.117188 216.777344 260.339844 216.6875 260.527344 216.53125 C 261.003906 216.125 261.0625 215.414062 260.660156 214.9375 Z M 260.175781 196.914062 C 261.984375 198.160156 263.847656 199.304688 265.765625 200.34375 C 267.683594 201.390625 269.65625 202.347656 271.679688 203.199219 C 273.714844 204.039062 275.792969 204.800781 278.015625 205.300781 C 278.351562 205.371094 278.71875 205.28125 278.976562 205.027344 C 279.394531 204.617188 279.402344 203.953125 278.996094 203.542969 C 277.402344 201.910156 275.660156 200.546875 273.875 199.261719 C 272.082031 197.988281 270.234375 196.820312 268.332031 195.742188 C 266.433594 194.660156 264.484375 193.675781 262.472656 192.796875 C 260.457031 191.925781 258.390625 191.136719 256.175781 190.625 C 255.777344 190.53125 255.332031 190.636719 255.015625 190.953125 C 254.53125 191.4375 254.53125 192.226562 255.011719 192.710938 C 256.621094 194.320312 258.371094 195.660156 260.175781 196.914062 Z M 245.195312 175.234375 C 244.945312 174.667969 244.613281 174.183594 244.210938 173.777344 C 243.808594 173.367188 243.332031 173.039062 242.769531 172.796875 C 242.203125 172.5625 241.574219 172.402344 240.726562 172.460938 C 239.824219 172.53125 239.097656 173.277344 239.082031 174.195312 C 239.066406 175.046875 239.265625 175.667969 239.527344 176.222656 C 239.800781 176.769531 240.15625 177.226562 240.585938 177.605469 C 241.015625 177.984375 241.511719 178.289062 242.09375 178.507812 C 242.6875 178.714844 243.335938 178.859375 244.199219 178.78125 C 244.957031 178.714844 245.558594 178.097656 245.585938 177.320312 C 245.617188 176.457031 245.4375 175.8125 245.195312 175.234375 Z M 217.859375 170.328125 C 216.089844 169.320312 214.269531 168.390625 212.265625 167.707031 C 211.890625 167.582031 211.453125 167.636719 211.113281 167.890625 C 210.558594 168.304688 210.445312 169.085938 210.859375 169.636719 C 212.125 171.332031 213.574219 172.777344 215.082031 174.144531 C 216.597656 175.5 218.179688 176.761719 219.828125 177.929688 C 221.476562 179.105469 223.183594 180.191406 224.957031 181.1875 C 226.746094 182.167969 228.582031 183.078125 230.597656 183.742188 C 230.914062 183.84375 231.269531 183.796875 231.554688 183.589844 C 232.03125 183.246094 232.128906 182.582031 231.785156 182.113281 C 230.53125 180.398438 229.097656 178.933594 227.613281 177.539062 C 226.117188 176.15625 224.554688 174.871094 222.929688 173.671875 C 221.304688 172.460938 219.613281 171.347656 217.859375 170.328125 Z M 223.554688 194.65625 C 222.425781 193.753906 221.222656 192.945312 219.953125 192.230469 C 218.671875 191.519531 217.335938 190.890625 215.804688 190.503906 C 215.496094 190.425781 215.160156 190.457031 214.859375 190.628906 C 214.226562 190.972656 214 191.765625 214.347656 192.394531 C 215.109375 193.773438 216.058594 194.90625 217.070312 195.960938 C 218.085938 197.011719 219.179688 197.964844 220.339844 198.832031 C 221.496094 199.695312 222.714844 200.480469 224.003906 201.175781 C 225.304688 201.851562 226.664062 202.464844 228.199219 202.835938 C 228.457031 202.894531 228.734375 202.867188 228.980469 202.734375 C 229.519531 202.445312 229.722656 201.777344 229.433594 201.238281 C 228.679688 199.84375 227.746094 198.6875 226.761719 197.605469 C 225.761719 196.53125 224.6875 195.554688 223.554688 194.65625 Z M 207.210938 198.550781 C 206.335938 197.140625 205.34375 195.96875 204.34375 194.828125 C 203.328125 193.703125 202.28125 192.636719 201.203125 191.613281 C 200.128906 190.585938 199.007812 189.605469 197.832031 188.664062 C 196.644531 187.726562 195.417969 186.820312 193.964844 186.042969 L 193.945312 186.035156 C 193.652344 185.878906 193.296875 185.835938 192.957031 185.945312 C 192.277344 186.164062 191.90625 186.886719 192.121094 187.5625 C 192.640625 189.179688 193.460938 190.589844 194.398438 191.902344 C 195.347656 193.207031 196.425781 194.40625 197.625 195.480469 C 198.8125 196.558594 200.113281 197.515625 201.503906 198.335938 C 202.910156 199.140625 204.394531 199.824219 206.054688 200.199219 C 206.320312 200.253906 206.617188 200.214844 206.867188 200.0625 C 207.378906 199.742188 207.535156 199.070312 207.21875 198.558594 Z M 228.46875 228.105469 C 228.933594 227.753906 229.027344 227.089844 228.675781 226.625 L 228.667969 226.617188 C 227.429688 224.980469 226.101562 223.550781 224.789062 222.136719 C 223.464844 220.738281 222.136719 219.378906 220.792969 218.03125 C 219.449219 216.683594 218.089844 215.355469 216.691406 214.039062 C 215.277344 212.730469 213.855469 211.421875 212.214844 210.203125 L 212.203125 210.191406 C 211.886719 209.957031 211.46875 209.878906 211.066406 210.011719 C 210.414062 210.226562 210.054688 210.929688 210.269531 211.585938 C 210.929688 213.59375 211.9375 215.40625 213.101562 217.105469 C 214.273438 218.796875 215.613281 220.363281 217.09375 221.789062 C 218.574219 223.214844 220.1875 224.503906 221.921875 225.617188 C 223.660156 226.722656 225.503906 227.671875 227.527344 228.273438 C 227.835938 228.363281 228.191406 228.316406 228.46875 228.105469 Z M 161.183594 194.328125 C 160.652344 193.476562 160.019531 192.683594 159.292969 191.957031 C 158.554688 191.234375 157.734375 190.566406 156.660156 190.070312 C 156.472656 189.984375 156.257812 189.9375 156.035156 189.941406 C 155.257812 189.960938 154.644531 190.605469 154.660156 191.382812 C 154.691406 192.566406 154.980469 193.582031 155.347656 194.546875 C 155.726562 195.503906 156.207031 196.394531 156.777344 197.226562 C 157.347656 198.054688 158.003906 198.832031 158.757812 199.539062 C 159.527344 200.242188 160.367188 200.894531 161.460938 201.378906 C 161.613281 201.445312 161.785156 201.484375 161.957031 201.480469 C 162.617188 201.476562 163.152344 200.933594 163.144531 200.273438 C 163.132812 199.078125 162.867188 198.046875 162.527344 197.0625 C 162.175781 196.089844 161.722656 195.179688 161.183594 194.328125 Z M 190.867188 225.261719 C 191.488281 225.246094 191.980469 224.734375 191.964844 224.109375 C 191.925781 222.65625 191.621094 221.339844 191.234375 220.0625 C 190.835938 218.796875 190.332031 217.585938 189.734375 216.421875 C 189.144531 215.253906 188.457031 214.144531 187.660156 213.085938 C 186.851562 212.035156 185.964844 211.027344 184.796875 210.164062 C 184.5625 209.992188 184.269531 209.894531 183.957031 209.90625 C 183.226562 209.9375 182.65625 210.550781 182.683594 211.28125 C 182.738281 212.730469 183.074219 214.03125 183.484375 215.289062 C 183.914062 216.546875 184.445312 217.742188 185.078125 218.886719 C 185.703125 220.03125 186.421875 221.128906 187.246094 222.171875 C 188.082031 223.207031 189 224.199219 190.183594 225.050781 C 190.375 225.191406 190.613281 225.269531 190.867188 225.261719 Z M 171.828125 191.226562 C 172.117188 191.578125 172.488281 191.84375 172.949219 192.035156 C 173.417969 192.214844 173.957031 192.332031 174.722656 192.238281 C 175.566406 192.132812 176.296875 191.496094 176.476562 190.617188 C 176.632812 189.859375 176.558594 189.316406 176.414062 188.835938 C 176.265625 188.363281 176.023438 187.96875 175.703125 187.652344 C 175.382812 187.339844 174.988281 187.085938 174.503906 186.921875 C 174.011719 186.761719 173.453125 186.667969 172.671875 186.773438 C 171.964844 186.871094 171.355469 187.402344 171.191406 188.140625 C 171.023438 188.910156 171.074219 189.476562 171.191406 189.976562 C 171.320312 190.472656 171.535156 190.886719 171.828125 191.226562 Z M 147.015625 267.828125 C 146.40625 267.457031 145.605469 267.652344 145.234375 268.269531 L 145.210938 268.300781 C 144.441406 269.574219 143.894531 270.796875 143.359375 272.003906 C 142.839844 273.210938 142.351562 274.40625 141.890625 275.605469 C 141.425781 276.804688 140.96875 278.015625 140.53125 279.265625 C 140.101562 280.527344 139.660156 281.808594 139.339844 283.277344 L 139.335938 283.308594 C 139.28125 283.550781 139.3125 283.824219 139.4375 284.0625 C 139.726562 284.597656 140.394531 284.796875 140.933594 284.511719 C 142.339844 283.757812 143.46875 282.691406 144.441406 281.507812 C 145.402344 280.320312 146.1875 278.992188 146.777344 277.582031 C 147.371094 276.175781 147.761719 274.683594 147.933594 273.164062 C 148.09375 271.644531 148.050781 270.085938 147.585938 268.5625 C 147.496094 268.269531 147.300781 268 147.015625 267.828125 Z M 160.292969 245.050781 C 160.171875 244.808594 159.972656 244.59375 159.710938 244.457031 C 159.058594 244.113281 158.246094 244.363281 157.902344 245.015625 C 157.253906 246.242188 156.921875 247.472656 156.683594 248.703125 C 156.457031 249.9375 156.347656 251.167969 156.351562 252.40625 C 156.355469 253.640625 156.457031 254.878906 156.675781 256.117188 C 156.914062 257.355469 157.242188 258.59375 157.871094 259.835938 C 157.972656 260.035156 158.132812 260.207031 158.34375 260.324219 C 158.894531 260.625 159.585938 260.417969 159.886719 259.867188 C 160.554688 258.640625 160.914062 257.410156 161.1875 256.179688 C 161.449219 254.949219 161.585938 253.714844 161.625 252.480469 C 161.664062 251.246094 161.589844 250.011719 161.402344 248.777344 C 161.199219 247.539062 160.898438 246.296875 160.292969 245.050781 Z M 172.300781 231.058594 C 172.96875 231.21875 173.644531 230.808594 173.808594 230.136719 C 174.066406 229.070312 174.042969 228.117188 173.9375 227.199219 C 173.820312 226.285156 173.59375 225.414062 173.269531 224.585938 C 172.949219 223.757812 172.523438 222.96875 171.988281 222.226562 C 171.445312 221.492188 170.816406 220.792969 169.894531 220.210938 C 169.757812 220.125 169.597656 220.054688 169.433594 220.019531 C 168.644531 219.84375 167.867188 220.332031 167.683594 221.121094 C 167.445312 222.183594 167.492188 223.128906 167.632812 224.03125 C 167.777344 224.9375 168.035156 225.789062 168.398438 226.605469 C 168.753906 227.417969 169.210938 228.195312 169.773438 228.921875 C 170.347656 229.648438 171.007812 230.335938 171.945312 230.910156 C 172.050781 230.972656 172.175781 231.027344 172.300781 231.058594 Z M 147.945312 212.214844 C 147.109375 210.804688 146.132812 209.484375 145.023438 208.277344 C 143.90625 207.082031 142.671875 205.976562 141.179688 205.121094 C 140.9375 204.980469 140.640625 204.933594 140.351562 205.011719 C 139.773438 205.167969 139.429688 205.769531 139.589844 206.347656 L 139.59375 206.359375 C 140.03125 207.976562 140.652344 209.410156 141.292969 210.808594 C 141.945312 212.203125 142.644531 213.535156 143.378906 214.851562 C 144.113281 216.164062 144.890625 217.445312 145.734375 218.714844 C 146.585938 219.976562 147.472656 221.234375 148.605469 222.445312 L 148.625 222.460938 C 148.851562 222.707031 149.183594 222.863281 149.546875 222.863281 C 150.253906 222.871094 150.828125 222.300781 150.835938 221.59375 C 150.851562 219.871094 150.496094 218.246094 149.988281 216.675781 C 149.472656 215.113281 148.785156 213.617188 147.945312 212.214844 Z M 100.96875 157.042969 C 101.402344 167.914062 104.28125 179 108.027344 189.066406 C 90.785156 190.070312 69.132812 190.363281 59.988281 186.5 C 59.988281 186.5 77.527344 169.015625 100.96875 157.042969 " fill-opacity="1" fill-rule="nonzero"/></g><path fill="#493a2f" d="M 168.761719 140.222656 C 168.722656 142.25 168.496094 144.332031 167.796875 146.421875 C 167.152344 148.503906 165.882812 150.660156 163.804688 152.25 C 162.757812 153.027344 161.515625 153.542969 160.277344 153.832031 C 159.023438 154.132812 157.804688 154.113281 156.632812 154.03125 C 155.460938 153.914062 154.417969 153.621094 153.359375 153.332031 C 152.828125 153.21875 152.308594 152.980469 151.792969 152.757812 C 151.28125 152.523438 150.753906 152.34375 150.269531 152.042969 C 148.292969 150.921875 146.539062 149.328125 145.332031 147.429688 C 144.09375 145.550781 143.402344 143.429688 143.097656 141.359375 C 142.835938 139.261719 142.859375 137.242188 143.351562 135.175781 C 143.480469 134.632812 144.027344 134.292969 144.570312 134.425781 C 144.992188 134.523438 145.289062 134.875 145.34375 135.28125 L 145.355469 135.390625 C 145.792969 138.90625 146.914062 142.441406 148.96875 144.800781 C 150.019531 145.960938 151.1875 146.929688 152.597656 147.566406 C 152.9375 147.738281 153.332031 147.835938 153.6875 147.984375 C 154.050781 148.125 154.40625 148.28125 154.816406 148.335938 C 155.601562 148.515625 156.390625 148.738281 157.125 148.789062 C 158.601562 148.910156 159.824219 148.667969 160.832031 148.03125 C 161.863281 147.386719 162.71875 146.191406 163.410156 144.734375 C 164.75 141.78125 165.34375 138.042969 165.746094 134.4375 L 165.75 134.367188 C 165.824219 133.707031 166.421875 133.226562 167.082031 133.300781 C 167.597656 133.355469 168.003906 133.738281 168.121094 134.214844 C 168.605469 136.222656 168.761719 138.175781 168.761719 140.222656 " fill-opacity="1" fill-rule="nonzero"/></svg>