<svg xmlns="http://www.w3.org/2000/svg" xmlns:xlink="http://www.w3.org/1999/xlink" width="800" zoomAndPan="magnify" viewBox="0 0 600 599.999999" height="800" preserveAspectRatio="xMidYMid meet" version="1.0"><defs><clipPath id="4512f57b0b"><path d="M 63.757812 61.914062 L 558.300781 61.914062 L 558.300781 560.332031 L 63.757812 560.332031 Z M 63.757812 61.914062 " clip-rule="nonzero"/></clipPath></defs><path fill="#797677" d="M 102.359375 73.890625 C 102.914062 74.617188 136.648438 98.304688 136.648438 98.304688 C 136.648438 98.304688 140.558594 100.046875 147.367188 99.875 C 154.171875 99.707031 168.125 99.238281 183.695312 115.230469 C 199.265625 131.21875 202.753906 144.148438 202.753906 144.148438 C 202.753906 144.148438 216.621094 143.722656 228.789062 155.121094 C 240.957031 166.515625 248.699219 176.554688 249.632812 178.851562 C 250.570312 181.148438 253.972656 187.527344 240.871094 188.628906 C 227.769531 189.738281 221.472656 190.246094 221.472656 190.246094 C 221.472656 190.246094 227.171875 201.453125 241.59375 206.621094 C 238.976562 208.789062 231 209.875 231 209.875 C 231 209.875 241.785156 216.761719 246.253906 228.054688 C 244.910156 228.5625 235.59375 225.691406 235.59375 225.691406 C 235.59375 225.691406 240.828125 236.285156 254.675781 245.277344 C 268.519531 254.273438 277.648438 254.273438 289.449219 256.1875 C 301.257812 258.101562 335.523438 259.3125 335.523438 259.3125 C 335.523438 259.3125 363.726562 256.761719 371.066406 256.1875 C 378.402344 255.613281 399.011719 254.847656 412.542969 261.992188 C 426.070312 269.136719 431.621094 275.261719 431.621094 275.261719 C 431.621094 275.261719 444.703125 276.28125 458.546875 284.125 C 472.398438 291.972656 473.289062 295.863281 473.289062 295.863281 C 473.289062 295.863281 469.332031 296.503906 466.332031 296.566406 C 470.289062 299.375 481.902344 306.347656 491.09375 320.550781 C 500.28125 334.753906 500.535156 342.582031 500.535156 342.582031 L 490.410156 337.5625 C 490.410156 337.5625 501.984375 355.933594 506.664062 367.84375 C 511.339844 379.75 512.53125 383.746094 512.53125 383.746094 C 512.53125 383.746094 505.046875 381.28125 503.597656 379.324219 C 507.9375 387.660156 521.296875 408.753906 521.296875 408.753906 C 521.296875 408.753906 503.726562 433.207031 499.324219 436.078125 C 494.921875 438.949219 472.628906 434.015625 472.628906 434.015625 C 472.628906 434.015625 471.097656 439.542969 470.714844 439.628906 C 470.332031 439.710938 467.824219 436.523438 464.378906 429.464844 C 460.929688 422.40625 455.871094 410.539062 454.761719 398.800781 C 452.890625 405.691406 454.761719 418.195312 458.164062 428.316406 C 461.570312 438.4375 467.523438 448.898438 467.523438 448.898438 C 467.523438 448.898438 468.503906 451.578125 467.546875 459.679688 C 466.589844 467.78125 462.3125 482.324219 462.3125 482.324219 L 445.316406 523.660156 C 445.316406 523.660156 443.914062 529.617188 443.363281 532.636719 C 442.808594 535.65625 442.683594 540.035156 434.894531 546.457031 C 427.113281 552.878906 421.625 554.539062 418.136719 555.21875 C 414.648438 555.898438 410.648438 554.453125 408.351562 551.519531 C 404.140625 553.21875 398.78125 554.792969 394.78125 549.050781 C 392.695312 549.773438 386.101562 551.644531 383.125 545.097656 C 380.148438 538.546875 385.082031 533.402344 392.65625 530.042969 C 400.226562 526.683594 410.179688 522.894531 413.625 516.261719 C 417.074219 509.628906 426.195312 485.003906 426.195312 485.003906 C 426.195312 485.003906 433.089844 467.207031 431.175781 458.785156 C 429.261719 450.367188 424.15625 440.859375 415.988281 431.484375 C 407.820312 422.105469 401.628906 417.003906 399.140625 411.582031 C 398.757812 415.726562 398.824219 419.046875 398.824219 419.046875 C 398.824219 419.046875 390.910156 414.898438 385.101562 404.371094 C 379.296875 393.847656 380.761719 389.320312 380.761719 389.320312 L 377.511719 394.484375 L 374.363281 390.976562 C 374.363281 390.976562 366.789062 409.261719 367.894531 421.425781 C 369 433.589844 376.488281 455.703125 376.488281 455.703125 C 376.488281 455.703125 379.296875 461.742188 374.785156 472.035156 C 370.277344 482.324219 357.003906 506.566406 354.792969 512.351562 C 352.582031 518.132812 350.136719 523.28125 350.070312 526.46875 C 350.007812 529.660156 350.390625 533.488281 343.5625 536.929688 C 336.734375 540.375 321.929688 545.414062 318.421875 539.035156 C 316.125 540.121094 308.082031 542.863281 305.53125 535.527344 C 299.726562 536.613281 293.789062 535.910156 294.171875 527.363281 C 294.558594 518.8125 309.488281 514.667969 309.488281 514.667969 C 309.488281 514.667969 324.738281 512.308594 330.097656 504.269531 C 335.457031 496.234375 341.648438 482.261719 343.179688 473.269531 C 344.710938 464.273438 343.5625 457.640625 337.566406 451.960938 C 331.566406 446.285156 320.59375 437.992188 318.742188 433.527344 C 318.996094 437.035156 318.867188 439.203125 318.867188 439.203125 C 318.867188 439.203125 310.125 435.757812 306.679688 428.550781 C 303.234375 421.339844 302.980469 419.367188 302.980469 419.367188 C 302.980469 419.367188 300.8125 422.554688 299.980469 423.0625 C 299.152344 423.574219 295.066406 418.152344 293.789062 411.328125 C 292.515625 404.5 293.023438 397.996094 293.023438 397.996094 C 293.023438 397.996094 272.773438 404.246094 261.203125 406.457031 C 249.632812 408.667969 241.890625 407.902344 241.890625 407.902344 C 241.890625 407.902344 242.914062 414.027344 240.019531 430.015625 C 237.125 446.007812 230.746094 480.710938 230.746094 480.710938 C 230.746094 480.710938 228.449219 507.332031 228.191406 515.371094 C 227.9375 523.40625 228.40625 530.507812 228.40625 530.507812 C 228.40625 530.507812 228.257812 535.210938 224.8125 542.097656 C 221.367188 548.988281 220.324219 554.113281 211.902344 556.621094 C 203.476562 559.128906 197.820312 561.042969 193.011719 555.855469 C 189.695312 557.683594 184.078125 561.003906 179.101562 553.6875 C 176.761719 554.835938 167.019531 554.960938 165.617188 546.160156 C 165.402344 544.585938 165.488281 543.566406 165.488281 543.566406 C 165.488281 543.566406 157.171875 545.863281 154.109375 540.054688 C 149.578125 541.460938 143.835938 542.960938 142.335938 536.007812 C 138.125 535.71875 134.679688 533.230469 134.519531 527.585938 C 134.359375 521.941406 137.996094 519.515625 147.15625 515.496094 C 156.3125 511.480469 164 508.640625 166.105469 503.632812 C 168.210938 498.625 168.042969 478.160156 167.359375 469.398438 C 166.679688 460.636719 159.363281 432.058594 159.363281 432.058594 L 154.597656 415.046875 L 139.113281 378.390625 C 139.113281 378.390625 133.5 367.5 132.136719 358.398438 C 130.777344 349.300781 131.285156 345.046875 131.285156 345.046875 L 126.523438 328.886719 L 120.523438 331.90625 C 120.523438 331.90625 123.542969 301.160156 132.734375 273.21875 C 141.921875 245.277344 162.214844 224.609375 140.773438 176.765625 C 119.332031 128.925781 91.511719 87.714844 91.257812 84.269531 C 91 80.824219 102.359375 73.890625 102.359375 73.890625 " fill-opacity="1" fill-rule="nonzero"/><path fill="#626161" d="M 143.710938 349.894531 C 143.453125 350.914062 169.742188 391.488281 174.847656 419.300781 C 179.953125 447.113281 184.546875 488.703125 176.378906 513.203125 C 168.210938 537.695312 154.300781 532.785156 154.300781 532.785156 C 154.300781 532.785156 144.125 534.347656 142.71875 529.628906 C 139.273438 529.308594 135.347656 526.914062 134.773438 524.96875 C 133.5625 528.320312 134.390625 535.625 142.019531 535.625 C 143.132812 538.972656 146.070312 542.609375 153.726562 539.863281 C 155.863281 542.671875 158.960938 545.957031 165.5625 543.691406 C 165.882812 538.523438 171.871094 531.828125 179.824219 529.105469 C 187.78125 526.382812 196.542969 522.640625 196.800781 513.839844 C 197.054688 505.035156 197.308594 473.140625 197.308594 473.140625 L 194.886719 429.125 C 194.886719 429.125 192.714844 412.070312 190.585938 405.265625 C 188.460938 398.460938 186.523438 393.019531 185.949219 392.828125 C 185.378906 392.636719 143.710938 349.894531 143.710938 349.894531 " fill-opacity="1" fill-rule="nonzero"/><path fill="#626161" d="M 370.492188 328.523438 C 370.492188 328.523438 318.804688 341.476562 287.917969 342.238281 C 257.035156 343.003906 249.632812 339.179688 236.359375 341.730469 C 223.089844 344.28125 225.132812 399.144531 223.855469 414.707031 C 222.578125 430.273438 221.429688 519.453125 215.175781 529.660156 C 208.921875 539.863281 204.390625 544.714844 193.097656 546.691406 C 187.289062 548.859375 180.972656 546.945312 179.699219 543.566406 C 176.378906 545.222656 165.53125 542.992188 166.617188 538.523438 C 164.574219 546.882812 165.660156 555.238281 179.1875 553.453125 C 180.464844 556.132812 186.738281 561.191406 193.011719 555.855469 C 195.523438 558.429688 202.03125 561.746094 212.175781 556.769531 C 222.324219 551.792969 226.34375 539.800781 226.34375 539.800781 C 226.34375 539.800781 228.449219 531.957031 228.386719 527.105469 C 228.320312 522.257812 227.425781 517.792969 228.109375 504.609375 C 228.789062 491.425781 233.722656 460.042969 233.722656 460.042969 C 233.722656 460.042969 241.125 422.789062 241.210938 422.277344 C 241.296875 421.765625 241.976562 415.21875 241.804688 412.75 C 241.636719 410.285156 241.785156 408.457031 241.785156 408.457031 C 241.785156 408.457031 265.203125 407.050781 290.726562 399.015625 C 316.253906 390.976562 335.523438 388.425781 350.964844 386.894531 C 366.40625 385.363281 372.148438 387.660156 372.148438 387.660156 C 372.148438 387.660156 366.023438 377.070312 369.851562 362.398438 C 365.769531 366.609375 365.769531 366.609375 365.769531 366.609375 C 365.769531 366.609375 360.40625 347.597656 370.492188 328.523438 " fill-opacity="1" fill-rule="nonzero"/><path fill="#626161" d="M 306.296875 381.023438 C 306.296875 381.023438 313.445312 414.453125 334.117188 429.25 C 354.792969 444.050781 361.9375 449.664062 361.429688 465.996094 C 360.917969 482.324219 343.050781 523.28125 338.457031 526.726562 C 333.863281 530.167969 323.078125 535.335938 318.742188 531.125 C 314.847656 532.464844 307.507812 531.765625 306.425781 528.765625 C 302.660156 529.851562 295.703125 528.382812 295.066406 524.875 C 291.8125 528.320312 296.152344 540.054688 305.277344 535.71875 C 307.636719 538.972656 309.808594 542.734375 318.421875 539.035156 C 321.546875 542.035156 324.355469 543.882812 335.203125 540.375 C 346.050781 536.867188 349.113281 533.421875 350.136719 528.828125 C 351.15625 524.238281 351.027344 522.066406 351.921875 519.453125 C 352.816406 516.835938 367.683594 485.707031 367.683594 485.707031 C 367.683594 485.707031 375.023438 471.226562 376.871094 464.78125 C 378.722656 458.339844 373.492188 445.835938 373.492188 445.835938 C 373.492188 445.835938 367.726562 427.378906 367.8125 420.746094 C 367.894531 414.113281 370.449219 400.671875 370.449219 400.671875 L 374.277344 391.316406 L 370.109375 383.578125 L 306.296875 381.023438 " fill-opacity="1" fill-rule="nonzero"/><path fill="#626161" d="M 432.707031 276.664062 C 432.707031 276.664062 444.765625 331.394531 427.921875 357.421875 C 411.074219 383.449219 429.835938 412.15625 440.171875 433.589844 C 450.507812 455.023438 451.464844 466.695312 445.339844 483.730469 C 439.214844 500.761719 431.875 533.359375 427.792969 538.332031 C 423.707031 543.308594 410.691406 544.925781 408.011719 542.375 C 403.757812 543.90625 398.3125 543.183594 395.84375 540.675781 C 392.441406 541.269531 386.1875 542.246094 383.847656 537.101562 C 381.722656 542.289062 381.890625 552.964844 394.949219 549.136719 C 395.800781 551.730469 401.203125 554.835938 408.140625 551.390625 C 411.625 555.003906 416.050781 556.875 424.898438 553.007812 C 433.746094 549.136719 442.257812 539.144531 442.511719 536.847656 C 442.765625 534.550781 444.382812 527.832031 445.277344 523.152344 C 446.167969 518.472656 458.847656 491.425781 458.847656 491.425781 C 458.847656 491.425781 467.441406 467.101562 467.609375 462.421875 C 467.78125 457.746094 469.398438 453.320312 466.503906 447.707031 C 463.613281 442.09375 456.71875 426.019531 455.613281 419.980469 C 454.507812 413.941406 452.808594 407.5625 453.742188 398.121094 C 454.675781 388.679688 460.378906 367.414062 460.378906 367.414062 C 460.378906 367.414062 460.972656 346.917969 459.953125 336.285156 C 458.929688 325.652344 450.085938 304.21875 448.636719 300.988281 C 447.191406 297.757812 432.707031 276.664062 432.707031 276.664062 " fill-opacity="1" fill-rule="nonzero"/><path fill="#626161" d="M 440.171875 291.78125 C 440.171875 291.78125 459.3125 309.578125 468.503906 328.90625 C 477.691406 348.234375 485.347656 357.613281 485.347656 357.613281 C 485.347656 357.613281 469.84375 349.191406 466.015625 342.496094 C 466.207031 352.066406 466.78125 356.273438 478.457031 371.777344 C 490.136719 387.277344 496.070312 423.0625 504.109375 433.78125 C 512.152344 444.496094 472.652344 432.3125 472.523438 432.570312 C 472.398438 432.824219 471.949219 438.820312 471.121094 439.265625 C 470.289062 439.710938 468.375 437.097656 468.375 437.097656 C 468.375 437.097656 462.695312 429.699219 459.378906 418.214844 C 456.0625 406.734375 442.46875 395.125 448.59375 369.289062 C 454.722656 343.453125 440.171875 291.78125 440.171875 291.78125 " fill-opacity="1" fill-rule="nonzero"/><path fill="#939292" d="M 98.660156 76.996094 C 98.660156 76.996094 133.5 102.386719 137.710938 104.8125 C 141.921875 107.234375 154.300781 101.75 173.699219 118.078125 C 193.097656 134.410156 193.863281 146.273438 193.863281 146.273438 C 193.863281 146.273438 212.75 148.316406 225.132812 160.179688 C 237.507812 172.046875 249.507812 181.613281 241.722656 188.503906 C 248.742188 187.738281 250.742188 185.996094 250.484375 182.039062 C 250.230469 178.085938 247.421875 174.769531 236.53125 162.351562 C 225.640625 149.929688 215.089844 146.699219 212.113281 145.507812 C 209.136719 144.316406 202.753906 144.148438 202.753906 144.148438 C 202.753906 144.148438 195.265625 126.964844 183.695312 115.230469 C 172.125 103.492188 162.339844 100.683594 149.492188 99.492188 C 139.625 99.238281 141.582031 100.003906 136.050781 97.453125 C 130.519531 94.902344 99.46875 72.105469 99.46875 72.105469 L 98.660156 76.996094 " fill-opacity="1" fill-rule="nonzero"/><path fill="#939292" d="M 207.902344 191.183594 C 207.902344 191.183594 214.410156 201.519531 226.789062 202.792969 C 218.621094 203.6875 213.261719 202.15625 211.859375 201.261719 C 210.453125 200.371094 225.511719 209.042969 227.554688 214.148438 C 229.597656 219.25 226.664062 225.628906 230.617188 228.820312 C 229.214844 229.839844 224.621094 228.308594 222.449219 225.503906 C 220.28125 222.695312 229.597656 238.390625 240.699219 245.40625 C 251.804688 252.421875 277.074219 276.28125 345.988281 267.476562 C 368.957031 261.738281 416.5625 260.84375 428.558594 272.835938 C 421.921875 266.964844 417.390625 260.972656 396.84375 257.398438 C 376.296875 253.828125 356.324219 257.949219 356.324219 257.949219 C 356.324219 257.949219 331.140625 259.824219 312.167969 258.375 C 293.195312 256.929688 265.457031 255.738281 252.695312 244.597656 C 239.933594 233.453125 235.59375 225.691406 235.59375 225.691406 L 246.253906 228.054688 C 246.253906 228.054688 240.445312 216.570312 231 209.875 C 238.234375 209.042969 241.722656 207.175781 241.722656 207.175781 C 241.722656 207.175781 229.214844 201.558594 224.875 194.667969 C 220.535156 187.78125 221.558594 190.671875 221.558594 190.671875 L 207.902344 191.183594 " fill-opacity="1" fill-rule="nonzero"/><path fill="#626161" d="M 164.320312 158.394531 C 164.320312 158.394531 202.414062 189.394531 238.976562 188.25 C 230.363281 189.78125 214.984375 192.585938 205.476562 191.566406 C 195.96875 190.546875 177.71875 205.089844 182.695312 221.738281 C 187.675781 238.390625 160.109375 203.558594 159.34375 186.527344 C 158.578125 169.492188 164.320312 158.394531 164.320312 158.394531 " fill-opacity="1" fill-rule="nonzero"/><path fill="#939292" d="M 435.449219 280.234375 C 437.492188 282.40625 453.953125 284.699219 458.929688 291.71875 C 457.019531 292.355469 451.402344 291.84375 451.402344 291.84375 C 451.402344 291.84375 480.625 310.089844 488.796875 329.355469 C 484.710938 326.292969 479.476562 326.164062 479.476562 326.164062 C 479.476562 326.164062 497.984375 359.082031 504.109375 388.933594 C 510.234375 418.789062 512.023438 419.808594 512.023438 419.808594 C 512.023438 419.808594 519.976562 406.628906 519.851562 406.582031 C 519.722656 406.542969 510.363281 392.039062 510.363281 392.039062 L 504.152344 379.113281 C 504.152344 379.113281 511.511719 383.703125 512.152344 383.664062 C 512.789062 383.621094 511.808594 381.449219 511.808594 381.449219 C 511.808594 381.449219 505.046875 364.3125 503.855469 361.757812 C 502.664062 359.210938 491.046875 337.519531 491.046875 337.519531 L 500.070312 342.15625 C 500.070312 342.15625 498.792969 334.289062 494.667969 325.738281 C 490.539062 317.191406 476.417969 304.007812 475.054688 302.773438 C 473.691406 301.542969 465.695312 296.398438 465.695312 296.398438 C 465.695312 296.398438 472.5 296.652344 472.886719 296.351562 C 473.269531 296.054688 473.269531 295.546875 473.269531 295.546875 C 473.269531 295.546875 464.035156 287.210938 453.445312 280.957031 C 442.851562 274.707031 430.726562 275.300781 430.726562 275.300781 L 435.449219 280.234375 " fill-opacity="1" fill-rule="nonzero"/><path fill="#939292" d="M 140.582031 348.046875 C 140.390625 351.109375 144.410156 370.246094 151.492188 386.894531 C 158.578125 403.542969 162.980469 409.859375 169.871094 450.046875 C 176.761719 490.234375 171.359375 506.398438 168.636719 509.460938 C 165.914062 512.519531 158.003906 514.222656 147.453125 516.261719 C 136.902344 518.304688 137.496094 521.449219 137.753906 521.027344 C 138.007812 520.601562 145.238281 516.007812 156.8125 511.5 C 166.511719 505.203125 167.277344 503.335938 167.359375 498.230469 C 167.445312 493.125 168.890625 488.960938 166.851562 471.269531 C 164.808594 453.578125 161.917969 438.949219 159.703125 430.527344 C 157.492188 422.105469 150.003906 402.457031 145.921875 393.359375 C 141.835938 384.257812 134.691406 368.777344 132.734375 360.613281 C 130.777344 352.445312 131.371094 342.667969 131.371094 342.667969 L 140.582031 348.046875 " fill-opacity="1" fill-rule="nonzero"/><path fill="#939292" d="M 174.847656 286.421875 C 174.273438 288.71875 166.042969 320.679688 179.824219 354.933594 C 193.609375 389.191406 195.90625 398.570312 200.691406 424.59375 C 205.476562 450.621094 205.285156 511.480469 201.457031 520.28125 C 197.628906 529.085938 188.375 526.042969 175.953125 532.082031 C 163.53125 538.121094 166.085938 542.203125 166.085938 542.203125 C 166.085938 542.203125 166.339844 535.402344 179.441406 529.363281 C 192.542969 523.320312 195.4375 523.320312 196.714844 514.390625 C 197.988281 505.460938 197.308594 467.183594 197.308594 467.183594 L 194.246094 420.492188 C 194.246094 420.492188 190.929688 400.246094 186.332031 392.421875 C 181.738281 384.597656 161.449219 362.207031 156.277344 341.15625 C 151.109375 320.105469 174.847656 286.421875 174.847656 286.421875 " fill-opacity="1" fill-rule="nonzero"/><path fill="#939292" d="M 370.492188 328.523438 C 371.382812 329.574219 371.382812 371.585938 406.863281 412.410156 C 435.707031 447.625 437.875 449.15625 436.855469 461.273438 C 435.832031 473.394531 424.347656 506.949219 419.113281 515.753906 C 413.882812 524.554688 412.734375 527.871094 403.097656 530.488281 C 393.460938 533.105469 386.570312 533.296875 384.785156 535.65625 C 389.632812 528.257812 396.78125 529.785156 402.011719 526.660156 C 407.246094 523.535156 411.585938 520.472656 415.667969 511.734375 C 419.75 502.992188 430.34375 476.585938 431.109375 466.503906 C 431.875 456.425781 428.175781 448.003906 425.304688 443.730469 C 422.433594 439.457031 409.160156 424.019531 408.140625 423.191406 C 407.117188 422.359375 399.394531 412.15625 399.140625 411.582031 C 398.886719 411.007812 398.503906 418.917969 398.503906 418.917969 C 398.503906 418.917969 388.101562 412.15625 384.082031 401.882812 C 380.0625 391.613281 380.1875 389.828125 380.1875 390.019531 C 380.1875 390.210938 377.253906 394.421875 377.253906 394.421875 C 377.253906 394.421875 368.320312 383.511719 368.511719 374.136719 C 368.703125 364.757812 369.851562 362.398438 369.851562 362.398438 L 365.511719 367.308594 C 365.511719 367.308594 363.214844 357.039062 364.9375 345.429688 C 366.660156 333.820312 370.492188 328.523438 370.492188 328.523438 " fill-opacity="1" fill-rule="nonzero"/><path fill="#939292" d="M 302.085938 395.570312 C 302.46875 400.292969 297.238281 411.902344 330.546875 440.476562 C 344.710938 450.304688 351.007812 459.699219 349.601562 468.378906 C 348.199219 477.050781 339.140625 503.460938 334.289062 510.988281 C 329.4375 518.515625 314.402344 516.710938 306.617188 518.75 C 298.832031 520.792969 297.109375 522.195312 297.109375 522.195312 C 297.109375 522.195312 297.875 518.175781 305.722656 515.882812 C 313.570312 513.585938 325.695312 511.285156 329.140625 505.671875 C 332.585938 500.058594 340.054688 485.515625 341.96875 477.605469 C 343.878906 469.695312 344.007812 461.082031 341.074219 455.46875 C 338.140625 449.855469 330.164062 446.539062 330.164062 446.539062 C 330.164062 446.539062 319.890625 436.140625 318.292969 433.335938 C 318.167969 436.398438 318.867188 438.820312 318.867188 438.820312 C 318.867188 438.820312 311.339844 437.417969 307.574219 430.71875 C 303.808594 424.019531 302.980469 419.367188 302.980469 419.367188 L 299.917969 423.445312 C 299.917969 423.445312 294.046875 417.832031 293.40625 408.710938 C 292.769531 399.589844 293.152344 397.949219 293.152344 397.949219 L 302.085938 395.570312 " fill-opacity="1" fill-rule="nonzero"/><path fill="#ffffff" d="M 99.125 80.695312 C 99.125 80.695312 123.882812 108.59375 124.480469 109.527344 C 125.074219 110.46875 128.054688 113.613281 129.925781 118.800781 C 131.796875 123.988281 133.839844 136.238281 146.261719 143.46875 C 158.683594 150.695312 173.230469 155.035156 179.699219 169.492188 C 183.695312 180.976562 183.441406 191.097656 183.441406 191.097656 L 174.59375 187.097656 L 176.570312 199.222656 C 176.570312 199.222656 179.761719 207.449219 186.078125 214.851562 C 192.203125 222.1875 195.265625 231.5 195.265625 231.5 C 195.265625 231.5 189.078125 231.117188 185.824219 229.648438 C 187.546875 233.03125 189.652344 238.898438 190.886719 247.148438 C 192.121094 255.398438 189.78125 265.863281 189.609375 266.839844 C 189.441406 267.816406 189.480469 267.476562 189.480469 267.476562 L 183.441406 262.160156 C 183.441406 262.160156 185.484375 271.175781 184.84375 277.726562 C 184.207031 284.273438 183.226562 289.210938 181.144531 294.566406 C 179.058594 299.925781 177.867188 300.476562 177.867188 300.476562 L 173.144531 293.84375 L 167.402344 307.28125 C 167.402344 307.28125 160.875 320.550781 162.789062 329.863281 C 164.703125 339.179688 168.53125 357.230469 171.65625 364.886719 C 174.785156 372.542969 182.378906 385.875 185.824219 392.378906 C 189.269531 398.886719 189.460938 401.308594 189.460938 401.308594 C 189.460938 401.308594 173.699219 396.65625 163.871094 386.574219 C 154.046875 376.496094 151.367188 372.160156 148.429688 366.992188 C 145.496094 361.824219 144.089844 358.0625 144.089844 358.0625 L 141.984375 365.96875 C 141.984375 365.96875 136.6875 360.359375 132.667969 349.066406 C 128.648438 337.777344 126.925781 328.714844 126.925781 328.714844 L 120.523438 331.90625 C 120.523438 331.90625 119.78125 321.828125 116.144531 314.300781 C 112.503906 306.773438 105.253906 295.800781 105.253906 295.800781 C 105.253906 295.800781 103.71875 290.058594 103.421875 283.9375 C 103.125 277.8125 106.828125 261.992188 106.828125 261.992188 C 106.828125 261.992188 104.742188 264.160156 103.210938 266.160156 C 101.679688 268.15625 99.339844 271.304688 99.339844 271.304688 C 99.339844 271.304688 97.128906 264.5 97.296875 256.082031 C 97.46875 247.660156 102.742188 231.96875 102.742188 231.96875 L 93.722656 236.816406 C 93.722656 236.816406 102.933594 217.148438 103.828125 214.210938 C 104.722656 211.277344 106.828125 197.050781 106.890625 194.5 C 106.953125 191.949219 106.953125 191.4375 106.953125 191.4375 C 106.953125 191.4375 99.550781 174.40625 98.785156 173.003906 C 98.019531 171.597656 94.191406 165.667969 88.449219 162.222656 C 82.707031 158.777344 73.132812 152.714844 68.921875 146.019531 C 64.710938 139.320312 63.308594 131.539062 66.179688 126.179688 C 69.050781 120.820312 81.621094 119.417969 81.621094 119.417969 C 81.621094 119.417969 74.601562 108.125 72.941406 101.8125 C 71.285156 95.496094 72.625 84.714844 77.34375 81.910156 C 82.066406 79.101562 99.125 80.695312 99.125 80.695312 " fill-opacity="1" fill-rule="nonzero"/><path fill="#ffffff" d="M 471.863281 430.699219 C 471.863281 430.699219 473.640625 419.589844 473.800781 418.3125 C 473.960938 417.035156 475.011719 417.066406 477.277344 418.597656 C 479.542969 420.128906 485.222656 424.179688 486.6875 424.082031 C 488.15625 423.988281 487.964844 418.183594 487.964844 418.183594 L 486.53125 406.191406 C 486.53125 406.191406 486.273438 404.4375 490.105469 406.351562 C 493.933594 408.265625 500.34375 411.421875 501.84375 411.742188 C 503.34375 412.058594 504.109375 410.5625 504.011719 408.421875 C 503.917969 406.285156 501.972656 398.726562 501.972656 398.726562 C 501.972656 398.726562 500.949219 396.558594 504.140625 397.390625 C 507.332031 398.21875 515.339844 401.628906 516.742188 402.648438 C 518.148438 403.671875 525.710938 416.238281 529.570312 418.789062 C 533.429688 421.339844 534.484375 423.542969 534.132812 424.050781 C 533.78125 424.5625 526.953125 425.296875 526.953125 425.296875 C 526.953125 425.296875 548.351562 452.132812 552.777344 458.339844 C 557.199219 464.550781 557.285156 465.65625 557.03125 466.589844 C 556.773438 467.527344 550.476562 473.820312 533.292969 469.398438 C 516.105469 464.972656 510.40625 462.082031 503.511719 456.042969 C 503.175781 461.402344 502.917969 463.785156 500.789062 463.527344 C 498.664062 463.273438 485.222656 456.808594 479.777344 447.625 C 474.332031 438.4375 471.863281 430.699219 471.863281 430.699219 " fill-opacity="1" fill-rule="nonzero"/><path fill="#e5e3e4" d="M 493.390625 408.074219 C 493.390625 408.074219 507.429688 438.542969 532.824219 452.34375 C 558.21875 466.144531 557.453125 465.355469 557.453125 465.355469 C 557.453125 465.355469 554.902344 471.671875 543.289062 470.714844 C 531.675781 469.757812 522.742188 468.609375 514.191406 463.824219 C 505.640625 459.042969 502.960938 455.980469 502.960938 455.980469 C 502.960938 455.980469 504.109375 464.378906 499.644531 463.105469 C 495.175781 461.828125 485.308594 455.105469 480.925781 449.410156 C 476.542969 443.710938 471.777344 431.632812 471.777344 431.632812 C 471.777344 431.632812 473.183594 420.535156 473.523438 419.128906 C 473.863281 417.726562 473.332031 416.726562 475.605469 417.8125 C 477.882812 418.894531 484.625 423.46875 485.945312 423.636719 C 487.265625 423.808594 487.816406 423.851562 487.925781 422.445312 C 488.03125 421.042969 487.199219 411.75 487.199219 411.75 C 487.199219 411.75 486.222656 406.03125 486.796875 405.671875 C 487.371094 405.308594 489.027344 405.988281 489.027344 405.988281 L 493.390625 408.074219 " fill-opacity="1" fill-rule="nonzero"/><path fill="#e5e3e4" d="M 74.15625 84.714844 C 74.539062 84.027344 68.222656 110.167969 112.441406 139.257812 C 112.632812 144.234375 110.589844 145.957031 110.589844 145.957031 C 110.589844 145.957031 98.148438 139.066406 90.363281 131.601562 C 82.578125 124.140625 73.582031 105.382812 73.453125 104.9375 C 73.324219 104.492188 70.773438 90.777344 74.15625 84.714844 " fill-opacity="1" fill-rule="nonzero"/><path fill="#e5e3e4" d="M 65.476562 138.746094 C 65.476562 138.746094 79.515625 152.652344 94.191406 156.863281 C 108.867188 161.074219 118.949219 212.617188 151.109375 198.074219 C 157.492188 204.199219 150.601562 215.679688 150.601562 215.679688 C 150.601562 215.679688 174.59375 191.949219 165.660156 172.300781 C 173.0625 179.445312 173.828125 182.253906 173.828125 182.253906 C 173.828125 182.253906 180.847656 174.597656 178.933594 167.453125 C 183.144531 175.875 183.589844 187.671875 183.078125 190.992188 C 181.101562 190.035156 173.828125 186.972656 173.828125 186.972656 C 173.828125 186.972656 176.292969 191.226562 176.550781 200.410156 C 177.570312 202.75 182.804688 210.320312 182.804688 210.320312 C 182.804688 210.320312 168.808594 226.394531 169.234375 233.796875 C 167.277344 225.628906 162.148438 217.210938 162.148438 217.210938 C 162.148438 217.210938 157.109375 225.4375 147.472656 228.179688 C 147.601562 225.503906 146.601562 216.785156 146.601562 216.785156 C 146.601562 216.785156 136.347656 225.503906 129.074219 226.054688 C 128.648438 222.652344 123.203125 212.449219 121.160156 209.386719 C 119.121094 206.320312 113.503906 201.816406 109.25 195.265625 C 104.996094 188.714844 99.808594 172.980469 95.808594 168.046875 C 91.808594 163.117188 73.941406 152.90625 73.09375 151.632812 C 72.242188 150.355469 66.964844 141.851562 65.476562 138.746094 " fill-opacity="1" fill-rule="nonzero"/><path fill="#e5e3e4" d="M 110.78125 190.671875 C 110.78125 190.671875 116.523438 209.9375 106.570312 223.589844 C 109.25 225.757812 114.867188 219.632812 114.867188 220.273438 C 114.867188 220.910156 116.269531 222.695312 111.675781 230.988281 C 107.082031 239.28125 104.144531 248.976562 103.636719 257.269531 C 105.804688 252.039062 113.335938 248.722656 113.335938 248.722656 C 113.335938 248.722656 108.613281 263.140625 109.507812 278.195312 C 110.398438 293.25 114.355469 309.324219 117.417969 318.511719 C 120.480469 327.695312 120.226562 332.417969 120.226562 332.417969 L 126.523438 328.886719 C 126.523438 328.886719 129.585938 342.582031 134.265625 353.296875 C 138.945312 364.015625 141.984375 365.96875 141.984375 365.96875 L 144.390625 358.0625 C 144.390625 358.0625 149.152344 372.179688 159.109375 382.472656 C 169.0625 392.761719 189.820312 401.949219 189.820312 401.949219 C 189.820312 401.949219 185.398438 389.699219 179.273438 379.835938 C 173.144531 369.96875 168.296875 356.1875 165.320312 343.433594 C 162.339844 330.671875 161.660156 323.101562 163.703125 316.894531 C 165.746094 310.6875 172.296875 293.632812 172.296875 293.632812 C 172.296875 293.632812 164.640625 305.367188 154.300781 310.726562 C 156.472656 304.347656 161.832031 294.78125 163.746094 283.042969 C 165.660156 271.304688 165.53125 257.652344 165.277344 257.144531 C 165.019531 256.632812 168.851562 258.546875 169.105469 269.390625 C 173.316406 261.355469 175.359375 236.09375 169.105469 223.71875 C 162.851562 211.339844 157.875 209.425781 154.8125 215.679688 C 151.75 221.929688 148.6875 222.441406 145.496094 216.1875 C 142.304688 209.9375 140.773438 211.214844 134.519531 211.085938 C 128.265625 210.957031 110.78125 190.671875 110.78125 190.671875 " fill-opacity="1" fill-rule="nonzero"/><path fill="#ffffff" d="M 159.234375 120.332031 C 159.234375 120.332031 158.085938 114.082031 164.976562 115.570312 C 171.871094 117.058594 172.976562 129.136719 172.976562 129.136719 C 172.976562 129.136719 172.507812 133.601562 167.742188 129.941406 C 162.980469 126.285156 159.234375 120.332031 159.234375 120.332031 " fill-opacity="1" fill-rule="nonzero"/><path fill="#2d2d2d" d="M 76.070312 79.335938 C 76.070312 79.335938 76.515625 66.28125 86.664062 63.15625 C 96.808594 60.027344 102.421875 75.914062 102.421875 75.914062 C 102.421875 75.914062 105.421875 87.882812 96.871094 89.542969 C 88.320312 91.203125 82.28125 87.078125 79.003906 84.90625 C 75.730469 82.738281 76.070312 79.335938 76.070312 79.335938 " fill-opacity="1" fill-rule="nonzero"/><path fill="#dd9d98" d="M 201.328125 156.714844 C 201.328125 156.714844 211.050781 157.84375 219.34375 163.03125 C 227.640625 168.21875 231.9375 175.277344 231.9375 175.277344 C 231.9375 175.277344 233.074219 179.351562 224.429688 179.703125 C 215.78125 180.050781 212.113281 179.925781 207.488281 179.222656 C 202.859375 178.519531 198.140625 176.957031 198.140625 176.957031 C 198.140625 176.957031 199.734375 172.078125 200.371094 166.082031 C 201.011719 160.085938 201.328125 156.714844 201.328125 156.714844 " fill-opacity="1" fill-rule="nonzero"/><path fill="#c18380" d="M 200.371094 167.960938 C 200.371094 167.960938 212.792969 175.875 232.023438 175.789062 C 232.449219 178 228.449219 180.167969 218.835938 180.082031 C 209.21875 179.996094 200.289062 177.617188 200.289062 177.617188 L 198.246094 176.726562 C 198.246094 176.726562 199.945312 171.75 200.371094 167.960938 " fill-opacity="1" fill-rule="nonzero"/><path fill="#f47171" d="M 86.023438 126.5 C 86.023438 126.5 94.957031 137.121094 99.773438 140.023438 C 104.59375 142.925781 105.390625 142.796875 105.390625 142.796875 C 105.390625 142.796875 91.128906 146.019531 80.410156 139.769531 C 73.898438 134.027344 74.027344 129.347656 77.730469 127.5625 C 81.429688 125.777344 86.023438 126.5 86.023438 126.5 " fill-opacity="1" fill-rule="nonzero"/><g clip-path="url(#4512f57b0b)"><path fill="#000000" d="M 556.359375 465.695312 C 556.113281 466.71875 554.652344 467.644531 551.480469 468.789062 C 544.804688 471.1875 516.226562 468.78125 503.722656 454.535156 C 503.453125 454.226562 503.015625 454.125 502.636719 454.285156 C 502.257812 454.441406 502.019531 454.824219 502.050781 455.230469 C 502.277344 458.558594 501.996094 462.007812 501.457031 462.628906 C 498.566406 462.488281 480.238281 456.230469 472.839844 429.933594 C 472.78125 429.730469 472.65625 429.570312 472.503906 429.453125 C 473.21875 424.238281 474.132812 418.804688 474.554688 417.824219 C 475.214844 417.957031 477.324219 419.296875 479.042969 420.382812 C 481.929688 422.21875 484.921875 424.117188 486.542969 424.277344 C 486.917969 424.320312 487.257812 424.191406 487.523438 423.917969 C 488.835938 422.574219 488.328125 417.464844 487.523438 410.925781 C 487.257812 408.753906 487.027344 406.875 487.070312 406.113281 C 487.070312 406.054688 487.082031 406.023438 487.085938 406.019531 C 487.582031 405.550781 491.429688 407.53125 493.726562 408.71875 C 496.816406 410.3125 500.007812 411.957031 502.070312 412.226562 C 502.777344 412.316406 503.339844 412.136719 503.738281 411.695312 C 504.996094 410.3125 504.132812 406.597656 503.296875 403.011719 C 502.78125 400.789062 502.195312 398.273438 502.546875 397.648438 C 502.972656 396.886719 506.4375 398.542969 508.964844 399.753906 C 511.382812 400.910156 513.867188 402.097656 515.875 402.546875 C 520.828125 410.199219 526.785156 418.074219 533.046875 423.414062 C 531.96875 423.921875 529.921875 424.507812 526.675781 424.019531 C 526.292969 423.96875 525.910156 424.140625 525.710938 424.472656 C 525.515625 424.804688 525.535156 425.222656 525.765625 425.535156 C 525.941406 425.773438 543.605469 449.484375 551.105469 457.558594 C 554.082031 460.765625 556.78125 463.96875 556.359375 465.695312 Z M 471.554688 429.324219 C 471.199219 429.472656 470.953125 429.816406 470.964844 430.21875 C 471.050781 433.308594 470.882812 436.914062 470.503906 438.316406 C 467.371094 434.871094 454.492188 413.910156 456.035156 391.105469 C 456.628906 387.761719 457.394531 384.542969 458.175781 381.257812 C 460.257812 372.488281 462.414062 363.417969 462.128906 350.019531 C 461.609375 325.976562 449.425781 295.136719 433.601562 276.488281 C 439.921875 277.375 457.617188 281.070312 471.917969 295.570312 C 470.171875 295.703125 467.472656 295.789062 464.960938 295.371094 C 464.480469 295.289062 464.019531 295.582031 463.886719 296.046875 C 463.75 296.507812 463.980469 297.003906 464.425781 297.191406 C 464.691406 297.304688 490.417969 308.703125 499.066406 340.890625 C 496.683594 339.589844 492.730469 337.449219 490.9375 336.550781 C 490.554688 336.359375 490.089844 336.449219 489.800781 336.765625 C 489.511719 337.085938 489.472656 337.554688 489.703125 337.917969 C 489.761719 338.011719 495.554688 347.164062 501.277344 358.597656 C 504.46875 364.980469 506.828125 371.269531 508.726562 376.316406 C 509.664062 378.816406 510.449219 380.898438 511.132812 382.460938 C 509.335938 381.617188 506.730469 380.140625 504.238281 377.800781 C 503.902344 377.488281 503.394531 377.457031 503.023438 377.726562 C 502.652344 377.992188 502.523438 378.488281 502.714844 378.902344 C 503.0625 379.652344 507.949219 390.09375 515.101562 401.34375 C 513.347656 400.785156 511.273438 399.796875 509.378906 398.890625 C 505.578125 397.074219 502.578125 395.640625 501.714844 397.179688 C 501.207031 398.082031 501.632812 400.066406 502.367188 403.226562 C 503.074219 406.261719 503.949219 410.039062 503.03125 411.054688 C 502.917969 411.179688 502.707031 411.347656 502.191406 411.277344 C 500.296875 411.03125 497.039062 409.351562 494.167969 407.871094 C 490.054688 405.75 487.675781 404.582031 486.617188 405.1875 C 486.3125 405.359375 486.132812 405.671875 486.113281 406.0625 C 486.066406 406.910156 486.289062 408.734375 486.574219 411.042969 C 487.085938 415.1875 487.9375 422.128906 486.84375 423.25 C 486.769531 423.320312 486.710938 423.332031 486.636719 423.328125 C 485.242188 423.1875 482.085938 421.1875 479.554688 419.578125 C 475.792969 417.191406 474.464844 416.40625 473.875 417.109375 C 473.179688 417.941406 472.03125 425.863281 471.554688 429.324219 Z M 86.4375 128.070312 C 91.035156 133.671875 96.539062 138.796875 102.714844 142.417969 C 98.589844 142.9375 90.554688 143.429688 84.203125 140.652344 C 78.488281 138.152344 76.710938 135.484375 76.222656 133.683594 C 75.738281 131.882812 76.390625 130.472656 77.027344 129.605469 C 78.578125 127.488281 84.042969 127.742188 86.4375 128.070312 Z M 453.246094 409.949219 C 454.503906 424.144531 459.507812 434.625 463.164062 442.277344 C 465.410156 446.988281 467.1875 450.707031 467.1875 453.425781 C 467.1875 462.160156 464.609375 472.890625 458.824219 488.226562 C 455.925781 495.914062 453.046875 502.785156 450.503906 508.847656 C 447.1875 516.773438 444.5625 523.03125 443.398438 527.527344 C 442.921875 529.355469 442.679688 530.917969 442.460938 532.296875 C 441.75 536.839844 441.28125 539.84375 433.242188 546.792969 C 428.398438 550.980469 416.359375 557.789062 410.070312 552.101562 C 408.09375 550.308594 407.3125 547.753906 407.933594 545.089844 C 408.605469 542.210938 410.738281 539.929688 413.503906 539.144531 C 414.011719 538.996094 414.304688 538.46875 414.160156 537.960938 C 414.015625 537.453125 413.484375 537.160156 412.976562 537.304688 C 409.542969 538.285156 406.898438 541.101562 406.070312 544.65625 C 405.546875 546.910156 405.867188 549.152344 406.890625 551.066406 C 406.820312 551.074219 406.753906 551.070312 406.683594 551.09375 C 406.597656 551.125 398.171875 553.984375 395.808594 548.78125 C 394.863281 546.695312 394.710938 544.761719 395.359375 543.046875 C 396.492188 540.0625 399.6875 538.605469 399.714844 538.589844 C 400.199219 538.378906 400.417969 537.8125 400.203125 537.328125 C 399.988281 536.847656 399.425781 536.628906 398.941406 536.84375 C 398.785156 536.910156 395.003906 538.617188 393.582031 542.351562 C 392.84375 544.285156 392.875 546.382812 393.671875 548.597656 C 391.601562 549.195312 386.527344 550.042969 384.1875 544.898438 C 383.210938 542.738281 383.253906 540.484375 384.316406 538.195312 C 386.03125 534.496094 390.050781 531.648438 392.292969 531.011719 C 403.550781 527.820312 410.933594 522.917969 414.238281 516.441406 C 415.566406 513.835938 417.492188 509.808594 419.59375 505.007812 C 419.597656 504.996094 419.601562 504.984375 419.609375 504.96875 C 422.5 498.371094 425.71875 490.316406 428.183594 482.46875 C 428.191406 482.449219 428.195312 482.429688 428.203125 482.410156 C 430.40625 475.378906 432.003906 468.519531 432.207031 463.042969 C 432.800781 446.945312 415.492188 429.640625 408.976562 423.125 C 402.800781 416.953125 399.910156 410.417969 399.882812 410.351562 C 399.703125 409.9375 399.253906 409.703125 398.808594 409.800781 C 398.367188 409.890625 398.050781 410.28125 398.050781 410.734375 L 398.050781 417.703125 C 383.167969 407.667969 381.382812 389.351562 381.367188 389.160156 C 381.328125 388.738281 381.019531 388.390625 380.601562 388.308594 C 380.1875 388.226562 379.765625 388.425781 379.566406 388.796875 L 377.300781 393.105469 C 364.878906 378.839844 371.359375 361.890625 371.425781 361.71875 C 371.601562 361.273438 371.421875 360.769531 371.007812 360.535156 C 370.597656 360.300781 370.070312 360.402344 369.78125 360.78125 L 366.0625 365.589844 C 362.175781 347.488281 371.289062 329.757812 371.382812 329.574219 C 371.628906 329.105469 371.449219 328.527344 370.980469 328.285156 C 370.511719 328.039062 369.9375 328.21875 369.691406 328.6875 C 369.269531 329.488281 359.476562 348.515625 364.675781 368 C 364.769531 368.351562 365.054688 368.621094 365.410156 368.691406 C 365.769531 368.757812 366.132812 368.625 366.355469 368.339844 L 368.417969 365.671875 C 367.527344 370.410156 367.03125 378.164062 370.582031 386.140625 C 347.882812 384.164062 318.085938 389 281.9375 400.570312 C 265.289062 405.894531 246.664062 406.996094 242.441406 407.179688 C 242.230469 404.925781 241.945312 402.6875 241.632812 400.4375 C 240.613281 393.035156 244.03125 387.054688 250.242188 376.203125 C 250.800781 375.226562 251.378906 374.214844 251.976562 373.164062 C 259.226562 360.40625 263.078125 343.15625 263.117188 342.984375 C 263.230469 342.46875 262.90625 341.960938 262.390625 341.847656 C 261.871094 341.734375 261.363281 342.058594 261.25 342.574219 C 261.210938 342.746094 257.417969 359.71875 250.3125 372.21875 C 249.714844 373.269531 249.136719 374.28125 248.582031 375.25 C 242.375 386.101562 238.628906 392.648438 239.738281 400.703125 C 240.089844 403.246094 240.40625 405.722656 240.617188 408.191406 C 240.617188 408.195312 240.617188 408.195312 240.617188 408.199219 C 240.617188 408.199219 240.621094 408.203125 240.621094 408.207031 C 241.101562 413.851562 241.035156 419.433594 239.570312 425.613281 C 237.449219 434.546875 232.230469 464.328125 230.152344 478.550781 C 228.167969 492.152344 226.039062 518.691406 227.261719 524.480469 C 228.335938 529.59375 226.789062 536.867188 224.738281 540.675781 C 224.414062 541.277344 224.070312 541.976562 223.691406 542.75 C 221.777344 546.640625 218.882812 552.523438 213.546875 555.074219 C 209.207031 557.152344 198.585938 561.332031 193.792969 555.339844 C 191.542969 552.53125 192.355469 549.421875 193.035156 547.820312 C 194.199219 545.097656 196.457031 543.066406 197.757812 542.949219 C 198.28125 542.902344 198.671875 542.4375 198.621094 541.914062 C 198.574219 541.386719 198.121094 541 197.585938 541.046875 C 195.40625 541.242188 192.636719 543.890625 191.277344 547.070312 C 189.953125 550.179688 190.132812 553.21875 191.742188 555.738281 C 189.835938 557.074219 187.4375 557.488281 185.023438 556.847656 C 182.261719 556.117188 180.078125 554.136719 179.175781 551.542969 C 177.800781 547.582031 180.644531 543.5 183.765625 541 C 184.179688 540.671875 184.246094 540.070312 183.914062 539.65625 C 183.585938 539.246094 182.980469 539.175781 182.570312 539.511719 C 180.808594 540.917969 175.226562 546 177.371094 552.171875 C 177.5 552.542969 177.65625 552.90625 177.824219 553.257812 C 177.785156 553.257812 177.75 553.246094 177.710938 553.25 C 174.464844 553.746094 171.289062 552.980469 169.210938 551.195312 C 167.511719 549.734375 166.613281 547.667969 166.613281 545.214844 C 166.621094 535.902344 175.230469 532.386719 182.828125 529.289062 L 183.730469 528.921875 C 187.417969 527.433594 191.230469 525.890625 194.121094 523.042969 C 197.59375 519.625 197.890625 515.640625 198.207031 511.425781 C 198.25 510.8125 198.296875 510.1875 198.355469 509.558594 C 199.289062 499.265625 197.957031 435.066406 193.402344 412.578125 C 190.429688 397.914062 185.230469 388.425781 180.199219 379.246094 C 177.253906 373.871094 174.472656 368.800781 172.148438 362.792969 C 165.878906 346.578125 163.515625 327.464844 163.492188 327.273438 C 163.429688 326.75 162.960938 326.378906 162.429688 326.4375 C 161.90625 326.5 161.53125 326.976562 161.59375 327.503906 C 161.617188 327.695312 164.007812 347.039062 170.367188 363.480469 C 172.734375 369.605469 175.546875 374.734375 178.523438 380.167969 C 181.804688 386.152344 185.152344 392.28125 187.890625 399.898438 C 153.925781 387.535156 145.25 357.640625 145.164062 357.335938 C 145.046875 356.917969 144.675781 356.636719 144.226562 356.632812 C 143.789062 356.644531 143.414062 356.941406 143.3125 357.367188 C 142.484375 360.8125 142.046875 363.105469 141.8125 364.578125 C 132.964844 353.296875 128.703125 333.085938 127.972656 329.34375 C 136.023438 324.410156 148.121094 314.523438 151.570312 298.253906 C 151.679688 297.738281 151.347656 297.230469 150.832031 297.121094 C 150.316406 297.011719 149.808594 297.34375 149.699219 297.859375 C 145.335938 318.449219 126.429688 328.425781 121.160156 330.839844 C 121.324219 321.074219 115.875 311.699219 109.609375 300.925781 C 108.96875 299.824219 108.320312 298.710938 107.671875 297.582031 C 100.773438 285.59375 107.6875 261.976562 107.761719 261.738281 C 107.886719 261.316406 107.707031 260.867188 107.328125 260.640625 C 106.953125 260.417969 106.46875 260.484375 106.164062 260.796875 C 103.003906 264 101.03125 267.300781 99.992188 269.324219 C 94.621094 255.339844 103.898438 232.15625 103.996094 231.914062 C 104.140625 231.5625 104.0625 231.164062 103.800781 230.890625 C 103.535156 230.617188 103.136719 230.523438 102.78125 230.65625 C 100.488281 231.5 97.582031 233.417969 95.445312 234.964844 C 96.917969 231.636719 99.417969 226.207031 102.46875 220.378906 C 106.300781 213.070312 107.378906 200.683594 107.683594 194.722656 C 109.152344 197.125 110.882812 199.546875 113.023438 201.980469 C 113.210938 202.199219 113.476562 202.308594 113.742188 202.308594 C 113.964844 202.308594 114.191406 202.230469 114.371094 202.070312 C 114.769531 201.722656 114.808594 201.117188 114.457031 200.71875 C 108.417969 193.851562 105.667969 186.996094 103.007812 180.367188 C 102.011719 177.882812 100.980469 175.3125 99.792969 172.777344 C 96.886719 166.582031 88.492188 160.945312 81.746094 156.417969 C 77.960938 153.875 74.691406 151.675781 73.042969 149.882812 C 68.097656 144.5 63.226562 133.515625 66.933594 126.894531 C 70.210938 121.042969 79.023438 120.820312 81.148438 120.855469 C 82.273438 122.578125 83.484375 124.296875 84.78125 125.988281 C 81.933594 125.804688 77.332031 125.949219 75.480469 128.476562 C 74.238281 130.179688 73.84375 132.203125 74.375 134.179688 C 74.972656 136.382812 77.027344 139.601562 83.4375 142.402344 C 87.621094 144.234375 92.375 144.75 96.425781 144.75 C 100.847656 144.75 104.421875 144.136719 105.507812 143.925781 C 106.96875 144.648438 108.460938 145.289062 109.984375 145.824219 C 109.5 146.589844 108.84375 147.34375 107.9375 148.023438 C 107.515625 148.339844 107.429688 148.9375 107.746094 149.363281 C 107.933594 149.613281 108.222656 149.742188 108.511719 149.742188 C 108.710938 149.742188 108.914062 149.683594 109.085938 149.550781 C 114.15625 145.75 113.113281 140.128906 113.066406 139.890625 C 112.960938 139.371094 112.460938 139.03125 111.941406 139.136719 C 111.425781 139.238281 111.085938 139.742188 111.1875 140.261719 C 111.195312 140.289062 111.515625 142.035156 110.820312 144.09375 C 101.835938 141 93.945312 134.292969 87.75 126.699219 C 87.707031 126.621094 87.648438 126.558594 87.585938 126.496094 C 85.722656 124.195312 84.019531 121.820312 82.484375 119.433594 C 82.449219 119.378906 82.425781 119.324219 82.382812 119.273438 C 78.675781 113.480469 75.984375 107.671875 74.570312 102.921875 C 71.136719 91.40625 75.523438 84.980469 76.683594 83.539062 C 77.328125 84.550781 78.1875 85.5 79.265625 86.367188 C 82.6875 89.128906 87.804688 90.734375 92.492188 90.734375 C 94.09375 90.734375 95.644531 90.546875 97.0625 90.152344 C 99.519531 89.46875 101.390625 88.183594 102.476562 86.441406 C 102.578125 86.277344 102.65625 86.101562 102.746094 85.933594 C 105.152344 88.703125 119.433594 105.136719 125.492188 112.511719 C 127.527344 114.988281 128.714844 118.328125 130.09375 122.195312 C 133.007812 130.375 136.632812 140.5625 150.816406 147.042969 C 171.539062 156.515625 183.398438 166.628906 182.296875 189.835938 C 180.179688 188.78125 176.007812 186.632812 174.171875 185.207031 C 173.808594 184.925781 173.300781 184.9375 172.957031 185.238281 C 172.613281 185.535156 172.527344 186.035156 172.75 186.433594 C 173.0625 186.976562 180 199.554688 170.523438 213.460938 C 169.585938 211.554688 168 208.011719 167.578125 205.152344 C 167.566406 205.0625 167.558594 205 167.554688 204.96875 C 167.46875 204.453125 166.984375 204.097656 166.46875 204.179688 C 165.953125 204.257812 165.59375 204.734375 165.664062 205.253906 C 165.667969 205.304688 165.675781 205.355469 165.683594 205.410156 C 165.859375 206.847656 166.675781 218.554688 148.398438 227.007812 C 147.976562 224.980469 147.257812 220.472656 148.085938 216.351562 C 148.164062 215.960938 147.992188 215.5625 147.652344 215.351562 C 147.316406 215.140625 146.882812 215.164062 146.566406 215.402344 C 141.683594 219.140625 133.195312 224.769531 130.082031 224.847656 C 129.117188 222.636719 125.421875 214.179688 123.875 211.347656 C 123.621094 210.886719 123.042969 210.714844 122.578125 210.964844 C 122.113281 211.21875 121.945312 211.800781 122.199219 212.261719 C 123.898438 215.382812 128.503906 226.019531 128.550781 226.125 C 128.671875 226.410156 128.925781 226.617188 129.226562 226.679688 C 132.8125 227.445312 141.695312 221.363281 145.882812 218.300781 C 145.433594 223.496094 146.742188 228.375 146.804688 228.609375 C 146.878906 228.878906 147.066406 229.101562 147.316406 229.222656 C 147.445312 229.285156 147.585938 229.316406 147.730469 229.316406 C 147.859375 229.316406 147.988281 229.289062 148.113281 229.234375 C 155.347656 226.066406 159.910156 222.371094 162.800781 218.832031 C 165.035156 222.457031 172.25 236.019531 170.261719 257.300781 C 168.855469 256.738281 165.3125 255.28125 163.972656 254.386719 C 163.804688 254.277344 163.582031 254.28125 163.417969 254.402344 C 163.257812 254.527344 163.1875 254.734375 163.25 254.929688 C 163.308594 255.121094 169.039062 274.097656 158.085938 295.476562 C 156.84375 294.066406 153.507812 290.304688 152.746094 289.582031 C 152.558594 289.398438 152.253906 289.40625 152.074219 289.597656 C 151.890625 289.785156 151.898438 290.089844 152.089844 290.273438 C 152.976562 291.117188 157.78125 296.578125 157.828125 296.628906 C 157.917969 296.734375 158.050781 296.792969 158.1875 296.792969 C 158.207031 296.792969 158.226562 296.792969 158.242188 296.789062 C 158.402344 296.769531 158.539062 296.675781 158.609375 296.535156 C 168.605469 277.550781 165.527344 260.265625 164.457031 255.773438 C 166.652344 256.925781 170.320312 258.355469 170.503906 258.425781 C 170.644531 258.480469 170.800781 258.464844 170.925781 258.386719 C 171.054688 258.308594 171.136719 258.175781 171.152344 258.027344 C 173.425781 235.546875 165.53125 221.359375 163.429688 218.039062 C 165.496094 215.289062 166.585938 212.667969 167.128906 210.503906 C 168.207031 213.300781 169.464844 215.597656 169.550781 215.75 C 169.707031 216.035156 169.996094 216.222656 170.320312 216.246094 C 170.640625 216.265625 170.957031 216.125 171.152344 215.863281 C 174.945312 210.808594 176.605469 205.824219 177.128906 201.398438 C 178.597656 204.652344 181.410156 210.152344 185.421875 214.734375 C 190.496094 220.53125 193.78125 228.878906 194.671875 231.308594 C 193.097656 231.160156 189.25 230.683594 185.960938 229.367188 C 185.769531 229.292969 185.554688 229.34375 185.421875 229.496094 C 185.289062 229.652344 185.265625 229.875 185.371094 230.050781 C 185.460938 230.207031 194.363281 245.984375 189.199219 266.929688 L 183.65625 261.484375 C 183.5 261.332031 183.261719 261.304688 183.074219 261.417969 C 182.886719 261.527344 182.800781 261.753906 182.863281 261.960938 C 182.921875 262.15625 188.488281 281.503906 177.914062 299.78125 L 173.6875 293.4375 C 173.59375 293.292969 173.429688 293.214844 173.257812 293.226562 C 173.085938 293.238281 172.933594 293.339844 172.859375 293.5 C 172.289062 294.710938 158.871094 323.351562 159.160156 334.660156 C 159.167969 334.921875 159.378906 335.125 159.636719 335.125 L 159.652344 335.125 C 159.914062 335.121094 160.125 334.902344 160.117188 334.636719 C 159.859375 324.566406 171.191406 299.40625 173.367188 294.675781 L 177.542969 300.945312 C 177.632812 301.085938 177.777344 301.152344 177.949219 301.160156 C 178.113281 301.15625 178.265625 301.066406 178.347656 300.929688 C 187.785156 285.21875 185.296875 268.546875 184.179688 263.335938 L 189.125 268.195312 C 189.246094 268.316406 189.421875 268.363281 189.585938 268.316406 C 189.75 268.269531 189.878906 268.140625 189.921875 267.976562 C 194.773438 249.46875 188.71875 234.734375 186.765625 230.683594 C 190.84375 232.058594 195.144531 232.308594 195.34375 232.320312 C 195.496094 232.324219 195.652344 232.261719 195.75 232.136719 C 195.84375 232.007812 195.875 231.84375 195.824219 231.691406 C 195.789062 231.589844 192.234375 221.066406 186.144531 214.105469 C 181.410156 208.699219 178.371094 201.980469 177.292969 199.378906 C 177.503906 194.792969 176.554688 190.949219 175.691406 188.476562 C 178.730469 190.261719 182.542969 192.085938 182.753906 192.191406 C 183.042969 192.328125 183.375 192.3125 183.652344 192.152344 C 183.925781 191.996094 184.101562 191.710938 184.121094 191.390625 C 185.851562 166.175781 172.964844 155.0625 151.613281 145.304688 C 138.160156 139.15625 134.832031 129.804688 131.894531 121.550781 C 130.519531 117.683594 129.21875 114.035156 126.972656 111.300781 C 120.355469 103.25 103.996094 84.457031 103.832031 84.273438 C 103.753906 84.179688 103.660156 84.113281 103.558594 84.058594 C 104.328125 81.574219 104.230469 78.765625 103.519531 76.011719 C 110.925781 81.457031 132.480469 97.199219 137.152344 99.410156 C 140.554688 101.023438 144.667969 100.917969 148.640625 100.816406 C 150.863281 100.757812 152.960938 100.703125 154.855469 100.941406 C 175.828125 103.597656 193.496094 124.511719 201.566406 143.511719 C 197.410156 143.472656 194.601562 144.015625 194.308594 144.074219 C 193.789062 144.183594 193.457031 144.683594 193.558594 145.203125 C 193.664062 145.71875 194.171875 146.058594 194.6875 145.949219 C 194.761719 145.933594 197.847656 145.34375 202.398438 145.492188 C 202.574219 145.785156 202.878906 145.96875 203.214844 145.96875 C 203.332031 145.96875 203.449219 145.945312 203.5625 145.902344 C 203.734375 145.835938 203.863281 145.714844 203.964844 145.574219 C 210.4375 146.011719 219.21875 148.023438 226.683594 154.726562 C 237.515625 164.445312 249.90625 176.449219 249.609375 183.011719 C 249.40625 187.464844 240.804688 187.953125 232.488281 188.425781 C 230.664062 188.527344 228.777344 188.632812 226.957031 188.78125 C 225.316406 188.914062 223.503906 189.136719 221.585938 189.367188 C 210.996094 190.648438 196.492188 192.410156 186.460938 182.378906 C 186.085938 182.007812 185.480469 182.007812 185.105469 182.378906 C 184.734375 182.753906 184.734375 183.359375 185.105469 183.730469 C 191.949219 190.570312 200.570312 192.285156 208.773438 192.285156 C 213.070312 192.285156 217.234375 191.816406 220.984375 191.363281 C 222.40625 193.617188 228.347656 202.152344 239.441406 207.027344 C 237.816406 207.769531 234.789062 208.695312 229.972656 208.527344 C 229.554688 208.503906 229.160156 208.78125 229.027344 209.191406 C 228.898438 209.597656 229.050781 210.039062 229.40625 210.277344 C 229.527344 210.359375 240.808594 217.960938 244.914062 226.972656 C 242.566406 226.378906 238.460938 225.316406 235.71875 224.539062 C 235.671875 224.523438 235.625 224.53125 235.578125 224.523438 C 235.507812 224.515625 235.441406 224.503906 235.371094 224.507812 C 235.300781 224.515625 235.234375 224.539062 235.167969 224.5625 C 235.125 224.578125 235.074219 224.578125 235.03125 224.601562 C 235.023438 224.605469 235.019531 224.609375 235.015625 224.613281 C 234.949219 224.644531 234.902344 224.699219 234.847656 224.746094 C 234.804688 224.78125 234.757812 224.804688 234.722656 224.847656 C 234.691406 224.882812 234.675781 224.933594 234.652344 224.972656 C 234.613281 225.039062 234.570312 225.101562 234.546875 225.175781 C 234.546875 225.179688 234.539062 225.1875 234.539062 225.191406 C 234.523438 225.238281 234.535156 225.285156 234.527344 225.332031 C 234.515625 225.402344 234.503906 225.46875 234.511719 225.542969 C 234.515625 225.613281 234.542969 225.675781 234.566406 225.746094 C 234.578125 225.789062 234.578125 225.835938 234.601562 225.878906 C 234.730469 226.140625 247.941406 251.949219 281.53125 256.023438 C 294.398438 257.585938 306.667969 258.953125 318.582031 259.628906 C 318.609375 259.632812 318.636719 259.648438 318.664062 259.648438 C 318.6875 259.648438 318.710938 259.640625 318.734375 259.636719 C 332.53125 260.410156 345.847656 260.253906 359.054688 258.34375 C 380.460938 255.25 409.742188 255.265625 427.675781 272.890625 C 445.367188 290.28125 459.660156 324.179688 460.214844 350.0625 C 460.5 363.214844 458.371094 372.164062 456.316406 380.816406 C 454.199219 389.722656 452.199219 398.128906 453.246094 409.949219 Z M 367.703125 426.425781 C 369.183594 435.367188 371.453125 442.550781 373.273438 448.324219 C 374.871094 453.378906 376.132812 457.371094 376.265625 460.578125 C 376.546875 467.464844 369.402344 480.816406 366.351562 486.515625 C 366.273438 486.667969 362.226562 494.351562 358.140625 502.859375 C 358.125 502.886719 358.113281 502.910156 358.101562 502.941406 C 353.992188 511.5 349.855469 520.871094 349.683594 524.234375 C 349.414062 529.503906 348.574219 532.769531 344.921875 534.933594 L 344.449219 535.214844 C 340.691406 537.445312 335.546875 540.507812 325.59375 541.1875 C 320.714844 541.523438 318.640625 538.710938 318.332031 535.96875 C 317.929688 532.445312 320.128906 528.390625 324.5 527.695312 C 325.019531 527.613281 325.375 527.125 325.292969 526.601562 C 325.210938 526.082031 324.722656 525.726562 324.199219 525.808594 C 318.699219 526.679688 315.929688 531.769531 316.429688 536.183594 C 316.527344 537.023438 316.757812 537.890625 317.140625 538.710938 C 315.007812 539.390625 309.949219 540.53125 307.390625 537.140625 C 305.886719 535.140625 306.003906 532.878906 306.367188 531.328125 C 307.03125 528.5 308.992188 525.984375 310.105469 525.429688 C 310.578125 525.191406 310.769531 524.617188 310.535156 524.144531 C 310.300781 523.675781 309.726562 523.484375 309.25 523.71875 C 307.582031 524.554688 305.292969 527.53125 304.503906 530.894531 C 304.152344 532.386719 304.132812 533.8125 304.425781 535.132812 C 302.949219 535.546875 298.058594 536.542969 296.023438 532.097656 C 293.457031 526.488281 298.4375 520.144531 303.019531 517.722656 C 304.730469 516.816406 307.738281 516.113281 310.917969 515.367188 C 317.175781 513.894531 324.960938 512.066406 328.855469 507.476562 C 334.679688 500.605469 342.246094 482.804688 343.730469 475.691406 C 345.246094 468.425781 345.15625 455.945312 338.703125 451.339844 C 333.148438 447.371094 322.976562 438.894531 319.328125 433.027344 C 319.097656 432.652344 318.636719 432.480469 318.222656 432.625 C 317.800781 432.757812 317.53125 433.164062 317.566406 433.605469 L 317.902344 438.042969 C 305.457031 432.078125 304.132812 418.582031 304.117188 418.441406 C 304.078125 417.980469 303.714844 417.613281 303.25 417.574219 C 302.789062 417.53125 302.363281 417.828125 302.246094 418.277344 C 301.738281 420.148438 300.644531 421.503906 299.960938 422.203125 C 292.699219 414.789062 294.058594 399.222656 294.070312 399.0625 C 294.078125 398.996094 294.058594 398.9375 294.050781 398.875 C 325.375 389.769531 351.410156 386.152344 371.554688 388.136719 C 372.082031 389.121094 372.675781 390.109375 373.339844 391.089844 C 371.988281 394.1875 365.144531 410.929688 367.703125 426.425781 Z M 155.640625 541.007812 C 153.949219 539.4375 153.820312 537.402344 154.007812 535.96875 C 154.386719 533.097656 156.363281 530.257812 158.925781 528.902344 C 159.390625 528.65625 159.570312 528.078125 159.320312 527.613281 C 159.074219 527.144531 158.496094 526.96875 158.027344 527.214844 C 154.894531 528.871094 152.574219 532.210938 152.113281 535.71875 C 151.925781 537.148438 152.078125 538.488281 152.523438 539.6875 C 151.09375 540.105469 148.292969 540.671875 146.058594 539.59375 C 144.644531 538.914062 143.660156 537.640625 143.128906 535.800781 C 141.03125 528.582031 147.546875 525.570312 147.824219 525.449219 C 148.308594 525.234375 148.527344 524.671875 148.3125 524.1875 C 148.097656 523.707031 147.535156 523.488281 147.050781 523.699219 C 146.972656 523.734375 139.597656 527.09375 140.972656 534.949219 C 138.976562 534.539062 135.320312 533.101562 135.320312 528.058594 C 135.320312 521.925781 140.3125 519.65625 146.632812 516.78125 C 147.695312 516.296875 148.785156 515.800781 149.886719 515.269531 C 151.917969 514.292969 153.761719 513.558594 155.390625 512.914062 C 160.167969 511.015625 163.621094 509.640625 166.570312 504.425781 C 171 496.589844 167.78125 468.644531 166.6875 460.273438 C 164.878906 446.398438 158.75 421.375 152.003906 405.140625 C 150.53125 401.59375 148.71875 397.644531 146.800781 393.46875 C 140.742188 380.253906 133.398438 364.234375 132.09375 350.582031 C 134.507812 356.746094 137.703125 363.007812 141.789062 367.523438 C 142.054688 367.816406 142.46875 367.910156 142.839844 367.773438 C 143.207031 367.636719 143.449219 367.28125 143.457031 366.890625 C 143.457031 366.875 143.488281 365.433594 144.445312 361 C 147.785156 369.371094 159.328125 392.167969 188.691406 402.21875 C 189.765625 405.492188 190.734375 409.03125 191.527344 412.957031 C 196.054688 435.3125 197.382812 499.152344 196.449219 509.386719 C 196.390625 510.027344 196.34375 510.660156 196.296875 511.28125 C 196 515.296875 195.738281 518.765625 192.777344 521.679688 C 190.160156 524.261719 186.527344 525.730469 183.011719 527.152344 L 182.105469 527.519531 C 174.964844 530.433594 166.226562 534.003906 164.882812 542.832031 C 163.246094 543.15625 158.609375 543.761719 155.640625 541.007812 Z M 77.222656 78.566406 C 77.46875 74.363281 79.628906 68.316406 84.898438 65.097656 C 86.371094 64.195312 87.796875 63.847656 89.125 63.847656 C 92.53125 63.847656 95.300781 66.15625 96.566406 67.433594 C 101.160156 72.0625 103.980469 80.398438 100.851562 85.433594 C 100.023438 86.761719 98.535156 87.757812 96.546875 88.3125 C 91.617188 89.683594 84.550781 88.175781 80.46875 84.882812 C 78.890625 83.609375 77.050781 81.480469 77.222656 78.566406 Z M 528.582031 426.109375 C 533.238281 426.230469 535.25 424.285156 535.339844 424.1875 C 535.535156 423.996094 535.632812 423.730469 535.621094 423.460938 C 535.605469 423.1875 535.476562 422.9375 535.265625 422.769531 C 522.675781 412.65625 510.800781 390.761719 506.328125 381.917969 C 509.8125 384.296875 512.742188 385.175781 512.898438 385.226562 C 513.289062 385.339844 513.710938 385.195312 513.945312 384.867188 C 514.183594 384.535156 514.1875 384.09375 513.953125 383.757812 C 513.113281 382.5625 511.964844 379.507812 510.515625 375.644531 C 508.605469 370.550781 506.222656 364.214844 502.988281 357.746094 C 502.402344 356.578125 501.820312 355.4375 501.238281 354.324219 C 499.582031 351.136719 501.238281 354.324219 499.597656 351.21875 C 497.015625 346.417969 494.667969 342.402344 493.132812 339.855469 C 496.222656 341.507812 500.019531 343.585938 500.074219 343.617188 C 500.402344 343.796875 500.8125 343.769531 501.113281 343.539062 C 501.414062 343.308594 501.550781 342.925781 501.464844 342.554688 C 495.085938 315.835938 477.246094 302.425781 469.199219 297.59375 C 471.875 297.589844 473.964844 297.28125 474.097656 297.261719 C 474.445312 297.207031 474.738281 296.964844 474.855469 296.628906 C 474.972656 296.296875 474.894531 295.925781 474.652344 295.664062 C 457.5625 277.21875 434.9375 274.625 431.714844 274.34375 C 430.820312 273.371094 429.925781 272.421875 429.015625 271.53125 C 410.527344 253.351562 380.617188 253.300781 358.78125 256.453125 C 346.144531 258.28125 333.375 258.484375 320.15625 257.800781 C 318.121094 257.695312 320.15625 257.800781 318.097656 257.6875 C 306.417969 257.003906 294.382812 255.660156 281.761719 254.128906 C 254.648438 250.835938 241.253906 233 237.472656 227.003906 C 241.410156 228.070312 246.207031 229.273438 246.265625 229.285156 C 246.339844 229.304688 246.417969 229.316406 246.496094 229.316406 C 246.761719 229.316406 247.015625 229.207031 247.203125 229.007812 C 247.4375 228.746094 247.515625 228.378906 247.402344 228.050781 C 244.738281 220.285156 236.855469 213.480469 232.847656 210.410156 C 239.40625 210.046875 242.089844 207.691406 242.214844 207.578125 C 242.460938 207.355469 242.574219 207.019531 242.511719 206.695312 C 242.449219 206.367188 242.226562 206.09375 241.914062 205.976562 C 231.40625 201.949219 225.210938 194.132812 223.117188 191.109375 C 224.535156 190.941406 225.878906 190.789062 227.109375 190.6875 C 228.910156 190.542969 230.785156 190.4375 232.597656 190.332031 C 242.183594 189.789062 251.238281 189.273438 251.519531 183.101562 C 251.785156 177.273438 244.738281 168.367188 227.960938 153.304688 C 219.847656 146.019531 210.460938 143.960938 203.660156 143.582031 C 195.539062 123.867188 177.121094 101.835938 155.09375 99.042969 C 153.054688 98.789062 150.789062 98.84375 148.59375 98.902344 C 144.839844 99 140.960938 99.101562 137.96875 97.683594 C 132.828125 95.25 105.058594 74.777344 102.410156 72.820312 C 101.304688 70.277344 99.738281 67.917969 97.921875 66.085938 C 93.527344 61.660156 88.417969 60.707031 83.902344 63.464844 C 78 67.070312 75.585938 73.789062 75.3125 78.453125 C 75.246094 79.589844 75.414062 80.695312 75.796875 81.753906 C 75.714844 81.796875 75.632812 81.84375 75.5625 81.914062 C 75.273438 82.214844 68.558594 89.449219 72.734375 103.46875 C 74.082031 107.988281 76.554688 113.441406 79.945312 118.949219 C 76.398438 119.054688 68.613281 119.984375 65.265625 125.960938 C 61.113281 133.371094 66.296875 145.367188 71.632812 151.175781 C 73.4375 153.140625 76.792969 155.394531 80.679688 158.003906 C 87.230469 162.402344 95.378906 167.875 98.058594 173.589844 C 99.226562 176.074219 100.246094 178.621094 101.234375 181.082031 C 102.613281 184.519531 104.019531 188.015625 105.882812 191.554688 C 105.835938 193.753906 105.335938 210.789062 100.777344 219.496094 C 95.792969 229.007812 92.265625 237.492188 92.234375 237.578125 C 92.066406 237.980469 92.195312 238.449219 92.546875 238.710938 C 92.898438 238.972656 93.382812 238.960938 93.71875 238.683594 C 93.769531 238.644531 97.859375 235.320312 101.390625 233.40625 C 100.738281 235.234375 99.796875 238.0625 98.90625 241.453125 C 98.429688 243.347656 98.90625 241.453125 98.429688 243.347656 C 96.316406 252.144531 94.878906 263.859375 99.128906 272.070312 C 99.304688 272.402344 99.648438 272.601562 100.03125 272.585938 C 100.410156 272.566406 100.738281 272.324219 100.871094 271.972656 C 100.886719 271.933594 102.117188 268.792969 104.902344 265.15625 C 103.175781 272.617188 100.410156 288.796875 106.015625 298.535156 C 106.667969 299.664062 107.316406 300.78125 107.957031 301.886719 C 114.390625 312.953125 119.949219 322.511719 119.179688 332.25 C 119.152344 332.578125 119.296875 332.894531 119.558594 333.089844 C 119.726562 333.214844 119.925781 333.28125 120.132812 333.28125 C 120.246094 333.28125 120.359375 333.261719 120.46875 333.21875 C 120.546875 333.191406 122.871094 332.28125 126.222656 330.375 C 126.714844 332.828125 127.929688 338.402344 130.015625 344.78125 C 129.332031 359.953125 138.050781 378.96875 145.066406 394.265625 C 146.242188 396.835938 147.371094 399.300781 148.414062 401.652344 C 150.238281 405.875 150.191406 405.761719 150.238281 405.875 C 156.921875 421.960938 162.996094 446.765625 164.789062 460.515625 C 166.566406 474.117188 167.765625 491.09375 166.144531 499.621094 L 165.695312 501.527344 C 165.46875 502.296875 165.207031 502.953125 164.90625 503.484375 C 162.289062 508.113281 159.261719 509.316406 154.683594 511.136719 C 153.027344 511.792969 151.148438 512.542969 149.054688 513.546875 C 147.96875 514.074219 146.890625 514.5625 145.84375 515.039062 C 139.171875 518.074219 133.410156 520.699219 133.410156 528.058594 C 133.410156 534.511719 138.367188 536.65625 141.507812 536.976562 C 142.238281 539.015625 143.484375 540.480469 145.226562 541.316406 C 146.472656 541.917969 147.816406 542.125 149.078125 542.125 C 150.914062 542.125 152.550781 541.691406 153.457031 541.398438 C 153.71875 541.757812 154.007812 542.097656 154.339844 542.410156 C 156.613281 544.515625 159.558594 545.039062 161.925781 545.039062 C 163.023438 545.039062 163.992188 544.929688 164.714844 544.808594 C 164.710938 544.945312 164.699219 545.074219 164.699219 545.214844 C 164.699219 548.238281 165.828125 550.808594 167.964844 552.644531 C 169.972656 554.371094 172.792969 555.308594 175.789062 555.308594 C 176.519531 555.308594 177.257812 555.253906 178 555.140625 C 178.300781 555.09375 178.535156 554.90625 178.671875 554.664062 C 180.054688 556.605469 182.109375 558.054688 184.535156 558.695312 C 185.425781 558.933594 186.324219 559.046875 187.214844 559.046875 C 189.28125 559.046875 191.28125 558.421875 192.941406 557.234375 C 195.152344 559.515625 198.09375 560.332031 201.15625 560.332031 C 206.1875 560.332031 211.523438 558.164062 214.375 556.800781 C 220.304688 553.964844 223.375 547.722656 225.40625 543.589844 C 225.773438 542.84375 226.109375 542.164062 226.421875 541.578125 C 228.683594 537.386719 230.3125 529.695312 229.132812 524.085938 C 228.535156 521.253906 228.835938 512.226562 229.582031 502.246094 C 229.722656 500.410156 229.761719 500.402344 229.722656 500.410156 C 230.324219 492.824219 231.164062 484.886719 232.046875 478.828125 C 234.085938 464.851562 239.160156 435.855469 241.332031 426.488281 C 241.835938 424.164062 241.332031 426.488281 241.835938 424.164062 C 242.871094 418.890625 242.945312 413.9375 242.597656 409.089844 C 247.066406 408.886719 265.769531 407.746094 282.519531 402.386719 C 285.78125 401.34375 288.96875 400.375 292.125 399.441406 C 291.917969 402.519531 291.394531 417.132812 299.308594 424.222656 C 299.648438 424.53125 300.160156 424.550781 300.527344 424.273438 C 300.597656 424.21875 301.761719 423.320312 302.796875 421.6875 C 303.34375 423.832031 304.367188 426.851562 306.253906 429.941406 C 308.769531 433.390625 306.253906 429.941406 308.769531 433.390625 C 311.125 436.144531 314.300781 438.703125 318.621094 440.449219 C 318.925781 440.570312 319.277344 440.53125 319.542969 440.335938 C 319.808594 440.140625 319.957031 439.820312 319.929688 439.488281 L 319.726562 436.820312 C 324.40625 442.554688 332.734375 449.429688 337.589844 452.894531 C 343.257812 456.941406 343.21875 468.785156 341.859375 475.300781 C 340.679688 480.957031 335.433594 493.699219 330.566406 501.703125 C 329.363281 503.589844 330.566406 501.703125 329.363281 503.589844 C 328.6875 504.59375 328.027344 505.496094 327.394531 506.242188 C 323.910156 510.351562 316.464844 512.097656 310.480469 513.503906 C 307.03125 514.3125 304.054688 515.011719 302.128906 516.035156 C 296.105469 519.21875 291.394531 526.570312 294.285156 532.894531 C 295.898438 536.421875 298.988281 537.441406 301.71875 537.441406 C 302.96875 537.441406 304.125 537.222656 305.050781 536.941406 C 305.277344 537.410156 305.542969 537.863281 305.863281 538.292969 C 307.675781 540.695312 310.296875 541.386719 312.714844 541.386719 C 315.023438 541.386719 317.140625 540.757812 318.199219 540.382812 C 319.535156 541.972656 321.671875 543.128906 324.796875 543.128906 C 325.09375 543.128906 325.402344 543.117188 325.722656 543.097656 C 336.132812 542.382812 341.503906 539.1875 345.425781 536.855469 L 345.898438 536.578125 C 350.269531 533.988281 351.296875 530.128906 351.59375 524.332031 C 351.742188 521.46875 355.535156 512.761719 359.582031 504.269531 C 360.488281 502.378906 359.582031 504.269531 360.488281 502.378906 C 363.433594 496.273438 366.378906 490.519531 368.039062 487.417969 C 371.429688 481.085938 378.476562 467.910156 378.175781 460.5 C 378.03125 457.039062 376.738281 452.9375 375.101562 447.746094 C 374.863281 447.003906 375.101562 447.746094 373.78125 443.511719 C 372.289062 438.617188 370.707031 432.867188 369.59375 426.117188 C 367.359375 412.597656 372.757812 397.613281 374.660156 392.902344 C 375.320312 393.75 376.03125 394.585938 376.8125 395.417969 C 377.027344 395.640625 377.328125 395.75 377.636719 395.710938 C 377.941406 395.667969 378.210938 395.480469 378.355469 395.207031 L 379.90625 392.265625 C 381.078125 398.316406 385.148438 412.203125 398.511719 420.265625 C 398.808594 420.441406 399.175781 420.449219 399.476562 420.277344 C 399.777344 420.109375 399.960938 419.792969 399.960938 419.445312 L 399.960938 414.589844 C 401.488281 417.167969 404 420.855469 407.625 424.480469 C 413.980469 430.832031 430.859375 447.707031 430.296875 462.972656 C 430.121094 467.667969 428.886719 473.421875 427.117188 479.429688 C 426.285156 482.167969 427.117188 479.429688 426.285156 482.167969 C 423.929688 489.617188 420.882812 497.265625 418.109375 503.632812 C 417.277344 505.53125 418.109375 503.632812 417.277344 505.53125 C 415.414062 509.714844 413.730469 513.226562 412.535156 515.570312 C 409.484375 521.554688 402.496094 526.128906 391.773438 529.171875 C 389.199219 529.902344 384.644531 532.933594 382.578125 537.386719 C 381.292969 540.167969 381.246094 543.035156 382.449219 545.6875 C 384.300781 549.765625 387.65625 550.96875 390.679688 550.96875 C 392.085938 550.96875 393.410156 550.707031 394.484375 550.355469 C 396.144531 553.101562 399.0625 553.835938 401.699219 553.835938 C 404.570312 553.835938 407.109375 552.972656 407.316406 552.902344 C 407.539062 552.820312 407.703125 552.664062 407.8125 552.476562 C 408.109375 552.839844 408.429688 553.195312 408.789062 553.519531 C 410.882812 555.414062 413.472656 556.179688 416.242188 556.179688 C 422.699219 556.179688 430.128906 552.011719 434.492188 548.238281 C 443.058594 540.828125 443.601562 537.375 444.351562 532.59375 C 444.574219 531.195312 444.796875 529.746094 445.25 528.007812 C 446.382812 523.640625 448.980469 517.441406 452.269531 509.585938 C 452.71875 508.515625 452.269531 509.585938 454.441406 504.386719 C 456.359375 499.765625 458.402344 494.738281 460.460938 489.292969 C 461.328125 486.972656 460.460938 489.292969 461.328125 486.972656 C 466.6875 472.4375 469.101562 462.019531 469.101562 453.425781 C 469.101562 450.273438 467.242188 446.382812 464.886719 441.453125 C 461.296875 433.933594 456.378906 423.632812 455.152344 409.777344 C 455.03125 408.398438 454.953125 407.066406 454.910156 405.777344 C 458.070312 424.800781 468.417969 439.535156 470.007812 440.402344 C 470.460938 440.648438 470.960938 440.640625 471.378906 440.382812 C 472.101562 439.941406 472.570312 438.441406 472.78125 435.917969 C 481.4375 459.097656 498.519531 464.542969 501.550781 464.542969 C 501.882812 464.542969 502.375 464.445312 502.820312 463.96875 C 503.847656 462.867188 504.058594 459.921875 504.046875 457.632812 C 514.347656 467.441406 533.097656 471.527344 544.539062 471.527344 C 547.769531 471.527344 550.421875 471.199219 552.128906 470.585938 C 555.425781 469.398438 557.722656 468.191406 558.21875 466.144531 C 558.824219 463.667969 556.582031 460.644531 552.507812 456.257812 C 546.25 449.523438 532.792969 431.714844 528.582031 426.109375 " fill-opacity="1" fill-rule="nonzero"/></g><path fill="#000000" d="M 201.652344 157.179688 C 217.535156 159.507812 225.019531 167.695312 228.640625 171.652344 L 229.003906 172.054688 C 230.402344 173.574219 231.765625 175.296875 231.277344 176.523438 C 230.675781 178.027344 227.367188 178.992188 221.449219 179.382812 C 210.164062 180.136719 201.011719 177.394531 198.898438 176.699219 C 201.335938 170.179688 201.621094 159.714844 201.652344 157.179688 Z M 198.109375 177.4375 C 198.199219 177.472656 206.433594 180.46875 217.535156 180.46875 C 218.824219 180.46875 220.15625 180.429688 221.515625 180.339844 C 228.007812 179.90625 231.390625 178.804688 232.164062 176.878906 C 232.851562 175.164062 231.390625 173.234375 229.710938 171.40625 L 229.34375 171.007812 C 225.609375 166.921875 217.839844 158.425781 201.242188 156.15625 C 201.105469 156.136719 200.96875 156.179688 200.863281 156.269531 C 200.761719 156.359375 200.699219 156.492188 200.699219 156.628906 C 200.699219 156.761719 200.667969 169.75 197.832031 176.8125 C 197.78125 176.933594 197.785156 177.066406 197.835938 177.183594 C 197.890625 177.300781 197.988281 177.390625 198.109375 177.4375 " fill-opacity="1" fill-rule="nonzero"/><path fill="#000000" d="M 161.292969 137.878906 C 160.351562 134.050781 158.859375 130.34375 156.953125 126.902344 C 153.03125 119.820312 149.472656 119.03125 147.292969 119.894531 C 145.113281 120.765625 147.292969 123.230469 149.617188 125.847656 C 151.773438 128.269531 153.613281 131.027344 155.320312 133.777344 C 156.722656 136.035156 157.488281 138.664062 159.089844 140.800781 C 159.722656 141.648438 161.023438 142.851562 161.800781 141.605469 C 162.019531 141.257812 161.992188 140.675781 161.875 140.050781 C 161.722656 139.246094 161.417969 138.378906 161.292969 137.878906 " fill-opacity="1" fill-rule="nonzero"/><path fill="#000000" d="M 171.101562 130.25 C 170.273438 130.613281 168.765625 130.121094 167.933594 129.457031 C 166.589844 128.378906 162.902344 124.007812 161.007812 121.242188 C 160.199219 120.058594 159.984375 118.820312 160.445312 118.007812 C 160.851562 117.292969 161.804688 116.910156 163.15625 116.910156 C 163.3125 116.910156 163.476562 116.914062 163.644531 116.925781 C 166.894531 117.128906 169.433594 120.25 170.730469 123.101562 C 171.601562 125.019531 172.027344 127.050781 171.902344 128.675781 C 171.804688 129.945312 171.273438 130.175781 171.101562 130.25 Z M 172.472656 122.3125 C 170.945312 118.953125 167.859375 115.273438 163.765625 115.019531 C 160.554688 114.824219 159.265625 116.214844 158.78125 117.0625 C 157.957031 118.515625 158.203125 120.53125 159.429688 122.320312 C 161.269531 125.007812 165.144531 129.671875 166.738281 130.949219 C 167.507812 131.5625 168.988281 132.285156 170.433594 132.285156 C 170.921875 132.285156 171.410156 132.203125 171.863281 132.007812 C 172.664062 131.65625 173.65625 130.820312 173.808594 128.824219 C 173.960938 126.859375 173.484375 124.546875 172.472656 122.3125 " fill-opacity="1" fill-rule="nonzero"/></svg>