<svg xmlns="http://www.w3.org/2000/svg" xmlns:xlink="http://www.w3.org/1999/xlink" width="800" zoomAndPan="magnify" viewBox="0 0 600 599.999999" height="800" preserveAspectRatio="xMidYMid meet" version="1.0"><defs><clipPath id="a91dc728de"><path d="M 401.449219 218.433594 L 518.582031 218.433594 L 518.582031 537.457031 L 401.449219 537.457031 Z M 401.449219 218.433594 " clip-rule="nonzero"/></clipPath><clipPath id="210ccac98c"><path d="M 85.996094 61.65625 L 398.632812 61.65625 L 398.632812 565.78125 L 85.996094 565.78125 Z M 85.996094 61.65625 " clip-rule="nonzero"/></clipPath></defs><path fill="#000000" d="M 174.972656 384.070312 C 174.972656 384.070312 163.417969 509.992188 220.039062 521.546875 C 276.660156 533.101562 283.59375 499.597656 265.105469 479.957031 C 246.617188 460.316406 262.792969 403.710938 262.792969 403.710938 C 262.792969 403.710938 216.570312 349.410156 174.972656 384.070312 " fill-opacity="1" fill-rule="nonzero"/><path fill="#6c6e70" d="M 188.839844 385.226562 C 188.839844 385.226562 228.125 429.125 281.28125 410.640625 C 334.4375 392.15625 243.148438 329.773438 243.148438 329.773438 C 243.148438 329.773438 137.996094 340.167969 188.839844 385.226562 " fill-opacity="1" fill-rule="nonzero"/><g clip-path="url(#a91dc728de)"><path fill="#000000" d="M 401.457031 393.3125 C 401.457031 393.3125 437.28125 439.523438 433.816406 479.957031 C 430.347656 520.390625 409.546875 512.304688 419.949219 526.167969 C 430.347656 540.03125 460.394531 542.339844 491.59375 526.167969 C 522.792969 509.992188 517.015625 486.890625 515.855469 466.09375 C 514.703125 445.300781 532.035156 363.273438 491.59375 298.578125 C 491.59375 298.578125 489.28125 201.539062 448.839844 221.179688 C 408.394531 240.816406 401.457031 393.3125 401.457031 393.3125 " fill-opacity="1" fill-rule="nonzero"/></g><path fill="#cccdce" d="M 306.703125 69.839844 C 306.703125 69.839844 350.613281 53.664062 397.992188 79.082031 C 445.371094 104.496094 481.191406 161.105469 493.898438 265.078125 C 493.898438 265.078125 496.214844 293.960938 504.300781 323.996094 C 504.300781 323.996094 483.503906 302.046875 474.257812 269.699219 C 465.015625 237.351562 460.390625 243.128906 463.859375 277.785156 C 467.324219 312.445312 471.945312 343.636719 453.457031 371.363281 C 434.96875 399.089844 394.523438 396.777344 387.59375 393.3125 C 380.65625 389.847656 328.660156 289.339844 328.660156 289.339844 L 306.703125 69.839844 " fill-opacity="1" fill-rule="nonzero"/><path fill="#bcbcbc" d="M 451.929688 130.71875 C 475.476562 184.9375 463.425781 238.746094 459.238281 220.601562 C 454.035156 198.074219 421.105469 146.082031 438.4375 187.675781 C 455.769531 229.265625 452.304688 293.382812 447.105469 298.582031 C 441.902344 303.777344 434.96875 213.667969 428.035156 213.667969 C 421.105469 213.667969 441.902344 286.449219 428.035156 329.773438 C 414.171875 373.09375 389.902344 338.4375 389.902344 338.4375 L 383.558594 388.558594 C 385.398438 391.222656 386.796875 392.914062 387.59375 393.3125 C 394.523438 396.777344 434.96875 399.089844 453.457031 371.363281 C 471.949219 343.636719 467.324219 312.441406 463.859375 277.785156 C 460.394531 243.128906 465.015625 237.351562 474.261719 269.699219 C 483.503906 302.046875 504.304688 323.996094 504.304688 323.996094 C 496.214844 293.960938 493.902344 265.074219 493.902344 265.074219 C 486.675781 205.964844 471.972656 162.179688 451.929688 130.71875 " fill-opacity="1" fill-rule="nonzero"/><g clip-path="url(#210ccac98c)"><path fill="#0b0c0c" d="M 106.792969 184.207031 C 106.792969 184.207031 85.996094 203.847656 85.996094 272.007812 C 85.996094 340.167969 102.171875 422.195312 107.949219 445.300781 C 113.726562 468.40625 110.261719 516.925781 117.195312 535.410156 C 124.128906 553.894531 203.859375 567.757812 218.882812 552.738281 C 233.90625 537.71875 201.550781 514.613281 193.460938 503.0625 C 185.371094 491.507812 161.105469 384.070312 205.015625 375.984375 C 248.925781 367.898438 273.195312 406.019531 273.195312 458.007812 C 273.195312 509.992188 258.171875 523.855469 244.304688 534.253906 C 230.4375 544.652344 245.460938 568.914062 282.4375 565.445312 C 319.417969 561.980469 355.238281 564.292969 367.949219 526.167969 C 380.660156 488.042969 387.59375 409.484375 395.683594 356.34375 C 403.769531 303.199219 402.613281 73.304688 283.59375 61.75 L 106.792969 184.207031 " fill-opacity="1" fill-rule="nonzero"/></g><path fill="#d7dadd" d="M 107.949219 215.402344 C 107.949219 215.402344 106.792969 112.582031 162.261719 73.304688 C 217.726562 34.023438 217.726562 64.0625 236.214844 58.289062 C 254.703125 52.507812 268.570312 46.734375 284.75 57.132812 C 300.925781 67.527344 334.4375 96.410156 326.347656 162.257812 C 318.257812 228.109375 321.726562 247.75 303.238281 241.972656 C 284.75 236.195312 107.949219 215.402344 107.949219 215.402344 " fill-opacity="1" fill-rule="nonzero"/><path fill="#cccdce" d="M 119.121094 193.066406 C 119.121094 193.066406 94.46875 216.171875 94.46875 263.921875 C 94.46875 311.671875 104.675781 328.554688 115.460938 343.957031 C 126.246094 359.359375 175.355469 374.058594 208.480469 367.125 C 208.480469 367.125 250.082031 374.058594 286.289062 357.113281 C 322.496094 340.167969 327.117188 289.335938 315.5625 246.210938 C 304.007812 203.078125 310.941406 183.824219 279.355469 163.03125 C 247.769531 142.234375 156.097656 116.820312 119.121094 193.066406 " fill-opacity="1" fill-rule="nonzero"/><path fill="#d7dadd" d="M 166.882812 327.460938 C 166.882812 327.460938 164.570312 307.246094 171.503906 287.027344 C 178.4375 266.808594 192.304688 257.566406 210.214844 259.300781 C 228.125 261.035156 240.261719 266.230469 247.191406 294.535156 C 254.128906 322.839844 239.683594 344.789062 239.683594 344.789062 C 239.683594 344.789062 176.128906 343.636719 166.882812 327.460938 " fill-opacity="1" fill-rule="nonzero"/><path fill="#000000" d="M 254.703125 166.878906 C 254.703125 166.878906 247.773438 129.910156 276.660156 122.976562 C 305.546875 116.046875 326.347656 141.464844 326.347656 162.257812 C 326.347656 183.050781 296.304688 192.296875 296.304688 192.296875 C 296.304688 192.296875 268.574219 191.140625 254.703125 166.878906 " fill-opacity="1" fill-rule="nonzero"/><path fill="#000000" d="M 161.105469 153.015625 C 161.105469 153.015625 157.640625 112.582031 119.507812 118.359375 C 81.371094 124.132812 82.527344 178.433594 101.015625 188.832031 C 119.507812 199.226562 134.527344 187.671875 134.527344 187.671875 C 134.527344 187.671875 158.792969 171.5 161.105469 153.015625 " fill-opacity="1" fill-rule="nonzero"/><path fill="#0b0c0c" d="M 183.058594 268.542969 C 183.058594 268.542969 191.148438 252.371094 176.128906 246.59375 C 161.105469 240.816406 157.636719 262.765625 147.238281 273.164062 C 136.839844 283.5625 137.996094 295.117188 149.550781 305.511719 C 161.105469 315.910156 170.347656 305.511719 170.347656 299.734375 C 170.347656 293.960938 174.972656 277.785156 183.058594 268.542969 " fill-opacity="1" fill-rule="nonzero"/><path fill="#0b0c0c" d="M 232.160156 266.9375 C 232.160156 266.9375 224.070312 250.765625 239.09375 244.992188 C 254.117188 239.210938 257.582031 261.164062 267.980469 271.5625 C 278.382812 281.957031 277.226562 293.511719 265.671875 303.90625 C 254.117188 314.304688 244.871094 303.90625 244.871094 298.132812 C 244.871094 292.351562 240.25 276.179688 232.160156 266.9375 " fill-opacity="1" fill-rule="nonzero"/><path fill="#acb3bd" d="M 208.484375 314.175781 C 208.484375 314.175781 188.261719 313.023438 181.90625 324.574219 C 175.550781 336.125 166.882812 327.460938 166.882812 327.460938 C 166.882812 327.460938 174.523438 369.050781 210.921875 370.207031 C 247.320312 371.363281 247.191406 325.730469 247.191406 325.730469 C 247.191406 325.730469 240.835938 327.460938 235.636719 320.53125 C 230.4375 313.597656 217.148438 312.445312 208.484375 314.175781 " fill-opacity="1" fill-rule="nonzero"/><path fill="#000000" d="M 209.636719 343.636719 C 209.636719 343.636719 185.757812 336.703125 184.214844 327.847656 C 182.675781 318.988281 209.253906 320.53125 209.253906 320.53125 C 209.253906 320.53125 237.371094 318.988281 234.289062 327.460938 C 231.207031 335.933594 209.636719 343.636719 209.636719 343.636719 " fill-opacity="1" fill-rule="nonzero"/><path fill="#000000" d="M 209.636719 343.636719 C 209.636719 343.636719 209.253906 349.796875 201.164062 352.109375 C 193.074219 354.417969 181.132812 351.335938 178.4375 348.640625 C 178.4375 348.640625 196.542969 362.121094 210.023438 350.566406 C 210.023438 350.566406 226.199219 360.578125 236.601562 349.410156 C 236.601562 349.410156 226.972656 356.730469 215.03125 349.796875 C 215.03125 349.796875 211.179688 347.484375 209.636719 343.636719 " fill-opacity="1" fill-rule="nonzero"/><path fill="#000000" d="M 171.503906 280.097656 C 171.503906 283.925781 168.917969 287.027344 165.726562 287.027344 C 162.535156 287.027344 159.949219 283.925781 159.949219 280.097656 C 159.949219 276.269531 162.535156 273.164062 165.726562 273.164062 C 168.917969 273.164062 171.503906 276.269531 171.503906 280.097656 " fill-opacity="1" fill-rule="nonzero"/><path fill="#000000" d="M 254.960938 280.097656 C 254.960938 283.925781 252.375 287.027344 249.183594 287.027344 C 245.992188 287.027344 243.40625 283.925781 243.40625 280.097656 C 243.40625 276.269531 245.992188 273.164062 249.183594 273.164062 C 252.375 273.164062 254.960938 276.269531 254.960938 280.097656 " fill-opacity="1" fill-rule="nonzero"/><path fill="#ffffff" d="M 252.683594 275.441406 C 252.683594 276.238281 252.035156 276.886719 251.238281 276.886719 C 250.441406 276.886719 249.792969 276.238281 249.792969 275.441406 C 249.792969 274.644531 250.441406 273.996094 251.238281 273.996094 C 252.035156 273.996094 252.683594 274.644531 252.683594 275.441406 " fill-opacity="1" fill-rule="nonzero"/><path fill="#ffffff" d="M 170.0625 275.761719 C 170.0625 276.5625 169.414062 277.207031 168.617188 277.207031 C 167.820312 277.207031 167.171875 276.5625 167.171875 275.761719 C 167.171875 274.964844 167.820312 274.320312 168.617188 274.320312 C 169.414062 274.320312 170.0625 274.964844 170.0625 275.761719 " fill-opacity="1" fill-rule="nonzero"/></svg>