<svg xmlns="http://www.w3.org/2000/svg" xmlns:xlink="http://www.w3.org/1999/xlink" width="800" zoomAndPan="magnify" viewBox="0 0 600 599.999999" height="800" preserveAspectRatio="xMidYMid meet" version="1.0"><defs><clipPath id="91932d626f"><path d="M 86.535156 60 L 540.160156 60 L 540.160156 524.234375 L 86.535156 524.234375 Z M 86.535156 60 " clip-rule="nonzero"/></clipPath><clipPath id="e7f85f3466"><path d="M 364 344.3125 L 474.351562 344.3125 L 474.351562 524.234375 L 364 524.234375 Z M 364 344.3125 " clip-rule="nonzero"/></clipPath></defs><path fill="#9a8276" d="M 112.410156 280.773438 C 111.421875 296.820312 116.4375 312.777344 124.054688 326.9375 C 131.671875 341.09375 141.824219 353.699219 151.917969 366.214844 C 149.636719 366.789062 147.21875 367.441406 145.640625 369.183594 C 144.058594 370.921875 143.875 374.121094 145.878906 375.347656 C 146.75 375.882812 147.824219 375.933594 148.84375 375.957031 C 154.476562 376.085938 160.121094 375.707031 165.6875 374.832031 C 166.785156 374.65625 167.945312 374.429688 168.742188 373.660156 C 169.671875 372.761719 169.863281 371.367188 170 370.082031 C 171.808594 352.765625 172.398438 335.324219 171.769531 317.925781 L 112.410156 280.773438 " fill-opacity="1" fill-rule="nonzero"/><path fill="#6b5a52" d="M 110.503906 280.773438 C 108.988281 314.773438 130.34375 342.46875 150.570312 367.558594 C 150.851562 366.5 151.132812 365.4375 151.410156 364.378906 C 146.957031 365.574219 139.652344 369.558594 143.289062 375.363281 C 144.875 377.890625 147.898438 377.886719 150.566406 377.886719 C 150.800781 377.882812 151.03125 377.882812 151.257812 377.886719 C 156.125 377.917969 161.4375 377.800781 166.195312 376.664062 C 174.699219 374.636719 172.71875 361.992188 173.152344 355.210938 C 173.949219 342.796875 174.078125 330.359375 173.671875 317.925781 C 173.589844 315.480469 169.785156 315.472656 169.863281 317.925781 C 170.257812 329.945312 170.152344 341.964844 169.421875 353.96875 C 169.246094 356.867188 169.039062 359.761719 168.796875 362.652344 C 168.65625 364.304688 168.507812 365.957031 168.34375 367.605469 C 167.9375 371.546875 166.171875 373.4375 163.042969 373.277344 C 160.28125 374.183594 156.554688 373.960938 153.675781 374.042969 C 152.0625 374.085938 150.453125 374.09375 148.84375 374.054688 C 148.390625 370.300781 149.582031 368.300781 152.421875 368.046875 C 153.921875 367.648438 154.128906 365.941406 153.261719 364.867188 C 133.675781 340.570312 112.839844 313.71875 114.3125 280.773438 C 114.421875 278.324219 110.613281 278.332031 110.503906 280.773438 " fill-opacity="1" fill-rule="nonzero"/><path fill="#9a8276" d="M 314.285156 274.566406 C 301.925781 289.101562 303.308594 311.960938 313.738281 327.933594 C 324.164062 343.910156 341.777344 353.886719 359.851562 359.996094 C 349.273438 360.117188 338.71875 362.449219 329.074219 366.796875 C 327.613281 367.453125 325.992188 368.390625 325.746094 369.976562 C 325.304688 372.839844 329.324219 373.964844 332.222656 373.910156 C 349.765625 373.585938 367.308594 373.261719 384.847656 372.9375 C 388.722656 372.867188 392.703125 372.773438 396.289062 371.300781 C 399.425781 370.015625 402.058594 367.753906 404.398438 365.308594 C 414.914062 354.300781 420.375 338.640625 418.976562 323.484375 L 314.285156 274.566406 " fill-opacity="1" fill-rule="nonzero"/><path fill="#6b5a52" d="M 312.9375 273.21875 C 300.898438 288.175781 301.136719 309.277344 310.1875 325.722656 C 320.382812 344.238281 340.015625 355.148438 359.34375 361.832031 C 359.515625 360.585938 359.683594 359.339844 359.851562 358.09375 C 351.339844 358.320312 342.945312 359.644531 334.886719 362.445312 C 331.210938 363.722656 322.816406 365.78125 323.96875 371.265625 C 324.949219 375.914062 331.078125 375.804688 334.730469 375.769531 C 344.753906 375.667969 354.777344 375.394531 364.800781 375.210938 C 367.398438 375.164062 370.027344 375.179688 372.667969 375.195312 C 378.867188 375.234375 385.132812 375.269531 391.183594 374.480469 C 398.519531 373.519531 403.785156 369.257812 408.371094 363.679688 C 417.621094 352.425781 421.929688 337.945312 420.878906 323.484375 C 420.703125 321.054688 416.894531 321.035156 417.074219 323.484375 C 417.917969 335.148438 415.253906 346.683594 408.878906 356.5625 C 405.339844 362.042969 400.4375 368.117188 393.960938 370.09375 C 389.816406 371.359375 385.058594 371.289062 380.527344 371.21875 C 379.007812 371.195312 377.511719 371.171875 376.078125 371.195312 C 363.128906 371.4375 350.183594 371.675781 337.238281 371.914062 C 335.03125 371.957031 326.613281 373.597656 330.035156 368.4375 C 331.132812 366.78125 338.15625 365.339844 340.222656 364.753906 C 346.640625 362.9375 353.191406 362.074219 359.851562 361.902344 C 362.046875 361.84375 362.367188 358.859375 360.355469 358.164062 C 343.046875 352.171875 325.582031 342.773438 315.378906 326.972656 C 305.5625 311.777344 303.847656 290.546875 315.628906 275.910156 C 317.152344 274.019531 314.476562 271.3125 312.9375 273.21875 " fill-opacity="1" fill-rule="nonzero"/><path fill="#877268" d="M 132.574219 86.261719 C 130.710938 73.050781 114.738281 61.351562 102.078125 69.570312 C 96.671875 73.078125 94.230469 79.964844 94.300781 86.191406 C 94.390625 94.167969 99.726562 99.625 106.015625 103.757812 C 106.40625 104.117188 106.9375 104.277344 107.511719 104.074219 C 107.5625 104.054688 107.617188 104.027344 107.667969 104.003906 C 107.738281 103.972656 107.808594 103.9375 107.875 103.898438 L 107.921875 103.871094 C 115.851562 98.671875 123.78125 93.464844 131.710938 88.261719 C 132.445312 87.78125 132.691406 87.105469 132.574219 86.261719 " fill-opacity="1" fill-rule="nonzero"/><path fill="#78655c" d="M 112.242188 95.074219 C 107.273438 93.550781 104.222656 87.527344 105.929688 82.621094 C 106.738281 80.292969 108.664062 78.199219 111.109375 77.910156 C 113.007812 77.6875 114.882812 78.570312 116.40625 79.730469 C 119.558594 82.132812 121.664062 85.859375 122.101562 89.804688 L 112.242188 95.074219 " fill-opacity="1" fill-rule="nonzero"/><path fill="#78655c" d="M 112.71875 93.355469 C 108.195312 91.710938 105.226562 85.335938 108.71875 81.300781 C 113.90625 75.3125 119.757812 86.011719 120.382812 90.277344 C 120.65625 89.605469 120.929688 88.9375 121.203125 88.265625 C 117.917969 90.023438 114.628906 91.777344 111.34375 93.535156 C 109.324219 94.617188 111.121094 97.6875 113.140625 96.609375 C 116.425781 94.851562 119.710938 93.09375 123 91.339844 C 123.757812 90.933594 123.929688 90.101562 123.816406 89.328125 C 122.773438 82.171875 113.660156 70.863281 106.335938 78.585938 C 100.625 84.597656 104.714844 94.222656 111.769531 96.789062 C 113.925781 97.574219 114.855469 94.132812 112.71875 93.355469 " fill-opacity="1" fill-rule="nonzero"/><path fill="#877268" d="M 285.628906 88.464844 C 276.007812 74.234375 259.773438 84.046875 251.824219 93.992188 C 251.542969 94.242188 251.34375 94.5625 251.28125 94.917969 L 251.265625 95.011719 L 251.257812 95.082031 C 251.199219 95.5625 251.394531 96 251.738281 96.335938 C 256.601562 103.183594 261.46875 110.039062 266.335938 116.886719 C 267.378906 118.351562 268.820312 121.460938 270.773438 121.90625 C 274.015625 122.648438 277.605469 117.554688 279.296875 115.574219 C 285.523438 108.273438 291.925781 97.769531 285.628906 88.464844 " fill-opacity="1" fill-rule="nonzero"/><path fill="#78655c" d="M 261.296875 99.589844 C 262.832031 96.625 264.871094 93.726562 267.882812 92.289062 C 270.890625 90.851562 275.046875 91.390625 276.820312 94.214844 C 277.878906 95.894531 277.921875 98.058594 277.390625 99.972656 C 276.863281 101.886719 275.816406 103.609375 274.785156 105.308594 C 273.828125 106.878906 272.84375 108.480469 271.429688 109.660156 C 270.015625 110.84375 268.066406 111.542969 266.304688 111.015625 L 261.296875 99.589844 " fill-opacity="1" fill-rule="nonzero"/><path fill="#78655c" d="M 262.9375 100.546875 C 264.179688 98.257812 265.601562 95.875 267.875 94.464844 C 269.984375 93.152344 273.59375 92.769531 275.179688 95.171875 C 276.976562 97.910156 274.878906 101.441406 273.449219 103.835938 C 272.777344 104.964844 269.28125 110.558594 267.890625 109.921875 C 266.9375 109.488281 265.707031 104.945312 265.292969 104 C 264.507812 102.207031 263.722656 100.417969 262.9375 98.628906 C 261.957031 96.390625 258.675781 98.324219 259.652344 100.546875 C 261.195312 104.066406 262.523438 107.792969 264.316406 111.191406 C 267.300781 116.84375 274.214844 109.824219 276.136719 106.738281 C 279.28125 101.703125 282.246094 93.285156 274.84375 90.285156 C 268.101562 87.550781 262.589844 93.199219 259.652344 98.628906 C 258.488281 100.785156 261.773438 102.707031 262.9375 100.546875 " fill-opacity="1" fill-rule="nonzero"/><g clip-path="url(#91932d626f)"><path fill="#9a8276" d="M 421.53125 471.28125 C 409.757812 481.554688 397.335938 490.609375 383.574219 497.925781 C 376.121094 501.886719 359.253906 506.457031 365.546875 517.269531 C 376.378906 535.878906 434.28125 512.15625 447.699219 504.558594 C 486.4375 482.609375 514.875 440 526.996094 397.703125 C 547.523438 326.046875 551.765625 234.867188 481.714844 187.097656 C 443.011719 160.703125 400.53125 160.570312 358.882812 179.175781 C 342.300781 186.582031 318.300781 197.347656 300.515625 189.328125 C 277.777344 179.074219 281.613281 161.5625 284.179688 142.265625 C 286.554688 124.398438 280.609375 110.550781 268.515625 97.675781 C 230.457031 57.175781 172.527344 47.597656 124.300781 77.414062 C 104.824219 89.453125 93.796875 104.816406 88.523438 126.648438 C 81.839844 154.3125 97.613281 182.164062 95.035156 210.484375 C 93.5 227.339844 88.886719 245.367188 91.132812 262.59375 C 95.917969 299.21875 126.484375 323.652344 156.617188 340.757812 C 198.160156 364.339844 247.429688 359.730469 294.898438 355.125 C 314.195312 353.253906 333.199219 351.378906 351.261719 351.398438 C 369.566406 351.421875 387.207031 351.441406 404.582031 355.484375 C 424.589844 360.140625 458.75 384.46875 459.757812 406.390625 C 460.890625 431.101562 438.902344 456.128906 421.53125 471.28125 " fill-opacity="1" fill-rule="nonzero"/></g><path fill="#faf1ed" d="M 351.261719 351.398438 C 366.046875 351.414062 380.394531 351.4375 394.523438 353.574219 C 393.773438 353.25 393.046875 352.945312 392.371094 352.667969 C 371.503906 344.066406 349.847656 340.738281 328.746094 333.320312 C 316.875 329.148438 303.960938 328.59375 292.585938 323.804688 C 278.597656 317.914062 266.898438 308.726562 258.957031 295.863281 C 247.203125 276.832031 248.019531 253.65625 248.378906 232.136719 C 248.5625 221.183594 248.117188 210.816406 249.269531 199.785156 C 250.457031 188.480469 251.882812 176.914062 249.726562 165.632812 C 246.671875 149.621094 234.101562 136.507812 219.257812 129.769531 C 197.039062 119.675781 170.644531 121.453125 148.304688 130.082031 C 118.734375 141.511719 122.449219 165.019531 123.730469 191.59375 C 124.617188 210.03125 120.765625 228.371094 118.90625 246.636719 C 115.988281 275.28125 122.425781 303.515625 136.277344 327.871094 C 136.800781 328.242188 137.316406 328.605469 137.832031 328.96875 C 143.953125 333.25 150.292969 337.167969 156.617188 340.757812 C 198.160156 364.339844 247.429688 359.730469 294.898438 355.125 C 314.195312 353.253906 333.199219 351.378906 351.261719 351.398438 " fill-opacity="1" fill-rule="nonzero"/><path fill="#000000" d="M 155.757812 108.054688 C 155.59375 115.761719 151.765625 121.929688 147.214844 121.832031 C 142.660156 121.734375 139.101562 115.410156 139.269531 107.703125 C 139.433594 99.996094 143.257812 93.832031 147.8125 93.925781 C 152.367188 94.027344 155.925781 100.355469 155.757812 108.054688 " fill-opacity="1" fill-rule="nonzero"/><path fill="#000000" d="M 228.609375 111.320312 C 228.441406 119.027344 224.617188 125.191406 220.0625 125.09375 C 215.507812 124.996094 211.953125 118.671875 212.117188 110.964844 C 212.285156 103.257812 216.109375 97.09375 220.664062 97.191406 C 225.214844 97.289062 228.773438 103.617188 228.609375 111.320312 " fill-opacity="1" fill-rule="nonzero"/><path fill="#fbcece" d="M 127.050781 138.554688 C 124.523438 145.089844 117.175781 148.339844 110.640625 145.8125 C 104.105469 143.285156 100.855469 135.941406 103.382812 129.40625 C 105.910156 122.867188 113.253906 119.621094 119.792969 122.144531 C 126.328125 124.671875 129.578125 132.019531 127.050781 138.554688 " fill-opacity="1" fill-rule="nonzero"/><path fill="#736560" d="M 116.285156 130.9375 C 93.207031 120.289062 67.976562 125.316406 44.210938 130.589844 C 43.015625 130.855469 43.410156 132.71875 44.609375 132.453125 C 68.085938 127.242188 92.878906 122.21875 115.691406 132.746094 C 116.800781 133.257812 117.386719 131.445312 116.285156 130.9375 " fill-opacity="1" fill-rule="nonzero"/><path fill="#736560" d="M 116.613281 133.589844 C 92.316406 127.40625 67.90625 134.28125 44.621094 141.414062 C 43.457031 141.769531 43.84375 143.636719 45.019531 143.273438 C 67.933594 136.253906 92.082031 129.308594 116.015625 135.398438 C 117.195312 135.699219 117.800781 133.894531 116.613281 133.589844 " fill-opacity="1" fill-rule="nonzero"/><path fill="#736560" d="M 115.03125 137.445312 C 93.625 139.601562 73.101562 145.964844 54.226562 156.277344 C 53.152344 156.867188 54.003906 158.566406 55.085938 157.976562 C 73.820312 147.738281 94.1875 141.445312 115.429688 139.308594 C 116.644531 139.1875 116.238281 137.324219 115.03125 137.445312 " fill-opacity="1" fill-rule="nonzero"/><path fill="#fbcece" d="M 252.375 155.410156 C 255.488281 161.6875 263.101562 164.253906 269.378906 161.140625 C 275.65625 158.027344 278.222656 150.417969 275.109375 144.140625 C 272 137.863281 264.386719 135.296875 258.105469 138.410156 C 251.828125 141.519531 249.261719 149.132812 252.375 155.410156 " fill-opacity="1" fill-rule="nonzero"/><path fill="#736560" d="M 263.1875 144.984375 C 285.199219 132.273438 310.78125 134.976562 334.929688 138.0625 C 336.144531 138.214844 335.921875 140.105469 334.703125 139.949219 C 310.847656 136.90625 285.699219 134.167969 263.945312 146.730469 C 262.886719 147.339844 262.140625 145.589844 263.1875 144.984375 " fill-opacity="1" fill-rule="nonzero"/><path fill="#736560" d="M 263.105469 147.65625 C 286.738281 139.28125 311.671875 143.898438 335.511719 148.875 C 336.703125 149.125 336.484375 151.019531 335.285156 150.765625 C 311.824219 145.867188 287.140625 141.152344 263.863281 149.402344 C 262.714844 149.808594 261.949219 148.066406 263.105469 147.65625 " fill-opacity="1" fill-rule="nonzero"/><path fill="#736560" d="M 262.496094 152.621094 C 284.007812 152.8125 305.023438 157.277344 324.761719 165.824219 C 325.886719 166.3125 325.191406 168.082031 324.066406 167.59375 C 304.472656 159.109375 283.613281 154.699219 262.269531 154.511719 C 261.046875 154.5 261.277344 152.609375 262.496094 152.621094 " fill-opacity="1" fill-rule="nonzero"/><path fill="#000000" d="M 133.675781 148.195312 C 148.382812 165.40625 175.066406 162.289062 185.183594 141.976562 C 183.972656 141.785156 182.765625 141.59375 181.554688 141.40625 C 183.414062 152.546875 192.78125 160.164062 203.824219 161.386719 C 213.730469 162.480469 227.648438 159.09375 233.363281 150.089844 C 234.660156 148.039062 231.722656 145.617188 230.414062 147.679688 C 220.351562 163.539062 188.644531 160.773438 185.339844 140.972656 C 185.03125 139.121094 182.566406 138.691406 181.710938 140.40625 C 172.929688 158.046875 149.597656 160.988281 136.75 145.953125 C 135.167969 144.101562 132.082031 146.332031 133.675781 148.195312 " fill-opacity="1" fill-rule="nonzero"/><path fill="#301c0a" d="M 203.785156 120.953125 C 205.953125 128.953125 197.570312 138.738281 191.789062 143.113281 C 180.308594 151.804688 173.75 143.675781 165.734375 134.800781 C 163.863281 132.730469 162.101562 130.476562 161.234375 127.824219 C 160.371094 125.175781 160.542969 122.042969 162.292969 119.871094 C 163.910156 117.855469 166.546875 116.984375 169.074219 116.460938 C 175.308594 115.160156 181.742188 115.355469 188.105469 115.558594 C 190.695312 115.640625 193.289062 115.722656 195.878906 115.804688 C 197.761719 115.863281 199.765625 115.960938 201.308594 117.046875 C 202.59375 117.949219 203.371094 119.433594 203.785156 120.953125 " fill-opacity="1" fill-rule="nonzero"/><path fill="#241508" d="M 194.800781 139.667969 C 183.316406 148.359375 176.761719 140.226562 168.742188 131.351562 C 166.875 129.285156 165.105469 127.027344 164.242188 124.378906 C 163.585938 122.371094 163.53125 120.097656 164.296875 118.164062 C 163.539062 118.621094 162.851562 119.171875 162.292969 119.871094 C 160.542969 122.042969 160.371094 125.175781 161.234375 127.824219 C 162.101562 130.476562 163.863281 132.730469 165.734375 134.800781 C 173.75 143.675781 180.308594 151.804688 191.789062 143.113281 C 194.039062 141.410156 196.675781 138.886719 198.9375 135.96875 C 197.523438 137.417969 196.097656 138.683594 194.800781 139.667969 " fill-opacity="1" fill-rule="nonzero"/><path fill="#ffffff" d="M 191.515625 121.488281 C 193.269531 121.550781 194.914062 121.972656 196.429688 122.867188 C 198.527344 124.113281 200.714844 120.992188 198.601562 119.742188 C 196.515625 118.507812 194.246094 117.78125 191.816406 117.695312 C 189.375 117.609375 189.0625 121.402344 191.515625 121.488281 " fill-opacity="1" fill-rule="nonzero"/><path fill="#a39089" d="M 158.230469 231.394531 C 158.222656 232.625 158.214844 233.859375 158.207031 235.09375 C 158.1875 237.542969 161.996094 237.546875 162.011719 235.09375 C 162.023438 233.859375 162.03125 232.625 162.039062 231.394531 C 162.054688 228.945312 158.25 228.941406 158.230469 231.394531 " fill-opacity="1" fill-rule="nonzero"/><path fill="#a39089" d="M 167.851562 226.664062 C 167.886719 228.480469 167.921875 230.292969 167.957031 232.109375 C 168.003906 234.554688 171.808594 234.5625 171.761719 232.109375 C 171.726562 230.292969 171.695312 228.480469 171.660156 226.664062 C 171.613281 224.21875 167.808594 224.210938 167.851562 226.664062 " fill-opacity="1" fill-rule="nonzero"/><path fill="#a39089" d="M 167.734375 243.753906 C 167.886719 245.566406 168.039062 247.378906 168.191406 249.191406 C 168.394531 251.613281 172.203125 251.636719 171.996094 249.191406 C 171.84375 247.378906 171.695312 245.566406 171.542969 243.753906 C 171.339844 241.328125 167.53125 241.308594 167.734375 243.753906 " fill-opacity="1" fill-rule="nonzero"/><path fill="#a39089" d="M 181.222656 235.675781 C 180.691406 237.183594 180.6875 238.875 181.214844 240.386719 C 181.550781 241.355469 182.515625 242 183.554688 241.714844 C 184.496094 241.457031 185.222656 240.351562 184.882812 239.375 C 184.550781 238.421875 184.558594 237.640625 184.894531 236.6875 C 185.238281 235.71875 184.507812 234.605469 183.566406 234.347656 C 182.515625 234.058594 181.570312 234.703125 181.222656 235.675781 " fill-opacity="1" fill-rule="nonzero"/><path fill="#a39089" d="M 195.222656 227.011719 C 194.980469 228.730469 195.0625 230.429688 195.738281 232.050781 C 196.132812 233 197 233.679688 198.078125 233.382812 C 198.976562 233.136719 199.808594 231.996094 199.410156 231.042969 C 199.015625 230.09375 198.746094 229.058594 198.890625 228.023438 C 199.035156 227.003906 198.644531 225.976562 197.5625 225.679688 C 196.671875 225.4375 195.363281 225.984375 195.222656 227.011719 " fill-opacity="1" fill-rule="nonzero"/><path fill="#a39089" d="M 195.050781 244.25 C 195.398438 246.167969 195.746094 248.085938 196.097656 250.003906 C 196.28125 251.015625 197.511719 251.585938 198.441406 251.332031 C 199.503906 251.039062 199.953125 250.007812 199.769531 248.992188 C 199.417969 247.074219 199.070312 245.15625 198.722656 243.238281 C 198.535156 242.226562 197.308594 241.65625 196.378906 241.910156 C 195.316406 242.203125 194.863281 243.234375 195.050781 244.25 " fill-opacity="1" fill-rule="nonzero"/><path fill="#a39089" d="M 207.328125 236.035156 C 207.628906 237.191406 207.929688 238.347656 208.234375 239.507812 C 208.492188 240.5 209.59375 241.105469 210.574219 240.835938 C 211.578125 240.558594 212.164062 239.492188 211.902344 238.496094 C 211.601562 237.335938 211.300781 236.179688 210.996094 235.023438 C 210.738281 234.027344 209.636719 233.425781 208.65625 233.695312 C 207.652344 233.96875 207.066406 235.035156 207.328125 236.035156 " fill-opacity="1" fill-rule="nonzero"/><g clip-path="url(#e7f85f3466)"><path fill="#897469" d="M 382.835938 524.234375 C 374.839844 524.234375 368.472656 522.296875 365.546875 517.269531 C 364.59375 515.628906 364.171875 514.132812 364.167969 512.757812 C 364.160156 505.085938 377.253906 501.285156 383.574219 497.925781 C 397.335938 490.609375 409.757812 481.554688 421.53125 471.28125 C 438.46875 456.507812 459.800781 432.339844 459.800781 408.234375 C 459.800781 407.621094 459.785156 407.003906 459.757812 406.390625 C 459.75 406.195312 459.738281 406.003906 459.722656 405.808594 C 458.152344 384.042969 424.414062 360.101562 404.582031 355.484375 C 401.238281 354.707031 397.882812 354.078125 394.515625 353.570312 C 393.765625 353.246094 393.042969 352.945312 392.371094 352.667969 C 384.445312 349.402344 376.40625 346.894531 368.328125 344.636719 C 385.675781 344.667969 402.4375 344.875 418.960938 348.71875 C 438.96875 353.375 473.128906 377.703125 474.136719 399.621094 C 475.273438 424.332031 453.285156 449.363281 435.914062 464.515625 C 424.136719 474.789062 411.714844 483.84375 397.953125 491.160156 C 390.503906 495.121094 373.632812 499.691406 379.925781 510.5 C 382.855469 515.53125 389.21875 517.46875 397.214844 517.46875 C 412.3125 517.46875 433.226562 510.558594 447.785156 504.503906 L 447.699219 504.558594 C 437.90625 510.105469 404.425781 524.238281 382.835938 524.234375 " fill-opacity="1" fill-rule="nonzero"/></g><path fill="#ccc6c4" d="M 237.074219 358.851562 C 250.199219 358.851562 263.484375 357.972656 276.726562 356.824219 C 282.800781 356.296875 288.863281 355.710938 294.898438 355.125 C 309.152344 353.738281 323.246094 352.355469 336.917969 351.738281 C 323.246094 352.355469 309.152344 353.738281 294.898438 355.125 C 275.707031 356.988281 256.222656 358.851562 237.074219 358.851562 " fill-opacity="1" fill-rule="nonzero"/><path fill="#ccc6c4" d="M 114.441406 309.074219 C 102.398438 296.230469 93.527344 280.941406 91.132812 262.59375 C 89.132812 247.269531 92.566406 231.308594 94.429688 216.101562 C 92.566406 231.308594 89.132812 247.269531 91.132812 262.59375 C 93.527344 280.941406 102.398438 296.230469 114.441406 309.074219 " fill-opacity="1" fill-rule="nonzero"/><path fill="#897469" d="M 155.351562 340.035156 C 143.277344 333.101562 131.195312 324.980469 120.789062 315.363281 C 131.195312 324.980469 143.277344 333.101562 155.351562 340.035156 " fill-opacity="1" fill-rule="nonzero"/><path fill="#6a5a52" d="M 120.789062 315.363281 C 118.589844 313.332031 116.472656 311.238281 114.441406 309.074219 C 116.472656 311.238281 118.589844 313.332031 120.789062 315.363281 " fill-opacity="1" fill-rule="nonzero"/><path fill="#ccc6c4" d="M 95.035156 210.484375 C 95.234375 208.3125 95.320312 206.144531 95.320312 203.980469 C 95.320312 206.144531 95.234375 208.3125 95.035156 210.484375 " fill-opacity="1" fill-rule="nonzero"/><path fill="#897469" d="M 155.351562 340.035156 C 143.277344 333.101562 131.195312 324.980469 120.789062 315.363281 C 118.589844 313.332031 116.472656 311.238281 114.441406 309.074219 C 102.398438 296.230469 93.527344 280.941406 91.132812 262.59375 C 89.132812 247.269531 92.566406 231.308594 94.429688 216.101562 C 94.660156 214.21875 94.867188 212.34375 95.035156 210.484375 C 95.234375 208.3125 95.320312 206.144531 95.320312 203.980469 C 95.324219 184.070312 87.769531 164.382812 86.933594 144.820312 C 91.730469 143.429688 96.59375 142.261719 101.515625 141.328125 C 103.136719 161.941406 111.328125 182.703125 109.414062 203.71875 C 107.882812 220.570312 103.265625 238.601562 105.515625 255.828125 C 107.5 271.027344 113.921875 284.125 122.917969 295.472656 C 125.972656 306.785156 130.476562 317.667969 136.277344 327.871094 C 136.800781 328.242188 137.316406 328.605469 137.832031 328.96875 C 143.542969 332.964844 149.445312 336.644531 155.351562 340.035156 " fill-opacity="1" fill-rule="nonzero"/><path fill="#c9bdb8" d="M 237.074219 358.851562 C 208.855469 358.851562 181.363281 354.804688 156.617188 340.757812 C 156.195312 340.515625 155.769531 340.277344 155.351562 340.035156 C 149.445312 336.644531 143.542969 332.964844 137.832031 328.96875 C 137.316406 328.605469 136.800781 328.242188 136.277344 327.871094 C 130.476562 317.667969 125.972656 306.785156 122.917969 295.472656 C 135.59375 311.46875 153.367188 323.984375 170.996094 333.992188 C 195.746094 348.039062 223.230469 352.085938 251.453125 352.082031 C 270.597656 352.082031 290.089844 350.222656 309.277344 348.359375 C 328.46875 346.496094 347.367188 344.632812 365.34375 344.632812 C 365.441406 344.632812 365.542969 344.632812 365.644531 344.632812 C 366.539062 344.632812 367.433594 344.632812 368.328125 344.636719 C 376.40625 346.894531 384.445312 349.402344 392.371094 352.667969 C 393.042969 352.945312 393.765625 353.246094 394.515625 353.570312 C 380.390625 351.433594 366.042969 351.414062 351.261719 351.398438 C 351.160156 351.398438 351.066406 351.398438 350.960938 351.398438 C 348.773438 351.398438 346.566406 351.425781 344.351562 351.480469 C 341.886719 351.535156 339.410156 351.625 336.917969 351.738281 C 323.246094 352.355469 309.152344 353.738281 294.898438 355.125 C 288.863281 355.710938 282.800781 356.296875 276.726562 356.824219 C 263.484375 357.972656 250.199219 358.851562 237.074219 358.851562 " fill-opacity="1" fill-rule="nonzero"/><path fill="#ccc6c4" d="M 86.859375 141.375 C 86.859375 138.753906 86.996094 136.136719 87.304688 133.515625 C 86.996094 136.136719 86.859375 138.753906 86.859375 141.375 " fill-opacity="1" fill-rule="nonzero"/><path fill="#897469" d="M 86.875 142.851562 C 86.863281 142.359375 86.859375 141.867188 86.859375 141.375 C 86.859375 138.753906 86.996094 136.136719 87.304688 133.515625 C 90.410156 133.222656 93.519531 133.0625 96.628906 133.0625 C 98.171875 133.0625 99.714844 133.101562 101.253906 133.183594 C 101.214844 135.257812 101.261719 137.332031 101.382812 139.414062 C 96.484375 140.332031 91.648438 141.480469 86.875 142.851562 " fill-opacity="1" fill-rule="nonzero"/><path fill="#897469" d="M 87.558594 131.613281 C 87.707031 130.617188 87.882812 129.625 88.082031 128.632812 C 88.21875 127.96875 88.367188 127.308594 88.523438 126.648438 C 88.527344 126.636719 88.527344 126.628906 88.53125 126.621094 C 92.898438 126.769531 97.242188 127.238281 101.539062 128.121094 C 101.4375 129.183594 101.363281 130.242188 101.316406 131.304688 C 99.769531 131.226562 98.222656 131.1875 96.683594 131.1875 C 93.636719 131.1875 90.59375 131.335938 87.558594 131.613281 " fill-opacity="1" fill-rule="nonzero"/><path fill="#7d6960" d="M 124.367188 77.375 C 124.371094 77.367188 124.378906 77.367188 124.386719 77.359375 C 124.378906 77.367188 124.371094 77.367188 124.367188 77.375 M 124.441406 77.328125 C 124.445312 77.328125 124.445312 77.324219 124.449219 77.320312 C 124.449219 77.324219 124.445312 77.328125 124.441406 77.328125 " fill-opacity="1" fill-rule="nonzero"/><path fill="#897469" d="M 101.75 126.210938 C 97.539062 125.355469 93.285156 124.894531 89.007812 124.734375 C 94.457031 103.914062 105.398438 89.097656 124.300781 77.414062 C 124.320312 77.402344 124.34375 77.386719 124.367188 77.375 C 124.371094 77.367188 124.378906 77.367188 124.386719 77.359375 C 124.402344 77.351562 124.421875 77.339844 124.441406 77.328125 C 124.445312 77.328125 124.449219 77.324219 124.449219 77.320312 C 130.71875 73.457031 137.15625 70.273438 143.6875 67.726562 C 142.007812 68.660156 140.335938 69.625 138.679688 70.648438 C 119.207031 82.6875 108.175781 98.050781 102.90625 119.882812 C 102.394531 121.988281 102.015625 124.101562 101.75 126.210938 " fill-opacity="1" fill-rule="nonzero"/><path fill="#70615b" d="M 101.539062 128.121094 C 97.242188 127.238281 92.898438 126.769531 88.53125 126.621094 C 88.683594 125.984375 88.84375 125.359375 89.007812 124.734375 C 93.285156 124.894531 97.539062 125.355469 101.75 126.210938 C 101.667969 126.847656 101.597656 127.484375 101.539062 128.121094 " fill-opacity="1" fill-rule="nonzero"/><path fill="#70615b" d="M 87.304688 133.515625 C 87.378906 132.882812 87.464844 132.246094 87.558594 131.613281 C 90.59375 131.335938 93.636719 131.1875 96.683594 131.1875 C 98.222656 131.1875 99.769531 131.226562 101.316406 131.304688 C 101.285156 131.929688 101.265625 132.558594 101.253906 133.183594 C 99.714844 133.101562 98.171875 133.0625 96.628906 133.0625 C 93.519531 133.0625 90.410156 133.222656 87.304688 133.515625 " fill-opacity="1" fill-rule="nonzero"/><path fill="#70615b" d="M 86.933594 144.820312 C 86.90625 144.164062 86.886719 143.507812 86.875 142.851562 C 91.648438 141.480469 96.484375 140.332031 101.382812 139.414062 C 101.421875 140.050781 101.464844 140.6875 101.515625 141.328125 C 96.59375 142.261719 91.730469 143.429688 86.933594 144.820312 " fill-opacity="1" fill-rule="nonzero"/><path fill="#9a8276" d="M 350.445312 282.175781 C 338.089844 296.714844 339.46875 319.570312 349.898438 335.546875 C 360.324219 351.523438 377.9375 361.496094 396.011719 367.609375 C 385.429688 367.730469 374.882812 370.0625 365.234375 374.40625 C 363.773438 375.066406 362.152344 376.003906 361.910156 377.585938 C 361.46875 380.449219 365.484375 381.574219 368.386719 381.523438 C 385.925781 381.199219 403.46875 380.875 421.007812 380.550781 C 424.882812 380.476562 428.863281 380.382812 432.453125 378.914062 C 435.585938 377.628906 438.21875 375.367188 440.558594 372.917969 C 451.078125 361.910156 456.535156 346.253906 455.136719 331.09375 " fill-opacity="1" fill-rule="nonzero"/><path fill="#6b5a52" d="M 349.097656 280.832031 C 337.058594 295.789062 337.296875 316.890625 346.347656 333.335938 C 356.542969 351.851562 376.179688 362.757812 395.507812 369.445312 C 395.675781 368.199219 395.84375 366.953125 396.011719 365.707031 C 387.5 365.929688 379.105469 367.253906 371.046875 370.058594 C 367.371094 371.335938 358.976562 373.394531 360.128906 378.878906 C 361.109375 383.527344 367.242188 383.414062 370.890625 383.378906 C 380.914062 383.28125 390.9375 383.007812 400.960938 382.824219 C 409.652344 382.664062 418.714844 383.21875 427.34375 382.089844 C 434.679688 381.132812 439.945312 376.871094 444.53125 371.289062 C 453.78125 360.039062 458.089844 345.558594 457.039062 331.09375 C 456.863281 328.667969 453.058594 328.648438 453.234375 331.09375 C 454.082031 342.761719 451.414062 354.296875 445.039062 364.171875 C 441.5 369.65625 436.601562 375.730469 430.121094 377.707031 C 424.585938 379.394531 417.957031 378.703125 412.238281 378.808594 C 399.292969 379.046875 386.34375 379.285156 373.398438 379.527344 C 371.191406 379.566406 362.773438 381.210938 366.195312 376.050781 C 367.296875 374.394531 374.316406 372.949219 376.382812 372.363281 C 382.800781 370.546875 389.351562 369.6875 396.011719 369.511719 C 398.207031 369.453125 398.53125 366.472656 396.515625 365.773438 C 379.207031 359.785156 361.742188 350.386719 351.539062 334.585938 C 341.722656 319.386719 340.007812 298.15625 351.789062 283.523438 C 353.3125 281.632812 350.636719 278.921875 349.097656 280.832031 " fill-opacity="1" fill-rule="nonzero"/><path fill="#9a8276" d="M 255.085938 282.871094 C 254.101562 298.917969 259.113281 314.878906 266.730469 329.035156 C 274.347656 343.195312 284.503906 355.800781 294.59375 368.3125 C 292.316406 368.886719 289.898438 369.542969 288.316406 371.28125 C 286.738281 373.019531 286.550781 376.21875 288.558594 377.449219 C 289.429688 377.980469 290.503906 378.035156 291.523438 378.058594 C 297.15625 378.1875 302.800781 377.808594 308.367188 376.929688 C 309.460938 376.757812 310.621094 376.53125 311.417969 375.761719 C 312.347656 374.863281 312.542969 373.464844 312.675781 372.179688 C 314.484375 354.867188 315.078125 337.421875 314.445312 320.023438 " fill-opacity="1" fill-rule="nonzero"/><path fill="#6b5a52" d="M 253.183594 282.871094 C 251.664062 316.875 273.023438 344.566406 293.25 369.660156 C 293.527344 368.601562 293.808594 367.539062 294.089844 366.480469 C 289.632812 367.671875 282.328125 371.660156 285.96875 377.460938 C 287.691406 380.210938 291.117188 379.96875 293.9375 379.984375 C 298.800781 380.015625 304.113281 379.898438 308.871094 378.765625 C 317.378906 376.738281 315.398438 364.09375 315.832031 357.3125 C 316.625 344.894531 316.757812 332.457031 316.347656 320.023438 C 316.269531 317.582031 312.460938 317.570312 312.542969 320.023438 C 312.9375 332.042969 312.828125 344.0625 312.101562 356.070312 C 311.925781 358.964844 311.71875 361.859375 311.472656 364.753906 C 311.335938 366.40625 311.183594 368.054688 311.023438 369.707031 C 310.617188 373.648438 308.847656 375.539062 305.71875 375.375 C 302.960938 376.285156 299.234375 376.058594 296.351562 376.140625 C 294.742188 376.1875 293.132812 376.191406 291.523438 376.15625 C 291.066406 372.398438 292.257812 370.398438 295.101562 370.148438 C 296.597656 369.746094 296.804688 368.042969 295.941406 366.96875 C 276.355469 342.667969 255.519531 315.820312 256.988281 282.871094 C 257.097656 280.421875 253.292969 280.429688 253.183594 282.871094 " fill-opacity="1" fill-rule="nonzero"/></svg>