<svg xmlns="http://www.w3.org/2000/svg" xmlns:xlink="http://www.w3.org/1999/xlink" width="800" zoomAndPan="magnify" viewBox="0 0 600 599.999999" height="800" preserveAspectRatio="xMidYMid meet" version="1.0"><path fill="#e9a65e" d="M 481.847656 536.226562 C 461.417969 539.964844 449.617188 535.648438 439.835938 527.019531 C 432.351562 526.441406 380.554688 539.964844 346.601562 539.964844 C 327.320312 539.101562 323.582031 522.414062 323.582031 522.414062 C 323.582031 522.414062 313.125 539.675781 263.535156 536.800781 C 238.625 535.355469 232.074219 526.058594 232.074219 526.058594 C 232.074219 526.058594 203.363281 533.058594 169.40625 525.292969 C 155.59375 520.113281 158.214844 503.425781 170.878906 493.929688 C 168.3125 472.289062 158.160156 370.753906 171.75 322.296875 C 132.953125 286.8125 74.828125 225.8125 74.332031 217.253906 C 87.082031 207.683594 97.519531 190.078125 110.878906 169.691406 C 80.710938 136.996094 101.175781 92.828125 110.371094 91.867188 C 118.238281 91.042969 150.445312 103.304688 162.175781 107.90625 C 202.550781 73.0625 239.5625 73.660156 257.707031 71.761719 C 275.855469 69.859375 311.902344 61.609375 358.867188 87.304688 C 369.34375 80.378906 398.179688 61.722656 406.050781 60.898438 C 415.246094 59.9375 444.75 98.867188 422.300781 137.074219 C 439.746094 154.234375 453.738281 169.285156 468.261719 176 C 465.417969 185.191406 437.878906 245.1875 424.265625 277.75 C 436.949219 282.1875 499.546875 308.710938 523.285156 406.75 C 549.757812 516.085938 505.730469 531.851562 481.847656 536.226562 Z M 481.847656 536.226562 C 461.417969 539.964844 449.617188 535.648438 439.835938 527.019531 C 432.351562 526.441406 380.554688 539.964844 346.601562 539.964844 C 327.320312 539.101562 323.582031 522.414062 323.582031 522.414062 C 323.582031 522.414062 313.125 539.675781 263.535156 536.800781 C 238.625 535.355469 232.074219 526.058594 232.074219 526.058594 C 232.074219 526.058594 203.363281 533.058594 169.40625 525.292969 C 155.59375 520.113281 158.214844 503.425781 170.878906 493.929688 C 168.3125 472.289062 158.160156 370.753906 171.75 322.296875 C 162.402344 316.542969 79.527344 230.226562 74.332031 217.253906 C 87.082031 207.683594 97.519531 190.078125 110.878906 169.691406 C 80.710938 136.996094 101.175781 92.828125 110.371094 91.867188 C 118.238281 91.042969 150.445312 103.304688 162.175781 107.90625 C 202.550781 73.0625 239.5625 73.660156 257.707031 71.761719 C 275.855469 69.859375 311.902344 61.609375 358.867188 87.304688 C 369.34375 80.378906 398.179688 61.722656 406.050781 60.898438 C 415.246094 59.9375 444.75 98.867188 422.300781 137.074219 C 439.746094 154.234375 453.738281 169.285156 468.261719 176 C 464.738281 196.597656 419.847656 265.902344 424.265625 277.75 C 436.949219 282.1875 499.546875 308.710938 523.285156 406.75 C 549.757812 516.085938 505.730469 531.851562 481.847656 536.226562 Z M 481.847656 536.226562 " fill-opacity="1" fill-rule="nonzero"/><path fill="#a85636" d="M 173.179688 521.070312 C 159.367188 515.890625 166.65625 502.847656 170.878906 493.929688 C 168.3125 472.289062 158.160156 370.753906 171.75 322.296875 L 186.828125 327.113281 C 186.828125 327.113281 191.210938 349.203125 197.832031 387.757812 C 204.449219 426.3125 244.128906 434.433594 244.128906 434.433594 C 244.128906 434.433594 241.859375 480.117188 240.707031 501.410156 C 224.878906 513.496094 207.132812 528.839844 173.179688 521.070312 Z M 173.179688 521.070312 C 159.367188 515.890625 166.65625 502.847656 170.878906 493.929688 C 168.3125 472.289062 158.160156 370.753906 171.75 322.296875 L 186.828125 327.113281 C 186.828125 327.113281 191.210938 349.203125 197.832031 387.757812 C 204.449219 426.3125 244.128906 434.433594 244.128906 434.433594 C 244.128906 434.433594 241.859375 480.117188 240.707031 501.410156 C 224.878906 513.496094 207.132812 528.839844 173.179688 521.070312 Z M 173.179688 521.070312 " fill-opacity="1" fill-rule="nonzero"/><path fill="#f9f1e9" d="M 74.332031 217.253906 C 75.203125 216.601562 76.066406 215.894531 76.917969 215.167969 C 76.921875 215.167969 76.925781 215.164062 76.929688 215.164062 C 83.3125 214.578125 86.277344 220.738281 107.832031 243.757812 C 129.386719 266.773438 172.988281 271.378906 198.140625 238.003906 C 223.292969 204.628906 254.308594 196.949219 266.222656 196.570312 C 302.285156 195.417969 318.554688 203.335938 338.023438 231.480469 C 354.859375 255.8125 403.195312 249.894531 421.992188 234.167969 C 440.792969 218.4375 460.394531 171.5625 464.347656 173.96875 C 465.648438 174.703125 466.953125 175.394531 468.261719 176 C 495.59375 188.636719 445.886719 317.859375 286.304688 334.570312 C 126.726562 351.285156 50.332031 235.269531 74.332031 217.253906 Z M 196.730469 144.179688 C 196.792969 144.15625 196.859375 144.128906 196.917969 144.085938 C 197.230469 143.867188 197.308594 143.433594 197.089844 143.117188 C 195.082031 140.238281 192.042969 138.773438 188.894531 138.125 C 185.746094 137.464844 182.292969 137.925781 179.414062 139 C 176.574219 140.027344 173.691406 141.722656 171.507812 144.164062 C 169.335938 146.609375 167.929688 149.640625 167.871094 152.894531 C 167.871094 152.992188 167.886719 153.09375 167.929688 153.191406 C 168.085938 153.570312 168.519531 153.75 168.898438 153.589844 L 168.910156 153.585938 C 171.835938 152.375 174.09375 151.367188 176.265625 150.640625 C 178.410156 149.886719 180.449219 149.28125 182.691406 148.574219 L 196.613281 144.214844 Z M 330.761719 135.230469 L 345.191406 137.386719 C 347.511719 137.738281 349.625 138.023438 351.859375 138.433594 C 354.117188 138.816406 356.5 139.464844 359.578125 140.210938 L 359.59375 140.214844 C 359.992188 140.308594 360.394531 140.066406 360.488281 139.667969 C 360.511719 139.566406 360.515625 139.460938 360.5 139.367188 C 359.9375 136.160156 358.082031 133.382812 355.558594 131.304688 C 353.023438 129.226562 349.914062 127.996094 346.949219 127.421875 C 343.9375 126.804688 340.457031 126.882812 337.449219 128.023438 C 334.4375 129.148438 331.660156 131.0625 330.121094 134.222656 C 329.953125 134.566406 330.097656 134.984375 330.441406 135.152344 C 330.507812 135.183594 330.574219 135.203125 330.640625 135.214844 Z M 243.675781 435.003906 C 243.675781 435.003906 165.027344 414.519531 184.304688 324.746094 C 215.382812 316.980469 285.597656 331.078125 285.597656 331.078125 C 285.597656 331.078125 287.035156 347.765625 272.070312 365.890625 C 257.109375 384.019531 246.171875 377.402344 243.675781 435.003906 Z M 240.707031 501.410156 C 240.707031 501.410156 198.117188 479.253906 170.878906 493.929688 C 158.214844 503.425781 155.59375 520.113281 169.40625 525.292969 C 203.363281 533.058594 232.074219 526.058594 232.074219 526.058594 C 232.074219 526.058594 233.628906 528.253906 238.078125 530.679688 C 238.082031 530.679688 238.082031 530.679688 238.082031 530.679688 C 242.789062 533.242188 250.734375 536.058594 263.535156 536.800781 C 313.125 539.675781 323.582031 522.414062 323.582031 522.414062 C 321.855469 500.546875 255.09375 491.628906 240.707031 501.410156 Z M 346.601562 539.964844 C 356.742188 539.964844 368.476562 538.753906 380.148438 537.078125 C 388.367188 501.398438 356.945312 496.476562 356.945312 496.476562 C 329.71875 503.425781 324.550781 514.644531 323.644531 522.664062 C 324.195312 524.71875 328.695312 539.164062 346.601562 539.964844 Z M 226.195312 187.742188 C 225.851562 164.324219 208.007812 158.179688 197.433594 158.785156 C 186.859375 159.394531 168.992188 163.957031 170.132812 188.328125 C 171.316406 213.535156 187.039062 219.320312 200.332031 217.984375 C 211.742188 216.835938 226.535156 211.164062 226.195312 187.742188 Z M 340.867188 207.039062 C 354.199219 206.167969 368.753906 197.867188 365.761719 172.8125 C 362.871094 148.585938 344.496094 147.03125 333.964844 148.171875 C 323.433594 149.316406 306.851562 158.316406 310.375 181.472656 C 313.894531 204.628906 329.421875 207.789062 340.867188 207.039062 Z M 370.78125 94.398438 C 375.960938 90.949219 396.105469 77.726562 401.339844 77.175781 C 407.171875 76.566406 426.121094 101.714844 410.675781 125.921875 C 399.214844 115.246094 386.203125 104.292969 370.78125 94.398438 Z M 152.800781 116.558594 C 146.421875 114.035156 123.269531 105.070312 117.84375 105.636719 C 111.753906 106.277344 98.082031 135.984375 119.132812 157.402344 C 128.367188 144.039062 139.15625 129.992188 152.800781 116.558594 Z M 152.800781 116.558594 " fill-opacity="1" fill-rule="nonzero"/><path fill="#a85636" d="M 293.65625 249.136719 C 292.507812 249.207031 291.292969 249.21875 290.007812 249.160156 C 279.023438 248.675781 273.945312 242.25 271.59375 236.214844 C 269.996094 242.488281 265.734375 249.488281 254.890625 251.300781 C 253.621094 251.511719 252.410156 251.648438 251.265625 251.71875 C 232.871094 252.839844 229.644531 236.746094 229.613281 236.570312 C 229.476562 235.851562 229.953125 235.15625 230.675781 235.023438 C 231.394531 234.882812 232.089844 235.363281 232.222656 236.085938 C 232.347656 236.726562 235.46875 251.859375 254.453125 248.679688 C 267.777344 246.449219 269.789062 235.46875 269.878906 229.542969 C 269.546875 227.191406 269.578125 225.574219 269.578125 225.515625 C 269.601562 224.875 270.078125 224.378906 270.691406 224.277344 C 270.722656 224.269531 270.75 224.246094 270.78125 224.242188 C 270.8125 224.238281 270.839844 224.25 270.871094 224.246094 C 270.898438 224.246094 270.921875 224.230469 270.949219 224.230469 C 270.980469 224.234375 271.003906 224.25 271.035156 224.25 C 271.660156 224.269531 272.199219 224.710938 272.296875 225.351562 C 272.308594 225.410156 272.535156 227.007812 272.488281 229.382812 C 273.296875 235.253906 276.625 245.910156 290.125 246.507812 C 309.378906 247.355469 310.617188 231.960938 310.660156 231.304688 C 310.710938 230.574219 311.355469 230.023438 312.074219 230.070312 C 312.804688 230.117188 313.359375 230.746094 313.3125 231.476562 C 313.304688 231.652344 312.046875 248.015625 293.65625 249.136719 Z M 293.65625 249.136719 C 292.507812 249.207031 291.292969 249.21875 290.007812 249.160156 C 279.023438 248.675781 273.945312 242.25 271.59375 236.214844 C 269.996094 242.488281 265.734375 249.488281 254.890625 251.300781 C 253.621094 251.511719 252.410156 251.648438 251.265625 251.71875 C 232.871094 252.839844 229.644531 236.746094 229.613281 236.570312 C 229.476562 235.851562 229.953125 235.15625 230.675781 235.023438 C 231.394531 234.882812 232.089844 235.363281 232.222656 236.085938 C 232.347656 236.726562 235.46875 251.859375 254.453125 248.679688 C 267.777344 246.449219 269.789062 235.46875 269.878906 229.542969 C 269.546875 227.191406 269.578125 225.574219 269.578125 225.515625 C 269.601562 224.875 270.078125 224.378906 270.691406 224.277344 C 270.722656 224.269531 270.75 224.246094 270.78125 224.242188 C 270.8125 224.238281 270.839844 224.25 270.871094 224.246094 C 270.898438 224.246094 270.921875 224.230469 270.949219 224.230469 C 270.980469 224.234375 271.003906 224.25 271.035156 224.25 C 271.660156 224.269531 272.199219 224.710938 272.296875 225.351562 C 272.308594 225.410156 272.535156 227.007812 272.488281 229.382812 C 273.296875 235.253906 276.625 245.910156 290.125 246.507812 C 309.378906 247.355469 310.617188 231.960938 310.660156 231.304688 C 310.710938 230.574219 311.355469 230.023438 312.074219 230.070312 C 312.804688 230.117188 313.359375 230.746094 313.3125 231.476562 C 313.304688 231.652344 312.046875 248.015625 293.65625 249.136719 Z M 256.921875 339.050781 C 207.578125 339.050781 173.984375 326.3125 170.992188 325.132812 C 171.042969 324.863281 171.527344 322.804688 171.738281 322.292969 C 172.335938 322.539062 232.628906 346.757812 313.023438 330.5 C 313.832031 330.339844 314.597656 330.855469 314.757812 331.648438 C 314.917969 332.445312 314.402344 333.222656 313.609375 333.382812 C 293.222656 337.503906 274.113281 339.050781 256.921875 339.050781 Z M 387.519531 484.917969 C 386.605469 485.128906 373.507812 488.132812 360.277344 492.292969 C 341.171875 485.125 332.53125 465.039062 332.488281 452.875 C 335.132812 433.464844 338.265625 415.839844 341.53125 409.136719 C 350.675781 390.367188 372.328125 380.574219 388.09375 377.890625 C 388.894531 377.757812 389.433594 376.996094 389.296875 376.195312 C 389.160156 375.394531 388.402344 374.859375 387.601562 374.992188 C 371.148438 377.792969 348.519531 388.078125 338.886719 407.847656 C 329.980469 426.125 322.429688 518.375 322.113281 522.292969 C 322.050781 523.101562 322.644531 523.804688 323.453125 523.875 C 323.496094 523.878906 323.539062 523.882812 323.582031 523.882812 C 324.332031 523.882812 324.972656 523.308594 325.046875 522.546875 C 325.054688 522.449219 326.121094 512.546875 338.015625 504.648438 C 350.347656 496.457031 387.796875 487.871094 388.171875 487.785156 C 388.964844 487.605469 389.460938 486.816406 389.28125 486.027344 C 389.101562 485.234375 388.308594 484.730469 387.519531 484.917969 Z M 491.71875 498.679688 C 491.34375 497.960938 490.460938 497.675781 489.734375 498.050781 C 474.144531 506.117188 462.632812 488.734375 446.695312 464.683594 C 443.382812 459.679688 439.957031 454.511719 436.265625 449.230469 C 423.363281 430.777344 408.667969 424.058594 398.613281 421.667969 C 386.628906 418.816406 374.441406 420.597656 366.027344 426.425781 C 356.871094 432.761719 355.128906 440.855469 356.554688 446.3125 C 358.007812 451.894531 362.792969 455.863281 368.738281 456.429688 C 380.007812 457.503906 391.660156 458.613281 406.203125 481.085938 C 419.578125 501.75 432.785156 521.710938 436.441406 527.226562 C 437.199219 527.214844 438.921875 527.132812 439.882812 527.089844 C 439.730469 526.859375 424.3125 503.65625 408.671875 479.488281 C 393.355469 455.820312 380.984375 454.640625 369.019531 453.503906 C 364.242188 453.046875 360.558594 450.007812 359.398438 445.570312 C 357.878906 439.746094 360.984375 433.492188 367.703125 428.84375 C 381.484375 419.300781 412.039062 419.722656 433.855469 450.917969 C 437.527344 456.167969 440.941406 461.320312 444.246094 466.304688 C 460.398438 490.6875 473.152344 509.9375 491.089844 500.664062 C 491.808594 500.289062 492.09375 499.402344 491.71875 498.679688 Z M 491.71875 498.679688 C 491.34375 497.960938 490.460938 497.675781 489.734375 498.050781 C 474.144531 506.117188 462.632812 488.734375 446.695312 464.683594 C 443.382812 459.679688 439.957031 454.511719 436.265625 449.230469 C 423.363281 430.777344 408.667969 424.058594 398.613281 421.667969 C 386.628906 418.816406 374.441406 420.597656 366.027344 426.425781 C 356.871094 432.761719 355.128906 440.855469 356.554688 446.3125 C 358.007812 451.894531 362.792969 455.863281 368.738281 456.429688 C 380.007812 457.503906 391.660156 458.613281 406.203125 481.085938 C 419.578125 501.75 432.785156 521.710938 436.441406 527.226562 C 437.199219 527.214844 438.921875 527.132812 439.882812 527.089844 C 439.730469 526.859375 424.3125 503.65625 408.671875 479.488281 C 393.355469 455.820312 380.984375 454.640625 369.019531 453.503906 C 364.242188 453.046875 360.558594 450.007812 359.398438 445.570312 C 357.878906 439.746094 360.984375 433.492188 367.703125 428.84375 C 381.484375 419.300781 412.039062 419.722656 433.855469 450.917969 C 437.527344 456.167969 440.941406 461.320312 444.246094 466.304688 C 460.398438 490.6875 473.152344 509.9375 491.089844 500.664062 C 491.808594 500.289062 492.09375 499.402344 491.71875 498.679688 Z M 229.226562 526.648438 C 224.121094 511.359375 234.230469 502.480469 237.710938 499.96875 C 238.375 499.484375 239.867188 500.285156 240.707031 501.410156 C 240.132812 501.742188 226.476562 509.964844 232.164062 526.144531 C 231.136719 526.417969 229.699219 526.660156 229.226562 526.648438 Z M 229.226562 526.648438 " fill-opacity="1" fill-rule="nonzero"/><path fill="#231f20" d="M 270.238281 203.019531 C 269.941406 203.027344 269.253906 203.082031 268.566406 203.140625 C 267.882812 203.195312 267.191406 203.253906 266.902344 203.296875 C 256.292969 204.28125 246.980469 207.824219 247.667969 210.015625 C 248.015625 211.128906 267.496094 227.730469 270.484375 227.480469 C 270.507812 227.480469 270.667969 227.464844 270.6875 227.464844 C 273.679688 227.21875 290.152344 207.632812 290.3125 206.476562 C 290.628906 204.203125 280.859375 202.242188 270.238281 203.019531 Z M 185.046875 186.945312 C 184.011719 167.125 197.933594 163.519531 206.183594 163.085938 C 209.355469 162.917969 213.367188 163.589844 217.132812 165.539062 C 222.101562 169.542969 226.546875 177.1875 226.703125 187.832031 C 226.820312 195.957031 224.566406 202.464844 221.785156 206.261719 C 217.921875 209.546875 213.0625 210.804688 208.796875 211.222656 C 198.429688 212.234375 186.121094 207.441406 185.046875 186.945312 Z M 331.265625 201.777344 C 326.992188 202.070312 321.992188 201.628906 317.636719 199.023438 C 314.269531 195.738281 310.972656 189.691406 309.75 181.65625 C 308.148438 171.132812 311.273438 162.859375 315.511719 158.089844 C 318.90625 155.550781 322.75 154.222656 325.90625 153.867188 C 334.117188 152.933594 348.441406 154.199219 350.6875 173.914062 C 353.007812 194.308594 341.65625 201.066406 331.265625 201.777344 Z M 350.941406 219.65625 C 354.960938 217.378906 358.507812 215.050781 361.597656 212.535156 C 363.121094 211.246094 364.527344 209.921875 365.828125 208.539062 C 367.070312 207.101562 368.277344 205.675781 369.308594 204.097656 C 371.375 200.957031 372.925781 197.410156 374.128906 193.511719 C 375.378906 189.613281 376.183594 185.402344 377.234375 180.894531 L 377.238281 180.875 C 377.371094 180.3125 377.9375 179.960938 378.503906 180.089844 C 378.839844 180.171875 379.105469 180.410156 379.230469 180.703125 C 381.089844 185.085938 381.875 189.882812 381.589844 194.796875 C 381.304688 199.695312 379.792969 204.734375 376.976562 209.089844 C 376.636719 209.640625 376.25 210.160156 375.882812 210.695312 L 374.636719 212.183594 C 373.84375 213.210938 372.835938 214.042969 371.910156 214.929688 C 369.941406 216.597656 367.773438 217.972656 365.480469 219.011719 C 363.191406 220.046875 360.777344 220.71875 358.351562 221.046875 C 355.917969 221.359375 353.476562 221.378906 351.046875 220.777344 C 350.726562 220.699219 350.53125 220.375 350.609375 220.058594 C 350.648438 219.890625 350.753906 219.761719 350.890625 219.683594 Z M 188.417969 230.691406 C 188.535156 230.386719 188.378906 230.042969 188.070312 229.925781 L 188.019531 229.90625 C 183.695312 228.28125 179.828125 226.53125 176.386719 224.527344 C 174.679688 223.492188 173.085938 222.398438 171.585938 221.238281 C 170.136719 220.011719 168.722656 218.785156 167.457031 217.390625 C 164.929688 214.605469 162.847656 211.34375 161.050781 207.679688 C 159.214844 204.023438 157.765625 199.988281 156.027344 195.695312 L 156.015625 195.675781 C 155.894531 195.375 155.636719 195.140625 155.300781 195.054688 C 154.738281 194.914062 154.164062 195.257812 154.023438 195.820312 C 152.871094 200.433594 152.835938 205.296875 153.882812 210.105469 C 154.925781 214.898438 157.199219 219.644531 160.65625 223.511719 C 161.078125 224 161.542969 224.457031 161.988281 224.925781 L 163.449219 226.203125 C 164.390625 227.097656 165.519531 227.761719 166.570312 228.496094 C 168.773438 229.835938 171.132812 230.859375 173.554688 231.527344 C 175.980469 232.195312 178.46875 232.484375 180.914062 232.433594 C 183.367188 232.363281 185.78125 232.003906 188.089844 231.03125 C 188.234375 230.972656 188.359375 230.851562 188.417969 230.691406 Z M 178.421875 245.667969 C 178.445312 245.351562 178.210938 245.078125 177.894531 245.054688 L 177.839844 245.050781 C 171.207031 244.566406 164.894531 243.316406 159.21875 241.140625 C 153.53125 238.976562 148.59375 235.734375 144.527344 231.5625 C 142.5625 229.523438 140.914062 227.261719 139.566406 224.746094 C 138.234375 222.21875 137.207031 219.445312 136.386719 216.507812 C 135.5625 213.570312 134.972656 210.472656 134.457031 207.292969 L 133.089844 197.496094 L 133.089844 197.484375 C 133.035156 197.105469 132.773438 196.777344 132.390625 196.648438 C 131.851562 196.472656 131.269531 196.765625 131.09375 197.304688 C 128.957031 203.8125 127.984375 210.761719 128.757812 217.933594 C 129.144531 221.511719 130.046875 225.136719 131.5625 228.601562 C 133.101562 232.058594 135.335938 235.273438 137.988281 237.984375 C 143.21875 243.28125 150.152344 246.902344 157.273438 248.195312 C 164.394531 249.476562 171.648438 248.921875 178.078125 246.152344 C 178.269531 246.070312 178.40625 245.890625 178.421875 245.667969 Z M 360.230469 235.167969 C 360.023438 235.203125 359.847656 235.347656 359.78125 235.558594 C 359.683594 235.859375 359.847656 236.183594 360.148438 236.28125 C 366.8125 238.421875 374.089844 238.285156 381.054688 236.328125 C 388.019531 234.363281 394.574219 230.097656 399.277344 224.328125 C 401.660156 221.371094 403.578125 217.960938 404.777344 214.371094 C 405.960938 210.777344 406.507812 207.082031 406.554688 203.484375 C 406.640625 196.273438 405.007812 189.449219 402.261719 183.175781 C 402.109375 182.828125 401.769531 182.578125 401.363281 182.558594 C 400.796875 182.535156 400.316406 182.976562 400.292969 183.542969 L 400.292969 183.554688 L 399.863281 193.4375 C 399.65625 196.652344 399.363281 199.789062 398.824219 202.792969 C 398.285156 205.796875 397.53125 208.65625 396.445312 211.296875 C 395.34375 213.929688 393.917969 216.339844 392.15625 218.558594 C 388.503906 223.097656 383.898438 226.796875 378.445312 229.492188 C 373.003906 232.199219 366.839844 234.046875 360.285156 235.160156 Z M 302.609375 95.4375 C 302.816406 95.464844 303.03125 95.378906 303.160156 95.195312 C 303.339844 94.933594 303.277344 94.578125 303.015625 94.394531 C 299.753906 92.117188 296.152344 90.609375 292.484375 89.238281 C 288.796875 87.929688 284.988281 86.972656 281.125 86.300781 C 277.265625 85.609375 273.347656 85.304688 269.421875 85.179688 C 265.511719 85.136719 261.53125 85.300781 257.695312 85.757812 C 250.023438 86.609375 242.261719 88.175781 234.894531 91.039062 C 227.546875 93.902344 220.644531 98.066406 215.136719 103.5625 C 214.855469 103.847656 214.75 104.292969 214.921875 104.6875 C 215.144531 105.207031 215.742188 105.445312 216.261719 105.222656 C 223.242188 102.25 230.101562 99.867188 237.15625 98.261719 C 244.191406 96.617188 251.371094 95.625 258.679688 94.851562 C 260.519531 94.652344 262.3125 94.527344 264.113281 94.355469 C 265.914062 94.195312 267.71875 94.132812 269.527344 94 C 273.140625 93.875 276.765625 93.757812 280.410156 93.816406 C 287.695312 93.945312 295.058594 94.40625 302.570312 95.429688 Z M 291.941406 118.894531 C 292.117188 118.898438 292.289062 118.828125 292.410156 118.683594 C 292.617188 118.4375 292.585938 118.066406 292.339844 117.855469 C 290.199219 116.046875 287.785156 114.785156 285.289062 113.710938 C 282.785156 112.65625 280.175781 111.875 277.519531 111.320312 C 272.214844 110.191406 266.664062 110.078125 261.335938 110.695312 C 256.070312 111.289062 250.707031 112.441406 245.648438 114.585938 C 240.613281 116.726562 235.917969 119.839844 232.417969 123.980469 C 232.195312 124.246094 232.105469 124.617188 232.222656 124.972656 C 232.398438 125.519531 232.984375 125.820312 233.53125 125.644531 L 233.542969 125.640625 C 238.519531 124.03125 243.167969 122.699219 247.910156 121.808594 C 252.636719 120.886719 257.417969 120.304688 262.320312 119.792969 L 265.945312 119.449219 L 269.542969 119.167969 C 271.949219 119.046875 274.363281 118.898438 276.804688 118.835938 C 281.683594 118.722656 286.644531 118.730469 291.894531 118.890625 Z M 282.46875 141.601562 C 282.566406 141.582031 282.660156 141.535156 282.746094 141.46875 C 283.011719 141.246094 283.050781 140.847656 282.828125 140.578125 C 280.578125 137.875 277.578125 136.394531 274.492188 135.476562 C 271.402344 134.570312 268.078125 134.386719 264.960938 134.777344 C 261.898438 135.132812 258.738281 135.910156 255.800781 137.386719 C 252.886719 138.871094 250.21875 141.019531 248.554688 143.914062 C 248.441406 144.113281 248.386719 144.351562 248.414062 144.597656 C 248.484375 145.207031 249.039062 145.648438 249.652344 145.578125 L 249.679688 145.574219 C 252.816406 145.210938 255.441406 144.84375 258.0625 144.609375 L 265.945312 143.875 C 267.300781 143.761719 268.535156 143.625 269.84375 143.460938 C 271.136719 143.335938 272.445312 143.164062 273.777344 142.992188 C 276.453125 142.652344 279.207031 142.25 282.382812 141.617188 Z M 291.6875 423.800781 C 289.554688 423.785156 287.40625 423.734375 285.253906 423.75 C 283.109375 423.863281 280.945312 423.871094 278.789062 424.078125 C 276.636719 424.285156 274.464844 424.445312 272.316406 424.808594 C 270.148438 425.085938 268.003906 425.527344 265.847656 425.96875 C 261.558594 426.9375 257.28125 428.183594 253.097656 429.882812 C 251.011719 430.742188 248.933594 431.667969 246.902344 432.785156 C 245.941406 433.28125 245.003906 433.851562 244.058594 434.433594 C 243.289062 433.964844 236.515625 432.054688 234.425781 431.195312 C 230.246094 429.496094 225.96875 428.25 221.679688 427.28125 C 219.523438 426.839844 217.378906 426.394531 215.210938 426.121094 C 213.0625 425.757812 210.890625 425.597656 208.738281 425.390625 C 206.582031 425.183594 204.417969 425.175781 202.273438 425.0625 C 200.121094 425.046875 197.972656 425.097656 195.839844 425.113281 C 195.207031 425.117188 194.652344 425.578125 194.550781 426.222656 C 194.4375 426.941406 194.925781 427.613281 195.644531 427.726562 L 195.722656 427.738281 C 197.796875 428.0625 199.863281 428.351562 201.910156 428.703125 C 203.949219 429.148438 205.996094 429.488281 207.996094 430.019531 C 209.996094 430.546875 212 431.027344 213.941406 431.695312 C 215.910156 432.277344 217.820312 433.015625 219.71875 433.738281 C 223.484375 435.261719 227.125 437.011719 230.496094 439.074219 C 232.175781 440.113281 233.816406 441.195312 235.320312 442.382812 C 236.09375 442.953125 236.804688 443.574219 237.5 444.183594 C 237.828125 444.492188 238.195312 444.796875 238.484375 445.105469 C 238.769531 445.382812 239.121094 445.808594 239.214844 445.894531 C 240.445312 447.007812 242.722656 449.523438 243.25 450.625 C 243.945312 448.324219 246.753906 446.078125 248.3125 444.582031 C 248.402344 444.492188 248.757812 444.070312 249.042969 443.792969 C 249.332031 443.484375 249.695312 443.179688 250.027344 442.871094 C 250.722656 442.265625 251.433594 441.640625 252.207031 441.070312 C 253.710938 439.882812 255.351562 438.800781 257.027344 437.765625 C 260.402344 435.699219 264.042969 433.949219 267.808594 432.425781 C 269.707031 431.703125 271.617188 430.964844 273.582031 430.386719 C 275.527344 429.714844 277.53125 429.238281 279.53125 428.707031 C 281.53125 428.175781 283.578125 427.839844 285.613281 427.390625 C 287.664062 427.039062 289.730469 426.75 291.804688 426.425781 L 291.882812 426.414062 C 292.507812 426.316406 292.988281 425.777344 292.992188 425.125 C 293 424.398438 292.414062 423.804688 291.6875 423.800781 Z M 193.125 396.828125 C 192.539062 396.617188 191.953125 396.40625 191.371094 396.195312 C 189.339844 395.457031 187.242188 394.910156 185.195312 394.265625 C 183.113281 393.710938 181.023438 393.222656 178.953125 392.707031 C 178.335938 392.550781 177.683594 392.859375 177.425781 393.460938 C 177.136719 394.125 177.445312 394.898438 178.109375 395.1875 L 178.183594 395.21875 C 180.109375 396.050781 182.039062 396.847656 183.9375 397.699219 C 185.796875 398.640625 187.695312 399.476562 189.5 400.492188 C 191.304688 401.503906 193.121094 402.46875 194.839844 403.601562 C 196.597656 404.65625 198.261719 405.84375 199.921875 407.019531 C 200.515625 407.457031 201.097656 407.914062 201.679688 408.367188 C 198.628906 404.933594 195.730469 401.101562 193.125 396.828125 Z M 288.4375 385.417969 C 286.324219 385.71875 284.195312 385.992188 282.070312 386.328125 C 279.964844 386.757812 277.824219 387.085938 275.726562 387.613281 C 273.628906 388.136719 271.503906 388.621094 269.433594 389.300781 C 267.332031 389.894531 265.277344 390.648438 263.210938 391.40625 C 259.109375 393.003906 255.070312 394.871094 251.183594 397.175781 C 250 397.886719 248.832031 398.648438 247.675781 399.4375 C 247.378906 400.652344 247.09375 401.941406 246.824219 403.308594 C 246.34375 406.375 245.746094 410.238281 245.167969 414.109375 C 245.101562 414.675781 245.039062 415.257812 244.972656 415.84375 C 246.429688 414.660156 249.007812 411.847656 249.242188 411.535156 C 249.484375 411.1875 249.800781 410.832031 250.078125 410.476562 C 250.679688 409.773438 251.289062 409.050781 251.96875 408.371094 C 253.277344 406.972656 254.738281 405.660156 256.246094 404.382812 C 259.273438 401.839844 262.613281 399.570312 266.109375 397.5 C 267.878906 396.503906 269.65625 395.492188 271.515625 394.625 C 273.339844 393.671875 275.246094 392.902344 277.148438 392.078125 C 279.046875 391.257812 281.019531 390.617188 282.96875 389.871094 C 284.941406 389.21875 286.945312 388.628906 288.945312 387.996094 L 289.019531 387.972656 C 289.625 387.785156 290.019531 387.179688 289.925781 386.535156 C 289.824219 385.816406 289.15625 385.316406 288.4375 385.417969 Z M 373.472656 408.542969 C 371.359375 408.84375 369.226562 409.113281 367.101562 409.449219 C 365 409.882812 362.859375 410.210938 360.757812 410.734375 C 358.660156 411.261719 356.539062 411.742188 354.464844 412.421875 C 352.363281 413.015625 350.308594 413.773438 348.242188 414.53125 C 344.308594 416.0625 340.429688 417.859375 336.6875 420.035156 L 333.640625 435.378906 C 333.972656 435.011719 334.214844 434.742188 334.277344 434.65625 C 334.519531 434.308594 334.832031 433.953125 335.113281 433.597656 C 335.710938 432.894531 336.320312 432.171875 337 431.492188 C 338.3125 430.097656 339.773438 428.78125 341.277344 427.507812 C 344.308594 424.964844 347.644531 422.691406 351.140625 420.625 C 352.914062 419.625 354.691406 418.613281 356.550781 417.746094 C 358.371094 416.796875 360.28125 416.023438 362.179688 415.203125 C 364.082031 414.378906 366.054688 413.742188 368 412.996094 C 369.976562 412.34375 371.976562 411.75 373.976562 411.121094 L 374.054688 411.097656 C 374.65625 410.90625 375.050781 410.304688 374.960938 409.65625 C 374.855469 408.9375 374.191406 408.4375 373.472656 408.542969 Z M 398.871094 458.855469 L 398.808594 458.910156 C 398.582031 459.109375 398.472656 459.425781 398.550781 459.738281 C 398.664062 460.1875 399.117188 460.460938 399.566406 460.347656 C 409.496094 457.878906 418.421875 452.105469 425.570312 444.316406 C 426.101562 443.734375 426.617188 443.136719 427.125 442.527344 C 424.417969 439.59375 421.632812 437.039062 418.800781 434.84375 C 418.25 435.847656 417.679688 436.847656 417.066406 437.832031 C 412.390625 445.382812 406.15625 452.425781 398.871094 458.855469 Z M 461.683594 300.023438 C 461.523438 300.46875 461.367188 300.914062 461.199219 301.359375 C 456.734375 313.0625 449.972656 324.484375 441.59375 335.335938 L 441.523438 335.425781 C 441.261719 335.765625 441.195312 336.230469 441.386719 336.644531 C 441.660156 337.238281 442.363281 337.496094 442.957031 337.21875 C 455.175781 331.5625 465.421875 322.144531 473.09375 310.59375 C 469.238281 306.648438 465.410156 303.144531 461.683594 300.023438 Z M 497.808594 342.855469 C 486.824219 354.574219 473.332031 364.898438 458.214844 373.800781 L 458.082031 373.875 C 457.605469 374.160156 457.296875 374.691406 457.328125 375.285156 C 457.371094 376.136719 458.097656 376.792969 458.949219 376.746094 C 475.957031 375.855469 492.429688 369.78125 507.003906 360.070312 C 504.078125 353.90625 501 348.171875 497.808594 342.855469 Z M 529.363281 438 C 519.632812 439.226562 509.402344 439.28125 498.933594 438.335938 L 498.820312 438.328125 C 498.402344 438.289062 497.972656 438.480469 497.730469 438.863281 C 497.382812 439.40625 497.539062 440.128906 498.085938 440.480469 C 507.804688 446.707031 519.089844 450.199219 530.851562 451.195312 C 530.507812 447.011719 530.011719 442.609375 529.363281 438 Z M 519.207031 391.800781 C 508.710938 396.519531 497.207031 400.035156 485.070312 402.449219 L 484.945312 402.472656 C 484.476562 402.566406 484.078125 402.910156 483.933594 403.402344 C 483.730469 404.105469 484.132812 404.839844 484.835938 405.042969 C 497.167969 408.632812 510.296875 408.863281 523.175781 406.324219 C 521.953125 401.300781 520.625 396.457031 519.207031 391.800781 Z M 460.007812 488.632812 C 455.636719 495.300781 450.148438 501.65625 443.816406 507.621094 L 443.75 507.683594 C 443.496094 507.921875 443.402344 508.285156 443.542969 508.636719 C 443.738281 509.136719 444.332031 509.421875 444.871094 509.269531 C 453.496094 506.859375 461.238281 502.511719 467.8125 496.804688 C 465.195312 494.566406 462.609375 491.808594 460.007812 488.632812 Z M 436.132812 470.800781 C 435.808594 470.671875 435.457031 470.742188 435.207031 470.953125 L 435.140625 471.011719 C 428.074219 477.085938 420.609375 482.195312 412.886719 485.980469 C 414.894531 489.074219 416.878906 492.117188 418.804688 495.066406 C 426.707031 488.882812 433 481.042969 436.636719 471.976562 C 436.820312 471.511719 436.597656 470.984375 436.132812 470.800781 Z M 436.132812 470.800781 " fill-opacity="1" fill-rule="nonzero"/></svg>