<svg xmlns="http://www.w3.org/2000/svg" xmlns:xlink="http://www.w3.org/1999/xlink" width="800" zoomAndPan="magnify" viewBox="0 0 600 599.999999" height="800" preserveAspectRatio="xMidYMid meet" version="1.0"><defs><clipPath id="e82da39a73"><path d="M 280 150 L 494.632812 150 L 494.632812 314 L 280 314 Z M 280 150 " clip-rule="nonzero"/></clipPath><clipPath id="a05539ad80"><path d="M 377 224 L 494.632812 224 L 494.632812 314 L 377 314 Z M 377 224 " clip-rule="nonzero"/></clipPath></defs><path fill="#040134" d="M 261.074219 428.984375 L 259.148438 427.507812 L 272.09375 410.480469 L 247.523438 378.1875 L 252.523438 336.761719 L 254.933594 337.054688 L 250.054688 377.496094 L 275.132812 410.480469 Z M 261.074219 428.984375 " fill-opacity="1" fill-rule="nonzero"/><path fill="#040134" d="M 286.976562 430.015625 L 275.121094 414.464844 L 275.957031 425.644531 L 273.535156 425.824219 L 272.09375 406.511719 L 288.902344 428.550781 Z M 286.976562 430.015625 " fill-opacity="1" fill-rule="nonzero"/><path fill="#f86a6a" d="M 363.132812 393.035156 L 343.394531 395.671875 L 322.480469 395.734375 C 322.480469 395.734375 268.109375 540.035156 313.992188 535.554688 C 333.308594 533.667969 343.40625 508.578125 348.628906 480.15625 C 357.648438 507.644531 371.054688 531.171875 390.453125 530.433594 C 436.519531 528.664062 363.132812 393.035156 363.132812 393.035156 Z M 363.132812 393.035156 " fill-opacity="1" fill-rule="nonzero"/><path fill="#f8d96a" d="M 347.121094 435.265625 L 349.542969 435.238281 L 349.925781 470.316406 L 347.503906 470.34375 Z M 347.121094 435.265625 " fill-opacity="1" fill-rule="nonzero"/><path fill="#f86a6a" d="M 200.234375 369.675781 C 184.917969 382.570312 171.851562 388.296875 171.851562 388.296875 C 178.59375 368.28125 171.789062 325.453125 171.789062 325.453125 C 165.710938 371.46875 116.316406 393.046875 116.316406 393.046875 C 112.984375 378.34375 111.179688 364.347656 110.660156 351.074219 C 105.5625 223.59375 217.503906 161.691406 217.503906 161.691406 C 279.359375 277.066406 234.238281 341.050781 200.234375 369.675781 Z M 200.234375 369.675781 " fill-opacity="1" fill-rule="nonzero"/><path fill="#f183dc" d="M 200.234375 369.675781 C 184.917969 382.570312 171.851562 388.296875 171.851562 388.296875 C 178.59375 368.28125 171.789062 325.453125 171.789062 325.453125 C 165.710938 371.46875 116.316406 393.046875 116.316406 393.046875 C 112.984375 378.34375 111.179688 364.347656 110.660156 351.074219 C 132.300781 341.460938 171.207031 318.757812 179.359375 277.367188 C 179.359375 277.355469 202.125 323.238281 200.234375 369.675781 Z M 200.234375 369.675781 " fill-opacity="1" fill-rule="nonzero"/><path fill="#f8d96a" d="M 184.769531 185.160156 C 184.769531 185.160156 152.777344 401.230469 366.320312 399.34375 C 366.320312 399.34375 425.597656 173.207031 312.710938 150.34375 L 241.214844 148.601562 " fill-opacity="1" fill-rule="nonzero"/><path fill="#f86a6a" d="M 312.710938 150.34375 C 316.078125 128.101562 320.109375 86.992188 299.921875 71.175781 C 285.632812 59.976562 257.742188 63.476562 241.058594 67.554688 C 223.460938 71.855469 206.785156 80.792969 195.597656 95.335938 C 187.53125 105.808594 182.917969 118.4375 181.027344 131.441406 C 179.855469 139.507812 179.707031 147.71875 180.230469 155.84375 C 180.519531 160.457031 180.847656 182.871094 184.769531 185.171875 C 184.78125 185.171875 221.148438 206.496094 256.265625 185.171875 C 291.382812 163.835938 295.78125 150.660156 312.710938 150.34375 Z M 312.710938 150.34375 " fill-opacity="1" fill-rule="nonzero"/><path fill="#f8d96a" d="M 304.328125 102.296875 L 363.183594 147.269531 L 280.886719 138.976562 C 280.886719 138.976562 280.59375 110.699219 304.328125 102.296875 Z M 304.328125 102.296875 " fill-opacity="1" fill-rule="nonzero"/><path fill="#040134" d="M 290.667969 119.289062 L 291.574219 117.042969 L 363.632812 146.164062 L 362.726562 148.410156 Z M 290.667969 119.289062 " fill-opacity="1" fill-rule="nonzero"/><path fill="#ffffff" d="M 275.96875 112.371094 C 275.96875 121.9375 268.21875 129.6875 258.652344 129.6875 C 257.464844 129.6875 256.316406 129.566406 255.1875 129.347656 C 247.28125 127.738281 241.335938 120.738281 241.335938 112.371094 C 241.335938 102.804688 249.085938 95.054688 258.652344 95.054688 C 263.945312 95.054688 268.703125 97.441406 271.863281 101.171875 C 274.429688 104.210938 275.96875 108.109375 275.96875 112.371094 Z M 275.96875 112.371094 " fill-opacity="1" fill-rule="nonzero"/><path fill="#040134" d="M 275.96875 112.371094 C 275.96875 121.9375 268.21875 129.6875 258.652344 129.6875 C 257.464844 129.6875 256.316406 129.566406 255.1875 129.347656 C 252.621094 126.332031 251.070312 122.421875 251.070312 118.148438 C 251.070312 108.570312 258.820312 100.832031 268.386719 100.832031 C 269.574219 100.832031 270.738281 100.953125 271.863281 101.183594 C 274.429688 104.210938 275.96875 108.109375 275.96875 112.371094 Z M 275.96875 112.371094 " fill-opacity="1" fill-rule="nonzero"/><g clip-path="url(#e82da39a73)"><path fill="#f86a6a" d="M 411.984375 312.800781 C 431.90625 314.871094 445.929688 312.265625 445.929688 312.265625 C 429.109375 299.503906 410.675781 260.234375 410.675781 260.234375 C 441.558594 294.890625 494.539062 284.996094 494.539062 284.996094 C 489.027344 270.960938 482.667969 258.371094 475.644531 247.097656 C 408.269531 138.746094 280.886719 150.394531 280.886719 150.394531 C 294.496094 280.601562 367.773438 308.210938 411.984375 312.800781 Z M 411.984375 312.800781 " fill-opacity="1" fill-rule="nonzero"/></g><g clip-path="url(#a05539ad80)"><path fill="#f183dc" d="M 411.984375 312.800781 C 431.90625 314.871094 445.929688 312.265625 445.929688 312.265625 C 429.109375 299.503906 410.675781 260.234375 410.675781 260.234375 C 441.558594 294.890625 494.539062 284.996094 494.539062 284.996094 C 489.027344 270.960938 482.667969 258.371094 475.644531 247.097656 C 452.347656 251.296875 407.394531 254.359375 377.410156 224.695312 C 377.410156 224.683594 384.339844 275.429688 411.984375 312.800781 Z M 411.984375 312.800781 " fill-opacity="1" fill-rule="nonzero"/></g><path fill="#040134" d="M 342.921875 412.394531 L 340.550781 411.949219 L 345.007812 388.457031 L 325.847656 352.117188 L 325.980469 351.644531 L 337.582031 312.085938 L 339.910156 312.761719 L 328.453125 351.851562 L 347.539062 388.070312 Z M 342.921875 412.394531 " fill-opacity="1" fill-rule="nonzero"/><path fill="#040134" d="M 364.441406 405.664062 L 349.085938 392.308594 L 353.59375 404.320312 L 351.316406 405.179688 L 343.457031 384.21875 L 366.027344 403.835938 Z M 364.441406 405.664062 " fill-opacity="1" fill-rule="nonzero"/><path fill="#f86a6a" d="M 225.992188 321.53125 C 222.675781 321.53125 219.429688 319.882812 217.527344 316.867188 L 219.574219 315.570312 C 221.800781 319.097656 226.476562 320.160156 230 317.933594 C 233.523438 315.707031 234.589844 311.03125 232.363281 307.507812 L 234.410156 306.210938 C 237.339844 310.863281 235.945312 317.050781 231.285156 319.980469 C 229.648438 321.035156 227.808594 321.53125 225.992188 321.53125 Z M 225.992188 321.53125 " fill-opacity="1" fill-rule="nonzero"/><path fill="#f86a6a" d="M 264.851562 334.195312 C 261.535156 334.195312 258.289062 332.550781 256.386719 329.546875 L 258.433594 328.25 C 260.664062 331.773438 265.335938 332.839844 268.859375 330.613281 C 270.566406 329.535156 271.753906 327.863281 272.203125 325.890625 C 272.652344 323.914062 272.300781 321.894531 271.222656 320.1875 L 273.269531 318.890625 C 274.683594 321.140625 275.144531 323.820312 274.5625 326.421875 C 273.984375 329.023438 272.410156 331.242188 270.15625 332.65625 C 268.507812 333.699219 266.667969 334.195312 264.851562 334.195312 Z M 264.851562 334.195312 " fill-opacity="1" fill-rule="nonzero"/><path fill="#f86a6a" d="M 280.109375 370.230469 C 276.792969 370.230469 273.546875 368.585938 271.644531 365.570312 L 273.691406 364.273438 C 275.921875 367.796875 280.59375 368.863281 284.117188 366.636719 C 287.644531 364.40625 288.707031 359.734375 286.480469 356.210938 L 288.527344 354.914062 C 291.457031 359.574219 290.066406 365.75 285.402344 368.683594 C 283.769531 369.734375 281.925781 370.230469 280.109375 370.230469 Z M 280.109375 370.230469 " fill-opacity="1" fill-rule="nonzero"/><path fill="#f86a6a" d="M 306.871094 323.078125 C 306.132812 323.078125 305.382812 322.996094 304.644531 322.824219 C 302.042969 322.230469 299.824219 320.671875 298.410156 318.417969 L 300.453125 317.121094 C 301.53125 318.828125 303.203125 320.015625 305.175781 320.464844 C 307.152344 320.914062 309.175781 320.5625 310.882812 319.484375 C 312.589844 318.40625 313.777344 316.734375 314.222656 314.761719 C 314.671875 312.785156 314.320312 310.765625 313.242188 309.058594 L 315.289062 307.761719 C 318.21875 312.410156 316.828125 318.597656 312.164062 321.53125 C 310.554688 322.558594 308.726562 323.078125 306.871094 323.078125 Z M 306.871094 323.078125 " fill-opacity="1" fill-rule="nonzero"/><path fill="#f86a6a" d="M 284.421875 255.28125 C 283.683594 255.28125 282.933594 255.195312 282.195312 255.027344 C 279.589844 254.433594 277.375 252.871094 275.957031 250.621094 L 278.003906 249.324219 C 279.082031 251.03125 280.753906 252.21875 282.726562 252.664062 C 284.6875 253.113281 286.722656 252.761719 288.429688 251.683594 C 290.136719 250.609375 291.324219 248.9375 291.773438 246.960938 C 292.21875 244.988281 291.867188 242.964844 290.792969 241.257812 L 292.835938 239.964844 C 294.253906 242.214844 294.714844 244.890625 294.132812 247.496094 C 293.539062 250.097656 291.976562 252.316406 289.726562 253.730469 C 288.101562 254.75 286.273438 255.28125 284.421875 255.28125 Z M 284.421875 255.28125 " fill-opacity="1" fill-rule="nonzero"/><path fill="#f86a6a" d="M 195.726562 84.527344 C 196.609375 85.40625 197.4375 86.320312 198.214844 87.269531 C 198.992188 88.214844 199.707031 89.179688 200.351562 90.160156 C 201 91.140625 201.566406 92.117188 202.054688 93.089844 C 202.546875 94.0625 202.949219 95.015625 203.261719 95.945312 C 203.578125 96.875 203.796875 97.765625 203.925781 98.613281 C 204.050781 99.464844 204.082031 100.257812 204.019531 101 C 203.953125 101.738281 203.792969 102.40625 203.535156 103.003906 C 203.28125 103.601562 202.9375 104.121094 202.5 104.554688 C 202.066406 104.988281 201.550781 105.335938 200.949219 105.589844 C 200.351562 105.84375 199.683594 106.003906 198.945312 106.070312 C 198.207031 106.136719 197.410156 106.105469 196.5625 105.976562 C 195.710938 105.851562 194.820312 105.628906 193.890625 105.316406 C 192.960938 105 192.007812 104.597656 191.035156 104.109375 C 190.0625 103.621094 189.085938 103.050781 188.105469 102.40625 C 187.125 101.757812 186.164062 101.046875 185.214844 100.269531 C 184.265625 99.492188 183.351562 98.660156 182.472656 97.78125 C 181.59375 96.902344 180.765625 95.988281 179.984375 95.039062 C 179.207031 94.09375 178.496094 93.128906 177.847656 92.148438 C 177.203125 91.171875 176.632812 90.195312 176.144531 89.21875 C 175.65625 88.246094 175.253906 87.296875 174.9375 86.367188 C 174.625 85.4375 174.402344 84.546875 174.277344 83.695312 C 174.148438 82.84375 174.117188 82.050781 174.183594 81.3125 C 174.25 80.574219 174.410156 79.902344 174.664062 79.304688 C 174.917969 78.707031 175.265625 78.191406 175.699219 77.753906 C 176.132812 77.320312 176.652344 76.976562 177.25 76.71875 C 177.847656 76.464844 178.515625 76.304688 179.253906 76.238281 C 179.996094 76.171875 180.789062 76.203125 181.640625 76.332031 C 182.492188 76.457031 183.378906 76.679688 184.3125 76.992188 C 185.242188 77.308594 186.191406 77.710938 187.164062 78.199219 C 188.140625 78.691406 189.117188 79.257812 190.09375 79.902344 C 191.074219 80.550781 192.039062 81.261719 192.984375 82.039062 C 193.933594 82.820312 194.847656 83.648438 195.726562 84.527344 Z M 195.726562 84.527344 " fill-opacity="1" fill-rule="nonzero"/><path fill="#f86a6a" d="M 191.019531 103.203125 C 192.238281 103.457031 193.429688 103.769531 194.601562 104.136719 C 195.773438 104.5 196.894531 104.917969 197.972656 105.382812 C 199.050781 105.847656 200.0625 106.351562 201.003906 106.898438 C 201.949219 107.445312 202.804688 108.019531 203.578125 108.625 C 204.351562 109.230469 205.023438 109.855469 205.597656 110.496094 C 206.167969 111.136719 206.628906 111.785156 206.980469 112.4375 C 207.332031 113.09375 207.5625 113.738281 207.675781 114.378906 C 207.792969 115.019531 207.785156 115.640625 207.660156 116.246094 C 207.535156 116.847656 207.292969 117.417969 206.933594 117.960938 C 206.570312 118.5 206.097656 119.003906 205.515625 119.460938 C 204.933594 119.921875 204.253906 120.332031 203.472656 120.691406 C 202.691406 121.050781 201.824219 121.355469 200.875 121.601562 C 199.925781 121.847656 198.910156 122.03125 197.828125 122.15625 C 196.742188 122.28125 195.617188 122.339844 194.441406 122.335938 C 193.269531 122.332031 192.070312 122.265625 190.851562 122.132812 C 189.632812 122.003906 188.414062 121.808594 187.195312 121.554688 C 185.976562 121.300781 184.785156 120.992188 183.613281 120.625 C 182.441406 120.257812 181.320312 119.84375 180.242188 119.378906 C 179.164062 118.914062 178.152344 118.410156 177.210938 117.863281 C 176.265625 117.316406 175.410156 116.742188 174.636719 116.136719 C 173.863281 115.53125 173.191406 114.90625 172.617188 114.265625 C 172.046875 113.625 171.585938 112.976562 171.234375 112.320312 C 170.882812 111.667969 170.652344 111.019531 170.539062 110.378906 C 170.421875 109.742188 170.429688 109.117188 170.554688 108.515625 C 170.679688 107.914062 170.921875 107.34375 171.285156 106.800781 C 171.644531 106.257812 172.117188 105.757812 172.699219 105.300781 C 173.28125 104.839844 173.960938 104.429688 174.742188 104.070312 C 175.523438 103.710938 176.390625 103.40625 177.339844 103.160156 C 178.289062 102.914062 179.304688 102.726562 180.390625 102.605469 C 181.472656 102.480469 182.597656 102.421875 183.773438 102.425781 C 184.945312 102.429688 186.144531 102.496094 187.363281 102.628906 C 188.582031 102.757812 189.800781 102.953125 191.019531 103.203125 Z M 191.019531 103.203125 " fill-opacity="1" fill-rule="nonzero"/></svg>