<svg xmlns="http://www.w3.org/2000/svg" xmlns:xlink="http://www.w3.org/1999/xlink" width="800" zoomAndPan="magnify" viewBox="0 0 600 599.999999" height="800" preserveAspectRatio="xMidYMid meet" version="1.0"><path fill="#fffc45" d="M 395.898438 289.554688 C 392.421875 283.027344 387.746094 276.996094 381.539062 271.667969 C 347.3125 242.292969 296.714844 238.296875 254.703125 250.605469 C 234.117188 256.636719 217.726562 262.660156 211.15625 283.878906 C 203.957031 307.132812 205.46875 331.617188 200.726562 355.289062 C 189.109375 413.289062 143.359375 494.207031 221.882812 527.253906 C 252.105469 539.972656 288.089844 534.195312 316.113281 517.199219 C 364.125 488.085938 393.8125 430.054688 401.03125 375.800781 C 404.785156 347.59375 409.347656 314.835938 395.898438 289.554688 Z M 395.898438 289.554688 " fill-opacity="1" fill-rule="nonzero"/><path fill="#fffc45" d="M 268.28125 265.761719 C 267.519531 265.082031 266.742188 264.441406 265.964844 263.8125 C 266.761719 262.984375 266.902344 261.539062 265.601562 260.757812 C 263.550781 259.523438 261.398438 258.453125 259.179688 257.527344 C 257.867188 255.878906 256.15625 255.46875 254.542969 255.832031 C 243.582031 252.347656 231.378906 251.929688 220.226562 252.773438 C 204 254 187.367188 257.324219 172.566406 264.253906 C 156.964844 271.546875 143.628906 284.636719 132.933594 297.867188 C 121.046875 312.558594 110.992188 329.476562 106.203125 347.886719 C 102.550781 361.941406 101.792969 379.378906 108.816406 392.609375 C 112.230469 399.027344 118.636719 403.777344 126.164062 403.394531 C 134.160156 402.992188 141.0625 397.835938 146.835938 392.738281 C 152.929688 387.359375 158.140625 381.152344 163.828125 375.375 C 170.199219 368.902344 177.21875 362.894531 184.242188 357.148438 C 197.917969 345.957031 213.148438 336.941406 230.441406 332.726562 C 235.167969 331.578125 240.007812 330.65625 244.863281 330.222656 C 248.652344 329.878906 252.472656 330.046875 256.265625 329.761719 C 260.351562 329.464844 264.875 328.941406 268.40625 326.671875 C 271.738281 324.527344 273.652344 321.042969 274.683594 317.300781 C 276.808594 309.558594 276.03125 301.148438 276.410156 293.203125 C 276.90625 283.007812 276.394531 273 268.28125 265.761719 Z M 268.28125 265.761719 " fill-opacity="1" fill-rule="nonzero"/><path fill="#fffc45" d="M 492.984375 378.855469 C 488.863281 359.003906 481.109375 339.90625 469.339844 323.339844 C 456.804688 305.699219 440.417969 291.777344 420.941406 282.285156 C 412.425781 278.132812 403.582031 275.261719 394.539062 272.539062 C 386.527344 270.128906 377.707031 267.242188 369.234375 268.242188 C 368.394531 268.339844 367.574219 268.480469 366.777344 268.664062 C 366.578125 267.308594 365.851562 266.074219 364.5 265.28125 C 362.390625 264.046875 358.960938 264.640625 357.835938 267.027344 C 347.9375 288.132812 343.015625 310.410156 339.875 333.390625 C 338.90625 340.519531 337.902344 348.511719 344.09375 353.6875 C 348.035156 356.988281 353.320312 358.046875 358.101562 359.578125 C 363.53125 361.320312 368.953125 363.167969 374.1875 365.433594 C 392.234375 373.261719 408.441406 385.242188 419.519531 401.644531 C 425.761719 410.875 428.457031 420.871094 429.339844 431.894531 C 430.148438 441.941406 429.378906 452.78125 432.429688 462.488281 C 434.871094 470.234375 439.910156 477.585938 447.410156 481.167969 C 455.601562 485.078125 464.675781 483.992188 472.648438 480.085938 C 488.820312 472.152344 494.71875 453.527344 496.492188 436.886719 C 498.519531 417.753906 496.882812 397.644531 492.984375 378.855469 Z M 492.984375 378.855469 " fill-opacity="1" fill-rule="nonzero"/><path fill="#fffcd7" d="M 420.160156 263.246094 C 418.671875 275.84375 414.089844 289.511719 404.617188 298.398438 C 395.550781 306.898438 385.199219 309.371094 373.570312 310.292969 C 360.578125 311.324219 347.464844 313.707031 334.304688 314.648438 C 300.519531 317.058594 266.921875 313.992188 235.984375 298.195312 C 228.988281 294.625 221.929688 290.222656 217.882812 283.140625 C 210.835938 270.804688 221.292969 253.945312 224.679688 241.835938 C 234.296875 207.46875 235.230469 170.992188 235.40625 135.363281 C 235.625 92.28125 268.261719 60.035156 310.488281 60.316406 C 402.589844 60.929688 429.515625 183.949219 420.160156 263.246094 Z M 420.160156 263.246094 " fill-opacity="1" fill-rule="nonzero"/><path fill="#ffe223" d="M 405.042969 366.730469 C 404.71875 347.648438 401.515625 328.785156 392.339844 315.332031 C 387.015625 307.523438 380.75 305.503906 371.878906 305.941406 C 334.09375 307.808594 290.722656 310.605469 254.207031 297.796875 C 247.597656 295.480469 229.488281 282.9375 223.523438 291.878906 C 218.78125 298.980469 251.414062 329.207031 256.21875 336.847656 C 267.984375 355.546875 275.976562 376.5 280.507812 398.082031 C 284.6875 417.972656 283.414062 437.570312 284.28125 457.683594 C 284.921875 472.5625 289.046875 488.59375 300.949219 497.558594 C 310.953125 505.097656 324.785156 506.078125 336.855469 502.730469 C 376.769531 491.660156 395.289062 452.882812 401.160156 415.007812 C 403.292969 401.265625 405.335938 383.910156 405.042969 366.730469 Z M 405.042969 366.730469 " fill-opacity="1" fill-rule="nonzero"/><path fill="#ffe223" d="M 178.773438 288.226562 C 177.980469 287.4375 176.679688 286.839844 175.542969 286.890625 C 173.511719 286.980469 172.023438 288.125 171.351562 289.8125 C 170.019531 291.214844 169.414062 293.160156 169.273438 295.050781 C 169.148438 296.785156 170.488281 298.457031 171.992188 299.089844 C 173.722656 299.820312 175.425781 299.351562 176.824219 298.175781 C 178.851562 296.480469 179.90625 294.050781 180.113281 291.457031 C 180.199219 290.34375 179.539062 288.992188 178.773438 288.226562 Z M 178.773438 288.226562 " fill-opacity="1" fill-rule="nonzero"/><path fill="#ffe223" d="M 164.128906 300.980469 C 164.046875 300.238281 163.980469 299.527344 163.597656 298.867188 C 163.441406 298.667969 163.285156 298.464844 163.128906 298.261719 C 163.105469 298.234375 163.085938 298.207031 163.0625 298.179688 C 162.382812 297.011719 161.117188 296.574219 159.78125 297.214844 C 159.675781 297.265625 159.523438 297.375 159.410156 297.40625 C 159.734375 297.246094 159.820312 297.191406 159.664062 297.238281 C 159.355469 297.324219 159.058594 297.449219 158.777344 297.609375 C 158.296875 297.917969 157.925781 298.34375 157.480469 298.699219 C 157.589844 298.617188 157.699219 298.53125 157.804688 298.449219 C 157.082031 299.042969 156.453125 299.765625 156.289062 300.726562 C 156.019531 302.328125 156.351562 303.8125 157.699219 304.851562 C 158.261719 305.285156 158.847656 305.527344 159.554688 305.625 C 160.339844 305.730469 161.402344 305.664062 162.058594 305.15625 C 162.367188 304.921875 162.707031 304.699219 162.992188 304.4375 C 163.632812 303.851562 163.976562 302.984375 164.089844 302.148438 C 164.148438 301.722656 164.175781 301.394531 164.128906 300.980469 Z M 164.128906 300.980469 " fill-opacity="1" fill-rule="nonzero"/><path fill="#ffe223" d="M 468.050781 418.5 C 467.300781 416.289062 464.941406 414.609375 462.554688 415.378906 C 460.933594 415.90625 459.773438 417.167969 459.410156 418.699219 C 458.945312 419.636719 458.6875 420.710938 458.527344 421.691406 C 458.117188 424.183594 458.195312 426.644531 460.042969 428.589844 C 461.992188 430.640625 465.476562 430.0625 466.878906 427.707031 C 468.472656 425.027344 469.0625 421.484375 468.050781 418.5 Z M 468.050781 418.5 " fill-opacity="1" fill-rule="nonzero"/><path fill="#fcf5a2" d="M 279.976562 206.71875 C 274.878906 203.21875 268.566406 202.335938 262.894531 204.847656 C 258.496094 206.800781 254.183594 211.054688 255.121094 216.09375 C 255.046875 217.535156 255.371094 219.03125 256.203125 220.46875 C 260.976562 228.691406 276.03125 228.335938 282.171875 222.167969 C 287.113281 217.207031 285.378906 210.429688 279.976562 206.71875 Z M 279.976562 206.71875 " fill-opacity="1" fill-rule="nonzero"/><path fill="#fcf5a2" d="M 374.992188 207.941406 C 369.898438 204.441406 363.585938 203.558594 357.914062 206.074219 C 353.515625 208.023438 349.199219 212.277344 350.140625 217.316406 C 350.0625 218.761719 350.390625 220.257812 351.222656 221.691406 C 355.996094 229.917969 371.050781 229.558594 377.191406 223.394531 C 382.132812 218.429688 380.398438 211.65625 374.996094 207.941406 Z M 374.992188 207.941406 " fill-opacity="1" fill-rule="nonzero"/><path fill="#fcf5a2" d="M 351.175781 87.566406 C 349.886719 84.992188 346.808594 83.972656 344.867188 86.246094 C 344.523438 86.648438 344.273438 87.078125 344.082031 87.523438 C 342.503906 89.84375 342.007812 93.429688 342.070312 96.136719 C 342.132812 98.984375 342.9375 102.003906 345.550781 102.90625 C 348.023438 103.757812 350.296875 102.035156 351.238281 99.394531 C 352.425781 96.078125 352.78125 90.769531 351.175781 87.566406 Z M 351.175781 87.566406 " fill-opacity="1" fill-rule="nonzero"/><path fill="#fcf5a2" d="M 360.613281 104.183594 C 360.519531 103.816406 360.363281 103.433594 360.214844 103.058594 C 360.179688 102.957031 360.144531 102.859375 360.113281 102.761719 C 359.671875 101.320312 358.78125 100.269531 357.441406 100.058594 C 356.191406 99.863281 354.875 100.539062 354.234375 101.859375 C 354.066406 102.210938 353.90625 102.574219 353.761719 102.941406 C 353.34375 103.984375 353.136719 104.910156 353.140625 106.058594 C 353.144531 108.402344 354.894531 110.644531 356.960938 110.535156 C 359.023438 110.429688 360.785156 108.570312 360.78125 106.058594 C 360.777344 105.433594 360.757812 104.785156 360.613281 104.183594 Z M 360.613281 104.183594 " fill-opacity="1" fill-rule="nonzero"/><path fill="#000000" d="M 282.257812 187.40625 C 280.292969 187.289062 278.386719 188.230469 277.203125 189.742188 C 276.050781 190.585938 275.261719 191.925781 275.167969 193.542969 C 275.007812 196.273438 276.855469 198.6875 279.355469 199.597656 C 284.21875 201.367188 289.523438 197.011719 287.769531 191.875 C 286.949219 189.457031 284.871094 187.558594 282.257812 187.40625 Z M 282.257812 187.40625 " fill-opacity="1" fill-rule="nonzero"/><path fill="#000000" d="M 356.773438 192.167969 C 355.539062 192.863281 354.523438 194.039062 354.03125 195.382812 C 352.761719 197.394531 353.179688 200.207031 354.839844 201.921875 C 357.980469 205.164062 364.160156 203.777344 365.300781 199.300781 C 366.5 194.589844 361.316406 189.601562 356.773438 192.167969 Z M 356.773438 192.167969 " fill-opacity="1" fill-rule="nonzero"/><path fill="#000000" d="M 331.140625 194.972656 C 329.300781 198.050781 325.792969 200.121094 322.179688 200.074219 C 318.558594 200.023438 315.085938 197.71875 313.234375 194.671875 C 311.9375 192.539062 309 194.402344 309.960938 196.585938 C 312.066406 201.382812 316.972656 204.433594 322.179688 204.578125 C 327.429688 204.726562 332.410156 201.746094 334.929688 197.1875 C 336.292969 194.714844 332.59375 192.550781 331.140625 194.972656 Z M 331.140625 194.972656 " fill-opacity="1" fill-rule="nonzero"/></svg>