<svg xmlns="http://www.w3.org/2000/svg" xmlns:xlink="http://www.w3.org/1999/xlink" width="800" zoomAndPan="magnify" viewBox="0 0 600 599.999999" height="800" preserveAspectRatio="xMidYMid meet" version="1.0"><path fill="#73aa59" d="M 384.636719 83.289062 C 377.246094 76.269531 366.90625 73.894531 357.042969 75.792969 C 341.941406 78.695312 331.25 89.949219 321.988281 101.992188 C 321.535156 94.378906 320.5625 86.78125 318.644531 79.644531 C 315.578125 68.25 306.832031 60.019531 294.414062 62.417969 C 283.359375 64.550781 275.640625 73.832031 271.492188 83.75 C 269.789062 87.820312 268.726562 92.039062 267.941406 96.324219 C 263.171875 88.738281 257.355469 81.90625 249.652344 76.511719 C 234.652344 66.007812 214.75 64.929688 200.25 76.808594 C 193.589844 82.265625 189.507812 90.191406 188.898438 98.765625 C 188.222656 108.28125 192.398438 117.734375 197.644531 125.433594 C 206.859375 138.960938 219.300781 150.175781 233.1875 158.765625 C 260.34375 175.550781 293.726562 182.101562 325.132812 176.285156 C 357.261719 170.335938 395.777344 147.019531 395.542969 110.09375 C 395.480469 100.300781 391.839844 90.128906 384.636719 83.289062 Z M 308.035156 90.652344 C 308.09375 91.039062 308.144531 91.425781 308.199219 91.8125 C 308.117188 91.625 308.039062 91.433594 307.953125 91.242188 C 307.984375 91.046875 308.007812 90.847656 308.035156 90.652344 Z M 308.035156 90.652344 " fill-opacity="1" fill-rule="nonzero"/><path fill="#f21942" d="M 446.71875 413.429688 C 414.898438 475.214844 354.03125 540.011719 281.359375 535.019531 C 237.820312 532.03125 204.121094 505.09375 175.8125 472.332031 C 134.34375 424.339844 104.980469 361.871094 107.378906 297.597656 C 111.585938 184.847656 185.089844 144.273438 285.242188 142.699219 C 338.914062 141.855469 399.921875 151.863281 440.539062 192.160156 C 449.148438 200.703125 456.136719 209.941406 461.6875 219.703125 C 494.957031 278.214844 476.582031 355.441406 446.71875 413.429688 Z M 446.71875 413.429688 " fill-opacity="1" fill-rule="nonzero"/><path fill="#e00036" d="M 397.1875 248.03125 C 391.542969 248.796875 387.375 244.574219 386.988281 239.191406 C 386.539062 233.015625 384.871094 225.464844 386.90625 219.492188 C 388.90625 213.621094 396.519531 212.488281 399.953125 217.785156 C 403.378906 223.074219 403.601562 230.710938 404.671875 236.796875 C 405.609375 242.136719 402.875 247.261719 397.1875 248.03125 Z M 383.074219 347.382812 C 378.207031 353.3125 378.121094 361.738281 377.3125 369.03125 C 376.714844 374.390625 382.316406 378.996094 387.277344 378.996094 C 392.773438 378.996094 397.128906 374.433594 397.242188 369.03125 C 397.394531 361.914062 397.242188 352.863281 391.984375 347.382812 C 389.792969 345.101562 385.210938 344.78125 383.074219 347.382812 Z M 360.730469 453.359375 C 353.433594 454.5 350.792969 465.449219 349.332031 471.367188 C 347.945312 476.992188 351.527344 482.585938 357.332031 483.371094 C 363.546875 484.214844 367.519531 479.660156 368.226562 473.925781 C 368.988281 467.789062 371.597656 451.660156 360.730469 453.359375 Z M 281.011719 394.191406 C 276.78125 398.773438 277.054688 405.324219 276.4375 411.148438 C 275.945312 415.796875 280.886719 420.253906 285.347656 420.054688 C 290.324219 419.832031 294.070312 416.140625 294.253906 411.148438 C 294.46875 405.46875 294.613281 398.382812 290.078125 394.191406 C 287.609375 391.914062 283.4375 391.5625 281.011719 394.191406 Z M 182.039062 344.242188 C 181.117188 339.789062 179.597656 332.617188 173.519531 332.992188 C 166.828125 333.402344 164.964844 340.03125 164.082031 345.597656 C 163.078125 351.953125 163.546875 358.011719 164.820312 364.308594 C 165.945312 369.855469 172.523438 373.046875 177.707031 371.625 C 183.359375 370.070312 186.304688 364.269531 185.023438 358.738281 C 183.90625 353.933594 183.039062 349.074219 182.039062 344.242188 Z M 195.878906 216.644531 C 186.570312 218.601562 184.433594 232.976562 184.238281 240.691406 C 183.953125 252.113281 202.691406 251.921875 201.835938 240.691406 C 201.597656 237.574219 201.652344 234.457031 202.191406 231.371094 C 202.796875 227.90625 204.242188 224.023438 202.847656 220.597656 C 201.632812 217.625 199.183594 215.945312 195.878906 216.640625 Z M 299.988281 261.660156 C 297.980469 259.820312 295.132812 259.382812 292.726562 260.722656 C 286.605469 264.132812 284.800781 274.855469 284.667969 281.273438 C 284.457031 291.578125 300.695312 294.132812 302.921875 283.746094 C 303.707031 280.089844 303.945312 276.128906 303.621094 272.402344 C 303.292969 268.617188 302.96875 264.386719 299.988281 261.660156 Z M 290.359375 208.625 C 296.277344 209.421875 301.125 204.945312 301.375 199.074219 C 301.628906 193.070312 300.765625 186.609375 297.90625 181.28125 C 295 175.867188 287.113281 177.539062 285.394531 182.914062 C 283.992188 187.308594 283.363281 192 282.277344 196.492188 C 280.90625 202.179688 284.472656 207.828125 290.359375 208.625 Z M 248.6875 486.332031 C 248.382812 485.601562 248.058594 484.878906 247.746094 484.15625 C 247.628906 483.855469 247.277344 482.988281 247.199219 482.804688 C 246.246094 480.546875 244.851562 478.632812 242.800781 477.25 C 241.378906 476.292969 239.4375 476.476562 238 477.25 C 236.738281 477.925781 235.789062 478.835938 235 480.027344 C 234.585938 480.652344 234.328125 481.324219 234.039062 482 C 233.949219 482.164062 233.335938 483.464844 233.195312 484.023438 C 232.390625 487.195312 232.234375 490.441406 232.972656 493.632812 C 233.996094 498.035156 239.28125 501.058594 243.59375 499.664062 C 248.191406 498.175781 250.71875 493.761719 249.625 489.042969 C 249.402344 488.101562 249.054688 487.222656 248.6875 486.328125 Z M 248.6875 486.332031 " fill-opacity="1" fill-rule="nonzero"/><path fill="#ffffff" d="M 209.742188 100.835938 C 209.445312 98.003906 209.644531 95.171875 210.359375 92.652344 C 210.960938 90.539062 212.863281 89.214844 215.015625 89.109375 C 222.640625 88.738281 226.1875 97.652344 228.414062 103.570312 C 230.292969 108.5625 232.96875 116.792969 228.066406 120.945312 C 222.015625 126.074219 215.988281 118.648438 213.265625 113.6875 C 211.09375 109.726562 209.742188 105.285156 209.742188 100.835938 Z M 252.871094 106.628906 C 250.457031 105.214844 247.234375 105.75 245.261719 107.679688 C 243.355469 109.546875 242.882812 112.238281 243.542969 114.757812 C 243.617188 115.042969 243.71875 115.308594 243.84375 115.5625 C 243.347656 118.578125 243.453125 121.722656 246.097656 123.699219 C 250.320312 126.859375 255.125 123.328125 255.9375 118.820312 C 256.640625 114.90625 256.777344 108.914062 252.871094 106.628906 Z M 147.058594 230.019531 C 146.703125 230.367188 146.335938 230.773438 145.972656 231.222656 C 142 234.371094 139.671875 240.113281 138.214844 244.628906 C 136.558594 249.773438 134.449219 259.121094 139.390625 263.082031 C 145.46875 267.945312 151.226562 261.289062 153.074219 255.851562 C 155.410156 248.980469 156.566406 241.0625 156.226562 233.816406 C 156.007812 229.222656 150.484375 226.664062 147.058594 230.019531 Z M 144.640625 280.933594 C 142.277344 278.082031 137.953125 277.566406 135.386719 280.449219 C 133.070312 283.046875 132.589844 288.078125 132.734375 291.390625 C 132.894531 295.054688 135.058594 298.972656 139.226562 298.847656 C 143.089844 298.730469 144.949219 295.238281 145.460938 291.875 C 145.625 290.816406 145.679688 289.792969 145.617188 288.820312 C 146.484375 286.152344 146.429688 283.089844 144.640625 280.933594 Z M 202.605469 321.601562 C 197.269531 322.105469 192.324219 324.546875 188.679688 329.949219 C 184.832031 335.660156 185.480469 343 189.601562 348.355469 C 194.179688 354.308594 201.582031 356.539062 208.816406 356.960938 C 215.78125 357.363281 223.191406 355.878906 228.585938 351.226562 C 233.476562 347.007812 236.25 339.78125 234.351562 333.445312 C 230.804688 321.601562 213.664062 317.449219 202.605469 321.601562 Z M 397.277344 337.21875 C 393.730469 325.375 376.585938 321.222656 365.53125 325.371094 C 360.195312 325.875 355.246094 328.316406 351.605469 333.722656 C 347.753906 339.429688 348.40625 346.769531 352.523438 352.128906 C 357.101562 358.078125 364.503906 360.3125 371.742188 360.730469 C 378.703125 361.136719 386.117188 359.652344 391.511719 354.996094 C 396.402344 350.777344 399.175781 343.550781 397.277344 337.21875 Z M 397.277344 337.21875 " fill-opacity="0.33" fill-rule="nonzero"/><path fill="#000000" d="M 316.792969 310.695312 C 311.90625 319.558594 302.226562 325.351562 292.035156 325.066406 C 281.925781 324.78125 272.394531 318.851562 268.304688 309.527344 C 266.441406 305.285156 272.140625 301.660156 274.664062 305.8125 C 278.257812 311.730469 285 316.210938 292.035156 316.304688 C 299.054688 316.402344 305.859375 312.375 309.4375 306.394531 C 312.257812 301.683594 319.441406 305.890625 316.792969 310.695312 Z M 240.90625 288.058594 C 236.773438 284.667969 231.617188 282.980469 226.289062 283.785156 C 216.003906 285.335938 209.507812 296.125 212.027344 305.996094 C 212.675781 308.527344 215.492188 310.054688 217.976562 309.371094 C 220.746094 308.609375 221.738281 306.019531 221.351562 303.425781 C 220.738281 299.285156 224.859375 294.621094 228.390625 294.308594 C 230.523438 294.121094 232.648438 294.96875 234.347656 296.523438 C 236.574219 298.558594 236.632812 301.402344 238.589844 303.792969 C 241.214844 306.996094 245.535156 304.628906 246.792969 301.628906 C 248.726562 297.015625 244.296875 290.84375 240.90625 288.058594 Z M 353.875 285.621094 C 344.847656 284.703125 336.164062 291.144531 334.296875 299.984375 C 333.175781 305.296875 340.535156 307.257812 342.371094 302.210938 C 343.859375 298.128906 348.886719 294.980469 353.199219 295.65625 C 357.648438 296.351562 360.542969 300.8125 360.695312 304.960938 C 360.945312 311.730469 371 311.75 371.230469 304.960938 C 371.558594 295.21875 363.40625 286.589844 353.875 285.621094 Z M 353.875 285.621094 " fill-opacity="1" fill-rule="nonzero"/></svg>