<svg xmlns="http://www.w3.org/2000/svg" xmlns:xlink="http://www.w3.org/1999/xlink" width="800" zoomAndPan="magnify" viewBox="0 0 600 599.999999" height="800" preserveAspectRatio="xMidYMid meet" version="1.0"><defs><clipPath id="c9a6f0d2c4"><path d="M 131 184 L 470.398438 184 L 470.398438 539 L 131 539 Z M 131 184 " clip-rule="nonzero"/></clipPath><clipPath id="6f57594e3c"><path d="M 133 184 L 470.398438 184 L 470.398438 536 L 133 536 Z M 133 184 " clip-rule="nonzero"/></clipPath></defs><path fill="#009444" d="M 409.640625 183.710938 C 395.121094 192.980469 379.382812 201.5 366.414062 212.925781 C 360.519531 218.125 355.03125 226.921875 345.898438 224.566406 C 343.933594 224.058594 342.007812 223.210938 340.136719 222.144531 C 329.210938 228.644531 305.804688 224.117188 293.695312 223.707031 C 283.796875 223.371094 263.960938 226.152344 256.085938 218.542969 C 254.347656 216.863281 253.035156 214.835938 251.859375 212.710938 C 233.226562 197.261719 208.539062 191.703125 184.230469 194.417969 C 179.390625 194.960938 177.839844 188.253906 180.691406 185.359375 C 190.945312 174.953125 205.949219 170.042969 220.59375 170.761719 C 213.546875 162.121094 207.390625 153.152344 204.5 143.097656 C 201.9375 134.199219 208.867188 134.183594 217.039062 134.335938 C 221.171875 134.414062 258.664062 140.964844 256.039062 145.851562 C 268.5625 122.519531 282.15625 96.910156 299.632812 76.890625 C 301.328125 74.953125 303.125 73.015625 305.421875 71.847656 C 328.40625 60.160156 328.730469 138.789062 329.074219 149.992188 C 346.484375 138.28125 364.121094 128.722656 385.066406 125.0625 C 387.988281 124.550781 391.851562 125.488281 393.152344 128.546875 C 398.394531 140.878906 386.277344 158.484375 376.304688 172.128906 C 386.890625 170.582031 398.035156 169.128906 408.410156 172.480469 C 413.601562 174.15625 414.0625 180.890625 409.644531 183.710938 Z M 409.640625 183.710938 " fill-opacity="1" fill-rule="nonzero"/><g clip-path="url(#c9a6f0d2c4)"><path fill="#ffde39" d="M 464.128906 427.007812 C 461.460938 440.640625 458.164062 459.410156 452.066406 475.242188 C 450.925781 478.199219 449.691406 481.050781 448.339844 483.746094 C 445.898438 488.625 443.097656 493 439.839844 496.554688 C 424.441406 513.367188 401.066406 524.300781 379.324219 529.804688 C 375.011719 530.894531 370.628906 531.882812 366.175781 532.757812 C 361.742188 533.640625 357.246094 534.421875 352.707031 535.109375 C 321.089844 539.847656 287.347656 539.855469 256.699219 536.597656 C 254.0625 536.320312 251.386719 535.992188 248.675781 535.617188 C 243.722656 534.945312 238.664062 534.105469 233.570312 533.082031 L 233.5625 533.082031 C 200.621094 526.449219 166.152344 512.019531 149.5625 482.9375 C 146.820312 478.125 144.46875 473.035156 142.460938 467.71875 C 141.382812 464.867188 140.402344 461.964844 139.515625 459 C 129.914062 426.882812 131.023438 388.496094 133.285156 355.742188 C 133.5625 351.828125 133.847656 347.988281 134.128906 344.25 C 134.152344 344.035156 134.167969 343.816406 134.183594 343.609375 C 134.835938 335.089844 135.859375 326.578125 137.328125 318.160156 C 137.847656 315.140625 138.429688 312.132812 139.074219 309.136719 C 145.855469 277.597656 159.324219 247.902344 183.503906 225.183594 C 185.441406 223.359375 187.414062 221.605469 189.40625 219.945312 C 190.84375 218.726562 192.289062 217.558594 193.757812 216.425781 C 221.574219 194.878906 253.835938 186.859375 287.8125 185.035156 C 290.417969 184.898438 293.042969 184.792969 295.679688 184.726562 L 295.6875 184.726562 C 305.558594 184.457031 315.5625 184.660156 325.625 185.160156 C 335.289062 185.640625 344.878906 186.695312 354.234375 188.453125 C 357.628906 189.089844 360.992188 189.824219 364.320312 190.664062 C 391.417969 197.445312 415.914062 210.859375 433.558594 234.398438 C 434.105469 235.117188 434.636719 235.84375 435.164062 236.585938 C 436.070312 237.855469 436.960938 239.144531 437.824219 240.453125 C 455.976562 267.738281 465.511719 301.765625 468.773438 336.488281 C 469.125 340.179688 469.402344 343.886719 469.601562 347.582031 L 469.601562 347.613281 C 469.835938 351.683594 469.976562 355.757812 470.046875 359.820312 L 470.046875 359.828125 C 470.429688 383.136719 468.226562 406.132812 464.125 427.007812 Z M 464.128906 427.007812 " fill-opacity="1" fill-rule="nonzero"/></g><g clip-path="url(#6f57594e3c)"><path fill="#ffd112" d="M 462.980469 355.023438 C 465.324219 356.640625 467.679688 358.242188 470.046875 359.820312 C 469.976562 355.757812 469.835938 351.683594 469.601562 347.613281 C 469.597656 347.613281 469.597656 347.605469 469.589844 347.605469 C 469.59375 347.597656 469.601562 347.597656 469.601562 347.589844 L 469.601562 347.582031 C 469.402344 343.886719 469.125 340.179688 468.773438 336.492188 C 466.875 338.707031 464.957031 340.90625 463.03125 343.09375 C 444.304688 330.0625 426.164062 316.175781 408.714844 301.480469 C 402.820312 296.519531 397.015625 291.472656 391.296875 286.339844 C 403.605469 274.796875 415.691406 263.023438 427.542969 251.023438 C 430.996094 247.527344 434.429688 244.003906 437.824219 240.457031 C 436.960938 239.144531 436.070312 237.859375 435.164062 236.585938 C 434.640625 235.84375 434.105469 235.117188 433.558594 234.398438 C 417.863281 250.3125 401.808594 265.875 385.417969 281.019531 C 365.054688 262.378906 345.753906 242.671875 327.371094 222.054688 C 339.949219 211.90625 352.324219 201.496094 364.320312 190.664062 C 360.992188 189.824219 357.628906 189.09375 354.234375 188.457031 C 343.597656 197.757812 332.679688 206.75 321.617188 215.535156 C 318.894531 212.429688 316.199219 209.308594 313.523438 206.164062 C 307.597656 199.203125 301.492188 192.09375 295.6875 184.726562 L 295.679688 184.726562 C 293.042969 184.792969 290.417969 184.898438 287.8125 185.035156 C 291.960938 190.933594 296.34375 196.6875 300.734375 202.398438 C 305.464844 208.539062 310.316406 214.59375 315.269531 220.550781 C 313.914062 221.621094 312.542969 222.691406 311.179688 223.753906 C 287.753906 242.011719 263.988281 259.871094 240.074219 277.476562 C 239.40625 277.96875 238.730469 278.464844 238.066406 278.953125 C 233.53125 273.058594 229.039062 267.148438 224.558594 261.234375 C 213.566406 246.726562 203.125 231.90625 193.757812 216.425781 C 192.289062 217.558594 190.84375 218.726562 189.40625 219.945312 C 196.417969 232.371094 204.398438 244.300781 212.636719 255.859375 C 219.132812 264.976562 225.742188 274.046875 232.453125 283.046875 C 211.492188 298.300781 190.109375 312.980469 167.769531 326.136719 C 163.769531 328.496094 159.738281 330.800781 155.675781 333.046875 C 153.65625 330.335938 151.660156 327.605469 149.699219 324.84375 C 146.019531 319.679688 142.476562 314.445312 139.074219 309.140625 C 138.429688 312.132812 137.847656 315.140625 137.328125 318.160156 C 141.308594 324.296875 145.496094 330.316406 149.824219 336.230469 C 144.648438 339.011719 139.414062 341.691406 134.128906 344.253906 C 133.84375 347.988281 133.5625 351.828125 133.285156 355.742188 C 140.910156 352.082031 148.410156 348.191406 155.765625 344.164062 C 165.320312 356.664062 175.417969 368.714844 185.457031 380.445312 C 195.265625 391.910156 205.148438 403.347656 215.199219 414.628906 C 213.898438 415.488281 212.59375 416.351562 211.289062 417.203125 C 195.871094 427.300781 180.316406 437.292969 164.316406 446.433594 C 156.269531 451.027344 148.042969 455.378906 139.515625 459 C 140.402344 461.964844 141.382812 464.867188 142.460938 467.71875 C 157.324219 461.351562 171.296875 453.140625 185.023438 444.621094 C 197.214844 437.054688 209.28125 429.285156 221.214844 421.320312 C 244.792969 447.390625 269.464844 472.449219 296.621094 494.78125 C 293.796875 496.824219 290.953125 498.828125 288.089844 500.804688 C 270.6875 512.804688 252.527344 523.753906 233.570312 533.082031 C 238.664062 534.105469 243.722656 534.945312 248.675781 535.617188 C 267.765625 525.230469 286.007812 513.296875 303.574219 500.402344 C 319.300781 512.878906 335.699219 524.472656 352.707031 535.109375 C 357.246094 534.421875 361.742188 533.640625 366.179688 532.757812 C 346.871094 521.351562 328.402344 508.738281 310.753906 495.042969 C 327.113281 482.667969 342.902344 469.496094 358.238281 455.992188 C 366.058594 449.105469 373.828125 442.152344 381.527344 435.113281 C 383.460938 436.613281 385.402344 438.09375 387.351562 439.566406 C 407.347656 454.75 427.792969 469.328125 448.34375 483.746094 C 449.691406 481.050781 450.925781 478.199219 452.066406 475.242188 C 430.503906 460.207031 409.054688 444.980469 388.136719 429.058594 C 403.195312 415.195312 418.023438 401.070312 432.585938 386.722656 C 443.039062 376.429688 453.191406 365.882812 462.980469 355.023438 Z M 306.355469 238.695312 C 311.226562 234.902344 316.078125 231.082031 320.910156 227.234375 C 328.792969 236.472656 336.929688 245.5 345.277344 254.324219 C 356.011719 265.6875 367.121094 276.691406 378.5625 287.320312 C 374.292969 291.21875 370 295.089844 365.683594 298.929688 C 344.632812 317.664062 322.980469 335.734375 300.773438 353.089844 C 293.148438 345.300781 285.746094 337.296875 278.605469 329.058594 C 266.589844 315.179688 255.058594 300.84375 243.78125 286.332031 C 264.871094 270.769531 285.675781 254.796875 306.355469 238.695312 Z M 198.058594 384.183594 C 185.601562 370.039062 173.246094 355.769531 161.671875 340.890625 C 187.277344 326.496094 211.582031 309.894531 235.28125 292.582031 C 236.207031 291.902344 237.144531 291.21875 238.074219 290.523438 C 246.921875 302.230469 255.957031 313.789062 265.1875 325.140625 C 274.46875 336.558594 284.210938 347.515625 294.332031 358.085938 C 270.65625 376.363281 246.359375 393.835938 221.496094 410.453125 C 213.597656 401.769531 205.8125 392.996094 198.058594 384.1875 Z M 362.410156 441.042969 C 343.507812 457.9375 324.132812 474.417969 303.777344 489.554688 C 286.546875 475.761719 270.101562 460.933594 254.429688 445.210938 C 245.265625 436.027344 236.335938 426.621094 227.546875 417.074219 C 242.039062 407.285156 256.324219 397.210938 270.410156 386.859375 C 280.476562 379.453125 290.433594 371.917969 300.285156 364.222656 C 323.519531 387.808594 348.640625 409.457031 374.800781 429.90625 C 370.679688 433.632812 366.550781 437.34375 362.410156 441.042969 Z M 381.417969 423.910156 C 366.28125 412.21875 351.457031 400.136719 337.09375 387.472656 C 326.71875 378.316406 316.582031 368.894531 306.773438 359.140625 C 333.511719 338.007812 359.429688 315.84375 384.445312 292.714844 C 404.792969 311.226562 426.179688 328.585938 448.460938 344.769531 C 451.097656 346.683594 453.75 348.578125 456.417969 350.464844 C 450.082031 357.441406 443.59375 364.269531 436.96875 370.953125 C 418.972656 389.097656 400.335938 406.679688 381.417969 423.910156 Z M 381.417969 423.910156 " fill-opacity="1" fill-rule="nonzero"/></g><path fill="#ffffff" d="M 186.675781 264.132812 C 188.644531 269.839844 185.898438 285.378906 177.183594 283.144531 C 169.230469 281.105469 172.105469 270.078125 175.207031 264.535156 C 175.835938 262.089844 177.386719 260.28125 180.140625 259.871094 C 183.171875 259.414062 185.714844 261.34375 186.675781 264.132812 Z M 199.277344 281.265625 C 201.414062 282.164062 204.445312 281.464844 205.53125 279.214844 C 206.171875 277.886719 206.488281 276.597656 206.144531 275.125 C 206.039062 274.679688 205.847656 274.257812 205.667969 273.839844 C 205.664062 273.824219 205.660156 273.816406 205.652344 273.796875 C 205.558594 273.519531 205.4375 273.253906 205.328125 272.988281 C 205.140625 272.550781 204.960938 272.136719 204.710938 271.730469 C 203.085938 269.097656 199.128906 269.625 198.191406 272.539062 C 198.085938 272.640625 197.984375 272.738281 197.929688 272.777344 C 198.011719 272.714844 198.09375 272.652344 198.171875 272.589844 C 198.171875 272.597656 198.164062 272.609375 198.164062 272.617188 C 197.320312 273.363281 196.777344 274.179688 196.375 275.359375 C 195.578125 277.722656 197.105469 280.347656 199.277344 281.265625 Z M 220.890625 342.589844 C 214.613281 339.296875 207.207031 338.238281 200.359375 340.851562 C 194.609375 343.050781 190.300781 348.851562 192.386719 355.160156 C 194.285156 360.910156 200.644531 363.875 206.207031 364.839844 C 211.5625 365.765625 217.960938 365.957031 223.289062 364.667969 C 229.230469 363.234375 233.917969 357.765625 231.992188 351.398438 C 230.421875 346.195312 225.8125 343.65625 220.890625 342.589844 Z M 400.640625 355.742188 C 396.050781 351.710938 387.339844 351.855469 381.535156 352.277344 C 375.097656 352.742188 366.039062 355.085938 363.871094 362.144531 C 363.492188 363.375 363.414062 364.632812 363.574219 365.859375 C 363.5625 366.652344 363.640625 367.472656 363.835938 368.3125 C 365.542969 375.707031 373.703125 378.109375 380.292969 378.621094 C 386.621094 379.113281 394.273438 378.332031 399.402344 374.257812 C 405.15625 369.6875 406.460938 360.859375 400.640625 355.742188 Z M 407.484375 476.394531 C 407.226562 474.566406 405.054688 473.25 403.351562 473.25 C 401.378906 473.25 399.84375 474.601562 399.214844 476.394531 C 397.953125 480.003906 396.070312 484.703125 398.125 488.261719 C 399.683594 490.96875 404 491.8125 406.1875 489.300781 C 407.351562 487.960938 408.035156 486.8125 408.152344 484.996094 C 408.207031 484.097656 408.140625 483.183594 408.121094 482.28125 C 408.082031 480.300781 407.761719 478.355469 407.484375 476.394531 Z M 420.644531 474.171875 C 420.292969 472.734375 418.773438 471.808594 417.351562 472.023438 C 415.8125 472.253906 414.859375 473.441406 414.746094 474.96875 C 414.574219 477.332031 413.800781 479.554688 414.175781 481.929688 C 414.636719 484.84375 419.46875 485.484375 420.675781 482.78125 C 421.914062 480 421.347656 477.039062 420.644531 474.171875 Z M 295.308594 103.789062 C 291.519531 104.527344 289.855469 108.164062 288.160156 111.234375 C 286.070312 115.011719 284.011719 118.890625 283 123.117188 C 282.863281 123.683594 282.734375 124.28125 282.628906 124.882812 C 281.878906 127.6875 281.585938 130.671875 283.492188 133.085938 C 284.683594 134.589844 286.546875 135.367188 288.4375 134.820312 C 290.292969 134.28125 291.472656 132.582031 292.609375 131.136719 C 297.167969 125.332031 300.0625 118.453125 301.003906 111.132812 C 301.230469 109.371094 301.503906 107.550781 300.554688 105.929688 C 299.5 104.125 297.273438 103.40625 295.308594 103.789062 Z M 273.886719 137.964844 C 271.53125 137.964844 269.351562 140.359375 268.417969 143.011719 C 267.328125 144.917969 266.964844 147.324219 267.105469 149.472656 C 267.257812 151.757812 268.703125 153.851562 271.167969 153.960938 C 273.570312 154.070312 275.222656 152.414062 276.144531 150.363281 C 277.117188 148.195312 277.9375 145.960938 277.929688 143.542969 C 277.917969 141.070312 276.882812 137.964844 273.886719 137.964844 Z M 273.886719 137.964844 " fill-opacity="0.33" fill-rule="nonzero"/><path fill="#000000" d="M 238.703125 314.523438 C 241.824219 323.675781 232.367188 331.441406 223.703125 328.285156 C 219.25 326.664062 215.957031 322.359375 216.238281 317.496094 C 216.40625 314.613281 217.808594 312.230469 219.867188 310.726562 C 221.980469 308.03125 225.375 306.351562 228.875 306.558594 C 233.53125 306.835938 237.234375 310.214844 238.703125 314.523438 Z M 361.679688 315.046875 C 359.480469 316.289062 357.667969 318.382812 356.789062 320.777344 C 354.53125 324.363281 355.273438 329.371094 358.234375 332.429688 C 363.832031 338.210938 374.847656 335.734375 376.878906 327.757812 C 379.011719 319.367188 369.78125 310.476562 361.679688 315.046875 Z M 316 320.046875 C 312.714844 325.53125 306.46875 329.222656 300.027344 329.136719 C 293.570312 329.046875 287.382812 324.9375 284.082031 319.511719 C 281.769531 315.707031 276.539062 319.027344 278.246094 322.921875 C 282.003906 331.46875 290.746094 336.90625 300.027344 337.167969 C 309.382812 337.429688 318.261719 332.117188 322.75 323.992188 C 325.179688 319.585938 318.585938 315.726562 316 320.050781 Z M 316 320.046875 " fill-opacity="1" fill-rule="nonzero"/></svg>